M48
; DRILL file {KiCad (5.1.6)-1} date 06/15/20 13:12:45
; FORMAT={-:-/ absolute / inch / decimal}
; #@! TF.CreationDate,2020-06-15T13:12:45+02:00
; #@! TF.GenerationSoftware,Kicad,Pcbnew,(5.1.6)-1
; #@! TF.FileFunction,Plated,1,2,PTH
FMAT,2
INCH
T1C0.0157
T2C0.0236
T3C0.0276
T4C0.0315
T5C0.0394
T6C0.0433
T7C0.0579
%
G90
G05
T1
X3.62Y-4.25
T2
X3.65Y-2.27
X3.7287Y-2.27
T3
X3.56Y-2.58
X3.56Y-2.88
X3.34Y-2.58
X3.34Y-2.88
X3.43Y-5.05
X3.73Y-5.05
X3.45Y-2.58
X3.45Y-2.88
T4
X3.68Y-2.58
X3.68Y-2.88
X4.01Y-3.41
X4.01Y-3.71
X5.51Y-1.91
X5.51Y-2.21
X4.01Y-1.91
X4.01Y-2.21
X3.81Y-2.58
X3.81Y-2.88
X5.51Y-2.67
X5.51Y-2.97
X6.26Y-4.56
X6.26Y-4.86
X5.51Y-4.16
X5.51Y-4.46
X6.26Y-2.67
X6.26Y-2.97
X6.26Y-1.91
X6.26Y-2.21
X3.48Y-4.75
X3.48Y-4.9469
X4.76Y-3.41
X4.76Y-3.71
X3.43Y-3.03
X3.43Y-3.13
X3.43Y-3.23
X3.43Y-3.33
X3.43Y-3.43
X3.43Y-3.53
X3.43Y-3.63
X3.43Y-3.73
X3.43Y-3.83
X3.43Y-3.93
X3.43Y-4.03
X3.43Y-4.13
X3.43Y-4.23
X3.43Y-4.33
X3.73Y-3.03
X3.73Y-3.13
X3.73Y-3.23
X3.73Y-3.33
X3.73Y-3.43
X3.73Y-3.53
X3.73Y-3.63
X3.73Y-3.73
X3.73Y-3.83
X3.73Y-3.93
X3.73Y-4.03
X3.73Y-4.13
X3.73Y-4.23
X3.73Y-4.33
X4.76Y-2.67
X4.76Y-2.97
X4.01Y-2.67
X4.01Y-2.97
X3.85Y-3.6316
X3.85Y-3.73
X6.26Y-3.41
X6.26Y-3.71
X4.01Y-4.68
X4.01Y-4.98
X5.51Y-4.68
X5.51Y-4.98
X3.48Y-4.59
X3.6721Y-4.59
X4.76Y-1.91
X4.76Y-2.21
X5.51Y-3.41
X5.51Y-3.71
X3.67Y-4.75
X3.67Y-4.9469
X3.32Y-3.63
X3.32Y-3.7284
X4.01Y-4.16
X4.01Y-4.46
X4.76Y-4.16
X4.76Y-4.46
T5
X3.24Y-3.95
X3.24Y-4.05
X3.24Y-4.15
X3.24Y-4.25
X3.24Y-4.35
X3.24Y-4.45
X3.41Y-2.39
X3.4104Y-2.19
T6
X3.65Y-5.175
X3.65Y-5.3522
X3.9059Y-5.175
X3.9059Y-5.3522
X3.26Y-5.175
X3.26Y-5.3522
X3.5159Y-5.175
X3.5159Y-5.3522
T7
X6.435Y-4.595
X6.535Y-4.845
X5.735Y-3.47
X5.985Y-3.37
X5.735Y-2.72
X5.985Y-2.62
X4.985Y-1.97
X5.235Y-1.87
X5.735Y-4.97
X5.985Y-4.87
X4.985Y-3.47
X5.235Y-3.37
X4.61Y-4.97
X4.86Y-4.87
X4.235Y-3.47
X4.485Y-3.37
X4.985Y-2.72
X5.235Y-2.62
X5.735Y-4.22
X5.985Y-4.12
X4.235Y-1.97
X4.485Y-1.87
X6.485Y-1.97
X6.735Y-1.87
X6.485Y-2.72
X6.735Y-2.62
X4.985Y-4.22
X5.235Y-4.12
X5.735Y-1.97
X5.985Y-1.87
X4.235Y-4.22
X4.485Y-4.12
X4.235Y-2.72
X4.485Y-2.62
X6.485Y-3.47
X6.735Y-3.37
T3
G00X3.4463Y-1.7453
M15
G01X3.4463Y-1.7925
M16
G05
G00X3.527Y-1.9677
M15
G01X3.527Y-1.9677
M16
G05
G00X3.5585Y-1.9205
M15
G01X3.5585Y-1.9205
M16
G05
G00X3.59Y-1.9677
M15
G01X3.59Y-1.9677
M16
G05
G00X3.6215Y-1.9205
M15
G01X3.6215Y-1.9205
M16
G05
G00X3.653Y-1.9677
M15
G01X3.653Y-1.9677
M16
G05
G00X3.7337Y-1.7453
M15
G01X3.7337Y-1.7925
M16
G05
T0
M30
