%TF.GenerationSoftware,KiCad,Pcbnew,(5.1.6)-1*%
%TF.CreationDate,2020-06-15T13:12:42+02:00*%
%TF.ProjectId,numpad,6e756d70-6164-42e6-9b69-6361645f7063,rev?*%
%TF.SameCoordinates,Original*%
%TF.FileFunction,Legend,Top*%
%TF.FilePolarity,Positive*%
%FSLAX46Y46*%
G04 Gerber Fmt 4.6, Leading zero omitted, Abs format (unit mm)*
G04 Created by KiCad (PCBNEW (5.1.6)-1) date 2020-06-15 13:12:43*
%MOMM*%
%LPD*%
G01*
G04 APERTURE LIST*
%ADD10C,0.200000*%
%ADD11C,0.120000*%
%ADD12C,0.150000*%
G04 APERTURE END LIST*
D10*
X83972476Y-112630000D02*
X83896285Y-112591904D01*
X83782000Y-112591904D01*
X83667714Y-112630000D01*
X83591523Y-112706190D01*
X83553428Y-112782380D01*
X83515333Y-112934761D01*
X83515333Y-113049047D01*
X83553428Y-113201428D01*
X83591523Y-113277619D01*
X83667714Y-113353809D01*
X83782000Y-113391904D01*
X83858190Y-113391904D01*
X83972476Y-113353809D01*
X84010571Y-113315714D01*
X84010571Y-113049047D01*
X83858190Y-113049047D01*
X84353428Y-113391904D02*
X84353428Y-112591904D01*
X84810571Y-113391904D01*
X84810571Y-112591904D01*
X85191523Y-113391904D02*
X85191523Y-112591904D01*
X85382000Y-112591904D01*
X85496285Y-112630000D01*
X85572476Y-112706190D01*
X85610571Y-112782380D01*
X85648666Y-112934761D01*
X85648666Y-113049047D01*
X85610571Y-113201428D01*
X85572476Y-113277619D01*
X85496285Y-113353809D01*
X85382000Y-113391904D01*
X85191523Y-113391904D01*
X84143904Y-111105904D02*
X83877238Y-110724952D01*
X83686761Y-111105904D02*
X83686761Y-110305904D01*
X83991523Y-110305904D01*
X84067714Y-110344000D01*
X84105809Y-110382095D01*
X84143904Y-110458285D01*
X84143904Y-110572571D01*
X84105809Y-110648761D01*
X84067714Y-110686857D01*
X83991523Y-110724952D01*
X83686761Y-110724952D01*
X84448666Y-111067809D02*
X84562952Y-111105904D01*
X84753428Y-111105904D01*
X84829619Y-111067809D01*
X84867714Y-111029714D01*
X84905809Y-110953523D01*
X84905809Y-110877333D01*
X84867714Y-110801142D01*
X84829619Y-110763047D01*
X84753428Y-110724952D01*
X84601047Y-110686857D01*
X84524857Y-110648761D01*
X84486761Y-110610666D01*
X84448666Y-110534476D01*
X84448666Y-110458285D01*
X84486761Y-110382095D01*
X84524857Y-110344000D01*
X84601047Y-110305904D01*
X84791523Y-110305904D01*
X84905809Y-110344000D01*
X85134380Y-110305904D02*
X85591523Y-110305904D01*
X85362952Y-111105904D02*
X85362952Y-110305904D01*
X83578857Y-108819904D02*
X83578857Y-108019904D01*
X83845523Y-108591333D01*
X84112190Y-108019904D01*
X84112190Y-108819904D01*
X84645523Y-108019904D02*
X84797904Y-108019904D01*
X84874095Y-108058000D01*
X84950285Y-108134190D01*
X84988380Y-108286571D01*
X84988380Y-108553238D01*
X84950285Y-108705619D01*
X84874095Y-108781809D01*
X84797904Y-108819904D01*
X84645523Y-108819904D01*
X84569333Y-108781809D01*
X84493142Y-108705619D01*
X84455047Y-108553238D01*
X84455047Y-108286571D01*
X84493142Y-108134190D01*
X84569333Y-108058000D01*
X84645523Y-108019904D01*
X85293142Y-108781809D02*
X85407428Y-108819904D01*
X85597904Y-108819904D01*
X85674095Y-108781809D01*
X85712190Y-108743714D01*
X85750285Y-108667523D01*
X85750285Y-108591333D01*
X85712190Y-108515142D01*
X85674095Y-108477047D01*
X85597904Y-108438952D01*
X85445523Y-108400857D01*
X85369333Y-108362761D01*
X85331238Y-108324666D01*
X85293142Y-108248476D01*
X85293142Y-108172285D01*
X85331238Y-108096095D01*
X85369333Y-108058000D01*
X85445523Y-108019904D01*
X85636000Y-108019904D01*
X85750285Y-108058000D01*
X86093142Y-108819904D02*
X86093142Y-108019904D01*
X83578857Y-106025904D02*
X83578857Y-105225904D01*
X83845523Y-105797333D01*
X84112190Y-105225904D01*
X84112190Y-106025904D01*
X84493142Y-106025904D02*
X84493142Y-105225904D01*
X84836000Y-105987809D02*
X84950285Y-106025904D01*
X85140761Y-106025904D01*
X85216952Y-105987809D01*
X85255047Y-105949714D01*
X85293142Y-105873523D01*
X85293142Y-105797333D01*
X85255047Y-105721142D01*
X85216952Y-105683047D01*
X85140761Y-105644952D01*
X84988380Y-105606857D01*
X84912190Y-105568761D01*
X84874095Y-105530666D01*
X84836000Y-105454476D01*
X84836000Y-105378285D01*
X84874095Y-105302095D01*
X84912190Y-105264000D01*
X84988380Y-105225904D01*
X85178857Y-105225904D01*
X85293142Y-105264000D01*
X85788380Y-105225904D02*
X85940761Y-105225904D01*
X86016952Y-105264000D01*
X86093142Y-105340190D01*
X86131238Y-105492571D01*
X86131238Y-105759238D01*
X86093142Y-105911619D01*
X86016952Y-105987809D01*
X85940761Y-106025904D01*
X85788380Y-106025904D01*
X85712190Y-105987809D01*
X85636000Y-105911619D01*
X85597904Y-105759238D01*
X85597904Y-105492571D01*
X85636000Y-105340190D01*
X85712190Y-105264000D01*
X85788380Y-105225904D01*
X83553428Y-103193809D02*
X83667714Y-103231904D01*
X83858190Y-103231904D01*
X83934380Y-103193809D01*
X83972476Y-103155714D01*
X84010571Y-103079523D01*
X84010571Y-103003333D01*
X83972476Y-102927142D01*
X83934380Y-102889047D01*
X83858190Y-102850952D01*
X83705809Y-102812857D01*
X83629619Y-102774761D01*
X83591523Y-102736666D01*
X83553428Y-102660476D01*
X83553428Y-102584285D01*
X83591523Y-102508095D01*
X83629619Y-102470000D01*
X83705809Y-102431904D01*
X83896285Y-102431904D01*
X84010571Y-102470000D01*
X84810571Y-103155714D02*
X84772476Y-103193809D01*
X84658190Y-103231904D01*
X84582000Y-103231904D01*
X84467714Y-103193809D01*
X84391523Y-103117619D01*
X84353428Y-103041428D01*
X84315333Y-102889047D01*
X84315333Y-102774761D01*
X84353428Y-102622380D01*
X84391523Y-102546190D01*
X84467714Y-102470000D01*
X84582000Y-102431904D01*
X84658190Y-102431904D01*
X84772476Y-102470000D01*
X84810571Y-102508095D01*
X85153428Y-103231904D02*
X85153428Y-102431904D01*
X85610571Y-103231904D02*
X85267714Y-102774761D01*
X85610571Y-102431904D02*
X85153428Y-102889047D01*
X83515333Y-99891904D02*
X83782000Y-100691904D01*
X84048666Y-99891904D01*
X84772476Y-100615714D02*
X84734380Y-100653809D01*
X84620095Y-100691904D01*
X84543904Y-100691904D01*
X84429619Y-100653809D01*
X84353428Y-100577619D01*
X84315333Y-100501428D01*
X84277238Y-100349047D01*
X84277238Y-100234761D01*
X84315333Y-100082380D01*
X84353428Y-100006190D01*
X84429619Y-99930000D01*
X84543904Y-99891904D01*
X84620095Y-99891904D01*
X84734380Y-99930000D01*
X84772476Y-99968095D01*
X85572476Y-100615714D02*
X85534380Y-100653809D01*
X85420095Y-100691904D01*
X85343904Y-100691904D01*
X85229619Y-100653809D01*
X85153428Y-100577619D01*
X85115333Y-100501428D01*
X85077238Y-100349047D01*
X85077238Y-100234761D01*
X85115333Y-100082380D01*
X85153428Y-100006190D01*
X85229619Y-99930000D01*
X85343904Y-99891904D01*
X85420095Y-99891904D01*
X85534380Y-99930000D01*
X85572476Y-99968095D01*
D11*
%TO.C,MCU1*%
X91932000Y-75632000D02*
G75*
G02*
X89932000Y-75632000I-1000000J0D01*
G01*
X89932000Y-75632000D02*
X88282000Y-75632000D01*
X88282000Y-75632000D02*
X88282000Y-111312000D01*
X88282000Y-111312000D02*
X93582000Y-111312000D01*
X93582000Y-111312000D02*
X93582000Y-75632000D01*
X93582000Y-75632000D02*
X91932000Y-75632000D01*
X85792000Y-75572000D02*
X85792000Y-111372000D01*
X85792000Y-111372000D02*
X96072000Y-111372000D01*
X96072000Y-111372000D02*
X96072000Y-75572000D01*
X96072000Y-75572000D02*
X85792000Y-75572000D01*
%TO.C,J2*%
X83626000Y-99000000D02*
X80966000Y-99000000D01*
X83626000Y-111760000D02*
X83626000Y-99000000D01*
X80966000Y-111760000D02*
X80966000Y-99000000D01*
X83626000Y-111760000D02*
X80966000Y-111760000D01*
X83626000Y-113030000D02*
X83626000Y-114360000D01*
X83626000Y-114360000D02*
X82296000Y-114360000D01*
%TO.C,XTAL1*%
X87632000Y-119111000D02*
X94032000Y-119111000D01*
X87632000Y-114061000D02*
X94032000Y-114061000D01*
X94032000Y-119111000D02*
G75*
G03*
X94032000Y-114061000I0J2525000D01*
G01*
X87632000Y-119111000D02*
G75*
G02*
X87632000Y-114061000I0J2525000D01*
G01*
D12*
%TO.C,USB1*%
X87336000Y-50180000D02*
X87336000Y-43180000D01*
X95036000Y-50180000D02*
X87336000Y-50180000D01*
X95036000Y-43180000D02*
X95036000Y-50180000D01*
D11*
%TO.C,SW2*%
X89554000Y-134445000D02*
X89554000Y-132945000D01*
X88304000Y-130445000D02*
X83804000Y-130445000D01*
X82554000Y-132945000D02*
X82554000Y-134445000D01*
X83804000Y-136945000D02*
X88304000Y-136945000D01*
%TO.C,SW1*%
X99460000Y-134445000D02*
X99460000Y-132945000D01*
X98210000Y-130445000D02*
X93710000Y-130445000D01*
X92460000Y-132945000D02*
X92460000Y-134445000D01*
X93710000Y-136945000D02*
X98210000Y-136945000D01*
%TO.C,R4*%
X93802000Y-128270000D02*
X92852000Y-128270000D01*
X88062000Y-128270000D02*
X89012000Y-128270000D01*
X92852000Y-127350000D02*
X89012000Y-127350000D01*
X92852000Y-129190000D02*
X92852000Y-127350000D01*
X89012000Y-129190000D02*
X92852000Y-129190000D01*
X89012000Y-127350000D02*
X89012000Y-129190000D01*
%TO.C,R3*%
X90424000Y-66472000D02*
X90424000Y-67422000D01*
X90424000Y-72212000D02*
X90424000Y-71262000D01*
X89504000Y-67422000D02*
X89504000Y-71262000D01*
X91344000Y-67422000D02*
X89504000Y-67422000D01*
X91344000Y-71262000D02*
X91344000Y-67422000D01*
X89504000Y-71262000D02*
X91344000Y-71262000D01*
%TO.C,R2*%
X87630000Y-66472000D02*
X87630000Y-67422000D01*
X87630000Y-72212000D02*
X87630000Y-71262000D01*
X86710000Y-67422000D02*
X86710000Y-71262000D01*
X88550000Y-67422000D02*
X86710000Y-67422000D01*
X88550000Y-71262000D02*
X88550000Y-67422000D01*
X86710000Y-71262000D02*
X88550000Y-71262000D01*
%TO.C,R1*%
X84836000Y-66472000D02*
X84836000Y-67422000D01*
X84836000Y-72212000D02*
X84836000Y-71262000D01*
X83916000Y-67422000D02*
X83916000Y-71262000D01*
X85756000Y-67422000D02*
X83916000Y-67422000D01*
X85756000Y-71262000D02*
X85756000Y-67422000D01*
X83916000Y-71262000D02*
X85756000Y-71262000D01*
%TO.C,F1*%
X88734000Y-53796000D02*
X88734000Y-62536000D01*
X88734000Y-53796000D02*
X84494000Y-53796000D01*
X84494000Y-62536000D02*
X88734000Y-62536000D01*
X84494000Y-62536000D02*
X84494000Y-53796000D01*
%TO.C,D20*%
X160124000Y-118114000D02*
X157884000Y-118114000D01*
X160124000Y-118354000D02*
X157884000Y-118354000D01*
X160124000Y-118234000D02*
X157884000Y-118234000D01*
X159004000Y-122404000D02*
X159004000Y-121754000D01*
X159004000Y-116864000D02*
X159004000Y-117514000D01*
X160124000Y-121754000D02*
X160124000Y-117514000D01*
X157884000Y-121754000D02*
X160124000Y-121754000D01*
X157884000Y-117514000D02*
X157884000Y-121754000D01*
X160124000Y-117514000D02*
X157884000Y-117514000D01*
%TO.C,D19*%
X141074000Y-121162000D02*
X138834000Y-121162000D01*
X141074000Y-121402000D02*
X138834000Y-121402000D01*
X141074000Y-121282000D02*
X138834000Y-121282000D01*
X139954000Y-125452000D02*
X139954000Y-124802000D01*
X139954000Y-119912000D02*
X139954000Y-120562000D01*
X141074000Y-124802000D02*
X141074000Y-120562000D01*
X138834000Y-124802000D02*
X141074000Y-124802000D01*
X138834000Y-120562000D02*
X138834000Y-124802000D01*
X141074000Y-120562000D02*
X138834000Y-120562000D01*
%TO.C,D18*%
X102974000Y-121162000D02*
X100734000Y-121162000D01*
X102974000Y-121402000D02*
X100734000Y-121402000D01*
X102974000Y-121282000D02*
X100734000Y-121282000D01*
X101854000Y-125452000D02*
X101854000Y-124802000D01*
X101854000Y-119912000D02*
X101854000Y-120562000D01*
X102974000Y-124802000D02*
X102974000Y-120562000D01*
X100734000Y-124802000D02*
X102974000Y-124802000D01*
X100734000Y-120562000D02*
X100734000Y-124802000D01*
X102974000Y-120562000D02*
X100734000Y-120562000D01*
%TO.C,D17*%
X138834000Y-110994000D02*
X141074000Y-110994000D01*
X138834000Y-110754000D02*
X141074000Y-110754000D01*
X138834000Y-110874000D02*
X141074000Y-110874000D01*
X139954000Y-106704000D02*
X139954000Y-107354000D01*
X139954000Y-112244000D02*
X139954000Y-111594000D01*
X138834000Y-107354000D02*
X138834000Y-111594000D01*
X141074000Y-107354000D02*
X138834000Y-107354000D01*
X141074000Y-111594000D02*
X141074000Y-107354000D01*
X138834000Y-111594000D02*
X141074000Y-111594000D01*
%TO.C,D16*%
X119784000Y-110994000D02*
X122024000Y-110994000D01*
X119784000Y-110754000D02*
X122024000Y-110754000D01*
X119784000Y-110874000D02*
X122024000Y-110874000D01*
X120904000Y-106704000D02*
X120904000Y-107354000D01*
X120904000Y-112244000D02*
X120904000Y-111594000D01*
X119784000Y-107354000D02*
X119784000Y-111594000D01*
X122024000Y-107354000D02*
X119784000Y-107354000D01*
X122024000Y-111594000D02*
X122024000Y-107354000D01*
X119784000Y-111594000D02*
X122024000Y-111594000D01*
%TO.C,D15*%
X100734000Y-110994000D02*
X102974000Y-110994000D01*
X100734000Y-110754000D02*
X102974000Y-110754000D01*
X100734000Y-110874000D02*
X102974000Y-110874000D01*
X101854000Y-106704000D02*
X101854000Y-107354000D01*
X101854000Y-112244000D02*
X101854000Y-111594000D01*
X100734000Y-107354000D02*
X100734000Y-111594000D01*
X102974000Y-107354000D02*
X100734000Y-107354000D01*
X102974000Y-111594000D02*
X102974000Y-107354000D01*
X100734000Y-111594000D02*
X102974000Y-111594000D01*
%TO.C,D14*%
X157884000Y-91944000D02*
X160124000Y-91944000D01*
X157884000Y-91704000D02*
X160124000Y-91704000D01*
X157884000Y-91824000D02*
X160124000Y-91824000D01*
X159004000Y-87654000D02*
X159004000Y-88304000D01*
X159004000Y-93194000D02*
X159004000Y-92544000D01*
X157884000Y-88304000D02*
X157884000Y-92544000D01*
X160124000Y-88304000D02*
X157884000Y-88304000D01*
X160124000Y-92544000D02*
X160124000Y-88304000D01*
X157884000Y-92544000D02*
X160124000Y-92544000D01*
%TO.C,D13*%
X138834000Y-91944000D02*
X141074000Y-91944000D01*
X138834000Y-91704000D02*
X141074000Y-91704000D01*
X138834000Y-91824000D02*
X141074000Y-91824000D01*
X139954000Y-87654000D02*
X139954000Y-88304000D01*
X139954000Y-93194000D02*
X139954000Y-92544000D01*
X138834000Y-88304000D02*
X138834000Y-92544000D01*
X141074000Y-88304000D02*
X138834000Y-88304000D01*
X141074000Y-92544000D02*
X141074000Y-88304000D01*
X138834000Y-92544000D02*
X141074000Y-92544000D01*
%TO.C,D12*%
X119784000Y-91944000D02*
X122024000Y-91944000D01*
X119784000Y-91704000D02*
X122024000Y-91704000D01*
X119784000Y-91824000D02*
X122024000Y-91824000D01*
X120904000Y-87654000D02*
X120904000Y-88304000D01*
X120904000Y-93194000D02*
X120904000Y-92544000D01*
X119784000Y-88304000D02*
X119784000Y-92544000D01*
X122024000Y-88304000D02*
X119784000Y-88304000D01*
X122024000Y-92544000D02*
X122024000Y-88304000D01*
X119784000Y-92544000D02*
X122024000Y-92544000D01*
%TO.C,D11*%
X100734000Y-91944000D02*
X102974000Y-91944000D01*
X100734000Y-91704000D02*
X102974000Y-91704000D01*
X100734000Y-91824000D02*
X102974000Y-91824000D01*
X101854000Y-87654000D02*
X101854000Y-88304000D01*
X101854000Y-93194000D02*
X101854000Y-92544000D01*
X100734000Y-88304000D02*
X100734000Y-92544000D01*
X102974000Y-88304000D02*
X100734000Y-88304000D01*
X102974000Y-92544000D02*
X102974000Y-88304000D01*
X100734000Y-92544000D02*
X102974000Y-92544000D01*
%TO.C,D10*%
X157884000Y-73148000D02*
X160124000Y-73148000D01*
X157884000Y-72908000D02*
X160124000Y-72908000D01*
X157884000Y-73028000D02*
X160124000Y-73028000D01*
X159004000Y-68858000D02*
X159004000Y-69508000D01*
X159004000Y-74398000D02*
X159004000Y-73748000D01*
X157884000Y-69508000D02*
X157884000Y-73748000D01*
X160124000Y-69508000D02*
X157884000Y-69508000D01*
X160124000Y-73748000D02*
X160124000Y-69508000D01*
X157884000Y-73748000D02*
X160124000Y-73748000D01*
%TO.C,D9*%
X138834000Y-73148000D02*
X141074000Y-73148000D01*
X138834000Y-72908000D02*
X141074000Y-72908000D01*
X138834000Y-73028000D02*
X141074000Y-73028000D01*
X139954000Y-68858000D02*
X139954000Y-69508000D01*
X139954000Y-74398000D02*
X139954000Y-73748000D01*
X138834000Y-69508000D02*
X138834000Y-73748000D01*
X141074000Y-69508000D02*
X138834000Y-69508000D01*
X141074000Y-73748000D02*
X141074000Y-69508000D01*
X138834000Y-73748000D02*
X141074000Y-73748000D01*
%TO.C,D8*%
X119784000Y-73148000D02*
X122024000Y-73148000D01*
X119784000Y-72908000D02*
X122024000Y-72908000D01*
X119784000Y-73028000D02*
X122024000Y-73028000D01*
X120904000Y-68858000D02*
X120904000Y-69508000D01*
X120904000Y-74398000D02*
X120904000Y-73748000D01*
X119784000Y-69508000D02*
X119784000Y-73748000D01*
X122024000Y-69508000D02*
X119784000Y-69508000D01*
X122024000Y-73748000D02*
X122024000Y-69508000D01*
X119784000Y-73748000D02*
X122024000Y-73748000D01*
%TO.C,D7*%
X100734000Y-73148000D02*
X102974000Y-73148000D01*
X100734000Y-72908000D02*
X102974000Y-72908000D01*
X100734000Y-73028000D02*
X102974000Y-73028000D01*
X101854000Y-68858000D02*
X101854000Y-69508000D01*
X101854000Y-74398000D02*
X101854000Y-73748000D01*
X100734000Y-69508000D02*
X100734000Y-73748000D01*
X102974000Y-69508000D02*
X100734000Y-69508000D01*
X102974000Y-73748000D02*
X102974000Y-69508000D01*
X100734000Y-73748000D02*
X102974000Y-73748000D01*
%TO.C,D6*%
X157884000Y-53844000D02*
X160124000Y-53844000D01*
X157884000Y-53604000D02*
X160124000Y-53604000D01*
X157884000Y-53724000D02*
X160124000Y-53724000D01*
X159004000Y-49554000D02*
X159004000Y-50204000D01*
X159004000Y-55094000D02*
X159004000Y-54444000D01*
X157884000Y-50204000D02*
X157884000Y-54444000D01*
X160124000Y-50204000D02*
X157884000Y-50204000D01*
X160124000Y-54444000D02*
X160124000Y-50204000D01*
X157884000Y-54444000D02*
X160124000Y-54444000D01*
%TO.C,D5*%
X138834000Y-53844000D02*
X141074000Y-53844000D01*
X138834000Y-53604000D02*
X141074000Y-53604000D01*
X138834000Y-53724000D02*
X141074000Y-53724000D01*
X139954000Y-49554000D02*
X139954000Y-50204000D01*
X139954000Y-55094000D02*
X139954000Y-54444000D01*
X138834000Y-50204000D02*
X138834000Y-54444000D01*
X141074000Y-50204000D02*
X138834000Y-50204000D01*
X141074000Y-54444000D02*
X141074000Y-50204000D01*
X138834000Y-54444000D02*
X141074000Y-54444000D01*
%TO.C,D4*%
X119784000Y-53844000D02*
X122024000Y-53844000D01*
X119784000Y-53604000D02*
X122024000Y-53604000D01*
X119784000Y-53724000D02*
X122024000Y-53724000D01*
X120904000Y-49554000D02*
X120904000Y-50204000D01*
X120904000Y-55094000D02*
X120904000Y-54444000D01*
X119784000Y-50204000D02*
X119784000Y-54444000D01*
X122024000Y-50204000D02*
X119784000Y-50204000D01*
X122024000Y-54444000D02*
X122024000Y-50204000D01*
X119784000Y-54444000D02*
X122024000Y-54444000D01*
%TO.C,D3*%
X100734000Y-53844000D02*
X102974000Y-53844000D01*
X100734000Y-53604000D02*
X102974000Y-53604000D01*
X100734000Y-53724000D02*
X102974000Y-53724000D01*
X101854000Y-49554000D02*
X101854000Y-50204000D01*
X101854000Y-55094000D02*
X101854000Y-54444000D01*
X100734000Y-50204000D02*
X100734000Y-54444000D01*
X102974000Y-50204000D02*
X100734000Y-50204000D01*
X102974000Y-54444000D02*
X102974000Y-50204000D01*
X100734000Y-54444000D02*
X102974000Y-54444000D01*
%TO.C,D2*%
X92352000Y-70862000D02*
X94592000Y-70862000D01*
X92352000Y-70622000D02*
X94592000Y-70622000D01*
X92352000Y-70742000D02*
X94592000Y-70742000D01*
X93472000Y-66572000D02*
X93472000Y-67222000D01*
X93472000Y-72112000D02*
X93472000Y-71462000D01*
X92352000Y-67222000D02*
X92352000Y-71462000D01*
X94592000Y-67222000D02*
X92352000Y-67222000D01*
X94592000Y-71462000D02*
X94592000Y-67222000D01*
X92352000Y-71462000D02*
X94592000Y-71462000D01*
%TO.C,D1*%
X95654000Y-70862000D02*
X97894000Y-70862000D01*
X95654000Y-70622000D02*
X97894000Y-70622000D01*
X95654000Y-70742000D02*
X97894000Y-70742000D01*
X96774000Y-66572000D02*
X96774000Y-67222000D01*
X96774000Y-72112000D02*
X96774000Y-71462000D01*
X95654000Y-67222000D02*
X95654000Y-71462000D01*
X97894000Y-67222000D02*
X95654000Y-67222000D01*
X97894000Y-71462000D02*
X97894000Y-67222000D01*
X95654000Y-71462000D02*
X97894000Y-71462000D01*
%TO.C,C5*%
X87337000Y-125770000D02*
X87022000Y-125770000D01*
X89762000Y-125770000D02*
X89447000Y-125770000D01*
X87337000Y-120530000D02*
X87022000Y-120530000D01*
X89762000Y-120530000D02*
X89447000Y-120530000D01*
X87022000Y-120530000D02*
X87022000Y-125770000D01*
X89762000Y-120530000D02*
X89762000Y-125770000D01*
%TO.C,C4*%
X92163000Y-125770000D02*
X91848000Y-125770000D01*
X94588000Y-125770000D02*
X94273000Y-125770000D01*
X92163000Y-120530000D02*
X91848000Y-120530000D01*
X94588000Y-120530000D02*
X94273000Y-120530000D01*
X91848000Y-120530000D02*
X91848000Y-125770000D01*
X94588000Y-120530000D02*
X94588000Y-125770000D01*
%TO.C,C3*%
X96420000Y-90872000D02*
X99160000Y-90872000D01*
X96420000Y-96112000D02*
X99160000Y-96112000D01*
X99160000Y-96112000D02*
X99160000Y-90872000D01*
X96420000Y-96112000D02*
X96420000Y-90872000D01*
%TO.C,C2*%
X85698000Y-96072000D02*
X82958000Y-96072000D01*
X85698000Y-90832000D02*
X82958000Y-90832000D01*
X82958000Y-90832000D02*
X82958000Y-96072000D01*
X85698000Y-90832000D02*
X85698000Y-96072000D01*
%TO.C,C1*%
X91640199Y-56263000D02*
X91640199Y-56663000D01*
X91440199Y-56463000D02*
X91840199Y-56463000D01*
X95791000Y-57288000D02*
X95791000Y-58028000D01*
X95751000Y-57121000D02*
X95751000Y-58195000D01*
X95711000Y-56994000D02*
X95711000Y-58322000D01*
X95671000Y-56890000D02*
X95671000Y-58426000D01*
X95631000Y-56799000D02*
X95631000Y-58517000D01*
X95591000Y-56718000D02*
X95591000Y-58598000D01*
X95551000Y-56645000D02*
X95551000Y-58671000D01*
X95511000Y-58498000D02*
X95511000Y-58738000D01*
X95511000Y-56578000D02*
X95511000Y-56818000D01*
X95471000Y-58498000D02*
X95471000Y-58800000D01*
X95471000Y-56516000D02*
X95471000Y-56818000D01*
X95431000Y-58498000D02*
X95431000Y-58858000D01*
X95431000Y-56458000D02*
X95431000Y-56818000D01*
X95391000Y-58498000D02*
X95391000Y-58912000D01*
X95391000Y-56404000D02*
X95391000Y-56818000D01*
X95351000Y-58498000D02*
X95351000Y-58962000D01*
X95351000Y-56354000D02*
X95351000Y-56818000D01*
X95311000Y-58498000D02*
X95311000Y-59009000D01*
X95311000Y-56307000D02*
X95311000Y-56818000D01*
X95271000Y-58498000D02*
X95271000Y-59054000D01*
X95271000Y-56262000D02*
X95271000Y-56818000D01*
X95231000Y-58498000D02*
X95231000Y-59096000D01*
X95231000Y-56220000D02*
X95231000Y-56818000D01*
X95191000Y-58498000D02*
X95191000Y-59136000D01*
X95191000Y-56180000D02*
X95191000Y-56818000D01*
X95151000Y-58498000D02*
X95151000Y-59174000D01*
X95151000Y-56142000D02*
X95151000Y-56818000D01*
X95111000Y-58498000D02*
X95111000Y-59210000D01*
X95111000Y-56106000D02*
X95111000Y-56818000D01*
X95071000Y-58498000D02*
X95071000Y-59245000D01*
X95071000Y-56071000D02*
X95071000Y-56818000D01*
X95031000Y-58498000D02*
X95031000Y-59277000D01*
X95031000Y-56039000D02*
X95031000Y-56818000D01*
X94991000Y-58498000D02*
X94991000Y-59308000D01*
X94991000Y-56008000D02*
X94991000Y-56818000D01*
X94951000Y-58498000D02*
X94951000Y-59338000D01*
X94951000Y-55978000D02*
X94951000Y-56818000D01*
X94911000Y-58498000D02*
X94911000Y-59366000D01*
X94911000Y-55950000D02*
X94911000Y-56818000D01*
X94871000Y-58498000D02*
X94871000Y-59393000D01*
X94871000Y-55923000D02*
X94871000Y-56818000D01*
X94831000Y-58498000D02*
X94831000Y-59418000D01*
X94831000Y-55898000D02*
X94831000Y-56818000D01*
X94791000Y-58498000D02*
X94791000Y-59443000D01*
X94791000Y-55873000D02*
X94791000Y-56818000D01*
X94751000Y-58498000D02*
X94751000Y-59466000D01*
X94751000Y-55850000D02*
X94751000Y-56818000D01*
X94711000Y-58498000D02*
X94711000Y-59488000D01*
X94711000Y-55828000D02*
X94711000Y-56818000D01*
X94671000Y-58498000D02*
X94671000Y-59509000D01*
X94671000Y-55807000D02*
X94671000Y-56818000D01*
X94631000Y-58498000D02*
X94631000Y-59528000D01*
X94631000Y-55788000D02*
X94631000Y-56818000D01*
X94591000Y-58498000D02*
X94591000Y-59547000D01*
X94591000Y-55769000D02*
X94591000Y-56818000D01*
X94551000Y-58498000D02*
X94551000Y-59565000D01*
X94551000Y-55751000D02*
X94551000Y-56818000D01*
X94511000Y-58498000D02*
X94511000Y-59582000D01*
X94511000Y-55734000D02*
X94511000Y-56818000D01*
X94471000Y-58498000D02*
X94471000Y-59598000D01*
X94471000Y-55718000D02*
X94471000Y-56818000D01*
X94431000Y-58498000D02*
X94431000Y-59612000D01*
X94431000Y-55704000D02*
X94431000Y-56818000D01*
X94390000Y-58498000D02*
X94390000Y-59626000D01*
X94390000Y-55690000D02*
X94390000Y-56818000D01*
X94350000Y-58498000D02*
X94350000Y-59640000D01*
X94350000Y-55676000D02*
X94350000Y-56818000D01*
X94310000Y-58498000D02*
X94310000Y-59652000D01*
X94310000Y-55664000D02*
X94310000Y-56818000D01*
X94270000Y-58498000D02*
X94270000Y-59663000D01*
X94270000Y-55653000D02*
X94270000Y-56818000D01*
X94230000Y-58498000D02*
X94230000Y-59674000D01*
X94230000Y-55642000D02*
X94230000Y-56818000D01*
X94190000Y-58498000D02*
X94190000Y-59683000D01*
X94190000Y-55633000D02*
X94190000Y-56818000D01*
X94150000Y-58498000D02*
X94150000Y-59692000D01*
X94150000Y-55624000D02*
X94150000Y-56818000D01*
X94110000Y-58498000D02*
X94110000Y-59700000D01*
X94110000Y-55616000D02*
X94110000Y-56818000D01*
X94070000Y-58498000D02*
X94070000Y-59708000D01*
X94070000Y-55608000D02*
X94070000Y-56818000D01*
X94030000Y-58498000D02*
X94030000Y-59714000D01*
X94030000Y-55602000D02*
X94030000Y-56818000D01*
X93990000Y-58498000D02*
X93990000Y-59720000D01*
X93990000Y-55596000D02*
X93990000Y-56818000D01*
X93950000Y-58498000D02*
X93950000Y-59725000D01*
X93950000Y-55591000D02*
X93950000Y-56818000D01*
X93910000Y-58498000D02*
X93910000Y-59729000D01*
X93910000Y-55587000D02*
X93910000Y-56818000D01*
X93870000Y-55584000D02*
X93870000Y-59732000D01*
X93830000Y-55581000D02*
X93830000Y-59735000D01*
X93790000Y-55579000D02*
X93790000Y-59737000D01*
X93750000Y-55578000D02*
X93750000Y-59738000D01*
X93710000Y-55578000D02*
X93710000Y-59738000D01*
X95830000Y-57658000D02*
G75*
G03*
X95830000Y-57658000I-2120000J0D01*
G01*
%TO.C,MCU1*%
D12*
X89098666Y-75084380D02*
X89098666Y-74084380D01*
X89432000Y-74798666D01*
X89765333Y-74084380D01*
X89765333Y-75084380D01*
X90812952Y-74989142D02*
X90765333Y-75036761D01*
X90622476Y-75084380D01*
X90527238Y-75084380D01*
X90384380Y-75036761D01*
X90289142Y-74941523D01*
X90241523Y-74846285D01*
X90193904Y-74655809D01*
X90193904Y-74512952D01*
X90241523Y-74322476D01*
X90289142Y-74227238D01*
X90384380Y-74132000D01*
X90527238Y-74084380D01*
X90622476Y-74084380D01*
X90765333Y-74132000D01*
X90812952Y-74179619D01*
X91241523Y-74084380D02*
X91241523Y-74893904D01*
X91289142Y-74989142D01*
X91336761Y-75036761D01*
X91432000Y-75084380D01*
X91622476Y-75084380D01*
X91717714Y-75036761D01*
X91765333Y-74989142D01*
X91812952Y-74893904D01*
X91812952Y-74084380D01*
X92812952Y-75084380D02*
X92241523Y-75084380D01*
X92527238Y-75084380D02*
X92527238Y-74084380D01*
X92432000Y-74227238D01*
X92336761Y-74322476D01*
X92241523Y-74370095D01*
%TO.C,J2*%
X81962666Y-114812380D02*
X81962666Y-115526666D01*
X81915047Y-115669523D01*
X81819809Y-115764761D01*
X81676952Y-115812380D01*
X81581714Y-115812380D01*
X82391238Y-114907619D02*
X82438857Y-114860000D01*
X82534095Y-114812380D01*
X82772190Y-114812380D01*
X82867428Y-114860000D01*
X82915047Y-114907619D01*
X82962666Y-115002857D01*
X82962666Y-115098095D01*
X82915047Y-115240952D01*
X82343619Y-115812380D01*
X82962666Y-115812380D01*
%TO.C,XTAL1*%
X88808190Y-112513380D02*
X89474857Y-113513380D01*
X89474857Y-112513380D02*
X88808190Y-113513380D01*
X89712952Y-112513380D02*
X90284380Y-112513380D01*
X89998666Y-113513380D02*
X89998666Y-112513380D01*
X90570095Y-113227666D02*
X91046285Y-113227666D01*
X90474857Y-113513380D02*
X90808190Y-112513380D01*
X91141523Y-113513380D01*
X91951047Y-113513380D02*
X91474857Y-113513380D01*
X91474857Y-112513380D01*
X92808190Y-113513380D02*
X92236761Y-113513380D01*
X92522476Y-113513380D02*
X92522476Y-112513380D01*
X92427238Y-112656238D01*
X92332000Y-112751476D01*
X92236761Y-112799095D01*
%TO.C,USB1*%
X89447904Y-45082380D02*
X89447904Y-45891904D01*
X89495523Y-45987142D01*
X89543142Y-46034761D01*
X89638380Y-46082380D01*
X89828857Y-46082380D01*
X89924095Y-46034761D01*
X89971714Y-45987142D01*
X90019333Y-45891904D01*
X90019333Y-45082380D01*
X90447904Y-46034761D02*
X90590761Y-46082380D01*
X90828857Y-46082380D01*
X90924095Y-46034761D01*
X90971714Y-45987142D01*
X91019333Y-45891904D01*
X91019333Y-45796666D01*
X90971714Y-45701428D01*
X90924095Y-45653809D01*
X90828857Y-45606190D01*
X90638380Y-45558571D01*
X90543142Y-45510952D01*
X90495523Y-45463333D01*
X90447904Y-45368095D01*
X90447904Y-45272857D01*
X90495523Y-45177619D01*
X90543142Y-45130000D01*
X90638380Y-45082380D01*
X90876476Y-45082380D01*
X91019333Y-45130000D01*
X91781238Y-45558571D02*
X91924095Y-45606190D01*
X91971714Y-45653809D01*
X92019333Y-45749047D01*
X92019333Y-45891904D01*
X91971714Y-45987142D01*
X91924095Y-46034761D01*
X91828857Y-46082380D01*
X91447904Y-46082380D01*
X91447904Y-45082380D01*
X91781238Y-45082380D01*
X91876476Y-45130000D01*
X91924095Y-45177619D01*
X91971714Y-45272857D01*
X91971714Y-45368095D01*
X91924095Y-45463333D01*
X91876476Y-45510952D01*
X91781238Y-45558571D01*
X91447904Y-45558571D01*
X92971714Y-46082380D02*
X92400285Y-46082380D01*
X92686000Y-46082380D02*
X92686000Y-45082380D01*
X92590761Y-45225238D01*
X92495523Y-45320476D01*
X92400285Y-45368095D01*
%TO.C,SW2*%
X85026666Y-138580761D02*
X85169523Y-138628380D01*
X85407619Y-138628380D01*
X85502857Y-138580761D01*
X85550476Y-138533142D01*
X85598095Y-138437904D01*
X85598095Y-138342666D01*
X85550476Y-138247428D01*
X85502857Y-138199809D01*
X85407619Y-138152190D01*
X85217142Y-138104571D01*
X85121904Y-138056952D01*
X85074285Y-138009333D01*
X85026666Y-137914095D01*
X85026666Y-137818857D01*
X85074285Y-137723619D01*
X85121904Y-137676000D01*
X85217142Y-137628380D01*
X85455238Y-137628380D01*
X85598095Y-137676000D01*
X85931428Y-137628380D02*
X86169523Y-138628380D01*
X86360000Y-137914095D01*
X86550476Y-138628380D01*
X86788571Y-137628380D01*
X87121904Y-137723619D02*
X87169523Y-137676000D01*
X87264761Y-137628380D01*
X87502857Y-137628380D01*
X87598095Y-137676000D01*
X87645714Y-137723619D01*
X87693333Y-137818857D01*
X87693333Y-137914095D01*
X87645714Y-138056952D01*
X87074285Y-138628380D01*
X87693333Y-138628380D01*
%TO.C,SW1*%
X94678666Y-138580761D02*
X94821523Y-138628380D01*
X95059619Y-138628380D01*
X95154857Y-138580761D01*
X95202476Y-138533142D01*
X95250095Y-138437904D01*
X95250095Y-138342666D01*
X95202476Y-138247428D01*
X95154857Y-138199809D01*
X95059619Y-138152190D01*
X94869142Y-138104571D01*
X94773904Y-138056952D01*
X94726285Y-138009333D01*
X94678666Y-137914095D01*
X94678666Y-137818857D01*
X94726285Y-137723619D01*
X94773904Y-137676000D01*
X94869142Y-137628380D01*
X95107238Y-137628380D01*
X95250095Y-137676000D01*
X95583428Y-137628380D02*
X95821523Y-138628380D01*
X96012000Y-137914095D01*
X96202476Y-138628380D01*
X96440571Y-137628380D01*
X97345333Y-138628380D02*
X96773904Y-138628380D01*
X97059619Y-138628380D02*
X97059619Y-137628380D01*
X96964380Y-137771238D01*
X96869142Y-137866476D01*
X96773904Y-137914095D01*
%TO.C,R4*%
X90765333Y-126802380D02*
X90432000Y-126326190D01*
X90193904Y-126802380D02*
X90193904Y-125802380D01*
X90574857Y-125802380D01*
X90670095Y-125850000D01*
X90717714Y-125897619D01*
X90765333Y-125992857D01*
X90765333Y-126135714D01*
X90717714Y-126230952D01*
X90670095Y-126278571D01*
X90574857Y-126326190D01*
X90193904Y-126326190D01*
X91622476Y-126135714D02*
X91622476Y-126802380D01*
X91384380Y-125754761D02*
X91146285Y-126469047D01*
X91765333Y-126469047D01*
%TO.C,R3*%
X88956380Y-69508666D02*
X88480190Y-69842000D01*
X88956380Y-70080095D02*
X87956380Y-70080095D01*
X87956380Y-69699142D01*
X88004000Y-69603904D01*
X88051619Y-69556285D01*
X88146857Y-69508666D01*
X88289714Y-69508666D01*
X88384952Y-69556285D01*
X88432571Y-69603904D01*
X88480190Y-69699142D01*
X88480190Y-70080095D01*
X87956380Y-69175333D02*
X87956380Y-68556285D01*
X88337333Y-68889619D01*
X88337333Y-68746761D01*
X88384952Y-68651523D01*
X88432571Y-68603904D01*
X88527809Y-68556285D01*
X88765904Y-68556285D01*
X88861142Y-68603904D01*
X88908761Y-68651523D01*
X88956380Y-68746761D01*
X88956380Y-69032476D01*
X88908761Y-69127714D01*
X88861142Y-69175333D01*
%TO.C,R2*%
X86162380Y-69508666D02*
X85686190Y-69842000D01*
X86162380Y-70080095D02*
X85162380Y-70080095D01*
X85162380Y-69699142D01*
X85210000Y-69603904D01*
X85257619Y-69556285D01*
X85352857Y-69508666D01*
X85495714Y-69508666D01*
X85590952Y-69556285D01*
X85638571Y-69603904D01*
X85686190Y-69699142D01*
X85686190Y-70080095D01*
X85257619Y-69127714D02*
X85210000Y-69080095D01*
X85162380Y-68984857D01*
X85162380Y-68746761D01*
X85210000Y-68651523D01*
X85257619Y-68603904D01*
X85352857Y-68556285D01*
X85448095Y-68556285D01*
X85590952Y-68603904D01*
X86162380Y-69175333D01*
X86162380Y-68556285D01*
%TO.C,R1*%
X83368380Y-69508666D02*
X82892190Y-69842000D01*
X83368380Y-70080095D02*
X82368380Y-70080095D01*
X82368380Y-69699142D01*
X82416000Y-69603904D01*
X82463619Y-69556285D01*
X82558857Y-69508666D01*
X82701714Y-69508666D01*
X82796952Y-69556285D01*
X82844571Y-69603904D01*
X82892190Y-69699142D01*
X82892190Y-70080095D01*
X83368380Y-68556285D02*
X83368380Y-69127714D01*
X83368380Y-68842000D02*
X82368380Y-68842000D01*
X82511238Y-68937238D01*
X82606476Y-69032476D01*
X82654095Y-69127714D01*
%TO.C,F1*%
X83592571Y-58389333D02*
X83592571Y-58722666D01*
X84116380Y-58722666D02*
X83116380Y-58722666D01*
X83116380Y-58246476D01*
X84116380Y-57341714D02*
X84116380Y-57913142D01*
X84116380Y-57627428D02*
X83116380Y-57627428D01*
X83259238Y-57722666D01*
X83354476Y-57817904D01*
X83402095Y-57913142D01*
%TO.C,D20*%
X161576380Y-120848285D02*
X160576380Y-120848285D01*
X160576380Y-120610190D01*
X160624000Y-120467333D01*
X160719238Y-120372095D01*
X160814476Y-120324476D01*
X161004952Y-120276857D01*
X161147809Y-120276857D01*
X161338285Y-120324476D01*
X161433523Y-120372095D01*
X161528761Y-120467333D01*
X161576380Y-120610190D01*
X161576380Y-120848285D01*
X160671619Y-119895904D02*
X160624000Y-119848285D01*
X160576380Y-119753047D01*
X160576380Y-119514952D01*
X160624000Y-119419714D01*
X160671619Y-119372095D01*
X160766857Y-119324476D01*
X160862095Y-119324476D01*
X161004952Y-119372095D01*
X161576380Y-119943523D01*
X161576380Y-119324476D01*
X160576380Y-118705428D02*
X160576380Y-118610190D01*
X160624000Y-118514952D01*
X160671619Y-118467333D01*
X160766857Y-118419714D01*
X160957333Y-118372095D01*
X161195428Y-118372095D01*
X161385904Y-118419714D01*
X161481142Y-118467333D01*
X161528761Y-118514952D01*
X161576380Y-118610190D01*
X161576380Y-118705428D01*
X161528761Y-118800666D01*
X161481142Y-118848285D01*
X161385904Y-118895904D01*
X161195428Y-118943523D01*
X160957333Y-118943523D01*
X160766857Y-118895904D01*
X160671619Y-118848285D01*
X160624000Y-118800666D01*
X160576380Y-118705428D01*
X161256380Y-116085904D02*
X160256380Y-116085904D01*
X161256380Y-115514476D02*
X160684952Y-115943047D01*
X160256380Y-115514476D02*
X160827809Y-116085904D01*
%TO.C,D19*%
X142526380Y-123896285D02*
X141526380Y-123896285D01*
X141526380Y-123658190D01*
X141574000Y-123515333D01*
X141669238Y-123420095D01*
X141764476Y-123372476D01*
X141954952Y-123324857D01*
X142097809Y-123324857D01*
X142288285Y-123372476D01*
X142383523Y-123420095D01*
X142478761Y-123515333D01*
X142526380Y-123658190D01*
X142526380Y-123896285D01*
X142526380Y-122372476D02*
X142526380Y-122943904D01*
X142526380Y-122658190D02*
X141526380Y-122658190D01*
X141669238Y-122753428D01*
X141764476Y-122848666D01*
X141812095Y-122943904D01*
X142526380Y-121896285D02*
X142526380Y-121705809D01*
X142478761Y-121610571D01*
X142431142Y-121562952D01*
X142288285Y-121467714D01*
X142097809Y-121420095D01*
X141716857Y-121420095D01*
X141621619Y-121467714D01*
X141574000Y-121515333D01*
X141526380Y-121610571D01*
X141526380Y-121801047D01*
X141574000Y-121896285D01*
X141621619Y-121943904D01*
X141716857Y-121991523D01*
X141954952Y-121991523D01*
X142050190Y-121943904D01*
X142097809Y-121896285D01*
X142145428Y-121801047D01*
X142145428Y-121610571D01*
X142097809Y-121515333D01*
X142050190Y-121467714D01*
X141954952Y-121420095D01*
X142206380Y-119133904D02*
X141206380Y-119133904D01*
X142206380Y-118562476D02*
X141634952Y-118991047D01*
X141206380Y-118562476D02*
X141777809Y-119133904D01*
%TO.C,D18*%
X104426380Y-123896285D02*
X103426380Y-123896285D01*
X103426380Y-123658190D01*
X103474000Y-123515333D01*
X103569238Y-123420095D01*
X103664476Y-123372476D01*
X103854952Y-123324857D01*
X103997809Y-123324857D01*
X104188285Y-123372476D01*
X104283523Y-123420095D01*
X104378761Y-123515333D01*
X104426380Y-123658190D01*
X104426380Y-123896285D01*
X104426380Y-122372476D02*
X104426380Y-122943904D01*
X104426380Y-122658190D02*
X103426380Y-122658190D01*
X103569238Y-122753428D01*
X103664476Y-122848666D01*
X103712095Y-122943904D01*
X103854952Y-121801047D02*
X103807333Y-121896285D01*
X103759714Y-121943904D01*
X103664476Y-121991523D01*
X103616857Y-121991523D01*
X103521619Y-121943904D01*
X103474000Y-121896285D01*
X103426380Y-121801047D01*
X103426380Y-121610571D01*
X103474000Y-121515333D01*
X103521619Y-121467714D01*
X103616857Y-121420095D01*
X103664476Y-121420095D01*
X103759714Y-121467714D01*
X103807333Y-121515333D01*
X103854952Y-121610571D01*
X103854952Y-121801047D01*
X103902571Y-121896285D01*
X103950190Y-121943904D01*
X104045428Y-121991523D01*
X104235904Y-121991523D01*
X104331142Y-121943904D01*
X104378761Y-121896285D01*
X104426380Y-121801047D01*
X104426380Y-121610571D01*
X104378761Y-121515333D01*
X104331142Y-121467714D01*
X104235904Y-121420095D01*
X104045428Y-121420095D01*
X103950190Y-121467714D01*
X103902571Y-121515333D01*
X103854952Y-121610571D01*
X104106380Y-119133904D02*
X103106380Y-119133904D01*
X104106380Y-118562476D02*
X103534952Y-118991047D01*
X103106380Y-118562476D02*
X103677809Y-119133904D01*
%TO.C,D17*%
X138286380Y-110688285D02*
X137286380Y-110688285D01*
X137286380Y-110450190D01*
X137334000Y-110307333D01*
X137429238Y-110212095D01*
X137524476Y-110164476D01*
X137714952Y-110116857D01*
X137857809Y-110116857D01*
X138048285Y-110164476D01*
X138143523Y-110212095D01*
X138238761Y-110307333D01*
X138286380Y-110450190D01*
X138286380Y-110688285D01*
X138286380Y-109164476D02*
X138286380Y-109735904D01*
X138286380Y-109450190D02*
X137286380Y-109450190D01*
X137429238Y-109545428D01*
X137524476Y-109640666D01*
X137572095Y-109735904D01*
X137286380Y-108831142D02*
X137286380Y-108164476D01*
X138286380Y-108593047D01*
X138606380Y-113545904D02*
X137606380Y-113545904D01*
X138606380Y-112974476D02*
X138034952Y-113403047D01*
X137606380Y-112974476D02*
X138177809Y-113545904D01*
%TO.C,D16*%
X119236380Y-110688285D02*
X118236380Y-110688285D01*
X118236380Y-110450190D01*
X118284000Y-110307333D01*
X118379238Y-110212095D01*
X118474476Y-110164476D01*
X118664952Y-110116857D01*
X118807809Y-110116857D01*
X118998285Y-110164476D01*
X119093523Y-110212095D01*
X119188761Y-110307333D01*
X119236380Y-110450190D01*
X119236380Y-110688285D01*
X119236380Y-109164476D02*
X119236380Y-109735904D01*
X119236380Y-109450190D02*
X118236380Y-109450190D01*
X118379238Y-109545428D01*
X118474476Y-109640666D01*
X118522095Y-109735904D01*
X118236380Y-108307333D02*
X118236380Y-108497809D01*
X118284000Y-108593047D01*
X118331619Y-108640666D01*
X118474476Y-108735904D01*
X118664952Y-108783523D01*
X119045904Y-108783523D01*
X119141142Y-108735904D01*
X119188761Y-108688285D01*
X119236380Y-108593047D01*
X119236380Y-108402571D01*
X119188761Y-108307333D01*
X119141142Y-108259714D01*
X119045904Y-108212095D01*
X118807809Y-108212095D01*
X118712571Y-108259714D01*
X118664952Y-108307333D01*
X118617333Y-108402571D01*
X118617333Y-108593047D01*
X118664952Y-108688285D01*
X118712571Y-108735904D01*
X118807809Y-108783523D01*
X119556380Y-113545904D02*
X118556380Y-113545904D01*
X119556380Y-112974476D02*
X118984952Y-113403047D01*
X118556380Y-112974476D02*
X119127809Y-113545904D01*
%TO.C,D15*%
X100186380Y-110688285D02*
X99186380Y-110688285D01*
X99186380Y-110450190D01*
X99234000Y-110307333D01*
X99329238Y-110212095D01*
X99424476Y-110164476D01*
X99614952Y-110116857D01*
X99757809Y-110116857D01*
X99948285Y-110164476D01*
X100043523Y-110212095D01*
X100138761Y-110307333D01*
X100186380Y-110450190D01*
X100186380Y-110688285D01*
X100186380Y-109164476D02*
X100186380Y-109735904D01*
X100186380Y-109450190D02*
X99186380Y-109450190D01*
X99329238Y-109545428D01*
X99424476Y-109640666D01*
X99472095Y-109735904D01*
X99186380Y-108259714D02*
X99186380Y-108735904D01*
X99662571Y-108783523D01*
X99614952Y-108735904D01*
X99567333Y-108640666D01*
X99567333Y-108402571D01*
X99614952Y-108307333D01*
X99662571Y-108259714D01*
X99757809Y-108212095D01*
X99995904Y-108212095D01*
X100091142Y-108259714D01*
X100138761Y-108307333D01*
X100186380Y-108402571D01*
X100186380Y-108640666D01*
X100138761Y-108735904D01*
X100091142Y-108783523D01*
X100506380Y-113545904D02*
X99506380Y-113545904D01*
X100506380Y-112974476D02*
X99934952Y-113403047D01*
X99506380Y-112974476D02*
X100077809Y-113545904D01*
%TO.C,D14*%
X157336380Y-91638285D02*
X156336380Y-91638285D01*
X156336380Y-91400190D01*
X156384000Y-91257333D01*
X156479238Y-91162095D01*
X156574476Y-91114476D01*
X156764952Y-91066857D01*
X156907809Y-91066857D01*
X157098285Y-91114476D01*
X157193523Y-91162095D01*
X157288761Y-91257333D01*
X157336380Y-91400190D01*
X157336380Y-91638285D01*
X157336380Y-90114476D02*
X157336380Y-90685904D01*
X157336380Y-90400190D02*
X156336380Y-90400190D01*
X156479238Y-90495428D01*
X156574476Y-90590666D01*
X156622095Y-90685904D01*
X156669714Y-89257333D02*
X157336380Y-89257333D01*
X156288761Y-89495428D02*
X157003047Y-89733523D01*
X157003047Y-89114476D01*
X157656380Y-94495904D02*
X156656380Y-94495904D01*
X157656380Y-93924476D02*
X157084952Y-94353047D01*
X156656380Y-93924476D02*
X157227809Y-94495904D01*
%TO.C,D13*%
X138286380Y-91638285D02*
X137286380Y-91638285D01*
X137286380Y-91400190D01*
X137334000Y-91257333D01*
X137429238Y-91162095D01*
X137524476Y-91114476D01*
X137714952Y-91066857D01*
X137857809Y-91066857D01*
X138048285Y-91114476D01*
X138143523Y-91162095D01*
X138238761Y-91257333D01*
X138286380Y-91400190D01*
X138286380Y-91638285D01*
X138286380Y-90114476D02*
X138286380Y-90685904D01*
X138286380Y-90400190D02*
X137286380Y-90400190D01*
X137429238Y-90495428D01*
X137524476Y-90590666D01*
X137572095Y-90685904D01*
X137286380Y-89781142D02*
X137286380Y-89162095D01*
X137667333Y-89495428D01*
X137667333Y-89352571D01*
X137714952Y-89257333D01*
X137762571Y-89209714D01*
X137857809Y-89162095D01*
X138095904Y-89162095D01*
X138191142Y-89209714D01*
X138238761Y-89257333D01*
X138286380Y-89352571D01*
X138286380Y-89638285D01*
X138238761Y-89733523D01*
X138191142Y-89781142D01*
X138606380Y-94495904D02*
X137606380Y-94495904D01*
X138606380Y-93924476D02*
X138034952Y-94353047D01*
X137606380Y-93924476D02*
X138177809Y-94495904D01*
%TO.C,D12*%
X119236380Y-91638285D02*
X118236380Y-91638285D01*
X118236380Y-91400190D01*
X118284000Y-91257333D01*
X118379238Y-91162095D01*
X118474476Y-91114476D01*
X118664952Y-91066857D01*
X118807809Y-91066857D01*
X118998285Y-91114476D01*
X119093523Y-91162095D01*
X119188761Y-91257333D01*
X119236380Y-91400190D01*
X119236380Y-91638285D01*
X119236380Y-90114476D02*
X119236380Y-90685904D01*
X119236380Y-90400190D02*
X118236380Y-90400190D01*
X118379238Y-90495428D01*
X118474476Y-90590666D01*
X118522095Y-90685904D01*
X118331619Y-89733523D02*
X118284000Y-89685904D01*
X118236380Y-89590666D01*
X118236380Y-89352571D01*
X118284000Y-89257333D01*
X118331619Y-89209714D01*
X118426857Y-89162095D01*
X118522095Y-89162095D01*
X118664952Y-89209714D01*
X119236380Y-89781142D01*
X119236380Y-89162095D01*
X119556380Y-94495904D02*
X118556380Y-94495904D01*
X119556380Y-93924476D02*
X118984952Y-94353047D01*
X118556380Y-93924476D02*
X119127809Y-94495904D01*
%TO.C,D11*%
X100186380Y-91638285D02*
X99186380Y-91638285D01*
X99186380Y-91400190D01*
X99234000Y-91257333D01*
X99329238Y-91162095D01*
X99424476Y-91114476D01*
X99614952Y-91066857D01*
X99757809Y-91066857D01*
X99948285Y-91114476D01*
X100043523Y-91162095D01*
X100138761Y-91257333D01*
X100186380Y-91400190D01*
X100186380Y-91638285D01*
X100186380Y-90114476D02*
X100186380Y-90685904D01*
X100186380Y-90400190D02*
X99186380Y-90400190D01*
X99329238Y-90495428D01*
X99424476Y-90590666D01*
X99472095Y-90685904D01*
X100186380Y-89162095D02*
X100186380Y-89733523D01*
X100186380Y-89447809D02*
X99186380Y-89447809D01*
X99329238Y-89543047D01*
X99424476Y-89638285D01*
X99472095Y-89733523D01*
X100506380Y-94495904D02*
X99506380Y-94495904D01*
X100506380Y-93924476D02*
X99934952Y-94353047D01*
X99506380Y-93924476D02*
X100077809Y-94495904D01*
%TO.C,D10*%
X157336380Y-72842285D02*
X156336380Y-72842285D01*
X156336380Y-72604190D01*
X156384000Y-72461333D01*
X156479238Y-72366095D01*
X156574476Y-72318476D01*
X156764952Y-72270857D01*
X156907809Y-72270857D01*
X157098285Y-72318476D01*
X157193523Y-72366095D01*
X157288761Y-72461333D01*
X157336380Y-72604190D01*
X157336380Y-72842285D01*
X157336380Y-71318476D02*
X157336380Y-71889904D01*
X157336380Y-71604190D02*
X156336380Y-71604190D01*
X156479238Y-71699428D01*
X156574476Y-71794666D01*
X156622095Y-71889904D01*
X156336380Y-70699428D02*
X156336380Y-70604190D01*
X156384000Y-70508952D01*
X156431619Y-70461333D01*
X156526857Y-70413714D01*
X156717333Y-70366095D01*
X156955428Y-70366095D01*
X157145904Y-70413714D01*
X157241142Y-70461333D01*
X157288761Y-70508952D01*
X157336380Y-70604190D01*
X157336380Y-70699428D01*
X157288761Y-70794666D01*
X157241142Y-70842285D01*
X157145904Y-70889904D01*
X156955428Y-70937523D01*
X156717333Y-70937523D01*
X156526857Y-70889904D01*
X156431619Y-70842285D01*
X156384000Y-70794666D01*
X156336380Y-70699428D01*
X157656380Y-75699904D02*
X156656380Y-75699904D01*
X157656380Y-75128476D02*
X157084952Y-75557047D01*
X156656380Y-75128476D02*
X157227809Y-75699904D01*
%TO.C,D9*%
X138286380Y-72366095D02*
X137286380Y-72366095D01*
X137286380Y-72128000D01*
X137334000Y-71985142D01*
X137429238Y-71889904D01*
X137524476Y-71842285D01*
X137714952Y-71794666D01*
X137857809Y-71794666D01*
X138048285Y-71842285D01*
X138143523Y-71889904D01*
X138238761Y-71985142D01*
X138286380Y-72128000D01*
X138286380Y-72366095D01*
X138286380Y-71318476D02*
X138286380Y-71128000D01*
X138238761Y-71032761D01*
X138191142Y-70985142D01*
X138048285Y-70889904D01*
X137857809Y-70842285D01*
X137476857Y-70842285D01*
X137381619Y-70889904D01*
X137334000Y-70937523D01*
X137286380Y-71032761D01*
X137286380Y-71223238D01*
X137334000Y-71318476D01*
X137381619Y-71366095D01*
X137476857Y-71413714D01*
X137714952Y-71413714D01*
X137810190Y-71366095D01*
X137857809Y-71318476D01*
X137905428Y-71223238D01*
X137905428Y-71032761D01*
X137857809Y-70937523D01*
X137810190Y-70889904D01*
X137714952Y-70842285D01*
X138606380Y-75699904D02*
X137606380Y-75699904D01*
X138606380Y-75128476D02*
X138034952Y-75557047D01*
X137606380Y-75128476D02*
X138177809Y-75699904D01*
%TO.C,D8*%
X119236380Y-72366095D02*
X118236380Y-72366095D01*
X118236380Y-72128000D01*
X118284000Y-71985142D01*
X118379238Y-71889904D01*
X118474476Y-71842285D01*
X118664952Y-71794666D01*
X118807809Y-71794666D01*
X118998285Y-71842285D01*
X119093523Y-71889904D01*
X119188761Y-71985142D01*
X119236380Y-72128000D01*
X119236380Y-72366095D01*
X118664952Y-71223238D02*
X118617333Y-71318476D01*
X118569714Y-71366095D01*
X118474476Y-71413714D01*
X118426857Y-71413714D01*
X118331619Y-71366095D01*
X118284000Y-71318476D01*
X118236380Y-71223238D01*
X118236380Y-71032761D01*
X118284000Y-70937523D01*
X118331619Y-70889904D01*
X118426857Y-70842285D01*
X118474476Y-70842285D01*
X118569714Y-70889904D01*
X118617333Y-70937523D01*
X118664952Y-71032761D01*
X118664952Y-71223238D01*
X118712571Y-71318476D01*
X118760190Y-71366095D01*
X118855428Y-71413714D01*
X119045904Y-71413714D01*
X119141142Y-71366095D01*
X119188761Y-71318476D01*
X119236380Y-71223238D01*
X119236380Y-71032761D01*
X119188761Y-70937523D01*
X119141142Y-70889904D01*
X119045904Y-70842285D01*
X118855428Y-70842285D01*
X118760190Y-70889904D01*
X118712571Y-70937523D01*
X118664952Y-71032761D01*
X119556380Y-75699904D02*
X118556380Y-75699904D01*
X119556380Y-75128476D02*
X118984952Y-75557047D01*
X118556380Y-75128476D02*
X119127809Y-75699904D01*
%TO.C,D7*%
X100186380Y-72366095D02*
X99186380Y-72366095D01*
X99186380Y-72128000D01*
X99234000Y-71985142D01*
X99329238Y-71889904D01*
X99424476Y-71842285D01*
X99614952Y-71794666D01*
X99757809Y-71794666D01*
X99948285Y-71842285D01*
X100043523Y-71889904D01*
X100138761Y-71985142D01*
X100186380Y-72128000D01*
X100186380Y-72366095D01*
X99186380Y-71461333D02*
X99186380Y-70794666D01*
X100186380Y-71223238D01*
X100506380Y-75699904D02*
X99506380Y-75699904D01*
X100506380Y-75128476D02*
X99934952Y-75557047D01*
X99506380Y-75128476D02*
X100077809Y-75699904D01*
%TO.C,D6*%
X157336380Y-53062095D02*
X156336380Y-53062095D01*
X156336380Y-52824000D01*
X156384000Y-52681142D01*
X156479238Y-52585904D01*
X156574476Y-52538285D01*
X156764952Y-52490666D01*
X156907809Y-52490666D01*
X157098285Y-52538285D01*
X157193523Y-52585904D01*
X157288761Y-52681142D01*
X157336380Y-52824000D01*
X157336380Y-53062095D01*
X156336380Y-51633523D02*
X156336380Y-51824000D01*
X156384000Y-51919238D01*
X156431619Y-51966857D01*
X156574476Y-52062095D01*
X156764952Y-52109714D01*
X157145904Y-52109714D01*
X157241142Y-52062095D01*
X157288761Y-52014476D01*
X157336380Y-51919238D01*
X157336380Y-51728761D01*
X157288761Y-51633523D01*
X157241142Y-51585904D01*
X157145904Y-51538285D01*
X156907809Y-51538285D01*
X156812571Y-51585904D01*
X156764952Y-51633523D01*
X156717333Y-51728761D01*
X156717333Y-51919238D01*
X156764952Y-52014476D01*
X156812571Y-52062095D01*
X156907809Y-52109714D01*
X157656380Y-56395904D02*
X156656380Y-56395904D01*
X157656380Y-55824476D02*
X157084952Y-56253047D01*
X156656380Y-55824476D02*
X157227809Y-56395904D01*
%TO.C,D5*%
X138286380Y-53062095D02*
X137286380Y-53062095D01*
X137286380Y-52824000D01*
X137334000Y-52681142D01*
X137429238Y-52585904D01*
X137524476Y-52538285D01*
X137714952Y-52490666D01*
X137857809Y-52490666D01*
X138048285Y-52538285D01*
X138143523Y-52585904D01*
X138238761Y-52681142D01*
X138286380Y-52824000D01*
X138286380Y-53062095D01*
X137286380Y-51585904D02*
X137286380Y-52062095D01*
X137762571Y-52109714D01*
X137714952Y-52062095D01*
X137667333Y-51966857D01*
X137667333Y-51728761D01*
X137714952Y-51633523D01*
X137762571Y-51585904D01*
X137857809Y-51538285D01*
X138095904Y-51538285D01*
X138191142Y-51585904D01*
X138238761Y-51633523D01*
X138286380Y-51728761D01*
X138286380Y-51966857D01*
X138238761Y-52062095D01*
X138191142Y-52109714D01*
X138606380Y-56395904D02*
X137606380Y-56395904D01*
X138606380Y-55824476D02*
X138034952Y-56253047D01*
X137606380Y-55824476D02*
X138177809Y-56395904D01*
%TO.C,D4*%
X119236380Y-53062095D02*
X118236380Y-53062095D01*
X118236380Y-52824000D01*
X118284000Y-52681142D01*
X118379238Y-52585904D01*
X118474476Y-52538285D01*
X118664952Y-52490666D01*
X118807809Y-52490666D01*
X118998285Y-52538285D01*
X119093523Y-52585904D01*
X119188761Y-52681142D01*
X119236380Y-52824000D01*
X119236380Y-53062095D01*
X118569714Y-51633523D02*
X119236380Y-51633523D01*
X118188761Y-51871619D02*
X118903047Y-52109714D01*
X118903047Y-51490666D01*
X119556380Y-56395904D02*
X118556380Y-56395904D01*
X119556380Y-55824476D02*
X118984952Y-56253047D01*
X118556380Y-55824476D02*
X119127809Y-56395904D01*
%TO.C,D3*%
X100186380Y-53062095D02*
X99186380Y-53062095D01*
X99186380Y-52824000D01*
X99234000Y-52681142D01*
X99329238Y-52585904D01*
X99424476Y-52538285D01*
X99614952Y-52490666D01*
X99757809Y-52490666D01*
X99948285Y-52538285D01*
X100043523Y-52585904D01*
X100138761Y-52681142D01*
X100186380Y-52824000D01*
X100186380Y-53062095D01*
X99186380Y-52157333D02*
X99186380Y-51538285D01*
X99567333Y-51871619D01*
X99567333Y-51728761D01*
X99614952Y-51633523D01*
X99662571Y-51585904D01*
X99757809Y-51538285D01*
X99995904Y-51538285D01*
X100091142Y-51585904D01*
X100138761Y-51633523D01*
X100186380Y-51728761D01*
X100186380Y-52014476D01*
X100138761Y-52109714D01*
X100091142Y-52157333D01*
X100506380Y-56395904D02*
X99506380Y-56395904D01*
X100506380Y-55824476D02*
X99934952Y-56253047D01*
X99506380Y-55824476D02*
X100077809Y-56395904D01*
%TO.C,D2*%
X91804380Y-70080095D02*
X90804380Y-70080095D01*
X90804380Y-69842000D01*
X90852000Y-69699142D01*
X90947238Y-69603904D01*
X91042476Y-69556285D01*
X91232952Y-69508666D01*
X91375809Y-69508666D01*
X91566285Y-69556285D01*
X91661523Y-69603904D01*
X91756761Y-69699142D01*
X91804380Y-69842000D01*
X91804380Y-70080095D01*
X90899619Y-69127714D02*
X90852000Y-69080095D01*
X90804380Y-68984857D01*
X90804380Y-68746761D01*
X90852000Y-68651523D01*
X90899619Y-68603904D01*
X90994857Y-68556285D01*
X91090095Y-68556285D01*
X91232952Y-68603904D01*
X91804380Y-69175333D01*
X91804380Y-68556285D01*
X92124380Y-73413904D02*
X91124380Y-73413904D01*
X92124380Y-72842476D02*
X91552952Y-73271047D01*
X91124380Y-72842476D02*
X91695809Y-73413904D01*
%TO.C,D1*%
X95106380Y-70080095D02*
X94106380Y-70080095D01*
X94106380Y-69842000D01*
X94154000Y-69699142D01*
X94249238Y-69603904D01*
X94344476Y-69556285D01*
X94534952Y-69508666D01*
X94677809Y-69508666D01*
X94868285Y-69556285D01*
X94963523Y-69603904D01*
X95058761Y-69699142D01*
X95106380Y-69842000D01*
X95106380Y-70080095D01*
X95106380Y-68556285D02*
X95106380Y-69127714D01*
X95106380Y-68842000D02*
X94106380Y-68842000D01*
X94249238Y-68937238D01*
X94344476Y-69032476D01*
X94392095Y-69127714D01*
X95426380Y-73413904D02*
X94426380Y-73413904D01*
X95426380Y-72842476D02*
X94854952Y-73271047D01*
X94426380Y-72842476D02*
X94997809Y-73413904D01*
%TO.C,C5*%
X91249142Y-123316666D02*
X91296761Y-123364285D01*
X91344380Y-123507142D01*
X91344380Y-123602380D01*
X91296761Y-123745238D01*
X91201523Y-123840476D01*
X91106285Y-123888095D01*
X90915809Y-123935714D01*
X90772952Y-123935714D01*
X90582476Y-123888095D01*
X90487238Y-123840476D01*
X90392000Y-123745238D01*
X90344380Y-123602380D01*
X90344380Y-123507142D01*
X90392000Y-123364285D01*
X90439619Y-123316666D01*
X90344380Y-122411904D02*
X90344380Y-122888095D01*
X90820571Y-122935714D01*
X90772952Y-122888095D01*
X90725333Y-122792857D01*
X90725333Y-122554761D01*
X90772952Y-122459523D01*
X90820571Y-122411904D01*
X90915809Y-122364285D01*
X91153904Y-122364285D01*
X91249142Y-122411904D01*
X91296761Y-122459523D01*
X91344380Y-122554761D01*
X91344380Y-122792857D01*
X91296761Y-122888095D01*
X91249142Y-122935714D01*
%TO.C,C4*%
X96075142Y-123316666D02*
X96122761Y-123364285D01*
X96170380Y-123507142D01*
X96170380Y-123602380D01*
X96122761Y-123745238D01*
X96027523Y-123840476D01*
X95932285Y-123888095D01*
X95741809Y-123935714D01*
X95598952Y-123935714D01*
X95408476Y-123888095D01*
X95313238Y-123840476D01*
X95218000Y-123745238D01*
X95170380Y-123602380D01*
X95170380Y-123507142D01*
X95218000Y-123364285D01*
X95265619Y-123316666D01*
X95503714Y-122459523D02*
X96170380Y-122459523D01*
X95122761Y-122697619D02*
X95837047Y-122935714D01*
X95837047Y-122316666D01*
%TO.C,C3*%
X95647142Y-93658666D02*
X95694761Y-93706285D01*
X95742380Y-93849142D01*
X95742380Y-93944380D01*
X95694761Y-94087238D01*
X95599523Y-94182476D01*
X95504285Y-94230095D01*
X95313809Y-94277714D01*
X95170952Y-94277714D01*
X94980476Y-94230095D01*
X94885238Y-94182476D01*
X94790000Y-94087238D01*
X94742380Y-93944380D01*
X94742380Y-93849142D01*
X94790000Y-93706285D01*
X94837619Y-93658666D01*
X94742380Y-93325333D02*
X94742380Y-92706285D01*
X95123333Y-93039619D01*
X95123333Y-92896761D01*
X95170952Y-92801523D01*
X95218571Y-92753904D01*
X95313809Y-92706285D01*
X95551904Y-92706285D01*
X95647142Y-92753904D01*
X95694761Y-92801523D01*
X95742380Y-92896761D01*
X95742380Y-93182476D01*
X95694761Y-93277714D01*
X95647142Y-93325333D01*
%TO.C,C2*%
X87185142Y-93618666D02*
X87232761Y-93666285D01*
X87280380Y-93809142D01*
X87280380Y-93904380D01*
X87232761Y-94047238D01*
X87137523Y-94142476D01*
X87042285Y-94190095D01*
X86851809Y-94237714D01*
X86708952Y-94237714D01*
X86518476Y-94190095D01*
X86423238Y-94142476D01*
X86328000Y-94047238D01*
X86280380Y-93904380D01*
X86280380Y-93809142D01*
X86328000Y-93666285D01*
X86375619Y-93618666D01*
X86375619Y-93237714D02*
X86328000Y-93190095D01*
X86280380Y-93094857D01*
X86280380Y-92856761D01*
X86328000Y-92761523D01*
X86375619Y-92713904D01*
X86470857Y-92666285D01*
X86566095Y-92666285D01*
X86708952Y-92713904D01*
X87280380Y-93285333D01*
X87280380Y-92666285D01*
%TO.C,C1*%
X93543333Y-54765142D02*
X93495714Y-54812761D01*
X93352857Y-54860380D01*
X93257619Y-54860380D01*
X93114761Y-54812761D01*
X93019523Y-54717523D01*
X92971904Y-54622285D01*
X92924285Y-54431809D01*
X92924285Y-54288952D01*
X92971904Y-54098476D01*
X93019523Y-54003238D01*
X93114761Y-53908000D01*
X93257619Y-53860380D01*
X93352857Y-53860380D01*
X93495714Y-53908000D01*
X93543333Y-53955619D01*
X94495714Y-54860380D02*
X93924285Y-54860380D01*
X94210000Y-54860380D02*
X94210000Y-53860380D01*
X94114761Y-54003238D01*
X94019523Y-54098476D01*
X93924285Y-54146095D01*
%TD*%
M02*
