M48
; DRILL file {KiCad (5.1.6)-1} date 06/15/20 13:12:45
; FORMAT={-:-/ absolute / inch / decimal}
; #@! TF.CreationDate,2020-06-15T13:12:45+02:00
; #@! TF.GenerationSoftware,Kicad,Pcbnew,(5.1.6)-1
; #@! TF.FileFunction,NonPlated,1,2,NPTH
FMAT,2
INCH
T1C0.0689
T2C0.1200
T3C0.1570
%
G90
G05
T1
X4.56Y-5.07
X4.96Y-5.07
X4.185Y-3.57
X4.585Y-3.57
X4.935Y-2.82
X5.335Y-2.82
X5.685Y-4.32
X6.085Y-4.32
X4.185Y-2.07
X4.585Y-2.07
X6.435Y-2.07
X6.835Y-2.07
X6.435Y-2.82
X6.835Y-2.82
X4.935Y-4.32
X5.335Y-4.32
X5.685Y-2.07
X6.085Y-2.07
X4.185Y-4.32
X4.585Y-4.32
X4.185Y-2.82
X4.585Y-2.82
X6.435Y-3.57
X6.835Y-3.57
X6.635Y-4.495
X6.635Y-4.895
X5.685Y-3.57
X6.085Y-3.57
X5.685Y-2.82
X6.085Y-2.82
X4.935Y-2.07
X5.335Y-2.07
X5.685Y-5.07
X6.085Y-5.07
X4.935Y-3.57
X5.335Y-3.57
T2
X6.36Y-4.2263
X6.36Y-5.1638
X4.2912Y-4.795
X5.2287Y-4.795
T3
X6.635Y-4.695
X6.96Y-4.2263
X6.96Y-5.1638
X5.885Y-3.57
X5.885Y-2.82
X5.135Y-2.07
X5.885Y-5.07
X5.135Y-3.57
X4.2912Y-5.395
X4.76Y-5.07
X5.2287Y-5.395
X4.385Y-3.57
X5.135Y-2.82
X5.885Y-4.32
X4.385Y-2.07
X6.635Y-2.07
X6.635Y-2.82
X5.135Y-4.32
X5.885Y-2.07
X4.385Y-4.32
X4.385Y-2.82
X6.635Y-3.57
T0
M30
