%TF.GenerationSoftware,KiCad,Pcbnew,(5.1.6)-1*%
%TF.CreationDate,2020-06-15T13:12:43+02:00*%
%TF.ProjectId,numpad,6e756d70-6164-42e6-9b69-6361645f7063,rev?*%
%TF.SameCoordinates,Original*%
%TF.FileFunction,Soldermask,Bot*%
%TF.FilePolarity,Negative*%
%FSLAX46Y46*%
G04 Gerber Fmt 4.6, Leading zero omitted, Abs format (unit mm)*
G04 Created by KiCad (PCBNEW (5.1.6)-1) date 2020-06-15 13:12:43*
%MOMM*%
%LPD*%
G01*
G04 APERTURE LIST*
%ADD10C,2.350000*%
%ADD11C,4.087800*%
%ADD12C,1.850000*%
%ADD13O,1.700000X1.700000*%
%ADD14R,1.700000X1.700000*%
%ADD15C,3.148000*%
%ADD16O,1.800000X1.800000*%
%ADD17R,1.800000X1.800000*%
%ADD18C,1.600000*%
%ADD19O,1.200000X1.750000*%
%ADD20O,1.800000X2.800000*%
%ADD21C,2.100000*%
%ADD22O,1.500000X1.500000*%
%ADD23C,1.500000*%
%ADD24C,1.700000*%
%ADD25C,1.300000*%
%ADD26R,1.300000X1.300000*%
G04 APERTURE END LIST*
D10*
%TO.C,MX5*%
X113919000Y-66548000D03*
D11*
X111379000Y-71628000D03*
D10*
X107569000Y-69088000D03*
D12*
X106299000Y-71628000D03*
X116459000Y-71628000D03*
%TD*%
D13*
%TO.C,MCU1*%
X94742000Y-76962000D03*
X87122000Y-109982000D03*
X94742000Y-79502000D03*
X87122000Y-107442000D03*
X94742000Y-82042000D03*
X87122000Y-104902000D03*
X94742000Y-84582000D03*
X87122000Y-102362000D03*
X94742000Y-87122000D03*
X87122000Y-99822000D03*
X94742000Y-89662000D03*
X87122000Y-97282000D03*
X94742000Y-92202000D03*
X87122000Y-94742000D03*
X94742000Y-94742000D03*
X87122000Y-92202000D03*
X94742000Y-97282000D03*
X87122000Y-89662000D03*
X94742000Y-99822000D03*
X87122000Y-87122000D03*
X94742000Y-102362000D03*
X87122000Y-84582000D03*
X94742000Y-104902000D03*
X87122000Y-82042000D03*
X94742000Y-107442000D03*
X87122000Y-79502000D03*
X94742000Y-109982000D03*
D14*
X87122000Y-76962000D03*
%TD*%
D10*
%TO.C,MX18*%
X163449000Y-116713000D03*
D11*
X168529000Y-119253000D03*
D10*
X165989000Y-123063000D03*
D12*
X168529000Y-124333000D03*
X168529000Y-114173000D03*
D15*
X161544000Y-131159250D03*
X161544000Y-107346750D03*
D11*
X176784000Y-131159250D03*
X176784000Y-107346750D03*
%TD*%
D10*
%TO.C,MX17*%
X152019000Y-123698000D03*
D11*
X149479000Y-128778000D03*
D10*
X145669000Y-126238000D03*
D12*
X144399000Y-128778000D03*
X154559000Y-128778000D03*
%TD*%
D10*
%TO.C,MX16*%
X123444000Y-123698000D03*
D11*
X120904000Y-128778000D03*
D10*
X117094000Y-126238000D03*
D12*
X115824000Y-128778000D03*
X125984000Y-128778000D03*
D15*
X108997750Y-121793000D03*
X132810250Y-121793000D03*
D11*
X108997750Y-137033000D03*
X132810250Y-137033000D03*
%TD*%
D10*
%TO.C,MX15*%
X152019000Y-104648000D03*
D11*
X149479000Y-109728000D03*
D10*
X145669000Y-107188000D03*
D12*
X144399000Y-109728000D03*
X154559000Y-109728000D03*
%TD*%
D10*
%TO.C,MX14*%
X132969000Y-104648000D03*
D11*
X130429000Y-109728000D03*
D10*
X126619000Y-107188000D03*
D12*
X125349000Y-109728000D03*
X135509000Y-109728000D03*
%TD*%
D10*
%TO.C,MX13*%
X113919000Y-104648000D03*
D11*
X111379000Y-109728000D03*
D10*
X107569000Y-107188000D03*
D12*
X106299000Y-109728000D03*
X116459000Y-109728000D03*
%TD*%
D10*
%TO.C,MX12*%
X171069000Y-85598000D03*
D11*
X168529000Y-90678000D03*
D10*
X164719000Y-88138000D03*
D12*
X163449000Y-90678000D03*
X173609000Y-90678000D03*
%TD*%
D10*
%TO.C,MX11*%
X152019000Y-85598000D03*
D11*
X149479000Y-90678000D03*
D10*
X145669000Y-88138000D03*
D12*
X144399000Y-90678000D03*
X154559000Y-90678000D03*
%TD*%
D10*
%TO.C,MX10*%
X132969000Y-85598000D03*
D11*
X130429000Y-90678000D03*
D10*
X126619000Y-88138000D03*
D12*
X125349000Y-90678000D03*
X135509000Y-90678000D03*
%TD*%
D10*
%TO.C,MX9*%
X113919000Y-85598000D03*
D11*
X111379000Y-90678000D03*
D10*
X107569000Y-88138000D03*
D12*
X106299000Y-90678000D03*
X116459000Y-90678000D03*
%TD*%
D10*
%TO.C,MX8*%
X171069000Y-66548000D03*
D11*
X168529000Y-71628000D03*
D10*
X164719000Y-69088000D03*
D12*
X163449000Y-71628000D03*
X173609000Y-71628000D03*
%TD*%
D10*
%TO.C,MX7*%
X152019000Y-66548000D03*
D11*
X149479000Y-71628000D03*
D10*
X145669000Y-69088000D03*
D12*
X144399000Y-71628000D03*
X154559000Y-71628000D03*
%TD*%
D10*
%TO.C,MX6*%
X132969000Y-66548000D03*
D11*
X130429000Y-71628000D03*
D10*
X126619000Y-69088000D03*
D12*
X125349000Y-71628000D03*
X135509000Y-71628000D03*
%TD*%
D10*
%TO.C,MX4*%
X171069000Y-47498000D03*
D11*
X168529000Y-52578000D03*
D10*
X164719000Y-50038000D03*
D12*
X163449000Y-52578000D03*
X173609000Y-52578000D03*
%TD*%
D10*
%TO.C,MX3*%
X152019000Y-47498000D03*
D11*
X149479000Y-52578000D03*
D10*
X145669000Y-50038000D03*
D12*
X144399000Y-52578000D03*
X154559000Y-52578000D03*
%TD*%
D10*
%TO.C,MX2*%
X132969000Y-47498000D03*
D11*
X130429000Y-52578000D03*
D10*
X126619000Y-50038000D03*
D12*
X125349000Y-52578000D03*
X135509000Y-52578000D03*
%TD*%
D10*
%TO.C,MX1*%
X113919000Y-47498000D03*
D11*
X111379000Y-52578000D03*
D10*
X107569000Y-50038000D03*
D12*
X106299000Y-52578000D03*
X116459000Y-52578000D03*
%TD*%
D16*
%TO.C,J2*%
X82296000Y-100330000D03*
X82296000Y-102870000D03*
X82296000Y-105410000D03*
X82296000Y-107950000D03*
X82296000Y-110490000D03*
D17*
X82296000Y-113030000D03*
%TD*%
D18*
%TO.C,XTAL1*%
X93272000Y-116586000D03*
X88392000Y-116586000D03*
%TD*%
D19*
%TO.C,USB1*%
X92786000Y-50230000D03*
X91986000Y-48530000D03*
X91186000Y-50230000D03*
X90386000Y-48530000D03*
X89586000Y-50230000D03*
D20*
X94836000Y-44930000D03*
X87536000Y-44930000D03*
%TD*%
D21*
%TO.C,SW2*%
X89304000Y-131445000D03*
X89304000Y-135945000D03*
X82804000Y-131445000D03*
X82804000Y-135945000D03*
%TD*%
%TO.C,SW1*%
X99210000Y-131445000D03*
X99210000Y-135945000D03*
X92710000Y-131445000D03*
X92710000Y-135945000D03*
%TD*%
D22*
%TO.C,R4*%
X94742000Y-128270000D03*
D23*
X87122000Y-128270000D03*
%TD*%
D22*
%TO.C,R3*%
X90424000Y-65532000D03*
D23*
X90424000Y-73152000D03*
%TD*%
D22*
%TO.C,R2*%
X87630000Y-65532000D03*
D23*
X87630000Y-73152000D03*
%TD*%
D22*
%TO.C,R1*%
X84836000Y-65532000D03*
D23*
X84836000Y-73152000D03*
%TD*%
D21*
%TO.C,F1*%
X86624000Y-55626000D03*
X86614000Y-60706000D03*
%TD*%
D13*
%TO.C,D20*%
X159004000Y-123444000D03*
D14*
X159004000Y-115824000D03*
%TD*%
D13*
%TO.C,D19*%
X139954000Y-126492000D03*
D14*
X139954000Y-118872000D03*
%TD*%
D13*
%TO.C,D18*%
X101854000Y-126492000D03*
D14*
X101854000Y-118872000D03*
%TD*%
D13*
%TO.C,D17*%
X139954000Y-105664000D03*
D14*
X139954000Y-113284000D03*
%TD*%
D13*
%TO.C,D16*%
X120904000Y-105664000D03*
D14*
X120904000Y-113284000D03*
%TD*%
D13*
%TO.C,D15*%
X101854000Y-105664000D03*
D14*
X101854000Y-113284000D03*
%TD*%
D13*
%TO.C,D14*%
X159004000Y-86614000D03*
D14*
X159004000Y-94234000D03*
%TD*%
D13*
%TO.C,D13*%
X139954000Y-86614000D03*
D14*
X139954000Y-94234000D03*
%TD*%
D13*
%TO.C,D12*%
X120904000Y-86614000D03*
D14*
X120904000Y-94234000D03*
%TD*%
D13*
%TO.C,D11*%
X101854000Y-86614000D03*
D14*
X101854000Y-94234000D03*
%TD*%
D13*
%TO.C,D10*%
X159004000Y-67818000D03*
D14*
X159004000Y-75438000D03*
%TD*%
D13*
%TO.C,D9*%
X139954000Y-67818000D03*
D14*
X139954000Y-75438000D03*
%TD*%
D13*
%TO.C,D8*%
X120904000Y-67818000D03*
D14*
X120904000Y-75438000D03*
%TD*%
D13*
%TO.C,D7*%
X101854000Y-67818000D03*
D14*
X101854000Y-75438000D03*
%TD*%
D13*
%TO.C,D6*%
X159004000Y-48514000D03*
D14*
X159004000Y-56134000D03*
%TD*%
D13*
%TO.C,D5*%
X139954000Y-48514000D03*
D14*
X139954000Y-56134000D03*
%TD*%
D13*
%TO.C,D4*%
X120904000Y-48514000D03*
D14*
X120904000Y-56134000D03*
%TD*%
D13*
%TO.C,D3*%
X101854000Y-48514000D03*
D14*
X101854000Y-56134000D03*
%TD*%
D13*
%TO.C,D2*%
X93472000Y-65532000D03*
D14*
X93472000Y-73152000D03*
%TD*%
D13*
%TO.C,D1*%
X96774000Y-65532000D03*
D14*
X96774000Y-73152000D03*
%TD*%
D24*
%TO.C,C5*%
X88392000Y-125650000D03*
X88392000Y-120650000D03*
%TD*%
%TO.C,C4*%
X93218000Y-125650000D03*
X93218000Y-120650000D03*
%TD*%
%TO.C,C3*%
X97790000Y-92242000D03*
X97790000Y-94742000D03*
%TD*%
%TO.C,C2*%
X84328000Y-94702000D03*
X84328000Y-92202000D03*
%TD*%
D25*
%TO.C,C1*%
X94710000Y-57658000D03*
D26*
X92710000Y-57658000D03*
%TD*%
M02*
