G04 #@! TF.GenerationSoftware,KiCad,Pcbnew,5.1.6-c6e7f7d~87~ubuntu18.04.1*
G04 #@! TF.CreationDate,2020-08-05T15:47:38+02:00*
G04 #@! TF.ProjectId,backplate,6261636b-706c-4617-9465-2e6b69636164,rev?*
G04 #@! TF.SameCoordinates,Original*
G04 #@! TF.FileFunction,Copper,L2,Bot*
G04 #@! TF.FilePolarity,Positive*
%FSLAX46Y46*%
G04 Gerber Fmt 4.6, Leading zero omitted, Abs format (unit mm)*
G04 Created by KiCad (PCBNEW 5.1.6-c6e7f7d~87~ubuntu18.04.1) date 2020-08-05 15:47:38*
%MOMM*%
%LPD*%
G01*
G04 APERTURE LIST*
G04 #@! TA.AperFunction,EtchedComponent*
%ADD10C,0.010000*%
G04 #@! TD*
G04 #@! TA.AperFunction,ComponentPad*
%ADD11C,3.000000*%
G04 #@! TD*
G04 #@! TA.AperFunction,NonConductor*
%ADD12C,0.254000*%
G04 #@! TD*
G04 APERTURE END LIST*
D10*
G04 #@! TO.C,G\u002A\u002A\u002A*
G36*
X128570825Y-52182900D02*
G01*
X126230680Y-52183586D01*
X123904813Y-52184910D01*
X121602287Y-52186871D01*
X119332162Y-52189470D01*
X117103499Y-52192707D01*
X114925362Y-52196582D01*
X112806810Y-52201094D01*
X110756906Y-52206244D01*
X108784711Y-52212032D01*
X106899287Y-52218458D01*
X105109696Y-52225521D01*
X103424998Y-52233222D01*
X101854256Y-52241561D01*
X100406530Y-52250538D01*
X99090883Y-52260152D01*
X97916376Y-52270404D01*
X96892071Y-52281294D01*
X96027029Y-52292821D01*
X95330312Y-52304987D01*
X94810981Y-52317790D01*
X94478098Y-52331230D01*
X94348605Y-52343136D01*
X93397379Y-52644682D01*
X92539513Y-53116073D01*
X91794434Y-53737881D01*
X91181572Y-54490675D01*
X90720356Y-55355027D01*
X90443137Y-56248604D01*
X90430676Y-56408838D01*
X90418719Y-56764225D01*
X90407265Y-57306719D01*
X90396314Y-58028276D01*
X90385867Y-58920848D01*
X90375923Y-59976390D01*
X90366482Y-61186857D01*
X90357545Y-62544202D01*
X90349111Y-64040379D01*
X90341181Y-65667343D01*
X90333753Y-67417048D01*
X90326830Y-69281448D01*
X90320409Y-71252497D01*
X90314492Y-73322149D01*
X90309078Y-75482359D01*
X90304168Y-77725080D01*
X90299761Y-80042267D01*
X90295857Y-82425873D01*
X90292457Y-84867853D01*
X90289560Y-87360162D01*
X90287166Y-89894752D01*
X90285276Y-92463579D01*
X90283889Y-95058597D01*
X90283006Y-97671759D01*
X90282626Y-100295020D01*
X90282749Y-102920334D01*
X90283376Y-105539655D01*
X90284506Y-108144937D01*
X90286139Y-110728134D01*
X90288276Y-113281201D01*
X90290916Y-115796092D01*
X90294059Y-118264760D01*
X90297706Y-120679160D01*
X90301856Y-123031247D01*
X90306510Y-125312973D01*
X90311666Y-127516294D01*
X90317327Y-129633163D01*
X90323490Y-131655535D01*
X90330157Y-133575364D01*
X90337328Y-135384603D01*
X90345001Y-137075208D01*
X90353178Y-138639132D01*
X90361859Y-140068329D01*
X90371042Y-141354753D01*
X90380730Y-142490360D01*
X90390920Y-143467102D01*
X90401614Y-144276933D01*
X90412811Y-144911809D01*
X90424512Y-145363683D01*
X90436716Y-145624510D01*
X90443137Y-145681395D01*
X90744683Y-146632621D01*
X91216074Y-147490487D01*
X91837882Y-148235566D01*
X92590676Y-148848428D01*
X93455028Y-149309644D01*
X94348605Y-149586863D01*
X94513782Y-149600352D01*
X94873037Y-149613214D01*
X95417324Y-149625449D01*
X96137597Y-149637058D01*
X97024809Y-149648041D01*
X98069913Y-149658399D01*
X99263861Y-149668132D01*
X100597608Y-149677242D01*
X102062107Y-149685728D01*
X103648310Y-149693592D01*
X105347171Y-149700833D01*
X107149642Y-149707453D01*
X109046678Y-149713451D01*
X111029232Y-149718830D01*
X113088256Y-149723588D01*
X115214703Y-149727727D01*
X117399528Y-149731248D01*
X119633682Y-149734150D01*
X121908120Y-149736436D01*
X124213795Y-149738104D01*
X126541659Y-149739156D01*
X128882666Y-149739592D01*
X131227769Y-149739413D01*
X133567921Y-149738620D01*
X135894075Y-149737212D01*
X138197185Y-149735192D01*
X140468204Y-149732558D01*
X142698085Y-149729312D01*
X144877781Y-149725455D01*
X146998245Y-149720987D01*
X149050431Y-149715908D01*
X151025292Y-149710220D01*
X152913780Y-149703922D01*
X154706850Y-149697016D01*
X156395453Y-149689501D01*
X157970545Y-149681380D01*
X159423076Y-149672651D01*
X160744002Y-149663316D01*
X161924274Y-149653375D01*
X162954847Y-149642829D01*
X163826673Y-149631678D01*
X164530706Y-149619924D01*
X165057898Y-149607566D01*
X165399204Y-149594606D01*
X165540850Y-149582239D01*
X166473919Y-149278739D01*
X167319604Y-148804316D01*
X168057065Y-148180038D01*
X168665464Y-147426978D01*
X169123961Y-146566204D01*
X169398864Y-145681395D01*
X169411325Y-145521161D01*
X169423282Y-145165774D01*
X169434736Y-144623280D01*
X169445687Y-143901723D01*
X169456134Y-143009151D01*
X169466078Y-141953609D01*
X169475519Y-140743142D01*
X169484456Y-139385797D01*
X169492890Y-137889620D01*
X169500820Y-136262656D01*
X169508248Y-134512951D01*
X169515171Y-132648551D01*
X169521592Y-130677502D01*
X169527509Y-128607850D01*
X169532923Y-126447640D01*
X169537833Y-124204919D01*
X169542240Y-121887732D01*
X169546144Y-119504126D01*
X169549544Y-117062146D01*
X169552441Y-114569837D01*
X169554835Y-112035247D01*
X169556725Y-109466420D01*
X169558112Y-106871402D01*
X169558995Y-104258240D01*
X169559375Y-101634979D01*
X169559252Y-99009665D01*
X169558625Y-96390344D01*
X169557495Y-93785062D01*
X169555862Y-91201865D01*
X169553725Y-88648798D01*
X169551085Y-86133907D01*
X169547942Y-83665239D01*
X169544295Y-81250839D01*
X169540145Y-78898752D01*
X169535491Y-76617026D01*
X169530335Y-74413705D01*
X169524674Y-72296836D01*
X169518511Y-70274464D01*
X169511844Y-68354635D01*
X169504673Y-66545396D01*
X169497000Y-64854791D01*
X169488823Y-63290867D01*
X169480142Y-61861670D01*
X169470959Y-60575246D01*
X169461271Y-59439639D01*
X169451081Y-58462897D01*
X169440387Y-57653066D01*
X169429190Y-57018190D01*
X169417489Y-56566316D01*
X169405581Y-56311800D01*
X168275000Y-56311800D01*
X168275000Y-145618200D01*
X167990571Y-146227800D01*
X167527381Y-146986470D01*
X166913228Y-147620071D01*
X166171104Y-148108555D01*
X165531800Y-148371639D01*
X165459654Y-148383650D01*
X165317542Y-148394896D01*
X165099930Y-148405397D01*
X164801282Y-148415167D01*
X164416065Y-148424225D01*
X163938741Y-148432587D01*
X163363777Y-148440271D01*
X162685637Y-148447294D01*
X161898786Y-148453672D01*
X160997689Y-148459423D01*
X159976810Y-148464564D01*
X158830615Y-148469112D01*
X157553568Y-148473084D01*
X156140135Y-148476497D01*
X154584779Y-148479368D01*
X152881966Y-148481714D01*
X151026161Y-148483552D01*
X149011828Y-148484900D01*
X146833432Y-148485774D01*
X144485439Y-148486192D01*
X141962313Y-148486170D01*
X139258518Y-148485725D01*
X136368520Y-148484875D01*
X133286784Y-148483637D01*
X130007774Y-148482028D01*
X129768600Y-148481901D01*
X94411800Y-148463000D01*
X93802200Y-148178675D01*
X93135914Y-147772962D01*
X92532009Y-147226045D01*
X92046029Y-146593230D01*
X91853645Y-146238424D01*
X91567000Y-145618200D01*
X91567000Y-56311800D01*
X91853645Y-55691575D01*
X92253684Y-55035507D01*
X92801377Y-54435734D01*
X93441182Y-53947562D01*
X93802200Y-53751324D01*
X94411800Y-53467000D01*
X165430200Y-53467000D01*
X166062394Y-53759015D01*
X166703419Y-54151163D01*
X167294749Y-54693040D01*
X167783739Y-55331199D01*
X168001098Y-55727331D01*
X168275000Y-56311800D01*
X169405581Y-56311800D01*
X169405285Y-56305489D01*
X169398864Y-56248604D01*
X169097318Y-55297378D01*
X168625927Y-54439512D01*
X168004119Y-53694433D01*
X167251325Y-53081571D01*
X166386973Y-52620355D01*
X165493396Y-52343136D01*
X165325839Y-52329154D01*
X164964144Y-52315810D01*
X164417374Y-52303104D01*
X163694589Y-52291035D01*
X162804852Y-52279604D01*
X161757223Y-52268811D01*
X160560765Y-52258655D01*
X159224538Y-52249138D01*
X157757605Y-52240258D01*
X156169027Y-52232015D01*
X154467866Y-52224411D01*
X152663182Y-52217444D01*
X150764039Y-52211115D01*
X148779496Y-52205424D01*
X146718616Y-52200370D01*
X144590461Y-52195954D01*
X142404091Y-52192176D01*
X140168569Y-52189036D01*
X137892956Y-52186533D01*
X135586314Y-52184668D01*
X133257703Y-52183441D01*
X130916186Y-52182852D01*
X128570825Y-52182900D01*
G37*
X128570825Y-52182900D02*
X126230680Y-52183586D01*
X123904813Y-52184910D01*
X121602287Y-52186871D01*
X119332162Y-52189470D01*
X117103499Y-52192707D01*
X114925362Y-52196582D01*
X112806810Y-52201094D01*
X110756906Y-52206244D01*
X108784711Y-52212032D01*
X106899287Y-52218458D01*
X105109696Y-52225521D01*
X103424998Y-52233222D01*
X101854256Y-52241561D01*
X100406530Y-52250538D01*
X99090883Y-52260152D01*
X97916376Y-52270404D01*
X96892071Y-52281294D01*
X96027029Y-52292821D01*
X95330312Y-52304987D01*
X94810981Y-52317790D01*
X94478098Y-52331230D01*
X94348605Y-52343136D01*
X93397379Y-52644682D01*
X92539513Y-53116073D01*
X91794434Y-53737881D01*
X91181572Y-54490675D01*
X90720356Y-55355027D01*
X90443137Y-56248604D01*
X90430676Y-56408838D01*
X90418719Y-56764225D01*
X90407265Y-57306719D01*
X90396314Y-58028276D01*
X90385867Y-58920848D01*
X90375923Y-59976390D01*
X90366482Y-61186857D01*
X90357545Y-62544202D01*
X90349111Y-64040379D01*
X90341181Y-65667343D01*
X90333753Y-67417048D01*
X90326830Y-69281448D01*
X90320409Y-71252497D01*
X90314492Y-73322149D01*
X90309078Y-75482359D01*
X90304168Y-77725080D01*
X90299761Y-80042267D01*
X90295857Y-82425873D01*
X90292457Y-84867853D01*
X90289560Y-87360162D01*
X90287166Y-89894752D01*
X90285276Y-92463579D01*
X90283889Y-95058597D01*
X90283006Y-97671759D01*
X90282626Y-100295020D01*
X90282749Y-102920334D01*
X90283376Y-105539655D01*
X90284506Y-108144937D01*
X90286139Y-110728134D01*
X90288276Y-113281201D01*
X90290916Y-115796092D01*
X90294059Y-118264760D01*
X90297706Y-120679160D01*
X90301856Y-123031247D01*
X90306510Y-125312973D01*
X90311666Y-127516294D01*
X90317327Y-129633163D01*
X90323490Y-131655535D01*
X90330157Y-133575364D01*
X90337328Y-135384603D01*
X90345001Y-137075208D01*
X90353178Y-138639132D01*
X90361859Y-140068329D01*
X90371042Y-141354753D01*
X90380730Y-142490360D01*
X90390920Y-143467102D01*
X90401614Y-144276933D01*
X90412811Y-144911809D01*
X90424512Y-145363683D01*
X90436716Y-145624510D01*
X90443137Y-145681395D01*
X90744683Y-146632621D01*
X91216074Y-147490487D01*
X91837882Y-148235566D01*
X92590676Y-148848428D01*
X93455028Y-149309644D01*
X94348605Y-149586863D01*
X94513782Y-149600352D01*
X94873037Y-149613214D01*
X95417324Y-149625449D01*
X96137597Y-149637058D01*
X97024809Y-149648041D01*
X98069913Y-149658399D01*
X99263861Y-149668132D01*
X100597608Y-149677242D01*
X102062107Y-149685728D01*
X103648310Y-149693592D01*
X105347171Y-149700833D01*
X107149642Y-149707453D01*
X109046678Y-149713451D01*
X111029232Y-149718830D01*
X113088256Y-149723588D01*
X115214703Y-149727727D01*
X117399528Y-149731248D01*
X119633682Y-149734150D01*
X121908120Y-149736436D01*
X124213795Y-149738104D01*
X126541659Y-149739156D01*
X128882666Y-149739592D01*
X131227769Y-149739413D01*
X133567921Y-149738620D01*
X135894075Y-149737212D01*
X138197185Y-149735192D01*
X140468204Y-149732558D01*
X142698085Y-149729312D01*
X144877781Y-149725455D01*
X146998245Y-149720987D01*
X149050431Y-149715908D01*
X151025292Y-149710220D01*
X152913780Y-149703922D01*
X154706850Y-149697016D01*
X156395453Y-149689501D01*
X157970545Y-149681380D01*
X159423076Y-149672651D01*
X160744002Y-149663316D01*
X161924274Y-149653375D01*
X162954847Y-149642829D01*
X163826673Y-149631678D01*
X164530706Y-149619924D01*
X165057898Y-149607566D01*
X165399204Y-149594606D01*
X165540850Y-149582239D01*
X166473919Y-149278739D01*
X167319604Y-148804316D01*
X168057065Y-148180038D01*
X168665464Y-147426978D01*
X169123961Y-146566204D01*
X169398864Y-145681395D01*
X169411325Y-145521161D01*
X169423282Y-145165774D01*
X169434736Y-144623280D01*
X169445687Y-143901723D01*
X169456134Y-143009151D01*
X169466078Y-141953609D01*
X169475519Y-140743142D01*
X169484456Y-139385797D01*
X169492890Y-137889620D01*
X169500820Y-136262656D01*
X169508248Y-134512951D01*
X169515171Y-132648551D01*
X169521592Y-130677502D01*
X169527509Y-128607850D01*
X169532923Y-126447640D01*
X169537833Y-124204919D01*
X169542240Y-121887732D01*
X169546144Y-119504126D01*
X169549544Y-117062146D01*
X169552441Y-114569837D01*
X169554835Y-112035247D01*
X169556725Y-109466420D01*
X169558112Y-106871402D01*
X169558995Y-104258240D01*
X169559375Y-101634979D01*
X169559252Y-99009665D01*
X169558625Y-96390344D01*
X169557495Y-93785062D01*
X169555862Y-91201865D01*
X169553725Y-88648798D01*
X169551085Y-86133907D01*
X169547942Y-83665239D01*
X169544295Y-81250839D01*
X169540145Y-78898752D01*
X169535491Y-76617026D01*
X169530335Y-74413705D01*
X169524674Y-72296836D01*
X169518511Y-70274464D01*
X169511844Y-68354635D01*
X169504673Y-66545396D01*
X169497000Y-64854791D01*
X169488823Y-63290867D01*
X169480142Y-61861670D01*
X169470959Y-60575246D01*
X169461271Y-59439639D01*
X169451081Y-58462897D01*
X169440387Y-57653066D01*
X169429190Y-57018190D01*
X169417489Y-56566316D01*
X169405581Y-56311800D01*
X168275000Y-56311800D01*
X168275000Y-145618200D01*
X167990571Y-146227800D01*
X167527381Y-146986470D01*
X166913228Y-147620071D01*
X166171104Y-148108555D01*
X165531800Y-148371639D01*
X165459654Y-148383650D01*
X165317542Y-148394896D01*
X165099930Y-148405397D01*
X164801282Y-148415167D01*
X164416065Y-148424225D01*
X163938741Y-148432587D01*
X163363777Y-148440271D01*
X162685637Y-148447294D01*
X161898786Y-148453672D01*
X160997689Y-148459423D01*
X159976810Y-148464564D01*
X158830615Y-148469112D01*
X157553568Y-148473084D01*
X156140135Y-148476497D01*
X154584779Y-148479368D01*
X152881966Y-148481714D01*
X151026161Y-148483552D01*
X149011828Y-148484900D01*
X146833432Y-148485774D01*
X144485439Y-148486192D01*
X141962313Y-148486170D01*
X139258518Y-148485725D01*
X136368520Y-148484875D01*
X133286784Y-148483637D01*
X130007774Y-148482028D01*
X129768600Y-148481901D01*
X94411800Y-148463000D01*
X93802200Y-148178675D01*
X93135914Y-147772962D01*
X92532009Y-147226045D01*
X92046029Y-146593230D01*
X91853645Y-146238424D01*
X91567000Y-145618200D01*
X91567000Y-56311800D01*
X91853645Y-55691575D01*
X92253684Y-55035507D01*
X92801377Y-54435734D01*
X93441182Y-53947562D01*
X93802200Y-53751324D01*
X94411800Y-53467000D01*
X165430200Y-53467000D01*
X166062394Y-53759015D01*
X166703419Y-54151163D01*
X167294749Y-54693040D01*
X167783739Y-55331199D01*
X168001098Y-55727331D01*
X168275000Y-56311800D01*
X169405581Y-56311800D01*
X169405285Y-56305489D01*
X169398864Y-56248604D01*
X169097318Y-55297378D01*
X168625927Y-54439512D01*
X168004119Y-53694433D01*
X167251325Y-53081571D01*
X166386973Y-52620355D01*
X165493396Y-52343136D01*
X165325839Y-52329154D01*
X164964144Y-52315810D01*
X164417374Y-52303104D01*
X163694589Y-52291035D01*
X162804852Y-52279604D01*
X161757223Y-52268811D01*
X160560765Y-52258655D01*
X159224538Y-52249138D01*
X157757605Y-52240258D01*
X156169027Y-52232015D01*
X154467866Y-52224411D01*
X152663182Y-52217444D01*
X150764039Y-52211115D01*
X148779496Y-52205424D01*
X146718616Y-52200370D01*
X144590461Y-52195954D01*
X142404091Y-52192176D01*
X140168569Y-52189036D01*
X137892956Y-52186533D01*
X135586314Y-52184668D01*
X133257703Y-52183441D01*
X130916186Y-52182852D01*
X128570825Y-52182900D01*
G36*
X149521785Y-118543463D02*
G01*
X148810008Y-118551069D01*
X148259933Y-118568542D01*
X147850813Y-118599804D01*
X147561905Y-118648781D01*
X147372463Y-118719394D01*
X147261745Y-118815569D01*
X147209004Y-118941228D01*
X147193496Y-119100295D01*
X147193000Y-119151400D01*
X147206444Y-119337539D01*
X147261993Y-119481617D01*
X147382476Y-119588959D01*
X147590723Y-119664889D01*
X147909561Y-119714732D01*
X148361821Y-119743814D01*
X148970329Y-119757459D01*
X149757916Y-119760993D01*
X149806407Y-119761000D01*
X151968200Y-119761000D01*
X151968200Y-122605800D01*
X150996321Y-122605800D01*
X150441822Y-122615566D01*
X150059279Y-122654003D01*
X149817999Y-122734818D01*
X149687289Y-122871721D01*
X149636456Y-123078418D01*
X149631400Y-123215400D01*
X149653267Y-123463049D01*
X149739329Y-123633901D01*
X149920279Y-123741661D01*
X150226809Y-123800039D01*
X150689613Y-123822742D01*
X150996321Y-123825000D01*
X151968200Y-123825000D01*
X151968200Y-126771400D01*
X149806407Y-126771400D01*
X149008411Y-126774535D01*
X148390736Y-126787493D01*
X147930554Y-126815596D01*
X147605035Y-126864172D01*
X147391353Y-126938544D01*
X147266677Y-127044037D01*
X147208179Y-127185977D01*
X147193030Y-127369688D01*
X147193000Y-127381000D01*
X147201796Y-127550133D01*
X147242010Y-127684758D01*
X147334389Y-127788800D01*
X147499677Y-127866181D01*
X147758619Y-127920825D01*
X148131959Y-127956656D01*
X148640441Y-127977597D01*
X149304811Y-127987573D01*
X150145813Y-127990506D01*
X150416007Y-127990600D01*
X153187400Y-127990600D01*
X153187400Y-118541800D01*
X150416007Y-118541800D01*
X149521785Y-118543463D01*
G37*
X149521785Y-118543463D02*
X148810008Y-118551069D01*
X148259933Y-118568542D01*
X147850813Y-118599804D01*
X147561905Y-118648781D01*
X147372463Y-118719394D01*
X147261745Y-118815569D01*
X147209004Y-118941228D01*
X147193496Y-119100295D01*
X147193000Y-119151400D01*
X147206444Y-119337539D01*
X147261993Y-119481617D01*
X147382476Y-119588959D01*
X147590723Y-119664889D01*
X147909561Y-119714732D01*
X148361821Y-119743814D01*
X148970329Y-119757459D01*
X149757916Y-119760993D01*
X149806407Y-119761000D01*
X151968200Y-119761000D01*
X151968200Y-122605800D01*
X150996321Y-122605800D01*
X150441822Y-122615566D01*
X150059279Y-122654003D01*
X149817999Y-122734818D01*
X149687289Y-122871721D01*
X149636456Y-123078418D01*
X149631400Y-123215400D01*
X149653267Y-123463049D01*
X149739329Y-123633901D01*
X149920279Y-123741661D01*
X150226809Y-123800039D01*
X150689613Y-123822742D01*
X150996321Y-123825000D01*
X151968200Y-123825000D01*
X151968200Y-126771400D01*
X149806407Y-126771400D01*
X149008411Y-126774535D01*
X148390736Y-126787493D01*
X147930554Y-126815596D01*
X147605035Y-126864172D01*
X147391353Y-126938544D01*
X147266677Y-127044037D01*
X147208179Y-127185977D01*
X147193030Y-127369688D01*
X147193000Y-127381000D01*
X147201796Y-127550133D01*
X147242010Y-127684758D01*
X147334389Y-127788800D01*
X147499677Y-127866181D01*
X147758619Y-127920825D01*
X148131959Y-127956656D01*
X148640441Y-127977597D01*
X149304811Y-127987573D01*
X150145813Y-127990506D01*
X150416007Y-127990600D01*
X153187400Y-127990600D01*
X153187400Y-118541800D01*
X150416007Y-118541800D01*
X149521785Y-118543463D01*
G36*
X143157527Y-119065712D02*
G01*
X142978971Y-119126816D01*
X142844655Y-119246276D01*
X142748362Y-119442364D01*
X142683876Y-119733354D01*
X142644981Y-120137519D01*
X142625461Y-120673131D01*
X142619099Y-121358465D01*
X142619679Y-122211793D01*
X142621000Y-123164600D01*
X142621000Y-126873000D01*
X141930121Y-126873000D01*
X141480316Y-126892604D01*
X141197287Y-126963991D01*
X141047293Y-127106025D01*
X140996594Y-127337566D01*
X140995400Y-127395558D01*
X141014412Y-127591093D01*
X141087604Y-127739027D01*
X141239215Y-127845812D01*
X141493481Y-127917902D01*
X141874640Y-127961747D01*
X142406929Y-127983801D01*
X143114586Y-127990516D01*
X143230600Y-127990600D01*
X143906252Y-127987412D01*
X144408382Y-127976297D01*
X144766595Y-127954924D01*
X145010492Y-127920963D01*
X145169675Y-127872084D01*
X145239994Y-127832438D01*
X145407618Y-127617378D01*
X145466658Y-127337289D01*
X145407176Y-127080462D01*
X145334565Y-126992164D01*
X145171670Y-126933141D01*
X144870705Y-126883056D01*
X144496793Y-126852743D01*
X144496365Y-126852724D01*
X143789400Y-126822200D01*
X143789400Y-120218200D01*
X144500600Y-120167400D01*
X144952912Y-120124776D01*
X145238710Y-120062282D01*
X145394685Y-119960601D01*
X145457521Y-119800415D01*
X145465800Y-119659164D01*
X145425544Y-119411221D01*
X145287626Y-119237160D01*
X145026325Y-119126135D01*
X144615918Y-119067298D01*
X144030683Y-119049803D01*
X144020794Y-119049800D01*
X143672222Y-119045476D01*
X143386538Y-119044689D01*
X143157527Y-119065712D01*
G37*
X143157527Y-119065712D02*
X142978971Y-119126816D01*
X142844655Y-119246276D01*
X142748362Y-119442364D01*
X142683876Y-119733354D01*
X142644981Y-120137519D01*
X142625461Y-120673131D01*
X142619099Y-121358465D01*
X142619679Y-122211793D01*
X142621000Y-123164600D01*
X142621000Y-126873000D01*
X141930121Y-126873000D01*
X141480316Y-126892604D01*
X141197287Y-126963991D01*
X141047293Y-127106025D01*
X140996594Y-127337566D01*
X140995400Y-127395558D01*
X141014412Y-127591093D01*
X141087604Y-127739027D01*
X141239215Y-127845812D01*
X141493481Y-127917902D01*
X141874640Y-127961747D01*
X142406929Y-127983801D01*
X143114586Y-127990516D01*
X143230600Y-127990600D01*
X143906252Y-127987412D01*
X144408382Y-127976297D01*
X144766595Y-127954924D01*
X145010492Y-127920963D01*
X145169675Y-127872084D01*
X145239994Y-127832438D01*
X145407618Y-127617378D01*
X145466658Y-127337289D01*
X145407176Y-127080462D01*
X145334565Y-126992164D01*
X145171670Y-126933141D01*
X144870705Y-126883056D01*
X144496793Y-126852743D01*
X144496365Y-126852724D01*
X143789400Y-126822200D01*
X143789400Y-120218200D01*
X144500600Y-120167400D01*
X144952912Y-120124776D01*
X145238710Y-120062282D01*
X145394685Y-119960601D01*
X145457521Y-119800415D01*
X145465800Y-119659164D01*
X145425544Y-119411221D01*
X145287626Y-119237160D01*
X145026325Y-119126135D01*
X144615918Y-119067298D01*
X144030683Y-119049803D01*
X144020794Y-119049800D01*
X143672222Y-119045476D01*
X143386538Y-119044689D01*
X143157527Y-119065712D01*
G36*
X138119070Y-121465231D02*
G01*
X137964936Y-121594384D01*
X137771355Y-121802168D01*
X137397847Y-121581793D01*
X136943117Y-121420253D01*
X136475566Y-121459587D01*
X136023212Y-121686977D01*
X135726554Y-121898216D01*
X135338377Y-121633177D01*
X134877574Y-121427514D01*
X134409300Y-121417345D01*
X133967116Y-121599585D01*
X133748643Y-121779265D01*
X133614594Y-121921961D01*
X133522577Y-122061523D01*
X133461446Y-122241504D01*
X133420057Y-122505456D01*
X133387265Y-122896930D01*
X133362308Y-123288952D01*
X133334622Y-123847483D01*
X133310535Y-124530103D01*
X133292338Y-125257704D01*
X133282323Y-125951179D01*
X133281506Y-126078342D01*
X133281694Y-126703477D01*
X133291024Y-127156418D01*
X133312176Y-127468067D01*
X133347829Y-127669327D01*
X133400662Y-127791101D01*
X133433458Y-127830942D01*
X133702900Y-127977643D01*
X134006149Y-127929357D01*
X134137994Y-127850329D01*
X134199928Y-127789792D01*
X134248967Y-127692561D01*
X134287910Y-127533160D01*
X134319556Y-127286107D01*
X134346703Y-126925926D01*
X134372151Y-126427136D01*
X134398700Y-125764258D01*
X134414243Y-125335729D01*
X134440051Y-124656606D01*
X134466554Y-124042321D01*
X134492194Y-123523030D01*
X134515414Y-123128890D01*
X134534656Y-122890058D01*
X134543442Y-122834400D01*
X134668547Y-122714955D01*
X134872976Y-122738342D01*
X135107386Y-122890115D01*
X135243929Y-123039453D01*
X135327756Y-123155273D01*
X135391159Y-123272824D01*
X135437487Y-123421517D01*
X135470091Y-123630760D01*
X135492324Y-123929964D01*
X135507534Y-124348537D01*
X135519074Y-124915890D01*
X135528499Y-125537012D01*
X135540084Y-126257258D01*
X135552995Y-126801356D01*
X135569907Y-127196353D01*
X135593498Y-127469296D01*
X135626443Y-127647232D01*
X135671419Y-127757208D01*
X135731101Y-127826271D01*
X135757019Y-127846558D01*
X136069202Y-127980441D01*
X136356011Y-127918506D01*
X136466943Y-127830942D01*
X136519320Y-127752696D01*
X136559137Y-127619552D01*
X136588014Y-127406305D01*
X136607576Y-127087754D01*
X136619443Y-126638693D01*
X136625237Y-126033921D01*
X136626600Y-125350052D01*
X136629213Y-124676026D01*
X136636534Y-124064716D01*
X136647791Y-123547264D01*
X136662209Y-123154814D01*
X136679015Y-122918508D01*
X136688271Y-122868109D01*
X136827265Y-122724920D01*
X137064458Y-122756706D01*
X137396009Y-122962719D01*
X137467052Y-123019596D01*
X137845800Y-123331793D01*
X137845800Y-125501539D01*
X137847780Y-126237965D01*
X137854910Y-126797341D01*
X137868983Y-127205790D01*
X137891789Y-127489435D01*
X137925117Y-127674398D01*
X137970760Y-127786801D01*
X138005458Y-127830942D01*
X138274451Y-127977608D01*
X138578218Y-127928651D01*
X138715382Y-127846390D01*
X138771837Y-127795984D01*
X138816368Y-127721692D01*
X138850385Y-127600950D01*
X138875297Y-127411196D01*
X138892513Y-127129866D01*
X138903442Y-126734397D01*
X138909493Y-126202227D01*
X138912076Y-125510791D01*
X138912600Y-124688600D01*
X138912003Y-123825511D01*
X138909272Y-123143057D01*
X138902998Y-122618677D01*
X138891772Y-122229805D01*
X138874185Y-121953880D01*
X138848827Y-121768338D01*
X138814290Y-121650616D01*
X138769164Y-121578151D01*
X138715382Y-121530809D01*
X138406094Y-121397055D01*
X138119070Y-121465231D01*
G37*
X138119070Y-121465231D02*
X137964936Y-121594384D01*
X137771355Y-121802168D01*
X137397847Y-121581793D01*
X136943117Y-121420253D01*
X136475566Y-121459587D01*
X136023212Y-121686977D01*
X135726554Y-121898216D01*
X135338377Y-121633177D01*
X134877574Y-121427514D01*
X134409300Y-121417345D01*
X133967116Y-121599585D01*
X133748643Y-121779265D01*
X133614594Y-121921961D01*
X133522577Y-122061523D01*
X133461446Y-122241504D01*
X133420057Y-122505456D01*
X133387265Y-122896930D01*
X133362308Y-123288952D01*
X133334622Y-123847483D01*
X133310535Y-124530103D01*
X133292338Y-125257704D01*
X133282323Y-125951179D01*
X133281506Y-126078342D01*
X133281694Y-126703477D01*
X133291024Y-127156418D01*
X133312176Y-127468067D01*
X133347829Y-127669327D01*
X133400662Y-127791101D01*
X133433458Y-127830942D01*
X133702900Y-127977643D01*
X134006149Y-127929357D01*
X134137994Y-127850329D01*
X134199928Y-127789792D01*
X134248967Y-127692561D01*
X134287910Y-127533160D01*
X134319556Y-127286107D01*
X134346703Y-126925926D01*
X134372151Y-126427136D01*
X134398700Y-125764258D01*
X134414243Y-125335729D01*
X134440051Y-124656606D01*
X134466554Y-124042321D01*
X134492194Y-123523030D01*
X134515414Y-123128890D01*
X134534656Y-122890058D01*
X134543442Y-122834400D01*
X134668547Y-122714955D01*
X134872976Y-122738342D01*
X135107386Y-122890115D01*
X135243929Y-123039453D01*
X135327756Y-123155273D01*
X135391159Y-123272824D01*
X135437487Y-123421517D01*
X135470091Y-123630760D01*
X135492324Y-123929964D01*
X135507534Y-124348537D01*
X135519074Y-124915890D01*
X135528499Y-125537012D01*
X135540084Y-126257258D01*
X135552995Y-126801356D01*
X135569907Y-127196353D01*
X135593498Y-127469296D01*
X135626443Y-127647232D01*
X135671419Y-127757208D01*
X135731101Y-127826271D01*
X135757019Y-127846558D01*
X136069202Y-127980441D01*
X136356011Y-127918506D01*
X136466943Y-127830942D01*
X136519320Y-127752696D01*
X136559137Y-127619552D01*
X136588014Y-127406305D01*
X136607576Y-127087754D01*
X136619443Y-126638693D01*
X136625237Y-126033921D01*
X136626600Y-125350052D01*
X136629213Y-124676026D01*
X136636534Y-124064716D01*
X136647791Y-123547264D01*
X136662209Y-123154814D01*
X136679015Y-122918508D01*
X136688271Y-122868109D01*
X136827265Y-122724920D01*
X137064458Y-122756706D01*
X137396009Y-122962719D01*
X137467052Y-123019596D01*
X137845800Y-123331793D01*
X137845800Y-125501539D01*
X137847780Y-126237965D01*
X137854910Y-126797341D01*
X137868983Y-127205790D01*
X137891789Y-127489435D01*
X137925117Y-127674398D01*
X137970760Y-127786801D01*
X138005458Y-127830942D01*
X138274451Y-127977608D01*
X138578218Y-127928651D01*
X138715382Y-127846390D01*
X138771837Y-127795984D01*
X138816368Y-127721692D01*
X138850385Y-127600950D01*
X138875297Y-127411196D01*
X138892513Y-127129866D01*
X138903442Y-126734397D01*
X138909493Y-126202227D01*
X138912076Y-125510791D01*
X138912600Y-124688600D01*
X138912003Y-123825511D01*
X138909272Y-123143057D01*
X138902998Y-122618677D01*
X138891772Y-122229805D01*
X138874185Y-121953880D01*
X138848827Y-121768338D01*
X138814290Y-121650616D01*
X138769164Y-121578151D01*
X138715382Y-121530809D01*
X138406094Y-121397055D01*
X138119070Y-121465231D01*
G36*
X128799506Y-121396287D02*
G01*
X128284973Y-121432212D01*
X127885640Y-121501616D01*
X127856895Y-121509822D01*
X127543835Y-121657435D01*
X127168920Y-121914374D01*
X126879907Y-122159363D01*
X126314200Y-122685681D01*
X126282093Y-124488104D01*
X126274973Y-125284051D01*
X126285815Y-125887993D01*
X126315064Y-126310366D01*
X126363167Y-126561610D01*
X126371719Y-126584419D01*
X126557847Y-126875165D01*
X126865368Y-127204106D01*
X127233815Y-127518781D01*
X127602727Y-127766730D01*
X127871793Y-127885919D01*
X128231154Y-127948646D01*
X128701902Y-127980757D01*
X129220484Y-127983526D01*
X129723345Y-127958224D01*
X130146931Y-127906125D01*
X130413378Y-127835016D01*
X130899844Y-127559163D01*
X131338665Y-127193868D01*
X131668037Y-126794614D01*
X131761188Y-126625076D01*
X131836913Y-126425698D01*
X131889453Y-126191365D01*
X131922531Y-125882852D01*
X131939871Y-125460932D01*
X131945198Y-124886379D01*
X131945035Y-124688600D01*
X131934945Y-124046243D01*
X131909411Y-123496053D01*
X131901608Y-123410731D01*
X130835400Y-123410731D01*
X130835400Y-125951529D01*
X130510755Y-126321279D01*
X130273046Y-126560953D01*
X130050513Y-126735993D01*
X129977355Y-126775575D01*
X129684337Y-126839130D01*
X129272619Y-126863464D01*
X128822498Y-126850457D01*
X128414275Y-126801992D01*
X128156796Y-126732911D01*
X127853121Y-126550067D01*
X127601259Y-126312810D01*
X127510993Y-126181483D01*
X127449283Y-126031487D01*
X127410787Y-125823288D01*
X127390164Y-125517355D01*
X127382071Y-125074155D01*
X127381000Y-124682693D01*
X127382878Y-124132446D01*
X127392649Y-123745444D01*
X127416520Y-123481741D01*
X127460701Y-123301389D01*
X127531398Y-123164440D01*
X127634819Y-123030948D01*
X127638325Y-123026777D01*
X127970547Y-122741714D01*
X128404406Y-122573873D01*
X128971044Y-122513982D01*
X129331645Y-122522599D01*
X129713872Y-122550948D01*
X129964098Y-122602514D01*
X130153418Y-122707074D01*
X130352924Y-122894403D01*
X130439968Y-122986806D01*
X130835400Y-123410731D01*
X131901608Y-123410731D01*
X131870870Y-123074647D01*
X131821760Y-122818644D01*
X131820266Y-122814242D01*
X131644221Y-122516417D01*
X131337889Y-122186549D01*
X130957881Y-121872350D01*
X130560802Y-121621530D01*
X130254304Y-121494399D01*
X129862172Y-121426878D01*
X129351239Y-121394341D01*
X128799506Y-121396287D01*
G37*
X128799506Y-121396287D02*
X128284973Y-121432212D01*
X127885640Y-121501616D01*
X127856895Y-121509822D01*
X127543835Y-121657435D01*
X127168920Y-121914374D01*
X126879907Y-122159363D01*
X126314200Y-122685681D01*
X126282093Y-124488104D01*
X126274973Y-125284051D01*
X126285815Y-125887993D01*
X126315064Y-126310366D01*
X126363167Y-126561610D01*
X126371719Y-126584419D01*
X126557847Y-126875165D01*
X126865368Y-127204106D01*
X127233815Y-127518781D01*
X127602727Y-127766730D01*
X127871793Y-127885919D01*
X128231154Y-127948646D01*
X128701902Y-127980757D01*
X129220484Y-127983526D01*
X129723345Y-127958224D01*
X130146931Y-127906125D01*
X130413378Y-127835016D01*
X130899844Y-127559163D01*
X131338665Y-127193868D01*
X131668037Y-126794614D01*
X131761188Y-126625076D01*
X131836913Y-126425698D01*
X131889453Y-126191365D01*
X131922531Y-125882852D01*
X131939871Y-125460932D01*
X131945198Y-124886379D01*
X131945035Y-124688600D01*
X131934945Y-124046243D01*
X131909411Y-123496053D01*
X131901608Y-123410731D01*
X130835400Y-123410731D01*
X130835400Y-125951529D01*
X130510755Y-126321279D01*
X130273046Y-126560953D01*
X130050513Y-126735993D01*
X129977355Y-126775575D01*
X129684337Y-126839130D01*
X129272619Y-126863464D01*
X128822498Y-126850457D01*
X128414275Y-126801992D01*
X128156796Y-126732911D01*
X127853121Y-126550067D01*
X127601259Y-126312810D01*
X127510993Y-126181483D01*
X127449283Y-126031487D01*
X127410787Y-125823288D01*
X127390164Y-125517355D01*
X127382071Y-125074155D01*
X127381000Y-124682693D01*
X127382878Y-124132446D01*
X127392649Y-123745444D01*
X127416520Y-123481741D01*
X127460701Y-123301389D01*
X127531398Y-123164440D01*
X127634819Y-123030948D01*
X127638325Y-123026777D01*
X127970547Y-122741714D01*
X128404406Y-122573873D01*
X128971044Y-122513982D01*
X129331645Y-122522599D01*
X129713872Y-122550948D01*
X129964098Y-122602514D01*
X130153418Y-122707074D01*
X130352924Y-122894403D01*
X130439968Y-122986806D01*
X130835400Y-123410731D01*
X131901608Y-123410731D01*
X131870870Y-123074647D01*
X131821760Y-122818644D01*
X131820266Y-122814242D01*
X131644221Y-122516417D01*
X131337889Y-122186549D01*
X130957881Y-121872350D01*
X130560802Y-121621530D01*
X130254304Y-121494399D01*
X129862172Y-121426878D01*
X129351239Y-121394341D01*
X128799506Y-121396287D01*
G36*
X122572660Y-118560444D02*
G01*
X120202719Y-118592600D01*
X119781493Y-118871566D01*
X119515888Y-119062433D01*
X119317876Y-119256027D01*
X119177667Y-119485181D01*
X119085469Y-119782727D01*
X119031492Y-120181494D01*
X119005947Y-120714316D01*
X118999043Y-121414024D01*
X118999000Y-121495619D01*
X118999980Y-122117449D01*
X119006114Y-122572251D01*
X119022194Y-122896196D01*
X119053014Y-123125455D01*
X119103367Y-123296202D01*
X119178046Y-123444607D01*
X119277967Y-123600986D01*
X119463735Y-123859816D01*
X119653312Y-124054911D01*
X119878638Y-124195954D01*
X120171651Y-124292627D01*
X120564290Y-124354609D01*
X121088494Y-124391584D01*
X121776203Y-124413233D01*
X121970800Y-124417256D01*
X123723400Y-124451385D01*
X123723400Y-126017792D01*
X123725447Y-126620666D01*
X123734182Y-127054278D01*
X123753500Y-127352546D01*
X123787297Y-127549388D01*
X123839467Y-127678723D01*
X123913906Y-127774470D01*
X123926600Y-127787400D01*
X124147777Y-127939620D01*
X124333000Y-127990600D01*
X124554177Y-127921644D01*
X124739400Y-127787400D01*
X124787749Y-127732882D01*
X124827755Y-127662647D01*
X124860208Y-127558320D01*
X124885896Y-127401527D01*
X124905608Y-127173894D01*
X124920134Y-126857047D01*
X124930264Y-126432612D01*
X124936785Y-125882213D01*
X124940488Y-125187478D01*
X124942161Y-124330032D01*
X124942593Y-123291501D01*
X124942600Y-123056244D01*
X124942600Y-119761000D01*
X123723400Y-119761000D01*
X123723400Y-123215400D01*
X122131201Y-123215400D01*
X121508254Y-123212323D01*
X121056431Y-123201077D01*
X120743718Y-123178632D01*
X120538104Y-123141963D01*
X120407576Y-123088040D01*
X120353201Y-123047253D01*
X120277166Y-122955851D01*
X120224907Y-122819683D01*
X120192142Y-122603215D01*
X120174587Y-122270918D01*
X120167959Y-121787260D01*
X120167400Y-121505853D01*
X120166582Y-120901679D01*
X120181892Y-120455597D01*
X120239982Y-120143714D01*
X120367502Y-119942136D01*
X120591101Y-119826970D01*
X120937431Y-119774320D01*
X121433141Y-119760295D01*
X122104882Y-119760999D01*
X122113547Y-119761000D01*
X123723400Y-119761000D01*
X124942600Y-119761000D01*
X124942600Y-118528288D01*
X122572660Y-118560444D01*
G37*
X122572660Y-118560444D02*
X120202719Y-118592600D01*
X119781493Y-118871566D01*
X119515888Y-119062433D01*
X119317876Y-119256027D01*
X119177667Y-119485181D01*
X119085469Y-119782727D01*
X119031492Y-120181494D01*
X119005947Y-120714316D01*
X118999043Y-121414024D01*
X118999000Y-121495619D01*
X118999980Y-122117449D01*
X119006114Y-122572251D01*
X119022194Y-122896196D01*
X119053014Y-123125455D01*
X119103367Y-123296202D01*
X119178046Y-123444607D01*
X119277967Y-123600986D01*
X119463735Y-123859816D01*
X119653312Y-124054911D01*
X119878638Y-124195954D01*
X120171651Y-124292627D01*
X120564290Y-124354609D01*
X121088494Y-124391584D01*
X121776203Y-124413233D01*
X121970800Y-124417256D01*
X123723400Y-124451385D01*
X123723400Y-126017792D01*
X123725447Y-126620666D01*
X123734182Y-127054278D01*
X123753500Y-127352546D01*
X123787297Y-127549388D01*
X123839467Y-127678723D01*
X123913906Y-127774470D01*
X123926600Y-127787400D01*
X124147777Y-127939620D01*
X124333000Y-127990600D01*
X124554177Y-127921644D01*
X124739400Y-127787400D01*
X124787749Y-127732882D01*
X124827755Y-127662647D01*
X124860208Y-127558320D01*
X124885896Y-127401527D01*
X124905608Y-127173894D01*
X124920134Y-126857047D01*
X124930264Y-126432612D01*
X124936785Y-125882213D01*
X124940488Y-125187478D01*
X124942161Y-124330032D01*
X124942593Y-123291501D01*
X124942600Y-123056244D01*
X124942600Y-119761000D01*
X123723400Y-119761000D01*
X123723400Y-123215400D01*
X122131201Y-123215400D01*
X121508254Y-123212323D01*
X121056431Y-123201077D01*
X120743718Y-123178632D01*
X120538104Y-123141963D01*
X120407576Y-123088040D01*
X120353201Y-123047253D01*
X120277166Y-122955851D01*
X120224907Y-122819683D01*
X120192142Y-122603215D01*
X120174587Y-122270918D01*
X120167959Y-121787260D01*
X120167400Y-121505853D01*
X120166582Y-120901679D01*
X120181892Y-120455597D01*
X120239982Y-120143714D01*
X120367502Y-119942136D01*
X120591101Y-119826970D01*
X120937431Y-119774320D01*
X121433141Y-119760295D01*
X122104882Y-119760999D01*
X122113547Y-119761000D01*
X123723400Y-119761000D01*
X124942600Y-119761000D01*
X124942600Y-118528288D01*
X122572660Y-118560444D01*
G36*
X114145973Y-121403950D02*
G01*
X113716240Y-121432191D01*
X113410509Y-121475273D01*
X113367178Y-121486198D01*
X112967323Y-121682925D01*
X112585045Y-122009889D01*
X112295242Y-122402381D01*
X112285460Y-122420770D01*
X112242587Y-122597817D01*
X112200067Y-122941996D01*
X112159363Y-123417242D01*
X112121938Y-123987489D01*
X112089258Y-124616673D01*
X112062786Y-125268728D01*
X112043987Y-125907588D01*
X112034323Y-126497189D01*
X112035261Y-127001466D01*
X112048263Y-127384353D01*
X112074794Y-127609786D01*
X112074804Y-127609829D01*
X112219828Y-127851943D01*
X112458164Y-127964629D01*
X112725405Y-127946583D01*
X112957149Y-127796499D01*
X113057406Y-127629726D01*
X113149370Y-127387840D01*
X113722302Y-127689220D01*
X114010994Y-127831764D01*
X114259451Y-127919998D01*
X114532107Y-127966043D01*
X114893395Y-127982022D01*
X115275518Y-127981436D01*
X115741153Y-127967858D01*
X116164315Y-127939199D01*
X116480110Y-127900527D01*
X116573991Y-127880043D01*
X116951561Y-127679561D01*
X117296370Y-127337573D01*
X117558833Y-126915079D01*
X117683911Y-126514732D01*
X117722347Y-125933200D01*
X116609845Y-125933200D01*
X116593457Y-126245855D01*
X116553806Y-126479876D01*
X116530777Y-126537738D01*
X116300342Y-126715660D01*
X115878845Y-126825285D01*
X115266632Y-126866521D01*
X115262664Y-126866559D01*
X114867378Y-126856311D01*
X114547105Y-126802305D01*
X114215178Y-126682610D01*
X113853293Y-126509892D01*
X113132259Y-126146785D01*
X113188691Y-125726057D01*
X113237802Y-125469601D01*
X113325925Y-125286636D01*
X113483867Y-125164912D01*
X113742434Y-125092181D01*
X114132433Y-125056195D01*
X114684671Y-125044704D01*
X114903619Y-125044200D01*
X115531531Y-125052447D01*
X115984568Y-125086913D01*
X116290724Y-125162182D01*
X116477991Y-125292840D01*
X116574362Y-125493471D01*
X116607829Y-125778661D01*
X116609845Y-125933200D01*
X117722347Y-125933200D01*
X117725605Y-125883915D01*
X117666105Y-125297380D01*
X117513999Y-124810440D01*
X117385738Y-124594144D01*
X117185630Y-124360851D01*
X116969602Y-124188265D01*
X116704098Y-124067574D01*
X116355562Y-123989969D01*
X115890437Y-123946637D01*
X115275168Y-123928769D01*
X114843446Y-123926600D01*
X113258600Y-123926600D01*
X113258600Y-123480655D01*
X113322942Y-123041645D01*
X113452795Y-122794855D01*
X113545290Y-122695616D01*
X113659004Y-122626765D01*
X113831870Y-122581330D01*
X114101823Y-122552338D01*
X114506797Y-122532815D01*
X114951395Y-122519386D01*
X115453903Y-122498179D01*
X115887436Y-122465896D01*
X116208947Y-122426727D01*
X116375393Y-122384867D01*
X116382800Y-122379945D01*
X116469986Y-122213771D01*
X116509582Y-121950926D01*
X116509800Y-121930444D01*
X116475679Y-121670069D01*
X116342872Y-121527925D01*
X116249186Y-121485685D01*
X116016080Y-121439580D01*
X115634762Y-121408363D01*
X115159677Y-121392026D01*
X114645266Y-121390558D01*
X114145973Y-121403950D01*
G37*
X114145973Y-121403950D02*
X113716240Y-121432191D01*
X113410509Y-121475273D01*
X113367178Y-121486198D01*
X112967323Y-121682925D01*
X112585045Y-122009889D01*
X112295242Y-122402381D01*
X112285460Y-122420770D01*
X112242587Y-122597817D01*
X112200067Y-122941996D01*
X112159363Y-123417242D01*
X112121938Y-123987489D01*
X112089258Y-124616673D01*
X112062786Y-125268728D01*
X112043987Y-125907588D01*
X112034323Y-126497189D01*
X112035261Y-127001466D01*
X112048263Y-127384353D01*
X112074794Y-127609786D01*
X112074804Y-127609829D01*
X112219828Y-127851943D01*
X112458164Y-127964629D01*
X112725405Y-127946583D01*
X112957149Y-127796499D01*
X113057406Y-127629726D01*
X113149370Y-127387840D01*
X113722302Y-127689220D01*
X114010994Y-127831764D01*
X114259451Y-127919998D01*
X114532107Y-127966043D01*
X114893395Y-127982022D01*
X115275518Y-127981436D01*
X115741153Y-127967858D01*
X116164315Y-127939199D01*
X116480110Y-127900527D01*
X116573991Y-127880043D01*
X116951561Y-127679561D01*
X117296370Y-127337573D01*
X117558833Y-126915079D01*
X117683911Y-126514732D01*
X117722347Y-125933200D01*
X116609845Y-125933200D01*
X116593457Y-126245855D01*
X116553806Y-126479876D01*
X116530777Y-126537738D01*
X116300342Y-126715660D01*
X115878845Y-126825285D01*
X115266632Y-126866521D01*
X115262664Y-126866559D01*
X114867378Y-126856311D01*
X114547105Y-126802305D01*
X114215178Y-126682610D01*
X113853293Y-126509892D01*
X113132259Y-126146785D01*
X113188691Y-125726057D01*
X113237802Y-125469601D01*
X113325925Y-125286636D01*
X113483867Y-125164912D01*
X113742434Y-125092181D01*
X114132433Y-125056195D01*
X114684671Y-125044704D01*
X114903619Y-125044200D01*
X115531531Y-125052447D01*
X115984568Y-125086913D01*
X116290724Y-125162182D01*
X116477991Y-125292840D01*
X116574362Y-125493471D01*
X116607829Y-125778661D01*
X116609845Y-125933200D01*
X117722347Y-125933200D01*
X117725605Y-125883915D01*
X117666105Y-125297380D01*
X117513999Y-124810440D01*
X117385738Y-124594144D01*
X117185630Y-124360851D01*
X116969602Y-124188265D01*
X116704098Y-124067574D01*
X116355562Y-123989969D01*
X115890437Y-123946637D01*
X115275168Y-123928769D01*
X114843446Y-123926600D01*
X113258600Y-123926600D01*
X113258600Y-123480655D01*
X113322942Y-123041645D01*
X113452795Y-122794855D01*
X113545290Y-122695616D01*
X113659004Y-122626765D01*
X113831870Y-122581330D01*
X114101823Y-122552338D01*
X114506797Y-122532815D01*
X114951395Y-122519386D01*
X115453903Y-122498179D01*
X115887436Y-122465896D01*
X116208947Y-122426727D01*
X116375393Y-122384867D01*
X116382800Y-122379945D01*
X116469986Y-122213771D01*
X116509582Y-121950926D01*
X116509800Y-121930444D01*
X116475679Y-121670069D01*
X116342872Y-121527925D01*
X116249186Y-121485685D01*
X116016080Y-121439580D01*
X115634762Y-121408363D01*
X115159677Y-121392026D01*
X114645266Y-121390558D01*
X114145973Y-121403950D01*
G36*
X105370238Y-119087717D02*
G01*
X105188658Y-119209457D01*
X105148638Y-119269228D01*
X105115798Y-119373223D01*
X105089448Y-119539980D01*
X105068905Y-119788034D01*
X105053480Y-120135920D01*
X105042487Y-120602177D01*
X105035240Y-121205338D01*
X105031052Y-121963942D01*
X105029237Y-122896523D01*
X105029000Y-123520199D01*
X105029760Y-124561459D01*
X105032497Y-125418060D01*
X105037897Y-126108536D01*
X105046648Y-126651425D01*
X105059435Y-127065263D01*
X105076945Y-127368585D01*
X105099864Y-127579929D01*
X105128880Y-127717829D01*
X105164679Y-127800823D01*
X105188658Y-127830942D01*
X105450655Y-127976314D01*
X105725121Y-127950084D01*
X105959048Y-127773010D01*
X106097459Y-127475050D01*
X106166433Y-127161011D01*
X106385117Y-127361938D01*
X106804671Y-127693595D01*
X107222999Y-127889189D01*
X107714663Y-127976309D01*
X108077000Y-127987988D01*
X108717366Y-127946449D01*
X109195823Y-127822643D01*
X109245400Y-127801234D01*
X109542830Y-127626213D01*
X109888508Y-127366362D01*
X110126448Y-127154585D01*
X110335014Y-126937190D01*
X110490678Y-126724715D01*
X110600108Y-126484347D01*
X110669975Y-126183273D01*
X110706949Y-125788680D01*
X110717698Y-125267755D01*
X110710201Y-124688600D01*
X109601000Y-124688600D01*
X109594144Y-125282010D01*
X109565895Y-125712507D01*
X109504734Y-126020136D01*
X109399142Y-126244942D01*
X109237601Y-126426972D01*
X109060156Y-126568845D01*
X108572179Y-126811852D01*
X108038199Y-126881005D01*
X107550215Y-126780608D01*
X107361617Y-126668941D01*
X107082199Y-126460046D01*
X106768534Y-126196571D01*
X106730800Y-126162881D01*
X106146600Y-125637546D01*
X106146600Y-123739653D01*
X106730800Y-123214318D01*
X107123584Y-122878778D01*
X107435424Y-122666997D01*
X107722020Y-122552342D01*
X108039078Y-122508179D01*
X108215999Y-122504200D01*
X108600871Y-122557783D01*
X108966586Y-122742343D01*
X109060156Y-122808354D01*
X109274804Y-122985003D01*
X109424278Y-123172361D01*
X109520097Y-123410475D01*
X109573782Y-123739391D01*
X109596849Y-124199155D01*
X109601000Y-124688600D01*
X110710201Y-124688600D01*
X110708894Y-124587684D01*
X110702751Y-124319334D01*
X110683277Y-123684486D01*
X110649498Y-123211975D01*
X110585285Y-122860948D01*
X110474509Y-122590551D01*
X110301043Y-122359930D01*
X110048757Y-122128232D01*
X109742037Y-121885833D01*
X109431189Y-121658533D01*
X109179647Y-121524349D01*
X108904977Y-121453173D01*
X108524744Y-121414893D01*
X108436654Y-121409040D01*
X107846001Y-121389806D01*
X107399770Y-121428022D01*
X107044149Y-121536488D01*
X106725325Y-121728008D01*
X106569533Y-121853219D01*
X106146600Y-122215234D01*
X106146600Y-120835717D01*
X106143952Y-120272958D01*
X106132862Y-119876619D01*
X106108613Y-119609952D01*
X106066486Y-119436209D01*
X106001764Y-119318645D01*
X105943400Y-119253000D01*
X105657986Y-119075557D01*
X105370238Y-119087717D01*
G37*
X105370238Y-119087717D02*
X105188658Y-119209457D01*
X105148638Y-119269228D01*
X105115798Y-119373223D01*
X105089448Y-119539980D01*
X105068905Y-119788034D01*
X105053480Y-120135920D01*
X105042487Y-120602177D01*
X105035240Y-121205338D01*
X105031052Y-121963942D01*
X105029237Y-122896523D01*
X105029000Y-123520199D01*
X105029760Y-124561459D01*
X105032497Y-125418060D01*
X105037897Y-126108536D01*
X105046648Y-126651425D01*
X105059435Y-127065263D01*
X105076945Y-127368585D01*
X105099864Y-127579929D01*
X105128880Y-127717829D01*
X105164679Y-127800823D01*
X105188658Y-127830942D01*
X105450655Y-127976314D01*
X105725121Y-127950084D01*
X105959048Y-127773010D01*
X106097459Y-127475050D01*
X106166433Y-127161011D01*
X106385117Y-127361938D01*
X106804671Y-127693595D01*
X107222999Y-127889189D01*
X107714663Y-127976309D01*
X108077000Y-127987988D01*
X108717366Y-127946449D01*
X109195823Y-127822643D01*
X109245400Y-127801234D01*
X109542830Y-127626213D01*
X109888508Y-127366362D01*
X110126448Y-127154585D01*
X110335014Y-126937190D01*
X110490678Y-126724715D01*
X110600108Y-126484347D01*
X110669975Y-126183273D01*
X110706949Y-125788680D01*
X110717698Y-125267755D01*
X110710201Y-124688600D01*
X109601000Y-124688600D01*
X109594144Y-125282010D01*
X109565895Y-125712507D01*
X109504734Y-126020136D01*
X109399142Y-126244942D01*
X109237601Y-126426972D01*
X109060156Y-126568845D01*
X108572179Y-126811852D01*
X108038199Y-126881005D01*
X107550215Y-126780608D01*
X107361617Y-126668941D01*
X107082199Y-126460046D01*
X106768534Y-126196571D01*
X106730800Y-126162881D01*
X106146600Y-125637546D01*
X106146600Y-123739653D01*
X106730800Y-123214318D01*
X107123584Y-122878778D01*
X107435424Y-122666997D01*
X107722020Y-122552342D01*
X108039078Y-122508179D01*
X108215999Y-122504200D01*
X108600871Y-122557783D01*
X108966586Y-122742343D01*
X109060156Y-122808354D01*
X109274804Y-122985003D01*
X109424278Y-123172361D01*
X109520097Y-123410475D01*
X109573782Y-123739391D01*
X109596849Y-124199155D01*
X109601000Y-124688600D01*
X110710201Y-124688600D01*
X110708894Y-124587684D01*
X110702751Y-124319334D01*
X110683277Y-123684486D01*
X110649498Y-123211975D01*
X110585285Y-122860948D01*
X110474509Y-122590551D01*
X110301043Y-122359930D01*
X110048757Y-122128232D01*
X109742037Y-121885833D01*
X109431189Y-121658533D01*
X109179647Y-121524349D01*
X108904977Y-121453173D01*
X108524744Y-121414893D01*
X108436654Y-121409040D01*
X107846001Y-121389806D01*
X107399770Y-121428022D01*
X107044149Y-121536488D01*
X106725325Y-121728008D01*
X106569533Y-121853219D01*
X106146600Y-122215234D01*
X106146600Y-120835717D01*
X106143952Y-120272958D01*
X106132862Y-119876619D01*
X106108613Y-119609952D01*
X106066486Y-119436209D01*
X106001764Y-119318645D01*
X105943400Y-119253000D01*
X105657986Y-119075557D01*
X105370238Y-119087717D01*
G36*
X128455404Y-66459860D02*
G01*
X127549259Y-66667477D01*
X126720600Y-66977503D01*
X126422471Y-67096753D01*
X126176340Y-67181992D01*
X125913251Y-67297495D01*
X125769940Y-67391578D01*
X125607684Y-67520634D01*
X125340888Y-67728636D01*
X125026500Y-67971192D01*
X125017944Y-67977759D01*
X124600669Y-68341891D01*
X124149582Y-68807059D01*
X123711279Y-69318432D01*
X123332356Y-69821177D01*
X123059409Y-70260461D01*
X123031600Y-70315215D01*
X122724629Y-71060985D01*
X122468083Y-71915792D01*
X122288540Y-72786878D01*
X122255248Y-73024615D01*
X122148600Y-73887830D01*
X121539000Y-73959388D01*
X120962502Y-74032062D01*
X120349720Y-74117748D01*
X119745105Y-74209351D01*
X119193111Y-74299778D01*
X118738189Y-74381935D01*
X118424793Y-74448727D01*
X118356314Y-74467299D01*
X117797056Y-74555543D01*
X117111703Y-74528716D01*
X116340019Y-74389141D01*
X116141817Y-74337875D01*
X115718884Y-74223438D01*
X115331899Y-74121032D01*
X115054472Y-74050096D01*
X115023184Y-74042489D01*
X114763253Y-73967140D01*
X114588572Y-73894268D01*
X114435077Y-73904691D01*
X114245658Y-74054333D01*
X114059161Y-74293468D01*
X113914432Y-74572372D01*
X113850417Y-74839144D01*
X113853555Y-75497340D01*
X113932524Y-75989390D01*
X114043114Y-76245501D01*
X114140708Y-76403106D01*
X114147552Y-76496394D01*
X114030895Y-76560683D01*
X113757986Y-76631289D01*
X113665000Y-76653240D01*
X112937939Y-76830707D01*
X112319464Y-76992764D01*
X111832541Y-77132828D01*
X111500135Y-77244318D01*
X111349439Y-77316887D01*
X111184903Y-77421625D01*
X110911468Y-77567636D01*
X110739839Y-77651519D01*
X110038506Y-78087628D01*
X109441428Y-78669079D01*
X109097652Y-79163670D01*
X108910045Y-79539020D01*
X108853413Y-79818767D01*
X108926935Y-80061969D01*
X109082242Y-80273781D01*
X109145257Y-80366954D01*
X109146238Y-80465084D01*
X109064535Y-80599648D01*
X108879500Y-80802127D01*
X108570484Y-81103999D01*
X108482445Y-81188181D01*
X108099375Y-81541394D01*
X107792569Y-81784022D01*
X107500900Y-81955191D01*
X107163238Y-82094030D01*
X106959247Y-82163166D01*
X106570552Y-82306794D01*
X106242177Y-82458715D01*
X106036743Y-82589402D01*
X106019600Y-82606221D01*
X105863755Y-82920118D01*
X105874031Y-83318252D01*
X106043238Y-83778777D01*
X106364187Y-84279848D01*
X106697558Y-84666406D01*
X107141975Y-85130226D01*
X106691026Y-85545897D01*
X106029047Y-86291270D01*
X105486936Y-87192993D01*
X105373064Y-87437232D01*
X105138173Y-88075513D01*
X105050442Y-88591044D01*
X105109300Y-88978663D01*
X105314176Y-89233211D01*
X105583208Y-89337641D01*
X105806824Y-89387249D01*
X105911709Y-89461490D01*
X105912744Y-89610543D01*
X105824809Y-89884590D01*
X105781061Y-90004826D01*
X105630542Y-90614236D01*
X105576289Y-91304937D01*
X105613452Y-92015941D01*
X105737185Y-92686263D01*
X105942639Y-93254919D01*
X106055180Y-93453417D01*
X106193915Y-93695671D01*
X106357989Y-94024392D01*
X106428790Y-94179409D01*
X106661407Y-94551896D01*
X106943621Y-94746085D01*
X107257318Y-94750530D01*
X107306365Y-94733972D01*
X107411370Y-94720091D01*
X107478503Y-94795860D01*
X107514891Y-94991975D01*
X107527663Y-95339134D01*
X107526443Y-95681800D01*
X107516528Y-96028874D01*
X107484592Y-96311593D01*
X107414086Y-96578289D01*
X107288458Y-96877300D01*
X107091158Y-97256960D01*
X106823974Y-97733352D01*
X106630092Y-98123733D01*
X106566401Y-98416553D01*
X106629459Y-98667330D01*
X106754298Y-98856705D01*
X107106311Y-99148222D01*
X107593624Y-99327389D01*
X108176670Y-99385353D01*
X108805193Y-99315533D01*
X108903643Y-99393179D01*
X108999565Y-99652596D01*
X109044302Y-99847400D01*
X109117239Y-100185769D01*
X109185252Y-100455836D01*
X109218190Y-100558600D01*
X109286316Y-100750288D01*
X109377697Y-101036866D01*
X109402046Y-101117400D01*
X109555703Y-101517433D01*
X109795856Y-102014623D01*
X110086536Y-102543978D01*
X110391775Y-103040506D01*
X110675601Y-103439213D01*
X110711559Y-103483502D01*
X110994604Y-103784385D01*
X111349321Y-104105228D01*
X111723017Y-104403901D01*
X112062995Y-104638277D01*
X112315638Y-104765934D01*
X112480675Y-104883608D01*
X112683928Y-105114093D01*
X112784970Y-105258120D01*
X113186724Y-105801422D01*
X113701202Y-106372494D01*
X114300824Y-106950986D01*
X114958011Y-107516547D01*
X115645182Y-108048829D01*
X116334757Y-108527481D01*
X116999157Y-108932154D01*
X117610803Y-109242497D01*
X118142113Y-109438161D01*
X118533121Y-109499400D01*
X118793026Y-109553489D01*
X118955820Y-109660981D01*
X119250841Y-109945107D01*
X119655823Y-110239956D01*
X120125824Y-110522779D01*
X120615905Y-110770828D01*
X121081125Y-110961353D01*
X121476545Y-111071606D01*
X121756955Y-111078906D01*
X122068863Y-111094571D01*
X122499102Y-111261871D01*
X123036150Y-111576144D01*
X123113800Y-111627950D01*
X123383491Y-111800347D01*
X123587236Y-111912700D01*
X123656916Y-111937365D01*
X123791707Y-111991689D01*
X124002882Y-112123083D01*
X124019906Y-112135094D01*
X124350411Y-112322224D01*
X124825631Y-112528486D01*
X125390913Y-112733723D01*
X125991606Y-112917778D01*
X126466600Y-113037495D01*
X127008689Y-113125747D01*
X127647646Y-113178617D01*
X128325271Y-113196255D01*
X128983364Y-113178814D01*
X129563723Y-113126445D01*
X130008149Y-113039301D01*
X130044477Y-113028165D01*
X130347653Y-112941932D01*
X130561808Y-112933021D01*
X130788509Y-113008275D01*
X130958877Y-113089770D01*
X131472228Y-113256482D01*
X132111900Y-113326807D01*
X132823917Y-113298073D01*
X133375400Y-113209380D01*
X133828243Y-113107252D01*
X134297983Y-112993860D01*
X134572065Y-112923191D01*
X134903799Y-112846353D01*
X135091772Y-112840313D01*
X135181665Y-112902769D01*
X135331918Y-113016765D01*
X135604031Y-113128725D01*
X135918221Y-113211516D01*
X136169400Y-113238678D01*
X136346960Y-113219012D01*
X136663255Y-113168698D01*
X137058110Y-113098630D01*
X137471353Y-113019704D01*
X137842811Y-112942814D01*
X137998200Y-112907556D01*
X138344065Y-112789989D01*
X138795911Y-112587099D01*
X139292758Y-112329381D01*
X139773623Y-112047328D01*
X139959094Y-111926967D01*
X140216392Y-111760389D01*
X140399652Y-111653847D01*
X140450889Y-111633000D01*
X140549832Y-111571834D01*
X140757565Y-111411165D01*
X141029898Y-111185231D01*
X141040950Y-111175800D01*
X141361682Y-110908763D01*
X141560722Y-110766613D01*
X141665590Y-110736297D01*
X141703806Y-110804765D01*
X141706600Y-110860129D01*
X141797984Y-111020027D01*
X142037495Y-111134880D01*
X142373172Y-111195066D01*
X142753052Y-111190964D01*
X143106026Y-111119250D01*
X143601975Y-110933651D01*
X144138526Y-110691057D01*
X144632918Y-110431335D01*
X144957800Y-110227162D01*
X145202461Y-110030062D01*
X145512988Y-109748012D01*
X145857723Y-109413836D01*
X146205010Y-109060357D01*
X146523192Y-108720397D01*
X146780612Y-108426780D01*
X146945612Y-108212329D01*
X146989800Y-108120322D01*
X146989767Y-108031136D01*
X147018538Y-107992731D01*
X147119426Y-108009927D01*
X147335740Y-108087544D01*
X147599400Y-108188164D01*
X147986373Y-108303853D01*
X148437941Y-108391671D01*
X148897824Y-108446257D01*
X149309744Y-108462254D01*
X149617423Y-108434304D01*
X149733000Y-108391315D01*
X149805707Y-108295243D01*
X149852291Y-108102831D01*
X149877319Y-107779578D01*
X149885355Y-107290981D01*
X149885400Y-107239602D01*
X149885400Y-106191603D01*
X150684524Y-104568901D01*
X150955908Y-104017962D01*
X151207270Y-103507912D01*
X151420214Y-103076061D01*
X151576344Y-102759722D01*
X151647429Y-102616000D01*
X151778518Y-102377533D01*
X151887008Y-102301950D01*
X152033021Y-102366535D01*
X152126582Y-102434968D01*
X152443070Y-102574018D01*
X152748125Y-102531134D01*
X152919929Y-102402285D01*
X153034134Y-102216670D01*
X153178415Y-101900382D01*
X153324054Y-101517256D01*
X153342726Y-101462485D01*
X153543970Y-100653978D01*
X153657333Y-99725392D01*
X153679640Y-98741348D01*
X153607718Y-97766469D01*
X153544571Y-97352445D01*
X153477148Y-96929011D01*
X153439504Y-96587891D01*
X153435496Y-96372832D01*
X153453627Y-96321024D01*
X153979422Y-96074127D01*
X154319596Y-95749032D01*
X154472685Y-95347545D01*
X154473341Y-95063890D01*
X154398345Y-94731655D01*
X153172387Y-94731655D01*
X153111590Y-94765873D01*
X153011836Y-94767400D01*
X152864562Y-94696899D01*
X152627627Y-94509437D01*
X152345067Y-94241070D01*
X152257791Y-94149968D01*
X151964625Y-93846487D01*
X151766685Y-93673728D01*
X151627267Y-93607865D01*
X151509667Y-93625072D01*
X151475036Y-93641860D01*
X151278545Y-93822989D01*
X151203050Y-93964526D01*
X151172097Y-94279944D01*
X151221299Y-94709391D01*
X151339057Y-95185592D01*
X151478819Y-95564182D01*
X151936962Y-96830662D01*
X152224870Y-98153917D01*
X152346939Y-99452382D01*
X152361489Y-100064295D01*
X152348078Y-100503833D01*
X152308496Y-100764962D01*
X152244536Y-100841644D01*
X152157986Y-100727843D01*
X152055526Y-100434532D01*
X151807920Y-99862370D01*
X151445580Y-99435674D01*
X151350500Y-99362930D01*
X151145130Y-99272921D01*
X151000506Y-99343982D01*
X150909885Y-99587662D01*
X150866526Y-100015510D01*
X150861414Y-100200771D01*
X150828402Y-100603227D01*
X150748888Y-101088601D01*
X150636722Y-101600610D01*
X150505753Y-102082970D01*
X150369829Y-102479401D01*
X150242801Y-102733617D01*
X150235856Y-102743000D01*
X150154404Y-102877143D01*
X150009007Y-103140421D01*
X149828148Y-103481005D01*
X149789209Y-103555800D01*
X149582829Y-103943655D01*
X149383892Y-104300904D01*
X149232568Y-104555573D01*
X149222139Y-104571800D01*
X149067979Y-104821756D01*
X148960428Y-105018274D01*
X148955470Y-105029000D01*
X148721151Y-105563511D01*
X148563911Y-105964803D01*
X148469276Y-106281061D01*
X148422771Y-106560472D01*
X148409941Y-106845042D01*
X148407682Y-107416600D01*
X148208946Y-107162600D01*
X148082035Y-106940322D01*
X148049633Y-106673232D01*
X148069755Y-106442128D01*
X148070241Y-106047532D01*
X147983599Y-105697443D01*
X147830806Y-105442819D01*
X147632839Y-105334615D01*
X147613483Y-105333800D01*
X147468610Y-105415413D01*
X147229968Y-105647553D01*
X146915744Y-106011170D01*
X146667726Y-106324400D01*
X145983670Y-107184872D01*
X145378824Y-107882164D01*
X144837778Y-108432919D01*
X144345124Y-108853785D01*
X144283330Y-108900194D01*
X143939406Y-109142970D01*
X143587906Y-109372734D01*
X143275940Y-109560659D01*
X143050615Y-109677919D01*
X142972030Y-109702600D01*
X142952461Y-109611218D01*
X142954047Y-109375825D01*
X142968098Y-109154912D01*
X142982818Y-108815947D01*
X142944243Y-108602893D01*
X142834042Y-108441489D01*
X142778422Y-108386517D01*
X142606081Y-108247497D01*
X142451658Y-108223151D01*
X142219143Y-108301384D01*
X142192042Y-108312652D01*
X141934012Y-108462355D01*
X141613672Y-108705260D01*
X141341798Y-108949566D01*
X140595717Y-109637308D01*
X139833942Y-110255987D01*
X139084257Y-110787439D01*
X138374443Y-111213504D01*
X137732284Y-111516019D01*
X137185562Y-111676823D01*
X137164561Y-111680291D01*
X136901505Y-111732349D01*
X136730982Y-111784531D01*
X136720417Y-111790210D01*
X136691510Y-111745142D01*
X136732028Y-111565561D01*
X136744973Y-111526959D01*
X136792978Y-111211634D01*
X136732448Y-110933845D01*
X136584845Y-110754164D01*
X136458557Y-110718600D01*
X136296626Y-110761056D01*
X135998802Y-110875230D01*
X135610623Y-111041329D01*
X135177623Y-111239559D01*
X134745338Y-111450126D01*
X134576400Y-111536724D01*
X134414578Y-111587730D01*
X134096989Y-111662241D01*
X133668334Y-111750551D01*
X133173316Y-111842954D01*
X133133593Y-111849985D01*
X131861385Y-112074241D01*
X131678593Y-111851667D01*
X131495800Y-111629093D01*
X130327400Y-111843433D01*
X129867588Y-111929438D01*
X129488297Y-112003517D01*
X129229870Y-112057573D01*
X129132919Y-112083134D01*
X129021155Y-112094879D01*
X128753720Y-112095892D01*
X128377759Y-112087974D01*
X127940414Y-112072926D01*
X127488829Y-112052549D01*
X127070147Y-112028645D01*
X126731511Y-112003015D01*
X126568200Y-111985132D01*
X125791507Y-111819933D01*
X124965340Y-111528610D01*
X124068400Y-111101578D01*
X123079387Y-110529251D01*
X122489207Y-110149558D01*
X122004443Y-109835932D01*
X121655184Y-109633792D01*
X121413799Y-109533476D01*
X121252657Y-109525321D01*
X121144130Y-109599663D01*
X121101292Y-109664161D01*
X121030894Y-109741059D01*
X120917613Y-109736379D01*
X120717853Y-109637414D01*
X120458811Y-109476915D01*
X120145520Y-109246964D01*
X119757299Y-108919297D01*
X119355380Y-108547025D01*
X119148967Y-108340748D01*
X118780222Y-107976141D01*
X118407060Y-107634135D01*
X118084100Y-107363626D01*
X117937563Y-107256260D01*
X117666039Y-107086859D01*
X117501384Y-107025995D01*
X117388212Y-107059876D01*
X117335345Y-107106312D01*
X117240722Y-107255111D01*
X117272925Y-107444415D01*
X117308386Y-107527576D01*
X117382560Y-107734820D01*
X117385628Y-107844639D01*
X117267715Y-107829138D01*
X117035091Y-107702083D01*
X116722728Y-107489340D01*
X116365601Y-107216776D01*
X115998683Y-106910256D01*
X115656947Y-106595648D01*
X115544356Y-106482851D01*
X114681390Y-105481075D01*
X114017413Y-104456579D01*
X113548879Y-103403082D01*
X113310351Y-102524935D01*
X113197342Y-102227839D01*
X113015547Y-102002831D01*
X112812817Y-101899499D01*
X112716612Y-101909690D01*
X112592467Y-102027552D01*
X112434186Y-102267476D01*
X112345894Y-102434701D01*
X112196862Y-102693690D01*
X112062116Y-102846829D01*
X112002667Y-102866517D01*
X111882197Y-102772468D01*
X111682316Y-102564965D01*
X111470034Y-102317419D01*
X111116386Y-101771158D01*
X110820593Y-101065069D01*
X110578927Y-100187507D01*
X110387662Y-99126831D01*
X110342732Y-98796228D01*
X110236416Y-98075721D01*
X110120320Y-97547644D01*
X109984920Y-97201228D01*
X109820691Y-97025704D01*
X109618110Y-97010303D01*
X109367652Y-97144255D01*
X109093443Y-97383600D01*
X108766127Y-97677982D01*
X108470344Y-97898784D01*
X108237886Y-98026916D01*
X108100547Y-98043291D01*
X108077000Y-97993864D01*
X108139249Y-97797386D01*
X108168261Y-97759520D01*
X108249333Y-97621531D01*
X108375314Y-97351104D01*
X108519387Y-97005919D01*
X108523861Y-96994628D01*
X108643272Y-96667163D01*
X108720690Y-96369057D01*
X108764824Y-96039664D01*
X108784385Y-95618337D01*
X108788200Y-95154295D01*
X108760709Y-94195996D01*
X108677907Y-93429635D01*
X108539302Y-92851486D01*
X108457353Y-92649139D01*
X108260875Y-92427815D01*
X108003447Y-92364594D01*
X107750817Y-92458712D01*
X107590226Y-92659200D01*
X107470707Y-92856259D01*
X107370935Y-92938598D01*
X107370686Y-92938600D01*
X107305904Y-92845367D01*
X107235464Y-92598192D01*
X107167582Y-92245857D01*
X107110470Y-91837147D01*
X107072345Y-91420843D01*
X107061000Y-91099435D01*
X107107153Y-90580899D01*
X107233654Y-89954605D01*
X107422565Y-89290641D01*
X107655949Y-88659099D01*
X107726882Y-88497495D01*
X107892708Y-88106871D01*
X107959672Y-87850561D01*
X107929506Y-87686324D01*
X107803941Y-87571921D01*
X107765706Y-87550324D01*
X107614915Y-87495980D01*
X107464561Y-87523223D01*
X107274953Y-87653768D01*
X107006398Y-87909331D01*
X106888380Y-88030289D01*
X106628481Y-88254217D01*
X106413196Y-88358571D01*
X106277382Y-88332167D01*
X106248200Y-88235700D01*
X106321912Y-88052963D01*
X106524120Y-87769405D01*
X106826438Y-87413345D01*
X107200478Y-87013104D01*
X107617850Y-86597001D01*
X108050169Y-86193355D01*
X108469045Y-85830486D01*
X108846091Y-85536713D01*
X109147822Y-85343057D01*
X109352361Y-85170084D01*
X109493337Y-84974330D01*
X109564106Y-84702749D01*
X109454133Y-84511809D01*
X109174098Y-84413973D01*
X109004360Y-84403633D01*
X108447178Y-84342158D01*
X107952294Y-84174342D01*
X107593629Y-83930064D01*
X107454339Y-83762126D01*
X107431896Y-83625078D01*
X107545919Y-83495543D01*
X107816029Y-83350149D01*
X108222271Y-83181092D01*
X108442484Y-83089464D01*
X108636077Y-82991126D01*
X108828474Y-82864437D01*
X109045099Y-82687752D01*
X109311377Y-82439431D01*
X109652730Y-82097830D01*
X110094583Y-81641307D01*
X110375829Y-81347839D01*
X110713117Y-81010413D01*
X111032127Y-80717537D01*
X111287369Y-80509754D01*
X111391829Y-80442361D01*
X111831264Y-80183701D01*
X112144202Y-79928406D01*
X112315621Y-79696440D01*
X112330495Y-79507766D01*
X112186140Y-79386886D01*
X112022081Y-79385748D01*
X111717789Y-79432686D01*
X111327169Y-79515768D01*
X110904125Y-79623062D01*
X110502561Y-79742636D01*
X110360823Y-79790945D01*
X110273997Y-79797619D01*
X110326116Y-79697751D01*
X110494270Y-79508026D01*
X110889808Y-79175070D01*
X111430568Y-78841193D01*
X112060817Y-78535577D01*
X112724819Y-78287408D01*
X112955033Y-78219480D01*
X113415901Y-78093032D01*
X113884934Y-77963121D01*
X114250536Y-77860702D01*
X114558648Y-77786317D01*
X115008723Y-77693865D01*
X115541688Y-77594821D01*
X116098465Y-77500659D01*
X116130136Y-77495606D01*
X116775309Y-77389801D01*
X117246152Y-77301448D01*
X117569683Y-77220600D01*
X117772915Y-77137307D01*
X117882864Y-77041622D01*
X117926545Y-76923595D01*
X117932200Y-76831993D01*
X117838086Y-76586495D01*
X117562950Y-76412045D01*
X117117603Y-76312678D01*
X116512856Y-76292429D01*
X116488888Y-76293205D01*
X116109921Y-76301628D01*
X115871591Y-76281317D01*
X115711525Y-76212354D01*
X115567353Y-76074825D01*
X115478887Y-75970713D01*
X115255371Y-75672445D01*
X115190320Y-75498491D01*
X115285287Y-75444055D01*
X115541828Y-75504340D01*
X115620800Y-75532783D01*
X115932396Y-75609712D01*
X116366516Y-75665406D01*
X116869729Y-75698882D01*
X117388602Y-75709155D01*
X117869703Y-75695243D01*
X118259600Y-75656162D01*
X118504860Y-75590931D01*
X118514070Y-75586018D01*
X118741274Y-75505785D01*
X119125858Y-75419597D01*
X119622393Y-75334162D01*
X120185455Y-75256187D01*
X120769617Y-75192379D01*
X121329453Y-75149445D01*
X121537764Y-75139568D01*
X121943334Y-75128746D01*
X122188721Y-75139241D01*
X122316550Y-75179765D01*
X122369446Y-75259030D01*
X122380493Y-75311804D01*
X122518208Y-75853477D01*
X122765051Y-76485062D01*
X123091939Y-77147517D01*
X123469784Y-77781799D01*
X123862721Y-78320665D01*
X124131755Y-78616723D01*
X124474216Y-78950605D01*
X124854193Y-79292296D01*
X125235776Y-79611781D01*
X125583053Y-79879044D01*
X125860115Y-80064070D01*
X126031050Y-80136845D01*
X126035817Y-80136999D01*
X126190769Y-80201433D01*
X126196065Y-80379185D01*
X126052446Y-80646934D01*
X126018110Y-80693411D01*
X125856347Y-80916698D01*
X125763824Y-81066117D01*
X125755400Y-81090327D01*
X125703167Y-81197015D01*
X125568967Y-81414913D01*
X125450632Y-81594394D01*
X124952207Y-82480439D01*
X124546368Y-83502458D01*
X124245085Y-84609903D01*
X124060326Y-85752226D01*
X124004060Y-86878877D01*
X124039577Y-87553800D01*
X124249158Y-88876809D01*
X124612434Y-90076524D01*
X125137330Y-91171214D01*
X125831765Y-92179148D01*
X126258399Y-92670653D01*
X126554959Y-92965648D01*
X126902905Y-93277065D01*
X127262383Y-93573364D01*
X127593540Y-93823006D01*
X127856522Y-93994448D01*
X128009135Y-94056200D01*
X128177311Y-94117526D01*
X128287400Y-94195464D01*
X128460117Y-94296037D01*
X128763332Y-94429387D01*
X129133568Y-94567766D01*
X129159000Y-94576464D01*
X129467454Y-94673417D01*
X129757030Y-94740734D01*
X130075896Y-94783624D01*
X130472213Y-94807296D01*
X130994148Y-94816959D01*
X131394200Y-94818200D01*
X132088884Y-94810632D01*
X132638038Y-94779216D01*
X133099049Y-94710881D01*
X133529301Y-94592557D01*
X133986179Y-94411173D01*
X134527070Y-94153659D01*
X134705701Y-94063953D01*
X135702635Y-93464099D01*
X136630005Y-92719633D01*
X137448798Y-91868144D01*
X138119996Y-90947220D01*
X138342475Y-90560171D01*
X138518238Y-90236121D01*
X138665487Y-89978180D01*
X138747665Y-89848971D01*
X138820942Y-89694935D01*
X138940102Y-89370808D01*
X139096542Y-88902259D01*
X139281661Y-88314958D01*
X139465643Y-87706200D01*
X139524024Y-87429655D01*
X139582987Y-87016210D01*
X139633938Y-86531959D01*
X139657214Y-86233000D01*
X139694561Y-85746854D01*
X139703582Y-85674200D01*
X138490599Y-85674200D01*
X138479562Y-86270172D01*
X138443678Y-86761685D01*
X138370926Y-87213562D01*
X138249283Y-87690630D01*
X138066728Y-88257713D01*
X137948911Y-88595099D01*
X137504749Y-89600361D01*
X136909485Y-90573691D01*
X136203961Y-91455359D01*
X135577402Y-92063268D01*
X135162367Y-92375396D01*
X134639337Y-92709508D01*
X134077185Y-93026413D01*
X133544785Y-93286920D01*
X133167401Y-93434633D01*
X132838895Y-93517874D01*
X132416349Y-93595887D01*
X131976952Y-93657483D01*
X131597896Y-93691473D01*
X131394200Y-93691661D01*
X131195945Y-93674499D01*
X130863791Y-93646148D01*
X130466327Y-93612460D01*
X130429000Y-93609307D01*
X129610056Y-93446331D01*
X128783751Y-93110087D01*
X127985004Y-92626060D01*
X127248736Y-92019734D01*
X126609866Y-91316595D01*
X126103314Y-90542126D01*
X126029613Y-90398600D01*
X125658297Y-89536972D01*
X125407747Y-88682489D01*
X125263366Y-87769965D01*
X125210633Y-86741000D01*
X125212656Y-86107214D01*
X125238107Y-85621903D01*
X125291999Y-85231180D01*
X125379341Y-84881155D01*
X125385405Y-84861400D01*
X125489755Y-84504495D01*
X125567558Y-84201462D01*
X125597302Y-84048600D01*
X125663605Y-83823195D01*
X125812846Y-83471979D01*
X126020615Y-83041666D01*
X126262499Y-82578975D01*
X126514087Y-82130622D01*
X126750968Y-81743324D01*
X126946554Y-81466492D01*
X127475892Y-80875992D01*
X128075664Y-80317429D01*
X128703140Y-79823781D01*
X129315588Y-79428029D01*
X129870279Y-79163152D01*
X129978802Y-79126188D01*
X130341508Y-79000466D01*
X130693472Y-78859622D01*
X130724114Y-78846014D01*
X131160859Y-78716811D01*
X131731123Y-78645124D01*
X132373062Y-78632580D01*
X133024833Y-78680803D01*
X133544980Y-78771861D01*
X133958089Y-78877570D01*
X134322684Y-78986511D01*
X134569493Y-79077697D01*
X134594600Y-79089844D01*
X134820149Y-79187633D01*
X134960449Y-79221974D01*
X135089277Y-79280118D01*
X135331229Y-79433844D01*
X135639769Y-79653041D01*
X135722449Y-79714992D01*
X136613366Y-80508624D01*
X137331749Y-81409438D01*
X137877658Y-82417565D01*
X138251155Y-83533139D01*
X138452302Y-84756291D01*
X138490599Y-85674200D01*
X139703582Y-85674200D01*
X139733510Y-85433195D01*
X139780660Y-85261369D01*
X139842611Y-85200724D01*
X139879181Y-85202020D01*
X140615078Y-85320629D01*
X141448546Y-85363875D01*
X142303756Y-85333824D01*
X143104878Y-85232542D01*
X143664744Y-85098878D01*
X144012836Y-84981384D01*
X144277897Y-84874334D01*
X144405346Y-84799910D01*
X144407340Y-84797105D01*
X144544367Y-84719391D01*
X144633597Y-84708034D01*
X144801808Y-84650996D01*
X145093542Y-84496852D01*
X145469068Y-84269486D01*
X145888655Y-83992781D01*
X146253546Y-83734224D01*
X146386156Y-83650765D01*
X146503345Y-83644114D01*
X146656243Y-83733301D01*
X146895984Y-83937356D01*
X146964746Y-83998914D01*
X147191346Y-84208714D01*
X147529631Y-84530229D01*
X147947006Y-84932082D01*
X148410881Y-85382898D01*
X148877530Y-85840336D01*
X149382998Y-86334066D01*
X149769478Y-86699942D01*
X150059383Y-86956038D01*
X150275126Y-87120432D01*
X150439120Y-87211199D01*
X150573778Y-87246417D01*
X150624133Y-87249000D01*
X150864015Y-87277116D01*
X150999407Y-87344797D01*
X150999828Y-87345466D01*
X150969671Y-87433905D01*
X150784375Y-87492962D01*
X150490418Y-87518592D01*
X150134276Y-87506749D01*
X149762424Y-87453386D01*
X149761760Y-87453248D01*
X149141928Y-87339366D01*
X148702908Y-87298236D01*
X148441589Y-87337912D01*
X148354858Y-87466447D01*
X148439603Y-87691894D01*
X148692710Y-88022307D01*
X149111067Y-88465738D01*
X149298578Y-88651699D01*
X149721020Y-89077982D01*
X150138219Y-89520395D01*
X150503361Y-89928009D01*
X150769635Y-90249898D01*
X150779539Y-90262861D01*
X151296085Y-90988486D01*
X151802009Y-91783152D01*
X152269335Y-92596994D01*
X152670085Y-93380143D01*
X152976285Y-94082734D01*
X153072942Y-94350761D01*
X153156870Y-94611250D01*
X153172387Y-94731655D01*
X154398345Y-94731655D01*
X154385110Y-94673024D01*
X154203907Y-94145948D01*
X153945228Y-93518282D01*
X153624566Y-92825645D01*
X153257414Y-92103658D01*
X152920048Y-91492961D01*
X152657037Y-91032183D01*
X152434445Y-90636400D01*
X152270056Y-90337692D01*
X152181654Y-90168142D01*
X152171400Y-90142444D01*
X152112104Y-90046657D01*
X151954620Y-89834543D01*
X151729560Y-89546940D01*
X151660499Y-89460801D01*
X151149598Y-88826778D01*
X151432993Y-88723689D01*
X151992375Y-88446713D01*
X152396372Y-88087650D01*
X152628309Y-87665124D01*
X152679400Y-87331751D01*
X152663841Y-87205657D01*
X152597563Y-87091527D01*
X152451169Y-86966787D01*
X152195260Y-86808860D01*
X151800438Y-86595170D01*
X151550672Y-86464984D01*
X150908028Y-86092203D01*
X150301417Y-85649508D01*
X149679974Y-85096986D01*
X149224512Y-84639786D01*
X148832418Y-84242020D01*
X148414881Y-83835793D01*
X148036880Y-83483678D01*
X147878312Y-83343422D01*
X147598277Y-83090609D01*
X147391612Y-82881185D01*
X147296820Y-82754673D01*
X147294600Y-82744286D01*
X147354555Y-82617296D01*
X147508840Y-82393730D01*
X147650200Y-82213165D01*
X147847167Y-81956577D01*
X147976301Y-81757260D01*
X148005800Y-81683002D01*
X148061685Y-81539027D01*
X148187135Y-81344501D01*
X148397340Y-80965301D01*
X148591710Y-80435263D01*
X148758759Y-79806703D01*
X148887003Y-79131938D01*
X148964956Y-78463283D01*
X148967857Y-78353847D01*
X147877475Y-78353847D01*
X147719661Y-79467437D01*
X147370063Y-80521063D01*
X146834144Y-81503579D01*
X146117370Y-82403839D01*
X145684364Y-82827322D01*
X145098923Y-83273407D01*
X144411222Y-83667836D01*
X143695840Y-83973377D01*
X143030487Y-84152267D01*
X142785357Y-84201826D01*
X142646234Y-84245380D01*
X142639629Y-84250104D01*
X142523013Y-84266895D01*
X142252337Y-84271747D01*
X141876278Y-84266468D01*
X141443509Y-84252864D01*
X141002707Y-84232740D01*
X140602547Y-84207902D01*
X140291704Y-84180157D01*
X140141483Y-84157413D01*
X139724578Y-84019066D01*
X139506182Y-83840570D01*
X139470103Y-83714825D01*
X139432212Y-83484028D01*
X139333756Y-83123595D01*
X139194280Y-82690635D01*
X139033328Y-82242252D01*
X138870444Y-81835555D01*
X138725174Y-81527650D01*
X138715604Y-81510258D01*
X138343098Y-80873136D01*
X138002003Y-80363312D01*
X137648852Y-79919184D01*
X137397205Y-79641784D01*
X136997084Y-79248718D01*
X136569563Y-78878146D01*
X136159302Y-78564950D01*
X135810964Y-78344014D01*
X135634456Y-78264971D01*
X135439196Y-78160375D01*
X135443122Y-78023449D01*
X135559800Y-77901800D01*
X135687792Y-77750208D01*
X135712200Y-77676443D01*
X135766649Y-77533793D01*
X135899999Y-77314403D01*
X135922686Y-77281969D01*
X136133056Y-76907256D01*
X136344834Y-76395359D01*
X136536838Y-75811032D01*
X136687887Y-75219032D01*
X136776798Y-74684112D01*
X136778766Y-74664787D01*
X136825526Y-74267433D01*
X136889503Y-74002801D01*
X137000661Y-73800816D01*
X137188962Y-73591399D01*
X137226918Y-73554116D01*
X135813879Y-73554116D01*
X135766285Y-74191655D01*
X135634738Y-74900698D01*
X135436412Y-75627515D01*
X135188478Y-76318376D01*
X134908110Y-76919551D01*
X134612481Y-77377311D01*
X134579167Y-77417301D01*
X134406261Y-77591537D01*
X134241709Y-77647521D01*
X133992570Y-77611224D01*
X133934200Y-77597525D01*
X133262399Y-77499478D01*
X132475528Y-77485353D01*
X131629226Y-77547394D01*
X130779133Y-77677844D01*
X129980888Y-77868945D01*
X129290129Y-78112942D01*
X128925929Y-78295758D01*
X128635153Y-78462551D01*
X128419561Y-78577458D01*
X128334951Y-78613000D01*
X128223418Y-78671368D01*
X128012160Y-78818411D01*
X127756979Y-79012032D01*
X127513681Y-79210136D01*
X127360449Y-79348103D01*
X127213493Y-79442363D01*
X127027804Y-79445597D01*
X126769454Y-79347409D01*
X126404513Y-79137403D01*
X126161800Y-78980852D01*
X125265647Y-78277487D01*
X124527545Y-77463876D01*
X123953058Y-76560092D01*
X123547750Y-75586210D01*
X123317183Y-74562302D01*
X123266921Y-73508443D01*
X123402527Y-72444704D01*
X123729564Y-71391160D01*
X123933394Y-70940308D01*
X124522460Y-69963794D01*
X125242407Y-69142031D01*
X126098208Y-68470548D01*
X127094836Y-67944875D01*
X127401177Y-67822694D01*
X127769879Y-67690605D01*
X128077549Y-67601309D01*
X128381678Y-67546312D01*
X128739758Y-67517115D01*
X129209281Y-67505225D01*
X129565400Y-67502874D01*
X130108721Y-67502763D01*
X130505695Y-67513584D01*
X130813174Y-67545290D01*
X131088008Y-67607834D01*
X131387048Y-67711169D01*
X131767146Y-67865249D01*
X131862873Y-67905104D01*
X132895711Y-68438457D01*
X133796023Y-69118867D01*
X134552421Y-69935928D01*
X135153517Y-70879231D01*
X135185698Y-70942200D01*
X135409463Y-71486899D01*
X135602422Y-72141249D01*
X135743325Y-72816897D01*
X135810923Y-73425488D01*
X135813879Y-73554116D01*
X137226918Y-73554116D01*
X137273038Y-73508814D01*
X137893717Y-72990048D01*
X138603126Y-72535410D01*
X139339293Y-72178813D01*
X140040247Y-71954167D01*
X140157365Y-71930458D01*
X140956982Y-71834663D01*
X141791509Y-71821963D01*
X142611337Y-71886917D01*
X143366857Y-72024085D01*
X144008460Y-72228025D01*
X144331809Y-72388317D01*
X144667557Y-72583191D01*
X144985903Y-72757597D01*
X145110200Y-72821118D01*
X145313350Y-72956891D01*
X145608609Y-73199386D01*
X145948131Y-73508007D01*
X146140799Y-73695621D01*
X146851635Y-74542112D01*
X147378907Y-75474921D01*
X147721269Y-76490438D01*
X147877377Y-77585055D01*
X147877475Y-78353847D01*
X148967857Y-78353847D01*
X148981135Y-77853055D01*
X148976360Y-77749400D01*
X148806122Y-76509127D01*
X148454234Y-75352162D01*
X147929169Y-74290091D01*
X147239398Y-73334502D01*
X146393394Y-72496981D01*
X145399629Y-71789115D01*
X144266574Y-71222491D01*
X144177775Y-71186631D01*
X143078200Y-70749487D01*
X141554200Y-70750288D01*
X140030200Y-70751088D01*
X139024835Y-71172480D01*
X138527678Y-71397496D01*
X138028093Y-71651519D01*
X137602321Y-71894670D01*
X137433886Y-72004636D01*
X137092763Y-72239906D01*
X136883891Y-72366166D01*
X136775029Y-72393712D01*
X136733941Y-72332839D01*
X136728200Y-72229995D01*
X136685801Y-71973115D01*
X136572889Y-71592072D01*
X136410895Y-71143912D01*
X136221247Y-70685683D01*
X136025377Y-70274430D01*
X135925874Y-70094181D01*
X135403316Y-69323811D01*
X134791246Y-68607840D01*
X134132145Y-67989405D01*
X133468496Y-67511639D01*
X133274474Y-67401984D01*
X132985175Y-67244560D01*
X132741183Y-67103356D01*
X132715000Y-67087189D01*
X132274298Y-66877059D01*
X131684935Y-66690964D01*
X131001057Y-66540294D01*
X130276809Y-66436436D01*
X129566338Y-66390777D01*
X129399057Y-66389777D01*
X128455404Y-66459860D01*
G37*
X128455404Y-66459860D02*
X127549259Y-66667477D01*
X126720600Y-66977503D01*
X126422471Y-67096753D01*
X126176340Y-67181992D01*
X125913251Y-67297495D01*
X125769940Y-67391578D01*
X125607684Y-67520634D01*
X125340888Y-67728636D01*
X125026500Y-67971192D01*
X125017944Y-67977759D01*
X124600669Y-68341891D01*
X124149582Y-68807059D01*
X123711279Y-69318432D01*
X123332356Y-69821177D01*
X123059409Y-70260461D01*
X123031600Y-70315215D01*
X122724629Y-71060985D01*
X122468083Y-71915792D01*
X122288540Y-72786878D01*
X122255248Y-73024615D01*
X122148600Y-73887830D01*
X121539000Y-73959388D01*
X120962502Y-74032062D01*
X120349720Y-74117748D01*
X119745105Y-74209351D01*
X119193111Y-74299778D01*
X118738189Y-74381935D01*
X118424793Y-74448727D01*
X118356314Y-74467299D01*
X117797056Y-74555543D01*
X117111703Y-74528716D01*
X116340019Y-74389141D01*
X116141817Y-74337875D01*
X115718884Y-74223438D01*
X115331899Y-74121032D01*
X115054472Y-74050096D01*
X115023184Y-74042489D01*
X114763253Y-73967140D01*
X114588572Y-73894268D01*
X114435077Y-73904691D01*
X114245658Y-74054333D01*
X114059161Y-74293468D01*
X113914432Y-74572372D01*
X113850417Y-74839144D01*
X113853555Y-75497340D01*
X113932524Y-75989390D01*
X114043114Y-76245501D01*
X114140708Y-76403106D01*
X114147552Y-76496394D01*
X114030895Y-76560683D01*
X113757986Y-76631289D01*
X113665000Y-76653240D01*
X112937939Y-76830707D01*
X112319464Y-76992764D01*
X111832541Y-77132828D01*
X111500135Y-77244318D01*
X111349439Y-77316887D01*
X111184903Y-77421625D01*
X110911468Y-77567636D01*
X110739839Y-77651519D01*
X110038506Y-78087628D01*
X109441428Y-78669079D01*
X109097652Y-79163670D01*
X108910045Y-79539020D01*
X108853413Y-79818767D01*
X108926935Y-80061969D01*
X109082242Y-80273781D01*
X109145257Y-80366954D01*
X109146238Y-80465084D01*
X109064535Y-80599648D01*
X108879500Y-80802127D01*
X108570484Y-81103999D01*
X108482445Y-81188181D01*
X108099375Y-81541394D01*
X107792569Y-81784022D01*
X107500900Y-81955191D01*
X107163238Y-82094030D01*
X106959247Y-82163166D01*
X106570552Y-82306794D01*
X106242177Y-82458715D01*
X106036743Y-82589402D01*
X106019600Y-82606221D01*
X105863755Y-82920118D01*
X105874031Y-83318252D01*
X106043238Y-83778777D01*
X106364187Y-84279848D01*
X106697558Y-84666406D01*
X107141975Y-85130226D01*
X106691026Y-85545897D01*
X106029047Y-86291270D01*
X105486936Y-87192993D01*
X105373064Y-87437232D01*
X105138173Y-88075513D01*
X105050442Y-88591044D01*
X105109300Y-88978663D01*
X105314176Y-89233211D01*
X105583208Y-89337641D01*
X105806824Y-89387249D01*
X105911709Y-89461490D01*
X105912744Y-89610543D01*
X105824809Y-89884590D01*
X105781061Y-90004826D01*
X105630542Y-90614236D01*
X105576289Y-91304937D01*
X105613452Y-92015941D01*
X105737185Y-92686263D01*
X105942639Y-93254919D01*
X106055180Y-93453417D01*
X106193915Y-93695671D01*
X106357989Y-94024392D01*
X106428790Y-94179409D01*
X106661407Y-94551896D01*
X106943621Y-94746085D01*
X107257318Y-94750530D01*
X107306365Y-94733972D01*
X107411370Y-94720091D01*
X107478503Y-94795860D01*
X107514891Y-94991975D01*
X107527663Y-95339134D01*
X107526443Y-95681800D01*
X107516528Y-96028874D01*
X107484592Y-96311593D01*
X107414086Y-96578289D01*
X107288458Y-96877300D01*
X107091158Y-97256960D01*
X106823974Y-97733352D01*
X106630092Y-98123733D01*
X106566401Y-98416553D01*
X106629459Y-98667330D01*
X106754298Y-98856705D01*
X107106311Y-99148222D01*
X107593624Y-99327389D01*
X108176670Y-99385353D01*
X108805193Y-99315533D01*
X108903643Y-99393179D01*
X108999565Y-99652596D01*
X109044302Y-99847400D01*
X109117239Y-100185769D01*
X109185252Y-100455836D01*
X109218190Y-100558600D01*
X109286316Y-100750288D01*
X109377697Y-101036866D01*
X109402046Y-101117400D01*
X109555703Y-101517433D01*
X109795856Y-102014623D01*
X110086536Y-102543978D01*
X110391775Y-103040506D01*
X110675601Y-103439213D01*
X110711559Y-103483502D01*
X110994604Y-103784385D01*
X111349321Y-104105228D01*
X111723017Y-104403901D01*
X112062995Y-104638277D01*
X112315638Y-104765934D01*
X112480675Y-104883608D01*
X112683928Y-105114093D01*
X112784970Y-105258120D01*
X113186724Y-105801422D01*
X113701202Y-106372494D01*
X114300824Y-106950986D01*
X114958011Y-107516547D01*
X115645182Y-108048829D01*
X116334757Y-108527481D01*
X116999157Y-108932154D01*
X117610803Y-109242497D01*
X118142113Y-109438161D01*
X118533121Y-109499400D01*
X118793026Y-109553489D01*
X118955820Y-109660981D01*
X119250841Y-109945107D01*
X119655823Y-110239956D01*
X120125824Y-110522779D01*
X120615905Y-110770828D01*
X121081125Y-110961353D01*
X121476545Y-111071606D01*
X121756955Y-111078906D01*
X122068863Y-111094571D01*
X122499102Y-111261871D01*
X123036150Y-111576144D01*
X123113800Y-111627950D01*
X123383491Y-111800347D01*
X123587236Y-111912700D01*
X123656916Y-111937365D01*
X123791707Y-111991689D01*
X124002882Y-112123083D01*
X124019906Y-112135094D01*
X124350411Y-112322224D01*
X124825631Y-112528486D01*
X125390913Y-112733723D01*
X125991606Y-112917778D01*
X126466600Y-113037495D01*
X127008689Y-113125747D01*
X127647646Y-113178617D01*
X128325271Y-113196255D01*
X128983364Y-113178814D01*
X129563723Y-113126445D01*
X130008149Y-113039301D01*
X130044477Y-113028165D01*
X130347653Y-112941932D01*
X130561808Y-112933021D01*
X130788509Y-113008275D01*
X130958877Y-113089770D01*
X131472228Y-113256482D01*
X132111900Y-113326807D01*
X132823917Y-113298073D01*
X133375400Y-113209380D01*
X133828243Y-113107252D01*
X134297983Y-112993860D01*
X134572065Y-112923191D01*
X134903799Y-112846353D01*
X135091772Y-112840313D01*
X135181665Y-112902769D01*
X135331918Y-113016765D01*
X135604031Y-113128725D01*
X135918221Y-113211516D01*
X136169400Y-113238678D01*
X136346960Y-113219012D01*
X136663255Y-113168698D01*
X137058110Y-113098630D01*
X137471353Y-113019704D01*
X137842811Y-112942814D01*
X137998200Y-112907556D01*
X138344065Y-112789989D01*
X138795911Y-112587099D01*
X139292758Y-112329381D01*
X139773623Y-112047328D01*
X139959094Y-111926967D01*
X140216392Y-111760389D01*
X140399652Y-111653847D01*
X140450889Y-111633000D01*
X140549832Y-111571834D01*
X140757565Y-111411165D01*
X141029898Y-111185231D01*
X141040950Y-111175800D01*
X141361682Y-110908763D01*
X141560722Y-110766613D01*
X141665590Y-110736297D01*
X141703806Y-110804765D01*
X141706600Y-110860129D01*
X141797984Y-111020027D01*
X142037495Y-111134880D01*
X142373172Y-111195066D01*
X142753052Y-111190964D01*
X143106026Y-111119250D01*
X143601975Y-110933651D01*
X144138526Y-110691057D01*
X144632918Y-110431335D01*
X144957800Y-110227162D01*
X145202461Y-110030062D01*
X145512988Y-109748012D01*
X145857723Y-109413836D01*
X146205010Y-109060357D01*
X146523192Y-108720397D01*
X146780612Y-108426780D01*
X146945612Y-108212329D01*
X146989800Y-108120322D01*
X146989767Y-108031136D01*
X147018538Y-107992731D01*
X147119426Y-108009927D01*
X147335740Y-108087544D01*
X147599400Y-108188164D01*
X147986373Y-108303853D01*
X148437941Y-108391671D01*
X148897824Y-108446257D01*
X149309744Y-108462254D01*
X149617423Y-108434304D01*
X149733000Y-108391315D01*
X149805707Y-108295243D01*
X149852291Y-108102831D01*
X149877319Y-107779578D01*
X149885355Y-107290981D01*
X149885400Y-107239602D01*
X149885400Y-106191603D01*
X150684524Y-104568901D01*
X150955908Y-104017962D01*
X151207270Y-103507912D01*
X151420214Y-103076061D01*
X151576344Y-102759722D01*
X151647429Y-102616000D01*
X151778518Y-102377533D01*
X151887008Y-102301950D01*
X152033021Y-102366535D01*
X152126582Y-102434968D01*
X152443070Y-102574018D01*
X152748125Y-102531134D01*
X152919929Y-102402285D01*
X153034134Y-102216670D01*
X153178415Y-101900382D01*
X153324054Y-101517256D01*
X153342726Y-101462485D01*
X153543970Y-100653978D01*
X153657333Y-99725392D01*
X153679640Y-98741348D01*
X153607718Y-97766469D01*
X153544571Y-97352445D01*
X153477148Y-96929011D01*
X153439504Y-96587891D01*
X153435496Y-96372832D01*
X153453627Y-96321024D01*
X153979422Y-96074127D01*
X154319596Y-95749032D01*
X154472685Y-95347545D01*
X154473341Y-95063890D01*
X154398345Y-94731655D01*
X153172387Y-94731655D01*
X153111590Y-94765873D01*
X153011836Y-94767400D01*
X152864562Y-94696899D01*
X152627627Y-94509437D01*
X152345067Y-94241070D01*
X152257791Y-94149968D01*
X151964625Y-93846487D01*
X151766685Y-93673728D01*
X151627267Y-93607865D01*
X151509667Y-93625072D01*
X151475036Y-93641860D01*
X151278545Y-93822989D01*
X151203050Y-93964526D01*
X151172097Y-94279944D01*
X151221299Y-94709391D01*
X151339057Y-95185592D01*
X151478819Y-95564182D01*
X151936962Y-96830662D01*
X152224870Y-98153917D01*
X152346939Y-99452382D01*
X152361489Y-100064295D01*
X152348078Y-100503833D01*
X152308496Y-100764962D01*
X152244536Y-100841644D01*
X152157986Y-100727843D01*
X152055526Y-100434532D01*
X151807920Y-99862370D01*
X151445580Y-99435674D01*
X151350500Y-99362930D01*
X151145130Y-99272921D01*
X151000506Y-99343982D01*
X150909885Y-99587662D01*
X150866526Y-100015510D01*
X150861414Y-100200771D01*
X150828402Y-100603227D01*
X150748888Y-101088601D01*
X150636722Y-101600610D01*
X150505753Y-102082970D01*
X150369829Y-102479401D01*
X150242801Y-102733617D01*
X150235856Y-102743000D01*
X150154404Y-102877143D01*
X150009007Y-103140421D01*
X149828148Y-103481005D01*
X149789209Y-103555800D01*
X149582829Y-103943655D01*
X149383892Y-104300904D01*
X149232568Y-104555573D01*
X149222139Y-104571800D01*
X149067979Y-104821756D01*
X148960428Y-105018274D01*
X148955470Y-105029000D01*
X148721151Y-105563511D01*
X148563911Y-105964803D01*
X148469276Y-106281061D01*
X148422771Y-106560472D01*
X148409941Y-106845042D01*
X148407682Y-107416600D01*
X148208946Y-107162600D01*
X148082035Y-106940322D01*
X148049633Y-106673232D01*
X148069755Y-106442128D01*
X148070241Y-106047532D01*
X147983599Y-105697443D01*
X147830806Y-105442819D01*
X147632839Y-105334615D01*
X147613483Y-105333800D01*
X147468610Y-105415413D01*
X147229968Y-105647553D01*
X146915744Y-106011170D01*
X146667726Y-106324400D01*
X145983670Y-107184872D01*
X145378824Y-107882164D01*
X144837778Y-108432919D01*
X144345124Y-108853785D01*
X144283330Y-108900194D01*
X143939406Y-109142970D01*
X143587906Y-109372734D01*
X143275940Y-109560659D01*
X143050615Y-109677919D01*
X142972030Y-109702600D01*
X142952461Y-109611218D01*
X142954047Y-109375825D01*
X142968098Y-109154912D01*
X142982818Y-108815947D01*
X142944243Y-108602893D01*
X142834042Y-108441489D01*
X142778422Y-108386517D01*
X142606081Y-108247497D01*
X142451658Y-108223151D01*
X142219143Y-108301384D01*
X142192042Y-108312652D01*
X141934012Y-108462355D01*
X141613672Y-108705260D01*
X141341798Y-108949566D01*
X140595717Y-109637308D01*
X139833942Y-110255987D01*
X139084257Y-110787439D01*
X138374443Y-111213504D01*
X137732284Y-111516019D01*
X137185562Y-111676823D01*
X137164561Y-111680291D01*
X136901505Y-111732349D01*
X136730982Y-111784531D01*
X136720417Y-111790210D01*
X136691510Y-111745142D01*
X136732028Y-111565561D01*
X136744973Y-111526959D01*
X136792978Y-111211634D01*
X136732448Y-110933845D01*
X136584845Y-110754164D01*
X136458557Y-110718600D01*
X136296626Y-110761056D01*
X135998802Y-110875230D01*
X135610623Y-111041329D01*
X135177623Y-111239559D01*
X134745338Y-111450126D01*
X134576400Y-111536724D01*
X134414578Y-111587730D01*
X134096989Y-111662241D01*
X133668334Y-111750551D01*
X133173316Y-111842954D01*
X133133593Y-111849985D01*
X131861385Y-112074241D01*
X131678593Y-111851667D01*
X131495800Y-111629093D01*
X130327400Y-111843433D01*
X129867588Y-111929438D01*
X129488297Y-112003517D01*
X129229870Y-112057573D01*
X129132919Y-112083134D01*
X129021155Y-112094879D01*
X128753720Y-112095892D01*
X128377759Y-112087974D01*
X127940414Y-112072926D01*
X127488829Y-112052549D01*
X127070147Y-112028645D01*
X126731511Y-112003015D01*
X126568200Y-111985132D01*
X125791507Y-111819933D01*
X124965340Y-111528610D01*
X124068400Y-111101578D01*
X123079387Y-110529251D01*
X122489207Y-110149558D01*
X122004443Y-109835932D01*
X121655184Y-109633792D01*
X121413799Y-109533476D01*
X121252657Y-109525321D01*
X121144130Y-109599663D01*
X121101292Y-109664161D01*
X121030894Y-109741059D01*
X120917613Y-109736379D01*
X120717853Y-109637414D01*
X120458811Y-109476915D01*
X120145520Y-109246964D01*
X119757299Y-108919297D01*
X119355380Y-108547025D01*
X119148967Y-108340748D01*
X118780222Y-107976141D01*
X118407060Y-107634135D01*
X118084100Y-107363626D01*
X117937563Y-107256260D01*
X117666039Y-107086859D01*
X117501384Y-107025995D01*
X117388212Y-107059876D01*
X117335345Y-107106312D01*
X117240722Y-107255111D01*
X117272925Y-107444415D01*
X117308386Y-107527576D01*
X117382560Y-107734820D01*
X117385628Y-107844639D01*
X117267715Y-107829138D01*
X117035091Y-107702083D01*
X116722728Y-107489340D01*
X116365601Y-107216776D01*
X115998683Y-106910256D01*
X115656947Y-106595648D01*
X115544356Y-106482851D01*
X114681390Y-105481075D01*
X114017413Y-104456579D01*
X113548879Y-103403082D01*
X113310351Y-102524935D01*
X113197342Y-102227839D01*
X113015547Y-102002831D01*
X112812817Y-101899499D01*
X112716612Y-101909690D01*
X112592467Y-102027552D01*
X112434186Y-102267476D01*
X112345894Y-102434701D01*
X112196862Y-102693690D01*
X112062116Y-102846829D01*
X112002667Y-102866517D01*
X111882197Y-102772468D01*
X111682316Y-102564965D01*
X111470034Y-102317419D01*
X111116386Y-101771158D01*
X110820593Y-101065069D01*
X110578927Y-100187507D01*
X110387662Y-99126831D01*
X110342732Y-98796228D01*
X110236416Y-98075721D01*
X110120320Y-97547644D01*
X109984920Y-97201228D01*
X109820691Y-97025704D01*
X109618110Y-97010303D01*
X109367652Y-97144255D01*
X109093443Y-97383600D01*
X108766127Y-97677982D01*
X108470344Y-97898784D01*
X108237886Y-98026916D01*
X108100547Y-98043291D01*
X108077000Y-97993864D01*
X108139249Y-97797386D01*
X108168261Y-97759520D01*
X108249333Y-97621531D01*
X108375314Y-97351104D01*
X108519387Y-97005919D01*
X108523861Y-96994628D01*
X108643272Y-96667163D01*
X108720690Y-96369057D01*
X108764824Y-96039664D01*
X108784385Y-95618337D01*
X108788200Y-95154295D01*
X108760709Y-94195996D01*
X108677907Y-93429635D01*
X108539302Y-92851486D01*
X108457353Y-92649139D01*
X108260875Y-92427815D01*
X108003447Y-92364594D01*
X107750817Y-92458712D01*
X107590226Y-92659200D01*
X107470707Y-92856259D01*
X107370935Y-92938598D01*
X107370686Y-92938600D01*
X107305904Y-92845367D01*
X107235464Y-92598192D01*
X107167582Y-92245857D01*
X107110470Y-91837147D01*
X107072345Y-91420843D01*
X107061000Y-91099435D01*
X107107153Y-90580899D01*
X107233654Y-89954605D01*
X107422565Y-89290641D01*
X107655949Y-88659099D01*
X107726882Y-88497495D01*
X107892708Y-88106871D01*
X107959672Y-87850561D01*
X107929506Y-87686324D01*
X107803941Y-87571921D01*
X107765706Y-87550324D01*
X107614915Y-87495980D01*
X107464561Y-87523223D01*
X107274953Y-87653768D01*
X107006398Y-87909331D01*
X106888380Y-88030289D01*
X106628481Y-88254217D01*
X106413196Y-88358571D01*
X106277382Y-88332167D01*
X106248200Y-88235700D01*
X106321912Y-88052963D01*
X106524120Y-87769405D01*
X106826438Y-87413345D01*
X107200478Y-87013104D01*
X107617850Y-86597001D01*
X108050169Y-86193355D01*
X108469045Y-85830486D01*
X108846091Y-85536713D01*
X109147822Y-85343057D01*
X109352361Y-85170084D01*
X109493337Y-84974330D01*
X109564106Y-84702749D01*
X109454133Y-84511809D01*
X109174098Y-84413973D01*
X109004360Y-84403633D01*
X108447178Y-84342158D01*
X107952294Y-84174342D01*
X107593629Y-83930064D01*
X107454339Y-83762126D01*
X107431896Y-83625078D01*
X107545919Y-83495543D01*
X107816029Y-83350149D01*
X108222271Y-83181092D01*
X108442484Y-83089464D01*
X108636077Y-82991126D01*
X108828474Y-82864437D01*
X109045099Y-82687752D01*
X109311377Y-82439431D01*
X109652730Y-82097830D01*
X110094583Y-81641307D01*
X110375829Y-81347839D01*
X110713117Y-81010413D01*
X111032127Y-80717537D01*
X111287369Y-80509754D01*
X111391829Y-80442361D01*
X111831264Y-80183701D01*
X112144202Y-79928406D01*
X112315621Y-79696440D01*
X112330495Y-79507766D01*
X112186140Y-79386886D01*
X112022081Y-79385748D01*
X111717789Y-79432686D01*
X111327169Y-79515768D01*
X110904125Y-79623062D01*
X110502561Y-79742636D01*
X110360823Y-79790945D01*
X110273997Y-79797619D01*
X110326116Y-79697751D01*
X110494270Y-79508026D01*
X110889808Y-79175070D01*
X111430568Y-78841193D01*
X112060817Y-78535577D01*
X112724819Y-78287408D01*
X112955033Y-78219480D01*
X113415901Y-78093032D01*
X113884934Y-77963121D01*
X114250536Y-77860702D01*
X114558648Y-77786317D01*
X115008723Y-77693865D01*
X115541688Y-77594821D01*
X116098465Y-77500659D01*
X116130136Y-77495606D01*
X116775309Y-77389801D01*
X117246152Y-77301448D01*
X117569683Y-77220600D01*
X117772915Y-77137307D01*
X117882864Y-77041622D01*
X117926545Y-76923595D01*
X117932200Y-76831993D01*
X117838086Y-76586495D01*
X117562950Y-76412045D01*
X117117603Y-76312678D01*
X116512856Y-76292429D01*
X116488888Y-76293205D01*
X116109921Y-76301628D01*
X115871591Y-76281317D01*
X115711525Y-76212354D01*
X115567353Y-76074825D01*
X115478887Y-75970713D01*
X115255371Y-75672445D01*
X115190320Y-75498491D01*
X115285287Y-75444055D01*
X115541828Y-75504340D01*
X115620800Y-75532783D01*
X115932396Y-75609712D01*
X116366516Y-75665406D01*
X116869729Y-75698882D01*
X117388602Y-75709155D01*
X117869703Y-75695243D01*
X118259600Y-75656162D01*
X118504860Y-75590931D01*
X118514070Y-75586018D01*
X118741274Y-75505785D01*
X119125858Y-75419597D01*
X119622393Y-75334162D01*
X120185455Y-75256187D01*
X120769617Y-75192379D01*
X121329453Y-75149445D01*
X121537764Y-75139568D01*
X121943334Y-75128746D01*
X122188721Y-75139241D01*
X122316550Y-75179765D01*
X122369446Y-75259030D01*
X122380493Y-75311804D01*
X122518208Y-75853477D01*
X122765051Y-76485062D01*
X123091939Y-77147517D01*
X123469784Y-77781799D01*
X123862721Y-78320665D01*
X124131755Y-78616723D01*
X124474216Y-78950605D01*
X124854193Y-79292296D01*
X125235776Y-79611781D01*
X125583053Y-79879044D01*
X125860115Y-80064070D01*
X126031050Y-80136845D01*
X126035817Y-80136999D01*
X126190769Y-80201433D01*
X126196065Y-80379185D01*
X126052446Y-80646934D01*
X126018110Y-80693411D01*
X125856347Y-80916698D01*
X125763824Y-81066117D01*
X125755400Y-81090327D01*
X125703167Y-81197015D01*
X125568967Y-81414913D01*
X125450632Y-81594394D01*
X124952207Y-82480439D01*
X124546368Y-83502458D01*
X124245085Y-84609903D01*
X124060326Y-85752226D01*
X124004060Y-86878877D01*
X124039577Y-87553800D01*
X124249158Y-88876809D01*
X124612434Y-90076524D01*
X125137330Y-91171214D01*
X125831765Y-92179148D01*
X126258399Y-92670653D01*
X126554959Y-92965648D01*
X126902905Y-93277065D01*
X127262383Y-93573364D01*
X127593540Y-93823006D01*
X127856522Y-93994448D01*
X128009135Y-94056200D01*
X128177311Y-94117526D01*
X128287400Y-94195464D01*
X128460117Y-94296037D01*
X128763332Y-94429387D01*
X129133568Y-94567766D01*
X129159000Y-94576464D01*
X129467454Y-94673417D01*
X129757030Y-94740734D01*
X130075896Y-94783624D01*
X130472213Y-94807296D01*
X130994148Y-94816959D01*
X131394200Y-94818200D01*
X132088884Y-94810632D01*
X132638038Y-94779216D01*
X133099049Y-94710881D01*
X133529301Y-94592557D01*
X133986179Y-94411173D01*
X134527070Y-94153659D01*
X134705701Y-94063953D01*
X135702635Y-93464099D01*
X136630005Y-92719633D01*
X137448798Y-91868144D01*
X138119996Y-90947220D01*
X138342475Y-90560171D01*
X138518238Y-90236121D01*
X138665487Y-89978180D01*
X138747665Y-89848971D01*
X138820942Y-89694935D01*
X138940102Y-89370808D01*
X139096542Y-88902259D01*
X139281661Y-88314958D01*
X139465643Y-87706200D01*
X139524024Y-87429655D01*
X139582987Y-87016210D01*
X139633938Y-86531959D01*
X139657214Y-86233000D01*
X139694561Y-85746854D01*
X139703582Y-85674200D01*
X138490599Y-85674200D01*
X138479562Y-86270172D01*
X138443678Y-86761685D01*
X138370926Y-87213562D01*
X138249283Y-87690630D01*
X138066728Y-88257713D01*
X137948911Y-88595099D01*
X137504749Y-89600361D01*
X136909485Y-90573691D01*
X136203961Y-91455359D01*
X135577402Y-92063268D01*
X135162367Y-92375396D01*
X134639337Y-92709508D01*
X134077185Y-93026413D01*
X133544785Y-93286920D01*
X133167401Y-93434633D01*
X132838895Y-93517874D01*
X132416349Y-93595887D01*
X131976952Y-93657483D01*
X131597896Y-93691473D01*
X131394200Y-93691661D01*
X131195945Y-93674499D01*
X130863791Y-93646148D01*
X130466327Y-93612460D01*
X130429000Y-93609307D01*
X129610056Y-93446331D01*
X128783751Y-93110087D01*
X127985004Y-92626060D01*
X127248736Y-92019734D01*
X126609866Y-91316595D01*
X126103314Y-90542126D01*
X126029613Y-90398600D01*
X125658297Y-89536972D01*
X125407747Y-88682489D01*
X125263366Y-87769965D01*
X125210633Y-86741000D01*
X125212656Y-86107214D01*
X125238107Y-85621903D01*
X125291999Y-85231180D01*
X125379341Y-84881155D01*
X125385405Y-84861400D01*
X125489755Y-84504495D01*
X125567558Y-84201462D01*
X125597302Y-84048600D01*
X125663605Y-83823195D01*
X125812846Y-83471979D01*
X126020615Y-83041666D01*
X126262499Y-82578975D01*
X126514087Y-82130622D01*
X126750968Y-81743324D01*
X126946554Y-81466492D01*
X127475892Y-80875992D01*
X128075664Y-80317429D01*
X128703140Y-79823781D01*
X129315588Y-79428029D01*
X129870279Y-79163152D01*
X129978802Y-79126188D01*
X130341508Y-79000466D01*
X130693472Y-78859622D01*
X130724114Y-78846014D01*
X131160859Y-78716811D01*
X131731123Y-78645124D01*
X132373062Y-78632580D01*
X133024833Y-78680803D01*
X133544980Y-78771861D01*
X133958089Y-78877570D01*
X134322684Y-78986511D01*
X134569493Y-79077697D01*
X134594600Y-79089844D01*
X134820149Y-79187633D01*
X134960449Y-79221974D01*
X135089277Y-79280118D01*
X135331229Y-79433844D01*
X135639769Y-79653041D01*
X135722449Y-79714992D01*
X136613366Y-80508624D01*
X137331749Y-81409438D01*
X137877658Y-82417565D01*
X138251155Y-83533139D01*
X138452302Y-84756291D01*
X138490599Y-85674200D01*
X139703582Y-85674200D01*
X139733510Y-85433195D01*
X139780660Y-85261369D01*
X139842611Y-85200724D01*
X139879181Y-85202020D01*
X140615078Y-85320629D01*
X141448546Y-85363875D01*
X142303756Y-85333824D01*
X143104878Y-85232542D01*
X143664744Y-85098878D01*
X144012836Y-84981384D01*
X144277897Y-84874334D01*
X144405346Y-84799910D01*
X144407340Y-84797105D01*
X144544367Y-84719391D01*
X144633597Y-84708034D01*
X144801808Y-84650996D01*
X145093542Y-84496852D01*
X145469068Y-84269486D01*
X145888655Y-83992781D01*
X146253546Y-83734224D01*
X146386156Y-83650765D01*
X146503345Y-83644114D01*
X146656243Y-83733301D01*
X146895984Y-83937356D01*
X146964746Y-83998914D01*
X147191346Y-84208714D01*
X147529631Y-84530229D01*
X147947006Y-84932082D01*
X148410881Y-85382898D01*
X148877530Y-85840336D01*
X149382998Y-86334066D01*
X149769478Y-86699942D01*
X150059383Y-86956038D01*
X150275126Y-87120432D01*
X150439120Y-87211199D01*
X150573778Y-87246417D01*
X150624133Y-87249000D01*
X150864015Y-87277116D01*
X150999407Y-87344797D01*
X150999828Y-87345466D01*
X150969671Y-87433905D01*
X150784375Y-87492962D01*
X150490418Y-87518592D01*
X150134276Y-87506749D01*
X149762424Y-87453386D01*
X149761760Y-87453248D01*
X149141928Y-87339366D01*
X148702908Y-87298236D01*
X148441589Y-87337912D01*
X148354858Y-87466447D01*
X148439603Y-87691894D01*
X148692710Y-88022307D01*
X149111067Y-88465738D01*
X149298578Y-88651699D01*
X149721020Y-89077982D01*
X150138219Y-89520395D01*
X150503361Y-89928009D01*
X150769635Y-90249898D01*
X150779539Y-90262861D01*
X151296085Y-90988486D01*
X151802009Y-91783152D01*
X152269335Y-92596994D01*
X152670085Y-93380143D01*
X152976285Y-94082734D01*
X153072942Y-94350761D01*
X153156870Y-94611250D01*
X153172387Y-94731655D01*
X154398345Y-94731655D01*
X154385110Y-94673024D01*
X154203907Y-94145948D01*
X153945228Y-93518282D01*
X153624566Y-92825645D01*
X153257414Y-92103658D01*
X152920048Y-91492961D01*
X152657037Y-91032183D01*
X152434445Y-90636400D01*
X152270056Y-90337692D01*
X152181654Y-90168142D01*
X152171400Y-90142444D01*
X152112104Y-90046657D01*
X151954620Y-89834543D01*
X151729560Y-89546940D01*
X151660499Y-89460801D01*
X151149598Y-88826778D01*
X151432993Y-88723689D01*
X151992375Y-88446713D01*
X152396372Y-88087650D01*
X152628309Y-87665124D01*
X152679400Y-87331751D01*
X152663841Y-87205657D01*
X152597563Y-87091527D01*
X152451169Y-86966787D01*
X152195260Y-86808860D01*
X151800438Y-86595170D01*
X151550672Y-86464984D01*
X150908028Y-86092203D01*
X150301417Y-85649508D01*
X149679974Y-85096986D01*
X149224512Y-84639786D01*
X148832418Y-84242020D01*
X148414881Y-83835793D01*
X148036880Y-83483678D01*
X147878312Y-83343422D01*
X147598277Y-83090609D01*
X147391612Y-82881185D01*
X147296820Y-82754673D01*
X147294600Y-82744286D01*
X147354555Y-82617296D01*
X147508840Y-82393730D01*
X147650200Y-82213165D01*
X147847167Y-81956577D01*
X147976301Y-81757260D01*
X148005800Y-81683002D01*
X148061685Y-81539027D01*
X148187135Y-81344501D01*
X148397340Y-80965301D01*
X148591710Y-80435263D01*
X148758759Y-79806703D01*
X148887003Y-79131938D01*
X148964956Y-78463283D01*
X148967857Y-78353847D01*
X147877475Y-78353847D01*
X147719661Y-79467437D01*
X147370063Y-80521063D01*
X146834144Y-81503579D01*
X146117370Y-82403839D01*
X145684364Y-82827322D01*
X145098923Y-83273407D01*
X144411222Y-83667836D01*
X143695840Y-83973377D01*
X143030487Y-84152267D01*
X142785357Y-84201826D01*
X142646234Y-84245380D01*
X142639629Y-84250104D01*
X142523013Y-84266895D01*
X142252337Y-84271747D01*
X141876278Y-84266468D01*
X141443509Y-84252864D01*
X141002707Y-84232740D01*
X140602547Y-84207902D01*
X140291704Y-84180157D01*
X140141483Y-84157413D01*
X139724578Y-84019066D01*
X139506182Y-83840570D01*
X139470103Y-83714825D01*
X139432212Y-83484028D01*
X139333756Y-83123595D01*
X139194280Y-82690635D01*
X139033328Y-82242252D01*
X138870444Y-81835555D01*
X138725174Y-81527650D01*
X138715604Y-81510258D01*
X138343098Y-80873136D01*
X138002003Y-80363312D01*
X137648852Y-79919184D01*
X137397205Y-79641784D01*
X136997084Y-79248718D01*
X136569563Y-78878146D01*
X136159302Y-78564950D01*
X135810964Y-78344014D01*
X135634456Y-78264971D01*
X135439196Y-78160375D01*
X135443122Y-78023449D01*
X135559800Y-77901800D01*
X135687792Y-77750208D01*
X135712200Y-77676443D01*
X135766649Y-77533793D01*
X135899999Y-77314403D01*
X135922686Y-77281969D01*
X136133056Y-76907256D01*
X136344834Y-76395359D01*
X136536838Y-75811032D01*
X136687887Y-75219032D01*
X136776798Y-74684112D01*
X136778766Y-74664787D01*
X136825526Y-74267433D01*
X136889503Y-74002801D01*
X137000661Y-73800816D01*
X137188962Y-73591399D01*
X137226918Y-73554116D01*
X135813879Y-73554116D01*
X135766285Y-74191655D01*
X135634738Y-74900698D01*
X135436412Y-75627515D01*
X135188478Y-76318376D01*
X134908110Y-76919551D01*
X134612481Y-77377311D01*
X134579167Y-77417301D01*
X134406261Y-77591537D01*
X134241709Y-77647521D01*
X133992570Y-77611224D01*
X133934200Y-77597525D01*
X133262399Y-77499478D01*
X132475528Y-77485353D01*
X131629226Y-77547394D01*
X130779133Y-77677844D01*
X129980888Y-77868945D01*
X129290129Y-78112942D01*
X128925929Y-78295758D01*
X128635153Y-78462551D01*
X128419561Y-78577458D01*
X128334951Y-78613000D01*
X128223418Y-78671368D01*
X128012160Y-78818411D01*
X127756979Y-79012032D01*
X127513681Y-79210136D01*
X127360449Y-79348103D01*
X127213493Y-79442363D01*
X127027804Y-79445597D01*
X126769454Y-79347409D01*
X126404513Y-79137403D01*
X126161800Y-78980852D01*
X125265647Y-78277487D01*
X124527545Y-77463876D01*
X123953058Y-76560092D01*
X123547750Y-75586210D01*
X123317183Y-74562302D01*
X123266921Y-73508443D01*
X123402527Y-72444704D01*
X123729564Y-71391160D01*
X123933394Y-70940308D01*
X124522460Y-69963794D01*
X125242407Y-69142031D01*
X126098208Y-68470548D01*
X127094836Y-67944875D01*
X127401177Y-67822694D01*
X127769879Y-67690605D01*
X128077549Y-67601309D01*
X128381678Y-67546312D01*
X128739758Y-67517115D01*
X129209281Y-67505225D01*
X129565400Y-67502874D01*
X130108721Y-67502763D01*
X130505695Y-67513584D01*
X130813174Y-67545290D01*
X131088008Y-67607834D01*
X131387048Y-67711169D01*
X131767146Y-67865249D01*
X131862873Y-67905104D01*
X132895711Y-68438457D01*
X133796023Y-69118867D01*
X134552421Y-69935928D01*
X135153517Y-70879231D01*
X135185698Y-70942200D01*
X135409463Y-71486899D01*
X135602422Y-72141249D01*
X135743325Y-72816897D01*
X135810923Y-73425488D01*
X135813879Y-73554116D01*
X137226918Y-73554116D01*
X137273038Y-73508814D01*
X137893717Y-72990048D01*
X138603126Y-72535410D01*
X139339293Y-72178813D01*
X140040247Y-71954167D01*
X140157365Y-71930458D01*
X140956982Y-71834663D01*
X141791509Y-71821963D01*
X142611337Y-71886917D01*
X143366857Y-72024085D01*
X144008460Y-72228025D01*
X144331809Y-72388317D01*
X144667557Y-72583191D01*
X144985903Y-72757597D01*
X145110200Y-72821118D01*
X145313350Y-72956891D01*
X145608609Y-73199386D01*
X145948131Y-73508007D01*
X146140799Y-73695621D01*
X146851635Y-74542112D01*
X147378907Y-75474921D01*
X147721269Y-76490438D01*
X147877377Y-77585055D01*
X147877475Y-78353847D01*
X148967857Y-78353847D01*
X148981135Y-77853055D01*
X148976360Y-77749400D01*
X148806122Y-76509127D01*
X148454234Y-75352162D01*
X147929169Y-74290091D01*
X147239398Y-73334502D01*
X146393394Y-72496981D01*
X145399629Y-71789115D01*
X144266574Y-71222491D01*
X144177775Y-71186631D01*
X143078200Y-70749487D01*
X141554200Y-70750288D01*
X140030200Y-70751088D01*
X139024835Y-71172480D01*
X138527678Y-71397496D01*
X138028093Y-71651519D01*
X137602321Y-71894670D01*
X137433886Y-72004636D01*
X137092763Y-72239906D01*
X136883891Y-72366166D01*
X136775029Y-72393712D01*
X136733941Y-72332839D01*
X136728200Y-72229995D01*
X136685801Y-71973115D01*
X136572889Y-71592072D01*
X136410895Y-71143912D01*
X136221247Y-70685683D01*
X136025377Y-70274430D01*
X135925874Y-70094181D01*
X135403316Y-69323811D01*
X134791246Y-68607840D01*
X134132145Y-67989405D01*
X133468496Y-67511639D01*
X133274474Y-67401984D01*
X132985175Y-67244560D01*
X132741183Y-67103356D01*
X132715000Y-67087189D01*
X132274298Y-66877059D01*
X131684935Y-66690964D01*
X131001057Y-66540294D01*
X130276809Y-66436436D01*
X129566338Y-66390777D01*
X129399057Y-66389777D01*
X128455404Y-66459860D01*
G36*
X111354524Y-84826731D02*
G01*
X111138358Y-84948644D01*
X110964399Y-85136411D01*
X110730112Y-85455256D01*
X110466943Y-85854963D01*
X110206340Y-86285315D01*
X109979750Y-86696097D01*
X109818621Y-87037093D01*
X109798843Y-87087597D01*
X109662938Y-87571830D01*
X109617540Y-88017724D01*
X109620390Y-88083753D01*
X109651906Y-88356724D01*
X109721792Y-88482683D01*
X109872118Y-88517784D01*
X109946481Y-88519000D01*
X110125807Y-88493807D01*
X110270539Y-88390382D01*
X110425013Y-88166951D01*
X110539599Y-87960200D01*
X110758797Y-87560440D01*
X110918870Y-87331171D01*
X111055535Y-87263174D01*
X111204507Y-87347233D01*
X111401503Y-87574128D01*
X111507595Y-87710369D01*
X111710944Y-87950879D01*
X111962379Y-88201074D01*
X112287102Y-88481743D01*
X112710314Y-88813672D01*
X113257219Y-89217650D01*
X113842224Y-89636083D01*
X114017019Y-89824206D01*
X114200937Y-90117590D01*
X114277587Y-90275908D01*
X114417277Y-90588985D01*
X114538244Y-90844762D01*
X114580507Y-90926686D01*
X114642523Y-91087784D01*
X114743882Y-91405363D01*
X114873961Y-91840939D01*
X115022140Y-92356030D01*
X115177798Y-92912151D01*
X115330313Y-93470819D01*
X115469064Y-93993550D01*
X115583430Y-94441861D01*
X115662789Y-94777267D01*
X115696521Y-94961285D01*
X115697000Y-94972051D01*
X115709532Y-95107778D01*
X115751720Y-95319873D01*
X115830457Y-95635308D01*
X115952637Y-96081055D01*
X116125152Y-96684085D01*
X116202924Y-96951800D01*
X116322302Y-97375026D01*
X116430982Y-97783281D01*
X116501031Y-98069400D01*
X116657060Y-98638374D01*
X116892753Y-99283094D01*
X117021369Y-99593400D01*
X117150684Y-99913888D01*
X117254867Y-100200450D01*
X117271971Y-100253800D01*
X117414622Y-100623181D01*
X117643685Y-101107070D01*
X117930332Y-101652610D01*
X118245735Y-102206948D01*
X118561068Y-102717228D01*
X118823555Y-103098600D01*
X119768284Y-104231278D01*
X120811651Y-105206869D01*
X121972600Y-106038839D01*
X123270072Y-106740658D01*
X124723008Y-107325795D01*
X124810765Y-107355865D01*
X126103682Y-107744766D01*
X127296071Y-107992938D01*
X128429141Y-108105252D01*
X129544104Y-108086583D01*
X130294272Y-108004271D01*
X131463599Y-107762864D01*
X132664404Y-107369015D01*
X133907548Y-106817106D01*
X135203891Y-106101517D01*
X136564292Y-105216631D01*
X137999614Y-104156829D01*
X138506200Y-103755989D01*
X139324888Y-103112391D01*
X140109625Y-102523388D01*
X140835390Y-102006443D01*
X141477165Y-101579019D01*
X142009929Y-101258580D01*
X142293894Y-101112222D01*
X142830387Y-100863324D01*
X143462294Y-101082386D01*
X143892695Y-101214649D01*
X144338319Y-101325439D01*
X144602200Y-101374843D01*
X145133591Y-101392547D01*
X145750419Y-101323362D01*
X146368349Y-101183456D01*
X146903045Y-100989000D01*
X147071738Y-100901323D01*
X147519821Y-100638729D01*
X147449589Y-101149382D01*
X147417662Y-101462211D01*
X147441102Y-101638371D01*
X147532926Y-101739934D01*
X147579128Y-101766950D01*
X147806223Y-101782019D01*
X148059101Y-101615490D01*
X148320237Y-101284298D01*
X148570439Y-100809143D01*
X148724307Y-100315776D01*
X148809828Y-99731290D01*
X148824050Y-99130200D01*
X148764018Y-98587019D01*
X148671115Y-98268690D01*
X148465829Y-97961635D01*
X148189870Y-97789821D01*
X147894425Y-97779552D01*
X147795948Y-97818960D01*
X147676348Y-97918381D01*
X147619600Y-98081701D01*
X147621273Y-98351352D01*
X147676937Y-98769768D01*
X147688956Y-98843664D01*
X147725102Y-99143328D01*
X147696699Y-99313856D01*
X147589898Y-99422885D01*
X147567380Y-99437418D01*
X146847958Y-99837109D01*
X146202140Y-100081748D01*
X145587415Y-100183039D01*
X144966778Y-100153468D01*
X144623213Y-100096878D01*
X144357726Y-100038542D01*
X144247357Y-100000267D01*
X144072685Y-99939099D01*
X143845694Y-99896323D01*
X143503691Y-99805828D01*
X143055943Y-99621519D01*
X142559213Y-99371565D01*
X142070266Y-99084140D01*
X141709479Y-98836147D01*
X141407044Y-98629262D01*
X141150986Y-98489881D01*
X140998279Y-98448325D01*
X140841924Y-98558854D01*
X140817273Y-98775998D01*
X140919502Y-99055875D01*
X141091722Y-99298110D01*
X141265797Y-99527899D01*
X141349761Y-99703517D01*
X141347241Y-99751882D01*
X141182406Y-99835996D01*
X140880179Y-99819518D01*
X140472762Y-99713789D01*
X139992358Y-99530144D01*
X139471168Y-99279923D01*
X138941395Y-98974464D01*
X138711543Y-98823894D01*
X138380191Y-98609070D01*
X138111319Y-98455583D01*
X137948472Y-98387508D01*
X137924143Y-98388573D01*
X137836930Y-98548356D01*
X137862482Y-98800291D01*
X137984544Y-99079545D01*
X138149541Y-99287584D01*
X138357031Y-99505878D01*
X138399412Y-99608140D01*
X138275699Y-99598141D01*
X138087530Y-99525408D01*
X137573598Y-99247380D01*
X136963072Y-98819756D01*
X136277780Y-98258066D01*
X136157915Y-98152583D01*
X135822924Y-97872610D01*
X135524197Y-97654477D01*
X135305872Y-97529001D01*
X135238435Y-97510600D01*
X134968993Y-97596950D01*
X134817913Y-97830464D01*
X134797800Y-97988120D01*
X134781364Y-98119392D01*
X134699972Y-98189407D01*
X134505505Y-98217186D01*
X134206641Y-98221800D01*
X133598457Y-98175352D01*
X132984916Y-98027649D01*
X132336408Y-97766150D01*
X131623326Y-97378312D01*
X130816058Y-96851596D01*
X130581400Y-96686296D01*
X130063872Y-96319364D01*
X129671755Y-96051141D01*
X129366374Y-95860480D01*
X129109051Y-95726236D01*
X128861110Y-95627263D01*
X128583873Y-95542414D01*
X128397000Y-95492025D01*
X127898372Y-95388939D01*
X127304625Y-95308206D01*
X126723684Y-95264180D01*
X126669800Y-95262330D01*
X126142781Y-95231950D01*
X125582814Y-95175112D01*
X125032614Y-95098964D01*
X124534898Y-95010652D01*
X124132381Y-94917323D01*
X123867781Y-94826122D01*
X123798987Y-94782026D01*
X123600031Y-94679025D01*
X123504442Y-94665800D01*
X123327398Y-94623695D01*
X123031998Y-94513110D01*
X122681028Y-94357640D01*
X122668441Y-94351642D01*
X122246415Y-94128098D01*
X121932413Y-93917968D01*
X121748511Y-93740378D01*
X121716784Y-93614453D01*
X121771354Y-93574438D01*
X122000237Y-93444325D01*
X122239259Y-93237064D01*
X122427541Y-93013999D01*
X122504200Y-92836471D01*
X122504200Y-92836041D01*
X122472471Y-92727743D01*
X122362417Y-92644411D01*
X122151742Y-92582627D01*
X121818150Y-92538978D01*
X121339344Y-92510047D01*
X120693029Y-92492419D01*
X120218200Y-92485875D01*
X119535068Y-92473461D01*
X119014627Y-92450070D01*
X118616493Y-92411869D01*
X118300282Y-92355024D01*
X118033800Y-92278502D01*
X117733780Y-92170683D01*
X117606198Y-92103019D01*
X117628888Y-92057195D01*
X117729000Y-92026671D01*
X117941332Y-91887111D01*
X118028468Y-91652589D01*
X117963992Y-91405722D01*
X117938526Y-91371421D01*
X117790864Y-91273754D01*
X117508959Y-91144764D01*
X117153073Y-91011940D01*
X117143326Y-91008667D01*
X116699216Y-90829110D01*
X116247861Y-90598023D01*
X115956585Y-90413454D01*
X115454170Y-90047401D01*
X115776385Y-89954991D01*
X116020213Y-89832756D01*
X116161047Y-89665622D01*
X116162489Y-89661284D01*
X116158704Y-89375343D01*
X116008118Y-89108087D01*
X115757999Y-88938440D01*
X115723566Y-88928396D01*
X115471083Y-88846747D01*
X115148826Y-88720244D01*
X115050789Y-88677765D01*
X114419395Y-88394340D01*
X113939803Y-88170619D01*
X113577232Y-87985826D01*
X113296900Y-87819184D01*
X113064028Y-87649917D01*
X112843833Y-87457248D01*
X112601535Y-87220402D01*
X112587546Y-87206354D01*
X112298885Y-86899958D01*
X112076097Y-86632436D01*
X111952344Y-86445059D01*
X111937800Y-86397713D01*
X111991998Y-86222000D01*
X112128013Y-85966733D01*
X112191800Y-85867734D01*
X112399293Y-85480819D01*
X112430287Y-85181154D01*
X112284052Y-84954034D01*
X112141877Y-84861853D01*
X111752446Y-84762351D01*
X111354524Y-84826731D01*
G37*
X111354524Y-84826731D02*
X111138358Y-84948644D01*
X110964399Y-85136411D01*
X110730112Y-85455256D01*
X110466943Y-85854963D01*
X110206340Y-86285315D01*
X109979750Y-86696097D01*
X109818621Y-87037093D01*
X109798843Y-87087597D01*
X109662938Y-87571830D01*
X109617540Y-88017724D01*
X109620390Y-88083753D01*
X109651906Y-88356724D01*
X109721792Y-88482683D01*
X109872118Y-88517784D01*
X109946481Y-88519000D01*
X110125807Y-88493807D01*
X110270539Y-88390382D01*
X110425013Y-88166951D01*
X110539599Y-87960200D01*
X110758797Y-87560440D01*
X110918870Y-87331171D01*
X111055535Y-87263174D01*
X111204507Y-87347233D01*
X111401503Y-87574128D01*
X111507595Y-87710369D01*
X111710944Y-87950879D01*
X111962379Y-88201074D01*
X112287102Y-88481743D01*
X112710314Y-88813672D01*
X113257219Y-89217650D01*
X113842224Y-89636083D01*
X114017019Y-89824206D01*
X114200937Y-90117590D01*
X114277587Y-90275908D01*
X114417277Y-90588985D01*
X114538244Y-90844762D01*
X114580507Y-90926686D01*
X114642523Y-91087784D01*
X114743882Y-91405363D01*
X114873961Y-91840939D01*
X115022140Y-92356030D01*
X115177798Y-92912151D01*
X115330313Y-93470819D01*
X115469064Y-93993550D01*
X115583430Y-94441861D01*
X115662789Y-94777267D01*
X115696521Y-94961285D01*
X115697000Y-94972051D01*
X115709532Y-95107778D01*
X115751720Y-95319873D01*
X115830457Y-95635308D01*
X115952637Y-96081055D01*
X116125152Y-96684085D01*
X116202924Y-96951800D01*
X116322302Y-97375026D01*
X116430982Y-97783281D01*
X116501031Y-98069400D01*
X116657060Y-98638374D01*
X116892753Y-99283094D01*
X117021369Y-99593400D01*
X117150684Y-99913888D01*
X117254867Y-100200450D01*
X117271971Y-100253800D01*
X117414622Y-100623181D01*
X117643685Y-101107070D01*
X117930332Y-101652610D01*
X118245735Y-102206948D01*
X118561068Y-102717228D01*
X118823555Y-103098600D01*
X119768284Y-104231278D01*
X120811651Y-105206869D01*
X121972600Y-106038839D01*
X123270072Y-106740658D01*
X124723008Y-107325795D01*
X124810765Y-107355865D01*
X126103682Y-107744766D01*
X127296071Y-107992938D01*
X128429141Y-108105252D01*
X129544104Y-108086583D01*
X130294272Y-108004271D01*
X131463599Y-107762864D01*
X132664404Y-107369015D01*
X133907548Y-106817106D01*
X135203891Y-106101517D01*
X136564292Y-105216631D01*
X137999614Y-104156829D01*
X138506200Y-103755989D01*
X139324888Y-103112391D01*
X140109625Y-102523388D01*
X140835390Y-102006443D01*
X141477165Y-101579019D01*
X142009929Y-101258580D01*
X142293894Y-101112222D01*
X142830387Y-100863324D01*
X143462294Y-101082386D01*
X143892695Y-101214649D01*
X144338319Y-101325439D01*
X144602200Y-101374843D01*
X145133591Y-101392547D01*
X145750419Y-101323362D01*
X146368349Y-101183456D01*
X146903045Y-100989000D01*
X147071738Y-100901323D01*
X147519821Y-100638729D01*
X147449589Y-101149382D01*
X147417662Y-101462211D01*
X147441102Y-101638371D01*
X147532926Y-101739934D01*
X147579128Y-101766950D01*
X147806223Y-101782019D01*
X148059101Y-101615490D01*
X148320237Y-101284298D01*
X148570439Y-100809143D01*
X148724307Y-100315776D01*
X148809828Y-99731290D01*
X148824050Y-99130200D01*
X148764018Y-98587019D01*
X148671115Y-98268690D01*
X148465829Y-97961635D01*
X148189870Y-97789821D01*
X147894425Y-97779552D01*
X147795948Y-97818960D01*
X147676348Y-97918381D01*
X147619600Y-98081701D01*
X147621273Y-98351352D01*
X147676937Y-98769768D01*
X147688956Y-98843664D01*
X147725102Y-99143328D01*
X147696699Y-99313856D01*
X147589898Y-99422885D01*
X147567380Y-99437418D01*
X146847958Y-99837109D01*
X146202140Y-100081748D01*
X145587415Y-100183039D01*
X144966778Y-100153468D01*
X144623213Y-100096878D01*
X144357726Y-100038542D01*
X144247357Y-100000267D01*
X144072685Y-99939099D01*
X143845694Y-99896323D01*
X143503691Y-99805828D01*
X143055943Y-99621519D01*
X142559213Y-99371565D01*
X142070266Y-99084140D01*
X141709479Y-98836147D01*
X141407044Y-98629262D01*
X141150986Y-98489881D01*
X140998279Y-98448325D01*
X140841924Y-98558854D01*
X140817273Y-98775998D01*
X140919502Y-99055875D01*
X141091722Y-99298110D01*
X141265797Y-99527899D01*
X141349761Y-99703517D01*
X141347241Y-99751882D01*
X141182406Y-99835996D01*
X140880179Y-99819518D01*
X140472762Y-99713789D01*
X139992358Y-99530144D01*
X139471168Y-99279923D01*
X138941395Y-98974464D01*
X138711543Y-98823894D01*
X138380191Y-98609070D01*
X138111319Y-98455583D01*
X137948472Y-98387508D01*
X137924143Y-98388573D01*
X137836930Y-98548356D01*
X137862482Y-98800291D01*
X137984544Y-99079545D01*
X138149541Y-99287584D01*
X138357031Y-99505878D01*
X138399412Y-99608140D01*
X138275699Y-99598141D01*
X138087530Y-99525408D01*
X137573598Y-99247380D01*
X136963072Y-98819756D01*
X136277780Y-98258066D01*
X136157915Y-98152583D01*
X135822924Y-97872610D01*
X135524197Y-97654477D01*
X135305872Y-97529001D01*
X135238435Y-97510600D01*
X134968993Y-97596950D01*
X134817913Y-97830464D01*
X134797800Y-97988120D01*
X134781364Y-98119392D01*
X134699972Y-98189407D01*
X134505505Y-98217186D01*
X134206641Y-98221800D01*
X133598457Y-98175352D01*
X132984916Y-98027649D01*
X132336408Y-97766150D01*
X131623326Y-97378312D01*
X130816058Y-96851596D01*
X130581400Y-96686296D01*
X130063872Y-96319364D01*
X129671755Y-96051141D01*
X129366374Y-95860480D01*
X129109051Y-95726236D01*
X128861110Y-95627263D01*
X128583873Y-95542414D01*
X128397000Y-95492025D01*
X127898372Y-95388939D01*
X127304625Y-95308206D01*
X126723684Y-95264180D01*
X126669800Y-95262330D01*
X126142781Y-95231950D01*
X125582814Y-95175112D01*
X125032614Y-95098964D01*
X124534898Y-95010652D01*
X124132381Y-94917323D01*
X123867781Y-94826122D01*
X123798987Y-94782026D01*
X123600031Y-94679025D01*
X123504442Y-94665800D01*
X123327398Y-94623695D01*
X123031998Y-94513110D01*
X122681028Y-94357640D01*
X122668441Y-94351642D01*
X122246415Y-94128098D01*
X121932413Y-93917968D01*
X121748511Y-93740378D01*
X121716784Y-93614453D01*
X121771354Y-93574438D01*
X122000237Y-93444325D01*
X122239259Y-93237064D01*
X122427541Y-93013999D01*
X122504200Y-92836471D01*
X122504200Y-92836041D01*
X122472471Y-92727743D01*
X122362417Y-92644411D01*
X122151742Y-92582627D01*
X121818150Y-92538978D01*
X121339344Y-92510047D01*
X120693029Y-92492419D01*
X120218200Y-92485875D01*
X119535068Y-92473461D01*
X119014627Y-92450070D01*
X118616493Y-92411869D01*
X118300282Y-92355024D01*
X118033800Y-92278502D01*
X117733780Y-92170683D01*
X117606198Y-92103019D01*
X117628888Y-92057195D01*
X117729000Y-92026671D01*
X117941332Y-91887111D01*
X118028468Y-91652589D01*
X117963992Y-91405722D01*
X117938526Y-91371421D01*
X117790864Y-91273754D01*
X117508959Y-91144764D01*
X117153073Y-91011940D01*
X117143326Y-91008667D01*
X116699216Y-90829110D01*
X116247861Y-90598023D01*
X115956585Y-90413454D01*
X115454170Y-90047401D01*
X115776385Y-89954991D01*
X116020213Y-89832756D01*
X116161047Y-89665622D01*
X116162489Y-89661284D01*
X116158704Y-89375343D01*
X116008118Y-89108087D01*
X115757999Y-88938440D01*
X115723566Y-88928396D01*
X115471083Y-88846747D01*
X115148826Y-88720244D01*
X115050789Y-88677765D01*
X114419395Y-88394340D01*
X113939803Y-88170619D01*
X113577232Y-87985826D01*
X113296900Y-87819184D01*
X113064028Y-87649917D01*
X112843833Y-87457248D01*
X112601535Y-87220402D01*
X112587546Y-87206354D01*
X112298885Y-86899958D01*
X112076097Y-86632436D01*
X111952344Y-86445059D01*
X111937800Y-86397713D01*
X111991998Y-86222000D01*
X112128013Y-85966733D01*
X112191800Y-85867734D01*
X112399293Y-85480819D01*
X112430287Y-85181154D01*
X112284052Y-84954034D01*
X112141877Y-84861853D01*
X111752446Y-84762351D01*
X111354524Y-84826731D01*
G36*
X140049079Y-75206733D02*
G01*
X139454990Y-75420403D01*
X138920945Y-75771679D01*
X138474954Y-76263153D01*
X138163411Y-76849202D01*
X138032980Y-77242428D01*
X137935062Y-77644193D01*
X137909317Y-77805541D01*
X137937000Y-78388075D01*
X138130819Y-78989697D01*
X138464893Y-79563022D01*
X138913340Y-80060660D01*
X139298650Y-80349281D01*
X139598316Y-80514325D01*
X139885535Y-80615116D01*
X140236779Y-80671852D01*
X140625204Y-80699615D01*
X141055039Y-80708832D01*
X141440511Y-80693964D01*
X141709419Y-80658258D01*
X141741391Y-80649382D01*
X142135747Y-80452632D01*
X142559829Y-80131324D01*
X142949699Y-79741227D01*
X143238192Y-79343789D01*
X143519655Y-78668669D01*
X143606163Y-77959250D01*
X143536091Y-77346325D01*
X143305974Y-76669317D01*
X142939831Y-76111773D01*
X142465673Y-75676286D01*
X141911508Y-75365446D01*
X141305348Y-75181847D01*
X140675202Y-75128078D01*
X140049079Y-75206733D01*
G37*
X140049079Y-75206733D02*
X139454990Y-75420403D01*
X138920945Y-75771679D01*
X138474954Y-76263153D01*
X138163411Y-76849202D01*
X138032980Y-77242428D01*
X137935062Y-77644193D01*
X137909317Y-77805541D01*
X137937000Y-78388075D01*
X138130819Y-78989697D01*
X138464893Y-79563022D01*
X138913340Y-80060660D01*
X139298650Y-80349281D01*
X139598316Y-80514325D01*
X139885535Y-80615116D01*
X140236779Y-80671852D01*
X140625204Y-80699615D01*
X141055039Y-80708832D01*
X141440511Y-80693964D01*
X141709419Y-80658258D01*
X141741391Y-80649382D01*
X142135747Y-80452632D01*
X142559829Y-80131324D01*
X142949699Y-79741227D01*
X143238192Y-79343789D01*
X143519655Y-78668669D01*
X143606163Y-77959250D01*
X143536091Y-77346325D01*
X143305974Y-76669317D01*
X142939831Y-76111773D01*
X142465673Y-75676286D01*
X141911508Y-75365446D01*
X141305348Y-75181847D01*
X140675202Y-75128078D01*
X140049079Y-75206733D01*
G36*
X129657871Y-71555745D02*
G01*
X129017823Y-71814528D01*
X128459849Y-72250438D01*
X127997046Y-72854357D01*
X127772115Y-73289892D01*
X127602903Y-73912940D01*
X127608661Y-74578999D01*
X127779532Y-75246650D01*
X128105658Y-75874475D01*
X128500080Y-76348333D01*
X128983592Y-76694296D01*
X129586725Y-76936257D01*
X130248599Y-77063544D01*
X130908338Y-77065487D01*
X131505065Y-76931417D01*
X131601339Y-76891904D01*
X132019337Y-76639622D01*
X132439372Y-76277272D01*
X132797587Y-75867938D01*
X133026114Y-75484406D01*
X133164510Y-75017853D01*
X133240334Y-74475269D01*
X133247470Y-73941720D01*
X133179804Y-73502271D01*
X133170703Y-73472889D01*
X132875690Y-72848460D01*
X132439661Y-72289708D01*
X131932741Y-71875422D01*
X131646977Y-71706046D01*
X131407926Y-71597896D01*
X131152311Y-71535121D01*
X130816855Y-71501872D01*
X130366896Y-71483208D01*
X129657871Y-71555745D01*
G37*
X129657871Y-71555745D02*
X129017823Y-71814528D01*
X128459849Y-72250438D01*
X127997046Y-72854357D01*
X127772115Y-73289892D01*
X127602903Y-73912940D01*
X127608661Y-74578999D01*
X127779532Y-75246650D01*
X128105658Y-75874475D01*
X128500080Y-76348333D01*
X128983592Y-76694296D01*
X129586725Y-76936257D01*
X130248599Y-77063544D01*
X130908338Y-77065487D01*
X131505065Y-76931417D01*
X131601339Y-76891904D01*
X132019337Y-76639622D01*
X132439372Y-76277272D01*
X132797587Y-75867938D01*
X133026114Y-75484406D01*
X133164510Y-75017853D01*
X133240334Y-74475269D01*
X133247470Y-73941720D01*
X133179804Y-73502271D01*
X133170703Y-73472889D01*
X132875690Y-72848460D01*
X132439661Y-72289708D01*
X131932741Y-71875422D01*
X131646977Y-71706046D01*
X131407926Y-71597896D01*
X131152311Y-71535121D01*
X130816855Y-71501872D01*
X130366896Y-71483208D01*
X129657871Y-71555745D01*
G04 #@! TD*
D11*
G04 #@! TO.P,REF\u002A\u002A,1*
G04 #@! TO.N,N/C*
X101854000Y-133350000D03*
G04 #@! TD*
G04 #@! TO.P,REF\u002A\u002A,1*
G04 #@! TO.N,N/C*
X159004000Y-133350000D03*
G04 #@! TD*
G04 #@! TO.P,REF\u002A\u002A,1*
G04 #@! TO.N,N/C*
X101854000Y-62103000D03*
G04 #@! TD*
G04 #@! TO.P,REF\u002A\u002A,1*
G04 #@! TO.N,N/C*
X159004000Y-62103000D03*
G04 #@! TD*
D12*
G36*
X176994779Y-43880699D02*
G01*
X177441851Y-44015678D01*
X177854197Y-44234926D01*
X178216099Y-44530086D01*
X178513782Y-44889922D01*
X178735901Y-45300723D01*
X178874000Y-45746848D01*
X178926000Y-46241593D01*
X178926000Y-52957331D01*
X168065634Y-52929555D01*
X167650337Y-52591455D01*
X167603179Y-52560183D01*
X167556607Y-52528194D01*
X167548851Y-52523985D01*
X166684499Y-52062769D01*
X166633314Y-52041584D01*
X166582646Y-52019410D01*
X166574237Y-52016736D01*
X165680660Y-51739517D01*
X165678131Y-51738996D01*
X165675747Y-51738015D01*
X165617853Y-51726583D01*
X165559850Y-51714639D01*
X165557263Y-51714619D01*
X165554739Y-51714121D01*
X165545951Y-51713325D01*
X165378394Y-51699343D01*
X165368116Y-51699492D01*
X165357955Y-51697971D01*
X165349139Y-51697584D01*
X164987445Y-51684240D01*
X164987424Y-51684241D01*
X164978827Y-51683981D01*
X164432057Y-51671275D01*
X164431906Y-51671286D01*
X164427926Y-51671192D01*
X163705141Y-51659123D01*
X163705017Y-51659133D01*
X163702708Y-51659087D01*
X162812971Y-51647656D01*
X162812876Y-51647664D01*
X162811363Y-51647638D01*
X161763734Y-51636845D01*
X161763668Y-51636851D01*
X161762587Y-51636834D01*
X160566129Y-51626678D01*
X160566079Y-51626683D01*
X160565266Y-51626671D01*
X159229039Y-51617154D01*
X159228993Y-51617158D01*
X159228364Y-51617150D01*
X157761431Y-51608270D01*
X157761396Y-51608273D01*
X157760884Y-51608267D01*
X156172306Y-51600024D01*
X156172284Y-51600026D01*
X156171852Y-51600021D01*
X154470691Y-51592417D01*
X154470660Y-51592420D01*
X154470305Y-51592416D01*
X152665622Y-51585449D01*
X152665599Y-51585451D01*
X152665289Y-51585448D01*
X150766145Y-51579119D01*
X150766127Y-51579121D01*
X150765851Y-51579118D01*
X148781308Y-51573427D01*
X148781294Y-51573428D01*
X148781046Y-51573426D01*
X146720166Y-51568372D01*
X146720155Y-51568373D01*
X146719928Y-51568371D01*
X144591772Y-51563955D01*
X144591754Y-51563957D01*
X144591553Y-51563955D01*
X142405183Y-51560177D01*
X142405167Y-51560179D01*
X142404978Y-51560177D01*
X140169457Y-51557037D01*
X140169452Y-51557038D01*
X140169264Y-51557036D01*
X137893651Y-51554533D01*
X137893637Y-51554534D01*
X137893467Y-51554533D01*
X135586825Y-51552668D01*
X135586812Y-51552669D01*
X135586647Y-51552668D01*
X133258036Y-51551441D01*
X133258024Y-51551442D01*
X133257862Y-51551441D01*
X130916345Y-51550852D01*
X130916333Y-51550853D01*
X130916173Y-51550852D01*
X128570812Y-51550900D01*
X128570801Y-51550901D01*
X128570640Y-51550900D01*
X126230495Y-51551586D01*
X126230484Y-51551587D01*
X126230320Y-51551586D01*
X123904453Y-51552910D01*
X123904442Y-51552911D01*
X123904275Y-51552910D01*
X121601749Y-51554871D01*
X121601739Y-51554872D01*
X121601563Y-51554871D01*
X119331438Y-51557470D01*
X119331418Y-51557472D01*
X119331244Y-51557471D01*
X117102581Y-51560708D01*
X117102571Y-51560709D01*
X117102374Y-51560708D01*
X114924238Y-51564583D01*
X114924227Y-51564584D01*
X114924016Y-51564583D01*
X112805464Y-51569095D01*
X112805444Y-51569097D01*
X112805222Y-51569096D01*
X110755318Y-51574246D01*
X110755298Y-51574248D01*
X110755051Y-51574247D01*
X108782856Y-51580035D01*
X108782836Y-51580037D01*
X108782557Y-51580036D01*
X106897133Y-51586462D01*
X106897113Y-51586464D01*
X106896793Y-51586463D01*
X105107202Y-51593526D01*
X105107174Y-51593529D01*
X105106807Y-51593528D01*
X103422109Y-51601229D01*
X103422082Y-51601232D01*
X103421643Y-51601231D01*
X101850901Y-51609570D01*
X101850868Y-51609573D01*
X101850337Y-51609573D01*
X100402611Y-51618550D01*
X100402565Y-51618555D01*
X100401912Y-51618555D01*
X99086265Y-51628169D01*
X99086212Y-51628175D01*
X99085367Y-51628176D01*
X97910860Y-51638428D01*
X97910786Y-51638436D01*
X97909657Y-51638440D01*
X96885352Y-51649330D01*
X96885260Y-51649340D01*
X96883650Y-51649350D01*
X96018608Y-51660877D01*
X96018482Y-51660891D01*
X96015995Y-51660917D01*
X95319278Y-51673083D01*
X95319118Y-51673102D01*
X95314736Y-51673179D01*
X94795405Y-51685982D01*
X94794856Y-51686049D01*
X94794304Y-51686010D01*
X94785485Y-51686304D01*
X94452602Y-51699744D01*
X94440866Y-51701375D01*
X94429026Y-51701138D01*
X94420234Y-51701885D01*
X94290741Y-51713791D01*
X94288914Y-51714141D01*
X94287053Y-51714141D01*
X94228470Y-51725729D01*
X94169603Y-51737015D01*
X94167872Y-51737716D01*
X94166053Y-51738076D01*
X94157623Y-51740683D01*
X93206397Y-52042229D01*
X93153695Y-52064805D01*
X93100785Y-52086600D01*
X93093023Y-52090794D01*
X93093017Y-52090797D01*
X93093011Y-52090801D01*
X92235156Y-52562186D01*
X92188500Y-52594118D01*
X92141382Y-52625242D01*
X92134568Y-52630848D01*
X92009721Y-52735039D01*
X80916000Y-52706667D01*
X80916000Y-46259886D01*
X80964699Y-45763221D01*
X81099678Y-45316149D01*
X81318926Y-44903803D01*
X81614086Y-44541901D01*
X81973922Y-44244218D01*
X82384723Y-44022099D01*
X82830848Y-43884000D01*
X83325593Y-43832000D01*
X176498114Y-43832000D01*
X176994779Y-43880699D01*
G37*
X176994779Y-43880699D02*
X177441851Y-44015678D01*
X177854197Y-44234926D01*
X178216099Y-44530086D01*
X178513782Y-44889922D01*
X178735901Y-45300723D01*
X178874000Y-45746848D01*
X178926000Y-46241593D01*
X178926000Y-52957331D01*
X168065634Y-52929555D01*
X167650337Y-52591455D01*
X167603179Y-52560183D01*
X167556607Y-52528194D01*
X167548851Y-52523985D01*
X166684499Y-52062769D01*
X166633314Y-52041584D01*
X166582646Y-52019410D01*
X166574237Y-52016736D01*
X165680660Y-51739517D01*
X165678131Y-51738996D01*
X165675747Y-51738015D01*
X165617853Y-51726583D01*
X165559850Y-51714639D01*
X165557263Y-51714619D01*
X165554739Y-51714121D01*
X165545951Y-51713325D01*
X165378394Y-51699343D01*
X165368116Y-51699492D01*
X165357955Y-51697971D01*
X165349139Y-51697584D01*
X164987445Y-51684240D01*
X164987424Y-51684241D01*
X164978827Y-51683981D01*
X164432057Y-51671275D01*
X164431906Y-51671286D01*
X164427926Y-51671192D01*
X163705141Y-51659123D01*
X163705017Y-51659133D01*
X163702708Y-51659087D01*
X162812971Y-51647656D01*
X162812876Y-51647664D01*
X162811363Y-51647638D01*
X161763734Y-51636845D01*
X161763668Y-51636851D01*
X161762587Y-51636834D01*
X160566129Y-51626678D01*
X160566079Y-51626683D01*
X160565266Y-51626671D01*
X159229039Y-51617154D01*
X159228993Y-51617158D01*
X159228364Y-51617150D01*
X157761431Y-51608270D01*
X157761396Y-51608273D01*
X157760884Y-51608267D01*
X156172306Y-51600024D01*
X156172284Y-51600026D01*
X156171852Y-51600021D01*
X154470691Y-51592417D01*
X154470660Y-51592420D01*
X154470305Y-51592416D01*
X152665622Y-51585449D01*
X152665599Y-51585451D01*
X152665289Y-51585448D01*
X150766145Y-51579119D01*
X150766127Y-51579121D01*
X150765851Y-51579118D01*
X148781308Y-51573427D01*
X148781294Y-51573428D01*
X148781046Y-51573426D01*
X146720166Y-51568372D01*
X146720155Y-51568373D01*
X146719928Y-51568371D01*
X144591772Y-51563955D01*
X144591754Y-51563957D01*
X144591553Y-51563955D01*
X142405183Y-51560177D01*
X142405167Y-51560179D01*
X142404978Y-51560177D01*
X140169457Y-51557037D01*
X140169452Y-51557038D01*
X140169264Y-51557036D01*
X137893651Y-51554533D01*
X137893637Y-51554534D01*
X137893467Y-51554533D01*
X135586825Y-51552668D01*
X135586812Y-51552669D01*
X135586647Y-51552668D01*
X133258036Y-51551441D01*
X133258024Y-51551442D01*
X133257862Y-51551441D01*
X130916345Y-51550852D01*
X130916333Y-51550853D01*
X130916173Y-51550852D01*
X128570812Y-51550900D01*
X128570801Y-51550901D01*
X128570640Y-51550900D01*
X126230495Y-51551586D01*
X126230484Y-51551587D01*
X126230320Y-51551586D01*
X123904453Y-51552910D01*
X123904442Y-51552911D01*
X123904275Y-51552910D01*
X121601749Y-51554871D01*
X121601739Y-51554872D01*
X121601563Y-51554871D01*
X119331438Y-51557470D01*
X119331418Y-51557472D01*
X119331244Y-51557471D01*
X117102581Y-51560708D01*
X117102571Y-51560709D01*
X117102374Y-51560708D01*
X114924238Y-51564583D01*
X114924227Y-51564584D01*
X114924016Y-51564583D01*
X112805464Y-51569095D01*
X112805444Y-51569097D01*
X112805222Y-51569096D01*
X110755318Y-51574246D01*
X110755298Y-51574248D01*
X110755051Y-51574247D01*
X108782856Y-51580035D01*
X108782836Y-51580037D01*
X108782557Y-51580036D01*
X106897133Y-51586462D01*
X106897113Y-51586464D01*
X106896793Y-51586463D01*
X105107202Y-51593526D01*
X105107174Y-51593529D01*
X105106807Y-51593528D01*
X103422109Y-51601229D01*
X103422082Y-51601232D01*
X103421643Y-51601231D01*
X101850901Y-51609570D01*
X101850868Y-51609573D01*
X101850337Y-51609573D01*
X100402611Y-51618550D01*
X100402565Y-51618555D01*
X100401912Y-51618555D01*
X99086265Y-51628169D01*
X99086212Y-51628175D01*
X99085367Y-51628176D01*
X97910860Y-51638428D01*
X97910786Y-51638436D01*
X97909657Y-51638440D01*
X96885352Y-51649330D01*
X96885260Y-51649340D01*
X96883650Y-51649350D01*
X96018608Y-51660877D01*
X96018482Y-51660891D01*
X96015995Y-51660917D01*
X95319278Y-51673083D01*
X95319118Y-51673102D01*
X95314736Y-51673179D01*
X94795405Y-51685982D01*
X94794856Y-51686049D01*
X94794304Y-51686010D01*
X94785485Y-51686304D01*
X94452602Y-51699744D01*
X94440866Y-51701375D01*
X94429026Y-51701138D01*
X94420234Y-51701885D01*
X94290741Y-51713791D01*
X94288914Y-51714141D01*
X94287053Y-51714141D01*
X94228470Y-51725729D01*
X94169603Y-51737015D01*
X94167872Y-51737716D01*
X94166053Y-51738076D01*
X94157623Y-51740683D01*
X93206397Y-52042229D01*
X93153695Y-52064805D01*
X93100785Y-52086600D01*
X93093023Y-52090794D01*
X93093017Y-52090797D01*
X93093011Y-52090801D01*
X92235156Y-52562186D01*
X92188500Y-52594118D01*
X92141382Y-52625242D01*
X92134568Y-52630848D01*
X92009721Y-52735039D01*
X80916000Y-52706667D01*
X80916000Y-46259886D01*
X80964699Y-45763221D01*
X81099678Y-45316149D01*
X81318926Y-44903803D01*
X81614086Y-44541901D01*
X81973922Y-44244218D01*
X82384723Y-44022099D01*
X82830848Y-43884000D01*
X83325593Y-43832000D01*
X176498114Y-43832000D01*
X176994779Y-43880699D01*
G36*
X91059000Y-53640199D02*
G01*
X90691456Y-54091663D01*
X90660184Y-54138821D01*
X90628195Y-54185393D01*
X90623986Y-54193149D01*
X90162770Y-55057501D01*
X90141585Y-55108686D01*
X90119411Y-55159354D01*
X90116737Y-55167763D01*
X89839518Y-56061340D01*
X89838637Y-56065620D01*
X89836997Y-56069669D01*
X89826211Y-56125961D01*
X89814640Y-56182150D01*
X89814607Y-56186521D01*
X89813785Y-56190810D01*
X89813039Y-56199603D01*
X89800578Y-56359837D01*
X89800770Y-56369357D01*
X89799392Y-56378770D01*
X89799033Y-56387586D01*
X89787076Y-56742973D01*
X89787080Y-56743043D01*
X89786860Y-56750884D01*
X89775406Y-57293378D01*
X89775418Y-57293533D01*
X89775338Y-57297128D01*
X89764387Y-58018685D01*
X89764396Y-58018796D01*
X89764357Y-58020879D01*
X89753910Y-58913451D01*
X89753917Y-58913536D01*
X89753895Y-58914894D01*
X89743951Y-59970436D01*
X89743956Y-59970496D01*
X89743942Y-59971461D01*
X89734501Y-61181928D01*
X89734506Y-61181980D01*
X89734496Y-61182696D01*
X89725559Y-62540041D01*
X89725562Y-62540075D01*
X89725555Y-62540639D01*
X89717121Y-64036816D01*
X89717124Y-64036852D01*
X89717119Y-64037299D01*
X89709189Y-65664263D01*
X89709191Y-65664287D01*
X89709187Y-65664660D01*
X89701759Y-67414365D01*
X89701760Y-67414380D01*
X89701757Y-67414701D01*
X89694834Y-69279101D01*
X89694836Y-69279120D01*
X89694833Y-69279390D01*
X89688412Y-71250438D01*
X89688414Y-71250462D01*
X89688412Y-71250691D01*
X89682495Y-73320342D01*
X89682496Y-73320353D01*
X89682494Y-73320565D01*
X89677080Y-75480775D01*
X89677082Y-75480793D01*
X89677080Y-75480976D01*
X89672170Y-77723696D01*
X89672171Y-77723702D01*
X89672169Y-77723878D01*
X89667762Y-80041065D01*
X89667763Y-80041079D01*
X89667762Y-80041232D01*
X89663858Y-82424838D01*
X89663859Y-82424850D01*
X89663858Y-82424993D01*
X89660458Y-84866973D01*
X89660457Y-84867118D01*
X89657560Y-87359427D01*
X89657561Y-87359438D01*
X89657560Y-87359565D01*
X89655166Y-89894155D01*
X89655167Y-89894165D01*
X89655166Y-89894287D01*
X89653276Y-92463114D01*
X89653277Y-92463123D01*
X89653276Y-92463242D01*
X89651889Y-95058259D01*
X89651890Y-95058268D01*
X89651889Y-95058384D01*
X89651006Y-97671545D01*
X89651007Y-97671553D01*
X89651006Y-97671667D01*
X89650626Y-100294928D01*
X89650627Y-100294936D01*
X89650626Y-100295050D01*
X89650749Y-102920364D01*
X89650750Y-102920372D01*
X89650749Y-102920485D01*
X89651376Y-105539806D01*
X89651377Y-105539814D01*
X89651376Y-105539929D01*
X89652506Y-108145211D01*
X89652507Y-108145219D01*
X89652506Y-108145337D01*
X89654139Y-110728534D01*
X89654140Y-110728542D01*
X89654139Y-110728663D01*
X89656276Y-113281730D01*
X89656277Y-113281738D01*
X89656276Y-113281864D01*
X89658916Y-115796755D01*
X89658918Y-115796772D01*
X89658917Y-115796897D01*
X89662060Y-118265565D01*
X89662061Y-118265573D01*
X89662060Y-118265715D01*
X89665707Y-120680115D01*
X89665708Y-120680123D01*
X89665707Y-120680275D01*
X89669857Y-123032362D01*
X89669858Y-123032370D01*
X89669857Y-123032536D01*
X89674511Y-125314262D01*
X89674513Y-125314280D01*
X89674512Y-125314452D01*
X89679668Y-127517773D01*
X89679669Y-127517782D01*
X89679668Y-127517984D01*
X89685329Y-129634854D01*
X89685331Y-129634872D01*
X89685330Y-129635089D01*
X89691493Y-131657461D01*
X89691495Y-131657480D01*
X89691494Y-131657730D01*
X89698161Y-133577559D01*
X89698163Y-133577578D01*
X89698162Y-133577869D01*
X89705333Y-135387108D01*
X89705336Y-135387135D01*
X89705335Y-135387471D01*
X89713008Y-137078076D01*
X89713011Y-137078103D01*
X89713010Y-137078512D01*
X89721187Y-138642436D01*
X89721190Y-138642469D01*
X89721190Y-138642971D01*
X89729871Y-140072167D01*
X89729875Y-140072205D01*
X89729875Y-140072840D01*
X89739058Y-141359265D01*
X89739064Y-141359320D01*
X89739065Y-141360144D01*
X89748753Y-142495751D01*
X89748760Y-142495818D01*
X89748764Y-142496953D01*
X89758954Y-143473695D01*
X89758965Y-143473795D01*
X89758975Y-143475447D01*
X89769669Y-144285278D01*
X89769684Y-144285412D01*
X89769712Y-144288078D01*
X89780909Y-144922954D01*
X89780927Y-144923112D01*
X89781023Y-144928169D01*
X89792724Y-145380042D01*
X89792994Y-145382217D01*
X89792852Y-145384404D01*
X89793203Y-145393222D01*
X89805407Y-145654048D01*
X89807765Y-145670251D01*
X89807776Y-145686623D01*
X89808704Y-145695398D01*
X89815125Y-145752283D01*
X89827021Y-145808057D01*
X89838076Y-145863947D01*
X89840684Y-145872377D01*
X90142230Y-146823603D01*
X90164806Y-146876305D01*
X90186601Y-146929215D01*
X90190795Y-146936977D01*
X90190798Y-146936983D01*
X90190802Y-146936989D01*
X90662187Y-147794844D01*
X90694111Y-147841487D01*
X90725243Y-147888618D01*
X90730849Y-147895433D01*
X91059000Y-148288638D01*
X91059000Y-148717000D01*
X80916000Y-148717000D01*
X80916000Y-51689000D01*
X91059000Y-51689000D01*
X91059000Y-53640199D01*
G37*
X91059000Y-53640199D02*
X90691456Y-54091663D01*
X90660184Y-54138821D01*
X90628195Y-54185393D01*
X90623986Y-54193149D01*
X90162770Y-55057501D01*
X90141585Y-55108686D01*
X90119411Y-55159354D01*
X90116737Y-55167763D01*
X89839518Y-56061340D01*
X89838637Y-56065620D01*
X89836997Y-56069669D01*
X89826211Y-56125961D01*
X89814640Y-56182150D01*
X89814607Y-56186521D01*
X89813785Y-56190810D01*
X89813039Y-56199603D01*
X89800578Y-56359837D01*
X89800770Y-56369357D01*
X89799392Y-56378770D01*
X89799033Y-56387586D01*
X89787076Y-56742973D01*
X89787080Y-56743043D01*
X89786860Y-56750884D01*
X89775406Y-57293378D01*
X89775418Y-57293533D01*
X89775338Y-57297128D01*
X89764387Y-58018685D01*
X89764396Y-58018796D01*
X89764357Y-58020879D01*
X89753910Y-58913451D01*
X89753917Y-58913536D01*
X89753895Y-58914894D01*
X89743951Y-59970436D01*
X89743956Y-59970496D01*
X89743942Y-59971461D01*
X89734501Y-61181928D01*
X89734506Y-61181980D01*
X89734496Y-61182696D01*
X89725559Y-62540041D01*
X89725562Y-62540075D01*
X89725555Y-62540639D01*
X89717121Y-64036816D01*
X89717124Y-64036852D01*
X89717119Y-64037299D01*
X89709189Y-65664263D01*
X89709191Y-65664287D01*
X89709187Y-65664660D01*
X89701759Y-67414365D01*
X89701760Y-67414380D01*
X89701757Y-67414701D01*
X89694834Y-69279101D01*
X89694836Y-69279120D01*
X89694833Y-69279390D01*
X89688412Y-71250438D01*
X89688414Y-71250462D01*
X89688412Y-71250691D01*
X89682495Y-73320342D01*
X89682496Y-73320353D01*
X89682494Y-73320565D01*
X89677080Y-75480775D01*
X89677082Y-75480793D01*
X89677080Y-75480976D01*
X89672170Y-77723696D01*
X89672171Y-77723702D01*
X89672169Y-77723878D01*
X89667762Y-80041065D01*
X89667763Y-80041079D01*
X89667762Y-80041232D01*
X89663858Y-82424838D01*
X89663859Y-82424850D01*
X89663858Y-82424993D01*
X89660458Y-84866973D01*
X89660457Y-84867118D01*
X89657560Y-87359427D01*
X89657561Y-87359438D01*
X89657560Y-87359565D01*
X89655166Y-89894155D01*
X89655167Y-89894165D01*
X89655166Y-89894287D01*
X89653276Y-92463114D01*
X89653277Y-92463123D01*
X89653276Y-92463242D01*
X89651889Y-95058259D01*
X89651890Y-95058268D01*
X89651889Y-95058384D01*
X89651006Y-97671545D01*
X89651007Y-97671553D01*
X89651006Y-97671667D01*
X89650626Y-100294928D01*
X89650627Y-100294936D01*
X89650626Y-100295050D01*
X89650749Y-102920364D01*
X89650750Y-102920372D01*
X89650749Y-102920485D01*
X89651376Y-105539806D01*
X89651377Y-105539814D01*
X89651376Y-105539929D01*
X89652506Y-108145211D01*
X89652507Y-108145219D01*
X89652506Y-108145337D01*
X89654139Y-110728534D01*
X89654140Y-110728542D01*
X89654139Y-110728663D01*
X89656276Y-113281730D01*
X89656277Y-113281738D01*
X89656276Y-113281864D01*
X89658916Y-115796755D01*
X89658918Y-115796772D01*
X89658917Y-115796897D01*
X89662060Y-118265565D01*
X89662061Y-118265573D01*
X89662060Y-118265715D01*
X89665707Y-120680115D01*
X89665708Y-120680123D01*
X89665707Y-120680275D01*
X89669857Y-123032362D01*
X89669858Y-123032370D01*
X89669857Y-123032536D01*
X89674511Y-125314262D01*
X89674513Y-125314280D01*
X89674512Y-125314452D01*
X89679668Y-127517773D01*
X89679669Y-127517782D01*
X89679668Y-127517984D01*
X89685329Y-129634854D01*
X89685331Y-129634872D01*
X89685330Y-129635089D01*
X89691493Y-131657461D01*
X89691495Y-131657480D01*
X89691494Y-131657730D01*
X89698161Y-133577559D01*
X89698163Y-133577578D01*
X89698162Y-133577869D01*
X89705333Y-135387108D01*
X89705336Y-135387135D01*
X89705335Y-135387471D01*
X89713008Y-137078076D01*
X89713011Y-137078103D01*
X89713010Y-137078512D01*
X89721187Y-138642436D01*
X89721190Y-138642469D01*
X89721190Y-138642971D01*
X89729871Y-140072167D01*
X89729875Y-140072205D01*
X89729875Y-140072840D01*
X89739058Y-141359265D01*
X89739064Y-141359320D01*
X89739065Y-141360144D01*
X89748753Y-142495751D01*
X89748760Y-142495818D01*
X89748764Y-142496953D01*
X89758954Y-143473695D01*
X89758965Y-143473795D01*
X89758975Y-143475447D01*
X89769669Y-144285278D01*
X89769684Y-144285412D01*
X89769712Y-144288078D01*
X89780909Y-144922954D01*
X89780927Y-144923112D01*
X89781023Y-144928169D01*
X89792724Y-145380042D01*
X89792994Y-145382217D01*
X89792852Y-145384404D01*
X89793203Y-145393222D01*
X89805407Y-145654048D01*
X89807765Y-145670251D01*
X89807776Y-145686623D01*
X89808704Y-145695398D01*
X89815125Y-145752283D01*
X89827021Y-145808057D01*
X89838076Y-145863947D01*
X89840684Y-145872377D01*
X90142230Y-146823603D01*
X90164806Y-146876305D01*
X90186601Y-146929215D01*
X90190795Y-146936977D01*
X90190798Y-146936983D01*
X90190802Y-146936989D01*
X90662187Y-147794844D01*
X90694111Y-147841487D01*
X90725243Y-147888618D01*
X90730849Y-147895433D01*
X91059000Y-148288638D01*
X91059000Y-148717000D01*
X80916000Y-148717000D01*
X80916000Y-51689000D01*
X91059000Y-51689000D01*
X91059000Y-53640199D01*
G36*
X91432067Y-148720063D02*
G01*
X91438870Y-148725682D01*
X92191665Y-149338544D01*
X92238807Y-149369806D01*
X92285394Y-149401805D01*
X92293150Y-149406014D01*
X93157501Y-149867230D01*
X93208697Y-149888420D01*
X93259355Y-149910589D01*
X93267764Y-149913263D01*
X94161341Y-150190482D01*
X94164418Y-150191116D01*
X94167325Y-150192306D01*
X94224747Y-150203539D01*
X94282151Y-150215360D01*
X94285297Y-150215384D01*
X94288375Y-150215986D01*
X94297165Y-150216766D01*
X94462342Y-150230255D01*
X94472402Y-150230091D01*
X94482354Y-150231570D01*
X94491170Y-150231947D01*
X94850425Y-150244809D01*
X94850457Y-150244807D01*
X94858834Y-150245054D01*
X95403120Y-150257289D01*
X95403272Y-150257278D01*
X95407139Y-150257367D01*
X96127413Y-150268976D01*
X96127532Y-150268966D01*
X96129774Y-150269010D01*
X97016986Y-150279993D01*
X97017077Y-150279985D01*
X97018546Y-150280010D01*
X98063649Y-150290368D01*
X98063716Y-150290362D01*
X98064761Y-150290378D01*
X99258709Y-150300111D01*
X99258763Y-150300106D01*
X99259544Y-150300117D01*
X100593291Y-150309227D01*
X100593333Y-150309223D01*
X100593946Y-150309231D01*
X102058445Y-150317717D01*
X102058477Y-150317714D01*
X102058974Y-150317720D01*
X103645176Y-150325584D01*
X103645204Y-150325581D01*
X103645616Y-150325586D01*
X105344477Y-150332827D01*
X105344496Y-150332825D01*
X105344850Y-150332829D01*
X107147321Y-150339449D01*
X107147343Y-150339447D01*
X107147644Y-150339450D01*
X109044679Y-150345448D01*
X109044696Y-150345446D01*
X109044963Y-150345449D01*
X111027517Y-150350828D01*
X111027540Y-150350826D01*
X111027772Y-150350828D01*
X113086795Y-150355586D01*
X113086805Y-150355585D01*
X113087026Y-150355587D01*
X115213473Y-150359726D01*
X115213490Y-150359724D01*
X115213684Y-150359726D01*
X117398510Y-150363247D01*
X117398526Y-150363245D01*
X117398707Y-150363247D01*
X119632861Y-150366149D01*
X119632866Y-150366149D01*
X119633047Y-150366150D01*
X121907485Y-150368436D01*
X121907498Y-150368435D01*
X121907663Y-150368436D01*
X124213338Y-150370104D01*
X124213350Y-150370103D01*
X124213509Y-150370104D01*
X126541373Y-150371156D01*
X126541385Y-150371155D01*
X126541541Y-150371156D01*
X128882548Y-150371592D01*
X128882559Y-150371591D01*
X128882714Y-150371592D01*
X131227817Y-150371413D01*
X131227828Y-150371412D01*
X131227983Y-150371413D01*
X133568135Y-150370620D01*
X133568145Y-150370619D01*
X133568304Y-150370620D01*
X135894457Y-150369212D01*
X135894467Y-150369211D01*
X135894629Y-150369212D01*
X138197739Y-150367192D01*
X138197749Y-150367191D01*
X138197918Y-150367192D01*
X140468937Y-150364558D01*
X140468956Y-150364556D01*
X140469124Y-150364557D01*
X142699005Y-150361311D01*
X142699015Y-150361310D01*
X142699203Y-150361311D01*
X144878899Y-150357454D01*
X144878909Y-150357453D01*
X144879113Y-150357454D01*
X146999577Y-150352986D01*
X146999597Y-150352984D01*
X146999809Y-150352985D01*
X149051995Y-150347906D01*
X149052015Y-150347904D01*
X149052251Y-150347905D01*
X151027112Y-150342217D01*
X151027132Y-150342215D01*
X151027400Y-150342216D01*
X152915888Y-150335918D01*
X152915907Y-150335916D01*
X152916214Y-150335917D01*
X154709284Y-150329011D01*
X154709303Y-150329009D01*
X154709663Y-150329010D01*
X156398266Y-150321495D01*
X156398293Y-150321492D01*
X156398711Y-150321493D01*
X157973804Y-150313372D01*
X157973838Y-150313368D01*
X157974343Y-150313369D01*
X159426874Y-150304640D01*
X159426921Y-150304635D01*
X159427542Y-150304635D01*
X160748468Y-150295300D01*
X160748515Y-150295295D01*
X160749325Y-150295294D01*
X161929597Y-150285353D01*
X161929668Y-150285345D01*
X161930741Y-150285342D01*
X162961314Y-150274796D01*
X162961408Y-150274786D01*
X162962930Y-150274777D01*
X163834756Y-150263626D01*
X163834877Y-150263613D01*
X163837223Y-150263590D01*
X164541256Y-150251836D01*
X164541418Y-150251817D01*
X164545517Y-150251750D01*
X165072709Y-150239392D01*
X165072882Y-150239371D01*
X165073059Y-150239384D01*
X165081879Y-150239111D01*
X165423185Y-150226151D01*
X165434233Y-150224643D01*
X165445378Y-150224917D01*
X165454174Y-150224211D01*
X165595820Y-150211844D01*
X165601417Y-150210798D01*
X165607112Y-150210756D01*
X165661984Y-150199474D01*
X165717064Y-150189176D01*
X165722354Y-150187061D01*
X165727929Y-150185915D01*
X165736340Y-150183245D01*
X166669408Y-149879745D01*
X166722280Y-149856626D01*
X166775407Y-149834193D01*
X166782368Y-149830351D01*
X166782421Y-149830328D01*
X166782463Y-149830299D01*
X166783133Y-149829929D01*
X167628818Y-149355507D01*
X167674772Y-149323458D01*
X167721168Y-149292342D01*
X167727943Y-149286688D01*
X168400917Y-148717000D01*
X178926001Y-148717000D01*
X178926001Y-155924104D01*
X178877301Y-156420779D01*
X178742322Y-156867851D01*
X178523073Y-157280199D01*
X178227915Y-157642098D01*
X177868075Y-157939784D01*
X177457277Y-158161901D01*
X177011152Y-158300000D01*
X176516407Y-158352000D01*
X83343886Y-158352000D01*
X82847221Y-158303301D01*
X82400149Y-158168322D01*
X81987801Y-157949073D01*
X81625902Y-157653915D01*
X81328216Y-157294075D01*
X81106099Y-156883277D01*
X80968000Y-156437152D01*
X80916000Y-155942407D01*
X80916000Y-148717000D01*
X91429062Y-148717000D01*
X91432067Y-148720063D01*
G37*
X91432067Y-148720063D02*
X91438870Y-148725682D01*
X92191665Y-149338544D01*
X92238807Y-149369806D01*
X92285394Y-149401805D01*
X92293150Y-149406014D01*
X93157501Y-149867230D01*
X93208697Y-149888420D01*
X93259355Y-149910589D01*
X93267764Y-149913263D01*
X94161341Y-150190482D01*
X94164418Y-150191116D01*
X94167325Y-150192306D01*
X94224747Y-150203539D01*
X94282151Y-150215360D01*
X94285297Y-150215384D01*
X94288375Y-150215986D01*
X94297165Y-150216766D01*
X94462342Y-150230255D01*
X94472402Y-150230091D01*
X94482354Y-150231570D01*
X94491170Y-150231947D01*
X94850425Y-150244809D01*
X94850457Y-150244807D01*
X94858834Y-150245054D01*
X95403120Y-150257289D01*
X95403272Y-150257278D01*
X95407139Y-150257367D01*
X96127413Y-150268976D01*
X96127532Y-150268966D01*
X96129774Y-150269010D01*
X97016986Y-150279993D01*
X97017077Y-150279985D01*
X97018546Y-150280010D01*
X98063649Y-150290368D01*
X98063716Y-150290362D01*
X98064761Y-150290378D01*
X99258709Y-150300111D01*
X99258763Y-150300106D01*
X99259544Y-150300117D01*
X100593291Y-150309227D01*
X100593333Y-150309223D01*
X100593946Y-150309231D01*
X102058445Y-150317717D01*
X102058477Y-150317714D01*
X102058974Y-150317720D01*
X103645176Y-150325584D01*
X103645204Y-150325581D01*
X103645616Y-150325586D01*
X105344477Y-150332827D01*
X105344496Y-150332825D01*
X105344850Y-150332829D01*
X107147321Y-150339449D01*
X107147343Y-150339447D01*
X107147644Y-150339450D01*
X109044679Y-150345448D01*
X109044696Y-150345446D01*
X109044963Y-150345449D01*
X111027517Y-150350828D01*
X111027540Y-150350826D01*
X111027772Y-150350828D01*
X113086795Y-150355586D01*
X113086805Y-150355585D01*
X113087026Y-150355587D01*
X115213473Y-150359726D01*
X115213490Y-150359724D01*
X115213684Y-150359726D01*
X117398510Y-150363247D01*
X117398526Y-150363245D01*
X117398707Y-150363247D01*
X119632861Y-150366149D01*
X119632866Y-150366149D01*
X119633047Y-150366150D01*
X121907485Y-150368436D01*
X121907498Y-150368435D01*
X121907663Y-150368436D01*
X124213338Y-150370104D01*
X124213350Y-150370103D01*
X124213509Y-150370104D01*
X126541373Y-150371156D01*
X126541385Y-150371155D01*
X126541541Y-150371156D01*
X128882548Y-150371592D01*
X128882559Y-150371591D01*
X128882714Y-150371592D01*
X131227817Y-150371413D01*
X131227828Y-150371412D01*
X131227983Y-150371413D01*
X133568135Y-150370620D01*
X133568145Y-150370619D01*
X133568304Y-150370620D01*
X135894457Y-150369212D01*
X135894467Y-150369211D01*
X135894629Y-150369212D01*
X138197739Y-150367192D01*
X138197749Y-150367191D01*
X138197918Y-150367192D01*
X140468937Y-150364558D01*
X140468956Y-150364556D01*
X140469124Y-150364557D01*
X142699005Y-150361311D01*
X142699015Y-150361310D01*
X142699203Y-150361311D01*
X144878899Y-150357454D01*
X144878909Y-150357453D01*
X144879113Y-150357454D01*
X146999577Y-150352986D01*
X146999597Y-150352984D01*
X146999809Y-150352985D01*
X149051995Y-150347906D01*
X149052015Y-150347904D01*
X149052251Y-150347905D01*
X151027112Y-150342217D01*
X151027132Y-150342215D01*
X151027400Y-150342216D01*
X152915888Y-150335918D01*
X152915907Y-150335916D01*
X152916214Y-150335917D01*
X154709284Y-150329011D01*
X154709303Y-150329009D01*
X154709663Y-150329010D01*
X156398266Y-150321495D01*
X156398293Y-150321492D01*
X156398711Y-150321493D01*
X157973804Y-150313372D01*
X157973838Y-150313368D01*
X157974343Y-150313369D01*
X159426874Y-150304640D01*
X159426921Y-150304635D01*
X159427542Y-150304635D01*
X160748468Y-150295300D01*
X160748515Y-150295295D01*
X160749325Y-150295294D01*
X161929597Y-150285353D01*
X161929668Y-150285345D01*
X161930741Y-150285342D01*
X162961314Y-150274796D01*
X162961408Y-150274786D01*
X162962930Y-150274777D01*
X163834756Y-150263626D01*
X163834877Y-150263613D01*
X163837223Y-150263590D01*
X164541256Y-150251836D01*
X164541418Y-150251817D01*
X164545517Y-150251750D01*
X165072709Y-150239392D01*
X165072882Y-150239371D01*
X165073059Y-150239384D01*
X165081879Y-150239111D01*
X165423185Y-150226151D01*
X165434233Y-150224643D01*
X165445378Y-150224917D01*
X165454174Y-150224211D01*
X165595820Y-150211844D01*
X165601417Y-150210798D01*
X165607112Y-150210756D01*
X165661984Y-150199474D01*
X165717064Y-150189176D01*
X165722354Y-150187061D01*
X165727929Y-150185915D01*
X165736340Y-150183245D01*
X166669408Y-149879745D01*
X166722280Y-149856626D01*
X166775407Y-149834193D01*
X166782368Y-149830351D01*
X166782421Y-149830328D01*
X166782463Y-149830299D01*
X166783133Y-149829929D01*
X167628818Y-149355507D01*
X167674772Y-149323458D01*
X167721168Y-149292342D01*
X167727943Y-149286688D01*
X168400917Y-148717000D01*
X178926001Y-148717000D01*
X178926001Y-155924104D01*
X178877301Y-156420779D01*
X178742322Y-156867851D01*
X178523073Y-157280199D01*
X178227915Y-157642098D01*
X177868075Y-157939784D01*
X177457277Y-158161901D01*
X177011152Y-158300000D01*
X176516407Y-158352000D01*
X83343886Y-158352000D01*
X82847221Y-158303301D01*
X82400149Y-158168322D01*
X81987801Y-157949073D01*
X81625902Y-157653915D01*
X81328216Y-157294075D01*
X81106099Y-156883277D01*
X80968000Y-156437152D01*
X80916000Y-155942407D01*
X80916000Y-148717000D01*
X91429062Y-148717000D01*
X91432067Y-148720063D01*
G36*
X178926001Y-148971000D02*
G01*
X168529000Y-148971000D01*
X168529000Y-148597950D01*
X168543080Y-148584034D01*
X168548673Y-148577210D01*
X169157072Y-147824150D01*
X169187627Y-147777696D01*
X169219065Y-147731855D01*
X169223268Y-147724096D01*
X169681765Y-146863322D01*
X169702762Y-146812485D01*
X169724825Y-146762128D01*
X169727502Y-146753719D01*
X170002405Y-145868911D01*
X170003315Y-145864500D01*
X170005004Y-145860330D01*
X170015766Y-145804163D01*
X170027333Y-145748111D01*
X170027369Y-145743609D01*
X170028216Y-145739189D01*
X170028962Y-145730396D01*
X170041423Y-145570162D01*
X170041231Y-145560643D01*
X170042609Y-145551230D01*
X170042968Y-145542413D01*
X170054925Y-145187026D01*
X170054921Y-145186956D01*
X170055141Y-145179115D01*
X170066595Y-144636621D01*
X170066583Y-144636466D01*
X170066663Y-144632871D01*
X170077614Y-143911314D01*
X170077605Y-143911203D01*
X170077644Y-143909120D01*
X170088091Y-143016548D01*
X170088084Y-143016463D01*
X170088106Y-143015105D01*
X170098050Y-141959562D01*
X170098045Y-141959502D01*
X170098059Y-141958538D01*
X170107500Y-140748071D01*
X170107495Y-140748019D01*
X170107505Y-140747303D01*
X170116442Y-139389959D01*
X170116439Y-139389924D01*
X170116446Y-139389360D01*
X170124880Y-137893182D01*
X170124877Y-137893146D01*
X170124882Y-137892700D01*
X170132812Y-136265737D01*
X170132810Y-136265713D01*
X170132814Y-136265339D01*
X170140242Y-134515634D01*
X170140241Y-134515619D01*
X170140244Y-134515298D01*
X170147167Y-132650898D01*
X170147165Y-132650879D01*
X170147168Y-132650610D01*
X170153589Y-130679561D01*
X170153587Y-130679537D01*
X170153589Y-130679309D01*
X170159506Y-128609657D01*
X170159505Y-128609646D01*
X170159507Y-128609434D01*
X170164921Y-126449224D01*
X170164919Y-126449206D01*
X170164921Y-126449024D01*
X170169831Y-124206303D01*
X170169830Y-124206297D01*
X170169832Y-124206121D01*
X170174239Y-121888934D01*
X170174238Y-121888920D01*
X170174239Y-121888767D01*
X170178143Y-119505161D01*
X170178142Y-119505149D01*
X170178143Y-119505006D01*
X170181543Y-117063026D01*
X170181543Y-117063024D01*
X170181544Y-117062881D01*
X170184441Y-114570571D01*
X170184440Y-114570560D01*
X170184441Y-114570434D01*
X170186835Y-112035844D01*
X170186834Y-112035834D01*
X170186835Y-112035712D01*
X170188725Y-109466885D01*
X170188724Y-109466876D01*
X170188725Y-109466758D01*
X170190112Y-106871740D01*
X170190111Y-106871731D01*
X170190112Y-106871616D01*
X170190995Y-104258454D01*
X170190994Y-104258446D01*
X170190995Y-104258332D01*
X170191375Y-101635071D01*
X170191374Y-101635063D01*
X170191375Y-101634949D01*
X170191252Y-99009635D01*
X170191251Y-99009627D01*
X170191252Y-99009514D01*
X170190625Y-96390193D01*
X170190624Y-96390185D01*
X170190625Y-96390070D01*
X170189495Y-93784788D01*
X170189494Y-93784780D01*
X170189495Y-93784663D01*
X170187862Y-91201465D01*
X170187861Y-91201457D01*
X170187862Y-91201336D01*
X170185725Y-88648269D01*
X170185724Y-88648261D01*
X170185725Y-88648134D01*
X170183085Y-86133244D01*
X170183083Y-86133227D01*
X170183084Y-86133102D01*
X170179941Y-83664434D01*
X170179940Y-83664426D01*
X170179941Y-83664285D01*
X170176294Y-81249884D01*
X170176293Y-81249876D01*
X170176294Y-81249724D01*
X170172144Y-78897637D01*
X170172143Y-78897629D01*
X170172144Y-78897463D01*
X170167490Y-76615737D01*
X170167488Y-76615719D01*
X170167489Y-76615547D01*
X170162333Y-74412226D01*
X170162332Y-74412217D01*
X170162333Y-74412015D01*
X170156672Y-72295146D01*
X170156670Y-72295128D01*
X170156671Y-72294910D01*
X170150508Y-70272538D01*
X170150506Y-70272519D01*
X170150507Y-70272270D01*
X170143840Y-68352440D01*
X170143838Y-68352421D01*
X170143839Y-68352130D01*
X170136668Y-66542891D01*
X170136665Y-66542864D01*
X170136666Y-66542527D01*
X170128993Y-64851923D01*
X170128990Y-64851896D01*
X170128991Y-64851486D01*
X170120814Y-63287563D01*
X170120811Y-63287530D01*
X170120811Y-63287028D01*
X170112130Y-61857831D01*
X170112126Y-61857793D01*
X170112126Y-61857159D01*
X170102943Y-60570735D01*
X170102937Y-60570680D01*
X170102936Y-60569854D01*
X170093248Y-59434248D01*
X170093241Y-59434181D01*
X170093237Y-59433046D01*
X170083047Y-58456304D01*
X170083036Y-58456204D01*
X170083026Y-58454552D01*
X170072332Y-57644721D01*
X170072317Y-57644587D01*
X170072289Y-57641922D01*
X170061092Y-57007045D01*
X170061074Y-57006887D01*
X170060978Y-57001830D01*
X170049277Y-56549956D01*
X170049007Y-56547782D01*
X170049149Y-56545596D01*
X170048798Y-56536779D01*
X170036890Y-56282263D01*
X170036890Y-56282262D01*
X170036887Y-56282190D01*
X170036591Y-56275879D01*
X170034236Y-56259709D01*
X170034225Y-56243376D01*
X170033297Y-56234601D01*
X170026876Y-56177716D01*
X170014973Y-56121907D01*
X170003924Y-56066052D01*
X170001317Y-56057622D01*
X169699771Y-55106396D01*
X169677195Y-55053694D01*
X169655400Y-55000784D01*
X169651205Y-54993021D01*
X169651203Y-54993016D01*
X169651199Y-54993010D01*
X169179814Y-54135155D01*
X169147882Y-54088499D01*
X169116758Y-54041381D01*
X169111152Y-54034567D01*
X168775043Y-53631825D01*
X168782566Y-51435000D01*
X178926000Y-51435000D01*
X178926001Y-148971000D01*
G37*
X178926001Y-148971000D02*
X168529000Y-148971000D01*
X168529000Y-148597950D01*
X168543080Y-148584034D01*
X168548673Y-148577210D01*
X169157072Y-147824150D01*
X169187627Y-147777696D01*
X169219065Y-147731855D01*
X169223268Y-147724096D01*
X169681765Y-146863322D01*
X169702762Y-146812485D01*
X169724825Y-146762128D01*
X169727502Y-146753719D01*
X170002405Y-145868911D01*
X170003315Y-145864500D01*
X170005004Y-145860330D01*
X170015766Y-145804163D01*
X170027333Y-145748111D01*
X170027369Y-145743609D01*
X170028216Y-145739189D01*
X170028962Y-145730396D01*
X170041423Y-145570162D01*
X170041231Y-145560643D01*
X170042609Y-145551230D01*
X170042968Y-145542413D01*
X170054925Y-145187026D01*
X170054921Y-145186956D01*
X170055141Y-145179115D01*
X170066595Y-144636621D01*
X170066583Y-144636466D01*
X170066663Y-144632871D01*
X170077614Y-143911314D01*
X170077605Y-143911203D01*
X170077644Y-143909120D01*
X170088091Y-143016548D01*
X170088084Y-143016463D01*
X170088106Y-143015105D01*
X170098050Y-141959562D01*
X170098045Y-141959502D01*
X170098059Y-141958538D01*
X170107500Y-140748071D01*
X170107495Y-140748019D01*
X170107505Y-140747303D01*
X170116442Y-139389959D01*
X170116439Y-139389924D01*
X170116446Y-139389360D01*
X170124880Y-137893182D01*
X170124877Y-137893146D01*
X170124882Y-137892700D01*
X170132812Y-136265737D01*
X170132810Y-136265713D01*
X170132814Y-136265339D01*
X170140242Y-134515634D01*
X170140241Y-134515619D01*
X170140244Y-134515298D01*
X170147167Y-132650898D01*
X170147165Y-132650879D01*
X170147168Y-132650610D01*
X170153589Y-130679561D01*
X170153587Y-130679537D01*
X170153589Y-130679309D01*
X170159506Y-128609657D01*
X170159505Y-128609646D01*
X170159507Y-128609434D01*
X170164921Y-126449224D01*
X170164919Y-126449206D01*
X170164921Y-126449024D01*
X170169831Y-124206303D01*
X170169830Y-124206297D01*
X170169832Y-124206121D01*
X170174239Y-121888934D01*
X170174238Y-121888920D01*
X170174239Y-121888767D01*
X170178143Y-119505161D01*
X170178142Y-119505149D01*
X170178143Y-119505006D01*
X170181543Y-117063026D01*
X170181543Y-117063024D01*
X170181544Y-117062881D01*
X170184441Y-114570571D01*
X170184440Y-114570560D01*
X170184441Y-114570434D01*
X170186835Y-112035844D01*
X170186834Y-112035834D01*
X170186835Y-112035712D01*
X170188725Y-109466885D01*
X170188724Y-109466876D01*
X170188725Y-109466758D01*
X170190112Y-106871740D01*
X170190111Y-106871731D01*
X170190112Y-106871616D01*
X170190995Y-104258454D01*
X170190994Y-104258446D01*
X170190995Y-104258332D01*
X170191375Y-101635071D01*
X170191374Y-101635063D01*
X170191375Y-101634949D01*
X170191252Y-99009635D01*
X170191251Y-99009627D01*
X170191252Y-99009514D01*
X170190625Y-96390193D01*
X170190624Y-96390185D01*
X170190625Y-96390070D01*
X170189495Y-93784788D01*
X170189494Y-93784780D01*
X170189495Y-93784663D01*
X170187862Y-91201465D01*
X170187861Y-91201457D01*
X170187862Y-91201336D01*
X170185725Y-88648269D01*
X170185724Y-88648261D01*
X170185725Y-88648134D01*
X170183085Y-86133244D01*
X170183083Y-86133227D01*
X170183084Y-86133102D01*
X170179941Y-83664434D01*
X170179940Y-83664426D01*
X170179941Y-83664285D01*
X170176294Y-81249884D01*
X170176293Y-81249876D01*
X170176294Y-81249724D01*
X170172144Y-78897637D01*
X170172143Y-78897629D01*
X170172144Y-78897463D01*
X170167490Y-76615737D01*
X170167488Y-76615719D01*
X170167489Y-76615547D01*
X170162333Y-74412226D01*
X170162332Y-74412217D01*
X170162333Y-74412015D01*
X170156672Y-72295146D01*
X170156670Y-72295128D01*
X170156671Y-72294910D01*
X170150508Y-70272538D01*
X170150506Y-70272519D01*
X170150507Y-70272270D01*
X170143840Y-68352440D01*
X170143838Y-68352421D01*
X170143839Y-68352130D01*
X170136668Y-66542891D01*
X170136665Y-66542864D01*
X170136666Y-66542527D01*
X170128993Y-64851923D01*
X170128990Y-64851896D01*
X170128991Y-64851486D01*
X170120814Y-63287563D01*
X170120811Y-63287530D01*
X170120811Y-63287028D01*
X170112130Y-61857831D01*
X170112126Y-61857793D01*
X170112126Y-61857159D01*
X170102943Y-60570735D01*
X170102937Y-60570680D01*
X170102936Y-60569854D01*
X170093248Y-59434248D01*
X170093241Y-59434181D01*
X170093237Y-59433046D01*
X170083047Y-58456304D01*
X170083036Y-58456204D01*
X170083026Y-58454552D01*
X170072332Y-57644721D01*
X170072317Y-57644587D01*
X170072289Y-57641922D01*
X170061092Y-57007045D01*
X170061074Y-57006887D01*
X170060978Y-57001830D01*
X170049277Y-56549956D01*
X170049007Y-56547782D01*
X170049149Y-56545596D01*
X170048798Y-56536779D01*
X170036890Y-56282263D01*
X170036890Y-56282262D01*
X170036887Y-56282190D01*
X170036591Y-56275879D01*
X170034236Y-56259709D01*
X170034225Y-56243376D01*
X170033297Y-56234601D01*
X170026876Y-56177716D01*
X170014973Y-56121907D01*
X170003924Y-56066052D01*
X170001317Y-56057622D01*
X169699771Y-55106396D01*
X169677195Y-55053694D01*
X169655400Y-55000784D01*
X169651205Y-54993021D01*
X169651203Y-54993016D01*
X169651199Y-54993010D01*
X169179814Y-54135155D01*
X169147882Y-54088499D01*
X169116758Y-54041381D01*
X169111152Y-54034567D01*
X168775043Y-53631825D01*
X168782566Y-51435000D01*
X178926000Y-51435000D01*
X178926001Y-148971000D01*
G36*
X170716192Y-147593834D02*
G01*
X166902797Y-150692217D01*
X166387871Y-149971321D01*
X166669408Y-149879745D01*
X166722280Y-149856626D01*
X166775407Y-149834193D01*
X166782368Y-149830351D01*
X166782421Y-149830328D01*
X166782463Y-149830299D01*
X166783133Y-149829929D01*
X167628818Y-149355507D01*
X167674772Y-149323458D01*
X167721168Y-149292342D01*
X167727943Y-149286688D01*
X168465404Y-148662410D01*
X168503846Y-148622812D01*
X168543080Y-148584034D01*
X168548673Y-148577210D01*
X169157072Y-147824150D01*
X169187627Y-147777696D01*
X169219065Y-147731855D01*
X169223268Y-147724096D01*
X169617715Y-146983569D01*
X170716192Y-147593834D01*
G37*
X170716192Y-147593834D02*
X166902797Y-150692217D01*
X166387871Y-149971321D01*
X166669408Y-149879745D01*
X166722280Y-149856626D01*
X166775407Y-149834193D01*
X166782368Y-149830351D01*
X166782421Y-149830328D01*
X166782463Y-149830299D01*
X166783133Y-149829929D01*
X167628818Y-149355507D01*
X167674772Y-149323458D01*
X167721168Y-149292342D01*
X167727943Y-149286688D01*
X168465404Y-148662410D01*
X168503846Y-148622812D01*
X168543080Y-148584034D01*
X168548673Y-148577210D01*
X169157072Y-147824150D01*
X169187627Y-147777696D01*
X169219065Y-147731855D01*
X169223268Y-147724096D01*
X169617715Y-146983569D01*
X170716192Y-147593834D01*
G36*
X171007474Y-53592812D02*
G01*
X169585184Y-54872873D01*
X169179814Y-54135155D01*
X169147882Y-54088499D01*
X169116758Y-54041381D01*
X169111152Y-54034567D01*
X168489344Y-53289487D01*
X168449263Y-53250026D01*
X168409935Y-53209936D01*
X168403131Y-53204317D01*
X167650337Y-52591455D01*
X167603179Y-52560183D01*
X167556607Y-52528194D01*
X167548851Y-52523985D01*
X166684499Y-52062769D01*
X166633314Y-52041584D01*
X166618443Y-52035076D01*
X166720182Y-51899424D01*
X167897521Y-50722085D01*
X171007474Y-53592812D01*
G37*
X171007474Y-53592812D02*
X169585184Y-54872873D01*
X169179814Y-54135155D01*
X169147882Y-54088499D01*
X169116758Y-54041381D01*
X169111152Y-54034567D01*
X168489344Y-53289487D01*
X168449263Y-53250026D01*
X168409935Y-53209936D01*
X168403131Y-53204317D01*
X167650337Y-52591455D01*
X167603179Y-52560183D01*
X167556607Y-52528194D01*
X167548851Y-52523985D01*
X166684499Y-52062769D01*
X166633314Y-52041584D01*
X166618443Y-52035076D01*
X166720182Y-51899424D01*
X167897521Y-50722085D01*
X171007474Y-53592812D01*
G36*
X93171274Y-52057275D02*
G01*
X93153695Y-52064805D01*
X93100785Y-52086600D01*
X93093023Y-52090794D01*
X93093017Y-52090797D01*
X93093011Y-52090801D01*
X92235156Y-52562186D01*
X92188500Y-52594118D01*
X92141382Y-52625242D01*
X92134568Y-52630848D01*
X91389488Y-53252656D01*
X91350027Y-53292737D01*
X91309937Y-53332065D01*
X91304318Y-53338869D01*
X90691456Y-54091663D01*
X90660184Y-54138821D01*
X90628195Y-54185393D01*
X90623986Y-54193149D01*
X90251117Y-54891933D01*
X89341237Y-54323258D01*
X91964488Y-50984576D01*
X93171274Y-52057275D01*
G37*
X93171274Y-52057275D02*
X93153695Y-52064805D01*
X93100785Y-52086600D01*
X93093023Y-52090794D01*
X93093017Y-52090797D01*
X93093011Y-52090801D01*
X92235156Y-52562186D01*
X92188500Y-52594118D01*
X92141382Y-52625242D01*
X92134568Y-52630848D01*
X91389488Y-53252656D01*
X91350027Y-53292737D01*
X91309937Y-53332065D01*
X91304318Y-53338869D01*
X90691456Y-54091663D01*
X90660184Y-54138821D01*
X90628195Y-54185393D01*
X90623986Y-54193149D01*
X90251117Y-54891933D01*
X89341237Y-54323258D01*
X91964488Y-50984576D01*
X93171274Y-52057275D01*
G36*
X90186601Y-146929215D02*
G01*
X90190795Y-146936977D01*
X90190798Y-146936983D01*
X90190802Y-146936989D01*
X90662187Y-147794844D01*
X90694111Y-147841487D01*
X90725243Y-147888618D01*
X90730849Y-147895433D01*
X91352658Y-148640512D01*
X91392713Y-148679947D01*
X91432067Y-148720063D01*
X91438870Y-148725682D01*
X92191665Y-149338544D01*
X92238807Y-149369806D01*
X92285394Y-149401805D01*
X92293150Y-149406014D01*
X92883132Y-149720827D01*
X91936076Y-150938470D01*
X88842841Y-147845235D01*
X90178732Y-146910111D01*
X90186601Y-146929215D01*
G37*
X90186601Y-146929215D02*
X90190795Y-146936977D01*
X90190798Y-146936983D01*
X90190802Y-146936989D01*
X90662187Y-147794844D01*
X90694111Y-147841487D01*
X90725243Y-147888618D01*
X90730849Y-147895433D01*
X91352658Y-148640512D01*
X91392713Y-148679947D01*
X91432067Y-148720063D01*
X91438870Y-148725682D01*
X92191665Y-149338544D01*
X92238807Y-149369806D01*
X92285394Y-149401805D01*
X92293150Y-149406014D01*
X92883132Y-149720827D01*
X91936076Y-150938470D01*
X88842841Y-147845235D01*
X90178732Y-146910111D01*
X90186601Y-146929215D01*
M02*
