G04 #@! TF.GenerationSoftware,KiCad,Pcbnew,5.1.6-c6e7f7d~87~ubuntu18.04.1*
G04 #@! TF.CreationDate,2020-08-05T15:47:38+02:00*
G04 #@! TF.ProjectId,backplate,6261636b-706c-4617-9465-2e6b69636164,rev?*
G04 #@! TF.SameCoordinates,Original*
G04 #@! TF.FileFunction,Copper,L1,Top*
G04 #@! TF.FilePolarity,Positive*
%FSLAX46Y46*%
G04 Gerber Fmt 4.6, Leading zero omitted, Abs format (unit mm)*
G04 Created by KiCad (PCBNEW 5.1.6-c6e7f7d~87~ubuntu18.04.1) date 2020-08-05 15:47:38*
%MOMM*%
%LPD*%
G01*
G04 APERTURE LIST*
G04 #@! TA.AperFunction,ComponentPad*
%ADD10C,3.000000*%
G04 #@! TD*
G04 #@! TA.AperFunction,NonConductor*
%ADD11C,0.254000*%
G04 #@! TD*
G04 APERTURE END LIST*
D10*
G04 #@! TO.P,REF\u002A\u002A,1*
G04 #@! TO.N,N/C*
X101854000Y-133350000D03*
G04 #@! TD*
G04 #@! TO.P,REF\u002A\u002A,1*
G04 #@! TO.N,N/C*
X159004000Y-133350000D03*
G04 #@! TD*
G04 #@! TO.P,REF\u002A\u002A,1*
G04 #@! TO.N,N/C*
X101854000Y-62103000D03*
G04 #@! TD*
G04 #@! TO.P,REF\u002A\u002A,1*
G04 #@! TO.N,N/C*
X159004000Y-62103000D03*
G04 #@! TD*
D11*
G36*
X176994779Y-43880699D02*
G01*
X177441851Y-44015678D01*
X177854197Y-44234926D01*
X178216099Y-44530086D01*
X178513782Y-44889922D01*
X178735901Y-45300723D01*
X178874000Y-45746848D01*
X178926000Y-46241593D01*
X178926001Y-155924104D01*
X178877301Y-156420779D01*
X178742322Y-156867851D01*
X178523073Y-157280199D01*
X178227915Y-157642098D01*
X177868075Y-157939784D01*
X177457277Y-158161901D01*
X177011152Y-158300000D01*
X176516407Y-158352000D01*
X83343886Y-158352000D01*
X82847221Y-158303301D01*
X82400149Y-158168322D01*
X81987801Y-157949073D01*
X81625902Y-157653915D01*
X81328216Y-157294075D01*
X81106099Y-156883277D01*
X80968000Y-156437152D01*
X80916000Y-155942407D01*
X80916000Y-133140509D01*
X99727000Y-133140509D01*
X99727000Y-133559491D01*
X99808739Y-133970423D01*
X99969077Y-134357512D01*
X100201851Y-134705884D01*
X100498116Y-135002149D01*
X100846488Y-135234923D01*
X101233577Y-135395261D01*
X101644509Y-135477000D01*
X102063491Y-135477000D01*
X102474423Y-135395261D01*
X102861512Y-135234923D01*
X103209884Y-135002149D01*
X103506149Y-134705884D01*
X103738923Y-134357512D01*
X103899261Y-133970423D01*
X103981000Y-133559491D01*
X103981000Y-133140509D01*
X156877000Y-133140509D01*
X156877000Y-133559491D01*
X156958739Y-133970423D01*
X157119077Y-134357512D01*
X157351851Y-134705884D01*
X157648116Y-135002149D01*
X157996488Y-135234923D01*
X158383577Y-135395261D01*
X158794509Y-135477000D01*
X159213491Y-135477000D01*
X159624423Y-135395261D01*
X160011512Y-135234923D01*
X160359884Y-135002149D01*
X160656149Y-134705884D01*
X160888923Y-134357512D01*
X161049261Y-133970423D01*
X161131000Y-133559491D01*
X161131000Y-133140509D01*
X161049261Y-132729577D01*
X160888923Y-132342488D01*
X160656149Y-131994116D01*
X160359884Y-131697851D01*
X160011512Y-131465077D01*
X159624423Y-131304739D01*
X159213491Y-131223000D01*
X158794509Y-131223000D01*
X158383577Y-131304739D01*
X157996488Y-131465077D01*
X157648116Y-131697851D01*
X157351851Y-131994116D01*
X157119077Y-132342488D01*
X156958739Y-132729577D01*
X156877000Y-133140509D01*
X103981000Y-133140509D01*
X103899261Y-132729577D01*
X103738923Y-132342488D01*
X103506149Y-131994116D01*
X103209884Y-131697851D01*
X102861512Y-131465077D01*
X102474423Y-131304739D01*
X102063491Y-131223000D01*
X101644509Y-131223000D01*
X101233577Y-131304739D01*
X100846488Y-131465077D01*
X100498116Y-131697851D01*
X100201851Y-131994116D01*
X99969077Y-132342488D01*
X99808739Y-132729577D01*
X99727000Y-133140509D01*
X80916000Y-133140509D01*
X80916000Y-61893509D01*
X99727000Y-61893509D01*
X99727000Y-62312491D01*
X99808739Y-62723423D01*
X99969077Y-63110512D01*
X100201851Y-63458884D01*
X100498116Y-63755149D01*
X100846488Y-63987923D01*
X101233577Y-64148261D01*
X101644509Y-64230000D01*
X102063491Y-64230000D01*
X102474423Y-64148261D01*
X102861512Y-63987923D01*
X103209884Y-63755149D01*
X103506149Y-63458884D01*
X103738923Y-63110512D01*
X103899261Y-62723423D01*
X103981000Y-62312491D01*
X103981000Y-61893509D01*
X156877000Y-61893509D01*
X156877000Y-62312491D01*
X156958739Y-62723423D01*
X157119077Y-63110512D01*
X157351851Y-63458884D01*
X157648116Y-63755149D01*
X157996488Y-63987923D01*
X158383577Y-64148261D01*
X158794509Y-64230000D01*
X159213491Y-64230000D01*
X159624423Y-64148261D01*
X160011512Y-63987923D01*
X160359884Y-63755149D01*
X160656149Y-63458884D01*
X160888923Y-63110512D01*
X161049261Y-62723423D01*
X161131000Y-62312491D01*
X161131000Y-61893509D01*
X161049261Y-61482577D01*
X160888923Y-61095488D01*
X160656149Y-60747116D01*
X160359884Y-60450851D01*
X160011512Y-60218077D01*
X159624423Y-60057739D01*
X159213491Y-59976000D01*
X158794509Y-59976000D01*
X158383577Y-60057739D01*
X157996488Y-60218077D01*
X157648116Y-60450851D01*
X157351851Y-60747116D01*
X157119077Y-61095488D01*
X156958739Y-61482577D01*
X156877000Y-61893509D01*
X103981000Y-61893509D01*
X103899261Y-61482577D01*
X103738923Y-61095488D01*
X103506149Y-60747116D01*
X103209884Y-60450851D01*
X102861512Y-60218077D01*
X102474423Y-60057739D01*
X102063491Y-59976000D01*
X101644509Y-59976000D01*
X101233577Y-60057739D01*
X100846488Y-60218077D01*
X100498116Y-60450851D01*
X100201851Y-60747116D01*
X99969077Y-61095488D01*
X99808739Y-61482577D01*
X99727000Y-61893509D01*
X80916000Y-61893509D01*
X80916000Y-46259886D01*
X80964699Y-45763221D01*
X81099678Y-45316149D01*
X81318926Y-44903803D01*
X81614086Y-44541901D01*
X81973922Y-44244218D01*
X82384723Y-44022099D01*
X82830848Y-43884000D01*
X83325593Y-43832000D01*
X176498114Y-43832000D01*
X176994779Y-43880699D01*
G37*
X176994779Y-43880699D02*
X177441851Y-44015678D01*
X177854197Y-44234926D01*
X178216099Y-44530086D01*
X178513782Y-44889922D01*
X178735901Y-45300723D01*
X178874000Y-45746848D01*
X178926000Y-46241593D01*
X178926001Y-155924104D01*
X178877301Y-156420779D01*
X178742322Y-156867851D01*
X178523073Y-157280199D01*
X178227915Y-157642098D01*
X177868075Y-157939784D01*
X177457277Y-158161901D01*
X177011152Y-158300000D01*
X176516407Y-158352000D01*
X83343886Y-158352000D01*
X82847221Y-158303301D01*
X82400149Y-158168322D01*
X81987801Y-157949073D01*
X81625902Y-157653915D01*
X81328216Y-157294075D01*
X81106099Y-156883277D01*
X80968000Y-156437152D01*
X80916000Y-155942407D01*
X80916000Y-133140509D01*
X99727000Y-133140509D01*
X99727000Y-133559491D01*
X99808739Y-133970423D01*
X99969077Y-134357512D01*
X100201851Y-134705884D01*
X100498116Y-135002149D01*
X100846488Y-135234923D01*
X101233577Y-135395261D01*
X101644509Y-135477000D01*
X102063491Y-135477000D01*
X102474423Y-135395261D01*
X102861512Y-135234923D01*
X103209884Y-135002149D01*
X103506149Y-134705884D01*
X103738923Y-134357512D01*
X103899261Y-133970423D01*
X103981000Y-133559491D01*
X103981000Y-133140509D01*
X156877000Y-133140509D01*
X156877000Y-133559491D01*
X156958739Y-133970423D01*
X157119077Y-134357512D01*
X157351851Y-134705884D01*
X157648116Y-135002149D01*
X157996488Y-135234923D01*
X158383577Y-135395261D01*
X158794509Y-135477000D01*
X159213491Y-135477000D01*
X159624423Y-135395261D01*
X160011512Y-135234923D01*
X160359884Y-135002149D01*
X160656149Y-134705884D01*
X160888923Y-134357512D01*
X161049261Y-133970423D01*
X161131000Y-133559491D01*
X161131000Y-133140509D01*
X161049261Y-132729577D01*
X160888923Y-132342488D01*
X160656149Y-131994116D01*
X160359884Y-131697851D01*
X160011512Y-131465077D01*
X159624423Y-131304739D01*
X159213491Y-131223000D01*
X158794509Y-131223000D01*
X158383577Y-131304739D01*
X157996488Y-131465077D01*
X157648116Y-131697851D01*
X157351851Y-131994116D01*
X157119077Y-132342488D01*
X156958739Y-132729577D01*
X156877000Y-133140509D01*
X103981000Y-133140509D01*
X103899261Y-132729577D01*
X103738923Y-132342488D01*
X103506149Y-131994116D01*
X103209884Y-131697851D01*
X102861512Y-131465077D01*
X102474423Y-131304739D01*
X102063491Y-131223000D01*
X101644509Y-131223000D01*
X101233577Y-131304739D01*
X100846488Y-131465077D01*
X100498116Y-131697851D01*
X100201851Y-131994116D01*
X99969077Y-132342488D01*
X99808739Y-132729577D01*
X99727000Y-133140509D01*
X80916000Y-133140509D01*
X80916000Y-61893509D01*
X99727000Y-61893509D01*
X99727000Y-62312491D01*
X99808739Y-62723423D01*
X99969077Y-63110512D01*
X100201851Y-63458884D01*
X100498116Y-63755149D01*
X100846488Y-63987923D01*
X101233577Y-64148261D01*
X101644509Y-64230000D01*
X102063491Y-64230000D01*
X102474423Y-64148261D01*
X102861512Y-63987923D01*
X103209884Y-63755149D01*
X103506149Y-63458884D01*
X103738923Y-63110512D01*
X103899261Y-62723423D01*
X103981000Y-62312491D01*
X103981000Y-61893509D01*
X156877000Y-61893509D01*
X156877000Y-62312491D01*
X156958739Y-62723423D01*
X157119077Y-63110512D01*
X157351851Y-63458884D01*
X157648116Y-63755149D01*
X157996488Y-63987923D01*
X158383577Y-64148261D01*
X158794509Y-64230000D01*
X159213491Y-64230000D01*
X159624423Y-64148261D01*
X160011512Y-63987923D01*
X160359884Y-63755149D01*
X160656149Y-63458884D01*
X160888923Y-63110512D01*
X161049261Y-62723423D01*
X161131000Y-62312491D01*
X161131000Y-61893509D01*
X161049261Y-61482577D01*
X160888923Y-61095488D01*
X160656149Y-60747116D01*
X160359884Y-60450851D01*
X160011512Y-60218077D01*
X159624423Y-60057739D01*
X159213491Y-59976000D01*
X158794509Y-59976000D01*
X158383577Y-60057739D01*
X157996488Y-60218077D01*
X157648116Y-60450851D01*
X157351851Y-60747116D01*
X157119077Y-61095488D01*
X156958739Y-61482577D01*
X156877000Y-61893509D01*
X103981000Y-61893509D01*
X103899261Y-61482577D01*
X103738923Y-61095488D01*
X103506149Y-60747116D01*
X103209884Y-60450851D01*
X102861512Y-60218077D01*
X102474423Y-60057739D01*
X102063491Y-59976000D01*
X101644509Y-59976000D01*
X101233577Y-60057739D01*
X100846488Y-60218077D01*
X100498116Y-60450851D01*
X100201851Y-60747116D01*
X99969077Y-61095488D01*
X99808739Y-61482577D01*
X99727000Y-61893509D01*
X80916000Y-61893509D01*
X80916000Y-46259886D01*
X80964699Y-45763221D01*
X81099678Y-45316149D01*
X81318926Y-44903803D01*
X81614086Y-44541901D01*
X81973922Y-44244218D01*
X82384723Y-44022099D01*
X82830848Y-43884000D01*
X83325593Y-43832000D01*
X176498114Y-43832000D01*
X176994779Y-43880699D01*
M02*
