M48
; DRILL file {KiCad (5.1.6)-1} date 07/02/20 14:25:51
; FORMAT={-:-/ absolute / inch / decimal}
; #@! TF.CreationDate,2020-07-02T14:25:51+02:00
; #@! TF.GenerationSoftware,Kicad,Pcbnew,(5.1.6)-1
; #@! TF.FileFunction,Plated,1,2,PTH
FMAT,2
INCH
T1C0.0157
T2C0.0236
T3C0.0276
T4C0.0315
T5C0.0394
T6C0.0433
T7C0.0579
T8C0.0787
%
G90
G05
T1
X3.5546Y-3.9854
X3.5683Y-2.0433
X3.585Y-1.765
X3.6017Y-2.0718
X3.4677Y-1.888
X3.4679Y-1.9402
X3.5011Y-1.888
X3.5013Y-1.9402
X3.5346Y-1.888
X3.5348Y-1.9402
X3.5681Y-1.888
X3.5683Y-1.9402
X3.6015Y-1.888
X3.6017Y-1.9402
X3.635Y-1.888
X3.6352Y-1.9402
X3.6685Y-1.888
X3.6687Y-1.9402
X3.7021Y-1.888
X3.7021Y-1.9402
T2
X3.555Y-2.305
X3.6337Y-2.305
T3
X3.45Y-2.58
X3.45Y-2.88
X3.755Y-2.16
X3.755Y-2.46
X3.45Y-5.82
X3.75Y-5.82
X3.865Y-2.16
X3.865Y-2.46
X3.34Y-2.58
X3.34Y-2.88
X3.56Y-2.58
X3.56Y-2.88
T4
X3.67Y-4.75
X3.67Y-4.9469
X4.01Y-4.68
X4.01Y-4.98
X5.51Y-3.41
X5.51Y-3.71
X3.81Y-2.58
X3.81Y-2.88
X3.48Y-4.75
X3.48Y-4.9469
X6.26Y-1.91
X6.26Y-2.21
X5.51Y-4.16
X5.51Y-4.46
X4.01Y-1.91
X4.01Y-2.21
X4.76Y-1.91
X4.76Y-2.21
X4.76Y-3.41
X4.76Y-3.71
X3.48Y-4.59
X3.6721Y-4.59
X5.51Y-5.425
X5.51Y-5.725
X5.51Y-4.68
X5.51Y-4.98
X4.01Y-5.53
X4.01Y-5.83
X3.32Y-3.63
X3.32Y-3.7284
X5.51Y-1.91
X5.51Y-2.21
X4.76Y-2.67
X4.76Y-2.97
X4.76Y-4.68
X4.76Y-4.98
X3.68Y-2.58
X3.68Y-2.88
X4.01Y-2.67
X4.01Y-2.97
X5.51Y-2.67
X5.51Y-2.97
X3.43Y-3.03
X3.43Y-3.13
X3.43Y-3.23
X3.43Y-3.33
X3.43Y-3.43
X3.43Y-3.53
X3.43Y-3.63
X3.43Y-3.73
X3.43Y-3.83
X3.43Y-3.93
X3.43Y-4.03
X3.43Y-4.13
X3.43Y-4.23
X3.43Y-4.33
X3.73Y-3.03
X3.73Y-3.13
X3.73Y-3.23
X3.73Y-3.33
X3.73Y-3.43
X3.73Y-3.53
X3.73Y-3.63
X3.73Y-3.73
X3.73Y-3.83
X3.73Y-3.93
X3.73Y-4.03
X3.73Y-4.13
X3.73Y-4.23
X3.73Y-4.33
X6.26Y-3.94
X6.26Y-4.24
X4.01Y-4.16
X4.01Y-4.46
X6.26Y-2.67
X6.26Y-2.97
X6.26Y-5.425
X6.26Y-5.725
X3.84Y-3.6316
X3.84Y-3.73
X4.76Y-4.16
X4.76Y-4.46
X4.01Y-3.41
X4.01Y-3.71
T5
X3.37Y-2.4
X3.3704Y-2.2
X3.65Y-5.29
X3.65Y-5.39
X3.65Y-5.49
X3.75Y-5.29
X3.75Y-5.39
X3.75Y-5.49
T6
X3.28Y-5.945
X3.28Y-6.1222
X3.5359Y-5.945
X3.5359Y-6.1222
X3.67Y-5.945
X3.67Y-6.1222
X3.9259Y-5.945
X3.9259Y-6.1222
T7
X5.735Y-2.72
X5.985Y-2.62
X4.235Y-3.47
X4.485Y-3.37
X4.985Y-4.97
X5.235Y-4.87
X6.485Y-2.72
X6.735Y-2.62
X5.735Y-3.47
X5.985Y-3.37
X4.235Y-1.97
X4.485Y-1.87
X6.435Y-3.845
X6.535Y-4.095
X4.985Y-3.47
X5.235Y-3.37
X4.985Y-4.22
X5.235Y-4.12
X5.735Y-4.97
X5.985Y-4.87
X4.235Y-4.22
X4.485Y-4.12
X4.235Y-2.72
X4.485Y-2.62
X4.985Y-1.97
X5.235Y-1.87
X4.235Y-4.97
X4.485Y-4.87
X5.735Y-4.22
X5.985Y-4.12
X4.61Y-5.72
X4.86Y-5.62
X6.485Y-1.97
X6.735Y-1.87
X4.985Y-2.72
X5.235Y-2.62
X5.735Y-5.72
X5.985Y-5.62
X5.735Y-1.97
X5.985Y-1.87
X6.435Y-5.345
X6.535Y-5.595
T8
X4.01Y-5.25
X6.26Y-5.25
X6.26Y-2.445
X4.01Y-2.445
T2
G00X3.4147Y-1.7843
M15
G01X3.4147Y-1.7528
M16
G05
G00X3.4147Y-1.9311
M15
G01X3.4147Y-1.872
M16
G05
G00X3.7553Y-1.7843
M15
G01X3.7553Y-1.7528
M16
G05
G00X3.7553Y-1.9311
M15
G01X3.7553Y-1.872
M16
G05
T0
M30
