%TF.GenerationSoftware,KiCad,Pcbnew,(5.1.6)-1*%
%TF.CreationDate,2020-06-16T22:03:12+02:00*%
%TF.ProjectId,numpad,6e756d70-6164-42e6-9b69-6361645f7063,rev?*%
%TF.SameCoordinates,Original*%
%TF.FileFunction,Legend,Bot*%
%TF.FilePolarity,Positive*%
%FSLAX46Y46*%
G04 Gerber Fmt 4.6, Leading zero omitted, Abs format (unit mm)*
G04 Created by KiCad (PCBNEW (5.1.6)-1) date 2020-06-16 22:03:12*
%MOMM*%
%LPD*%
G01*
G04 APERTURE LIST*
%ADD10C,0.200000*%
%ADD11C,0.010000*%
%ADD12O,1.800000X1.800000*%
%ADD13R,1.800000X1.800000*%
%ADD14O,1.700000X1.700000*%
%ADD15R,1.700000X1.700000*%
%ADD16C,2.350000*%
%ADD17C,4.087800*%
%ADD18C,1.850000*%
%ADD19C,3.148000*%
%ADD20C,1.600000*%
%ADD21O,1.200000X1.750000*%
%ADD22O,1.800000X2.800000*%
%ADD23C,2.100000*%
%ADD24O,1.500000X1.500000*%
%ADD25C,1.500000*%
%ADD26C,1.700000*%
%ADD27C,1.300000*%
%ADD28R,1.300000X1.300000*%
G04 APERTURE END LIST*
D10*
X87477523Y-133966000D02*
X87553714Y-133927904D01*
X87668000Y-133927904D01*
X87782285Y-133966000D01*
X87858476Y-134042190D01*
X87896571Y-134118380D01*
X87934666Y-134270761D01*
X87934666Y-134385047D01*
X87896571Y-134537428D01*
X87858476Y-134613619D01*
X87782285Y-134689809D01*
X87668000Y-134727904D01*
X87591809Y-134727904D01*
X87477523Y-134689809D01*
X87439428Y-134651714D01*
X87439428Y-134385047D01*
X87591809Y-134385047D01*
X87096571Y-134727904D02*
X87096571Y-133927904D01*
X86639428Y-134727904D01*
X86639428Y-133927904D01*
X86258476Y-134727904D02*
X86258476Y-133927904D01*
X86068000Y-133927904D01*
X85953714Y-133966000D01*
X85877523Y-134042190D01*
X85839428Y-134118380D01*
X85801333Y-134270761D01*
X85801333Y-134385047D01*
X85839428Y-134537428D01*
X85877523Y-134613619D01*
X85953714Y-134689809D01*
X86068000Y-134727904D01*
X86258476Y-134727904D01*
X95688095Y-134727904D02*
X95954761Y-134346952D01*
X96145238Y-134727904D02*
X96145238Y-133927904D01*
X95840476Y-133927904D01*
X95764285Y-133966000D01*
X95726190Y-134004095D01*
X95688095Y-134080285D01*
X95688095Y-134194571D01*
X95726190Y-134270761D01*
X95764285Y-134308857D01*
X95840476Y-134346952D01*
X96145238Y-134346952D01*
X95383333Y-134689809D02*
X95269047Y-134727904D01*
X95078571Y-134727904D01*
X95002380Y-134689809D01*
X94964285Y-134651714D01*
X94926190Y-134575523D01*
X94926190Y-134499333D01*
X94964285Y-134423142D01*
X95002380Y-134385047D01*
X95078571Y-134346952D01*
X95230952Y-134308857D01*
X95307142Y-134270761D01*
X95345238Y-134232666D01*
X95383333Y-134156476D01*
X95383333Y-134080285D01*
X95345238Y-134004095D01*
X95307142Y-133966000D01*
X95230952Y-133927904D01*
X95040476Y-133927904D01*
X94926190Y-133966000D01*
X94697619Y-133927904D02*
X94240476Y-133927904D01*
X94469047Y-134727904D02*
X94469047Y-133927904D01*
X87871142Y-137267904D02*
X87871142Y-136467904D01*
X87604476Y-137039333D01*
X87337809Y-136467904D01*
X87337809Y-137267904D01*
X86804476Y-136467904D02*
X86652095Y-136467904D01*
X86575904Y-136506000D01*
X86499714Y-136582190D01*
X86461619Y-136734571D01*
X86461619Y-137001238D01*
X86499714Y-137153619D01*
X86575904Y-137229809D01*
X86652095Y-137267904D01*
X86804476Y-137267904D01*
X86880666Y-137229809D01*
X86956857Y-137153619D01*
X86994952Y-137001238D01*
X86994952Y-136734571D01*
X86956857Y-136582190D01*
X86880666Y-136506000D01*
X86804476Y-136467904D01*
X86156857Y-137229809D02*
X86042571Y-137267904D01*
X85852095Y-137267904D01*
X85775904Y-137229809D01*
X85737809Y-137191714D01*
X85699714Y-137115523D01*
X85699714Y-137039333D01*
X85737809Y-136963142D01*
X85775904Y-136925047D01*
X85852095Y-136886952D01*
X86004476Y-136848857D01*
X86080666Y-136810761D01*
X86118761Y-136772666D01*
X86156857Y-136696476D01*
X86156857Y-136620285D01*
X86118761Y-136544095D01*
X86080666Y-136506000D01*
X86004476Y-136467904D01*
X85814000Y-136467904D01*
X85699714Y-136506000D01*
X85356857Y-137267904D02*
X85356857Y-136467904D01*
X96507142Y-139807904D02*
X96507142Y-139007904D01*
X96240476Y-139579333D01*
X95973809Y-139007904D01*
X95973809Y-139807904D01*
X95592857Y-139807904D02*
X95592857Y-139007904D01*
X95250000Y-139769809D02*
X95135714Y-139807904D01*
X94945238Y-139807904D01*
X94869047Y-139769809D01*
X94830952Y-139731714D01*
X94792857Y-139655523D01*
X94792857Y-139579333D01*
X94830952Y-139503142D01*
X94869047Y-139465047D01*
X94945238Y-139426952D01*
X95097619Y-139388857D01*
X95173809Y-139350761D01*
X95211904Y-139312666D01*
X95250000Y-139236476D01*
X95250000Y-139160285D01*
X95211904Y-139084095D01*
X95173809Y-139046000D01*
X95097619Y-139007904D01*
X94907142Y-139007904D01*
X94792857Y-139046000D01*
X94297619Y-139007904D02*
X94145238Y-139007904D01*
X94069047Y-139046000D01*
X93992857Y-139122190D01*
X93954761Y-139274571D01*
X93954761Y-139541238D01*
X93992857Y-139693619D01*
X94069047Y-139769809D01*
X94145238Y-139807904D01*
X94297619Y-139807904D01*
X94373809Y-139769809D01*
X94450000Y-139693619D01*
X94488095Y-139541238D01*
X94488095Y-139274571D01*
X94450000Y-139122190D01*
X94373809Y-139046000D01*
X94297619Y-139007904D01*
X96278571Y-137229809D02*
X96164285Y-137267904D01*
X95973809Y-137267904D01*
X95897619Y-137229809D01*
X95859523Y-137191714D01*
X95821428Y-137115523D01*
X95821428Y-137039333D01*
X95859523Y-136963142D01*
X95897619Y-136925047D01*
X95973809Y-136886952D01*
X96126190Y-136848857D01*
X96202380Y-136810761D01*
X96240476Y-136772666D01*
X96278571Y-136696476D01*
X96278571Y-136620285D01*
X96240476Y-136544095D01*
X96202380Y-136506000D01*
X96126190Y-136467904D01*
X95935714Y-136467904D01*
X95821428Y-136506000D01*
X95021428Y-137191714D02*
X95059523Y-137229809D01*
X95173809Y-137267904D01*
X95250000Y-137267904D01*
X95364285Y-137229809D01*
X95440476Y-137153619D01*
X95478571Y-137077428D01*
X95516666Y-136925047D01*
X95516666Y-136810761D01*
X95478571Y-136658380D01*
X95440476Y-136582190D01*
X95364285Y-136506000D01*
X95250000Y-136467904D01*
X95173809Y-136467904D01*
X95059523Y-136506000D01*
X95021428Y-136544095D01*
X94678571Y-137267904D02*
X94678571Y-136467904D01*
X94221428Y-137267904D02*
X94564285Y-136810761D01*
X94221428Y-136467904D02*
X94678571Y-136925047D01*
X87934666Y-139007904D02*
X87668000Y-139807904D01*
X87401333Y-139007904D01*
X86677523Y-139731714D02*
X86715619Y-139769809D01*
X86829904Y-139807904D01*
X86906095Y-139807904D01*
X87020380Y-139769809D01*
X87096571Y-139693619D01*
X87134666Y-139617428D01*
X87172761Y-139465047D01*
X87172761Y-139350761D01*
X87134666Y-139198380D01*
X87096571Y-139122190D01*
X87020380Y-139046000D01*
X86906095Y-139007904D01*
X86829904Y-139007904D01*
X86715619Y-139046000D01*
X86677523Y-139084095D01*
X85877523Y-139731714D02*
X85915619Y-139769809D01*
X86029904Y-139807904D01*
X86106095Y-139807904D01*
X86220380Y-139769809D01*
X86296571Y-139693619D01*
X86334666Y-139617428D01*
X86372761Y-139465047D01*
X86372761Y-139350761D01*
X86334666Y-139198380D01*
X86296571Y-139122190D01*
X86220380Y-139046000D01*
X86106095Y-139007904D01*
X86029904Y-139007904D01*
X85915619Y-139046000D01*
X85877523Y-139084095D01*
D11*
%TO.C,G\u002A\u002A\u002A*%
G36*
X146489109Y-54990596D02*
G01*
X144997055Y-55129221D01*
X143590154Y-55392825D01*
X142366206Y-55776399D01*
X142324667Y-55793252D01*
X140240182Y-56807589D01*
X138418488Y-58035325D01*
X136858363Y-59477746D01*
X135558583Y-61136141D01*
X134517925Y-63011796D01*
X133860982Y-64700829D01*
X133330091Y-66337025D01*
X132410332Y-65680102D01*
X131452745Y-65058120D01*
X130386131Y-64495410D01*
X129112755Y-63942005D01*
X128672327Y-63768984D01*
X127961538Y-63551088D01*
X127073042Y-63360927D01*
X126091025Y-63207599D01*
X125099676Y-63100197D01*
X124183182Y-63047818D01*
X123425731Y-63059558D01*
X122911512Y-63144512D01*
X122906928Y-63146094D01*
X122372888Y-63280458D01*
X121907424Y-63330666D01*
X121485631Y-63396120D01*
X120844264Y-63571054D01*
X120071385Y-63823325D01*
X119255051Y-64120792D01*
X118483324Y-64431312D01*
X117844263Y-64722745D01*
X117425929Y-64962946D01*
X117416684Y-64969793D01*
X117050266Y-65222814D01*
X116800284Y-65356437D01*
X116770263Y-65362666D01*
X116525984Y-65481038D01*
X116108534Y-65802198D01*
X115568944Y-66275217D01*
X114958243Y-66849164D01*
X114327460Y-67473106D01*
X113727626Y-68096115D01*
X113209770Y-68667258D01*
X112824921Y-69135604D01*
X112624109Y-69450224D01*
X112606667Y-69518203D01*
X112509052Y-69746562D01*
X112382529Y-69921333D01*
X112121987Y-70336114D01*
X111810411Y-70988099D01*
X111483505Y-71787122D01*
X111176973Y-72643017D01*
X110926517Y-73465617D01*
X110835057Y-73829333D01*
X110614652Y-75077472D01*
X110490105Y-76410455D01*
X110467697Y-77701213D01*
X110553712Y-78822677D01*
X110579945Y-78989536D01*
X110745781Y-79764906D01*
X110981948Y-80630557D01*
X111258271Y-81496362D01*
X111544573Y-82272193D01*
X111810680Y-82867924D01*
X111963953Y-83123169D01*
X112185270Y-83493966D01*
X112268000Y-83770123D01*
X112371182Y-84021072D01*
X112639227Y-84427081D01*
X112945334Y-84816518D01*
X113301756Y-85265093D01*
X113547119Y-85623379D01*
X113622667Y-85791575D01*
X113502591Y-85977659D01*
X113185296Y-86311882D01*
X112735185Y-86727327D01*
X112655362Y-86796677D01*
X112163032Y-87239077D01*
X111514538Y-87847626D01*
X110790051Y-88545900D01*
X110069738Y-89257474D01*
X109988362Y-89339148D01*
X108968411Y-90343356D01*
X108118683Y-91127660D01*
X107391356Y-91731287D01*
X106738605Y-92193468D01*
X106112609Y-92553431D01*
X106002667Y-92608632D01*
X105044672Y-93092565D01*
X104357501Y-93473774D01*
X103899954Y-93781198D01*
X103630830Y-94043779D01*
X103508928Y-94290456D01*
X103494311Y-94370524D01*
X103575498Y-95007529D01*
X103923595Y-95672664D01*
X104480533Y-96298752D01*
X105188243Y-96818619D01*
X105881740Y-97132330D01*
X106353479Y-97286048D01*
X105416073Y-98422509D01*
X104991553Y-98963119D01*
X104667260Y-99425490D01*
X104494182Y-99734871D01*
X104478667Y-99796750D01*
X104359014Y-100097607D01*
X104224667Y-100245333D01*
X104012409Y-100478937D01*
X103970667Y-100583098D01*
X103889164Y-100773303D01*
X103669169Y-101186103D01*
X103347452Y-101754306D01*
X103078548Y-102213364D01*
X102362769Y-103479015D01*
X101704301Y-104757082D01*
X101128035Y-105990619D01*
X100658861Y-107122674D01*
X100321669Y-108096301D01*
X100141348Y-108854550D01*
X100127239Y-108966000D01*
X100179881Y-109799833D01*
X100507941Y-110469171D01*
X101087792Y-110934851D01*
X101388334Y-111056401D01*
X101824196Y-111242989D01*
X102079646Y-111446781D01*
X102108000Y-111521993D01*
X102080076Y-111785987D01*
X102005233Y-112295000D01*
X101896868Y-112960796D01*
X101834066Y-113326257D01*
X101696699Y-114309514D01*
X101629770Y-115341301D01*
X101627684Y-116537267D01*
X101647375Y-117185376D01*
X101694145Y-118187773D01*
X101757555Y-118952507D01*
X101854097Y-119580581D01*
X102000266Y-120172999D01*
X102212553Y-120830765D01*
X102268950Y-120991958D01*
X102532268Y-121689744D01*
X102789517Y-122289352D01*
X103000709Y-122700757D01*
X103074552Y-122805581D01*
X103510195Y-123057338D01*
X104063734Y-123070470D01*
X104609872Y-122842046D01*
X104610620Y-122841523D01*
X104998150Y-122675228D01*
X105256293Y-122768623D01*
X105325334Y-123009926D01*
X105444203Y-123301834D01*
X105562720Y-123430211D01*
X105786728Y-123742159D01*
X105908027Y-124057214D01*
X106038322Y-124429672D01*
X106272110Y-124978280D01*
X106533396Y-125531934D01*
X106840097Y-126152630D01*
X107122498Y-126726613D01*
X107297556Y-127084666D01*
X107518698Y-127519297D01*
X107701688Y-127846666D01*
X108187091Y-128683016D01*
X108506865Y-129402328D01*
X108693382Y-130122722D01*
X108779015Y-130962317D01*
X108796667Y-131841935D01*
X108805440Y-132811514D01*
X108857150Y-133490352D01*
X108989888Y-133926337D01*
X109241741Y-134167361D01*
X109650799Y-134261312D01*
X110255152Y-134256080D01*
X110694104Y-134227607D01*
X111958073Y-134054294D01*
X113056524Y-133738192D01*
X113110131Y-133716913D01*
X113696899Y-133500770D01*
X114023987Y-133436881D01*
X114130436Y-133517933D01*
X114130667Y-133525758D01*
X114245823Y-133724686D01*
X114558398Y-134104941D01*
X115019049Y-134615894D01*
X115578437Y-135206913D01*
X116187221Y-135827367D01*
X116796059Y-136426625D01*
X117355610Y-136954055D01*
X117816534Y-137359028D01*
X118025334Y-137522251D01*
X118956997Y-138111448D01*
X119954017Y-138603883D01*
X120960085Y-138985167D01*
X121918895Y-139240912D01*
X122774140Y-139356729D01*
X123469513Y-139318229D01*
X123948706Y-139111024D01*
X124010423Y-139051666D01*
X124228812Y-138732167D01*
X124290667Y-138533586D01*
X124404772Y-138537495D01*
X124697437Y-138709571D01*
X125094192Y-138992883D01*
X125520564Y-139330498D01*
X125902080Y-139665486D01*
X126164270Y-139940914D01*
X126204081Y-139996333D01*
X126429169Y-140189169D01*
X126512238Y-140208000D01*
X126742115Y-140297377D01*
X127136913Y-140525358D01*
X127392824Y-140693520D01*
X128530827Y-141390790D01*
X129745034Y-141988365D01*
X130989077Y-142476409D01*
X132216582Y-142845083D01*
X133381180Y-143084549D01*
X134436500Y-143184969D01*
X135336171Y-143136506D01*
X136033821Y-142929321D01*
X136439861Y-142612930D01*
X136575820Y-142487864D01*
X136774194Y-142445674D01*
X137111829Y-142491367D01*
X137665567Y-142629952D01*
X137963861Y-142712260D01*
X139380032Y-143060067D01*
X140709619Y-143295630D01*
X141898823Y-143414019D01*
X142893845Y-143410306D01*
X143640886Y-143279563D01*
X143745452Y-143241924D01*
X144186969Y-143053488D01*
X144690946Y-142823392D01*
X144702613Y-142817863D01*
X145057921Y-142675297D01*
X145378824Y-142645014D01*
X145800756Y-142728556D01*
X146160495Y-142834499D01*
X147118266Y-143046253D01*
X148286019Y-143178527D01*
X149543612Y-143227424D01*
X150770904Y-143189047D01*
X151847752Y-143059501D01*
X152023641Y-143024642D01*
X153259843Y-142722136D01*
X154519196Y-142346707D01*
X155711210Y-141929886D01*
X156745396Y-141503201D01*
X157502151Y-141115712D01*
X158008234Y-140824236D01*
X158398312Y-140619029D01*
X158580131Y-140546666D01*
X158775833Y-140455566D01*
X159151037Y-140220359D01*
X159489314Y-139987359D01*
X160245816Y-139489998D01*
X160845713Y-139205464D01*
X161368229Y-139103520D01*
X161744313Y-139126713D01*
X162395182Y-139097373D01*
X163219633Y-138865591D01*
X164148987Y-138465577D01*
X165114565Y-137931541D01*
X166047687Y-137297695D01*
X166879673Y-136598247D01*
X166943425Y-136536964D01*
X167366292Y-136258150D01*
X167805916Y-136144000D01*
X168579873Y-136022548D01*
X169536776Y-135676746D01*
X170633513Y-135134419D01*
X171826974Y-134423396D01*
X173074048Y-133571505D01*
X174331624Y-132606572D01*
X175556593Y-131556424D01*
X176705842Y-130448890D01*
X176833280Y-130316935D01*
X177497235Y-129621036D01*
X177993567Y-129066091D01*
X178346643Y-128584324D01*
X178580830Y-128107959D01*
X178720493Y-127569220D01*
X178790000Y-126900334D01*
X178813718Y-126033522D01*
X178816013Y-124901012D01*
X178816000Y-124802031D01*
X178811140Y-123675549D01*
X178794650Y-122848674D01*
X178763663Y-122282462D01*
X178715316Y-121937966D01*
X178646744Y-121776241D01*
X178591518Y-121750666D01*
X178236759Y-121904965D01*
X177890330Y-122314176D01*
X177607186Y-122897766D01*
X177471085Y-123392581D01*
X177176515Y-124580631D01*
X176769293Y-125712666D01*
X176294816Y-126669903D01*
X176106671Y-126962617D01*
X175819826Y-127388224D01*
X175635629Y-127693123D01*
X175598667Y-127780785D01*
X175487823Y-127995039D01*
X175186021Y-128397207D01*
X174739355Y-128933335D01*
X174193918Y-129549467D01*
X173595806Y-130191648D01*
X173142826Y-130655474D01*
X172545837Y-131216784D01*
X171899714Y-131765675D01*
X171259829Y-132262093D01*
X170681551Y-132665987D01*
X170220250Y-132937302D01*
X169931298Y-133035988D01*
X169876461Y-133018238D01*
X169891390Y-132836023D01*
X169979623Y-132720644D01*
X170142341Y-132391186D01*
X170170062Y-131968627D01*
X170069730Y-131604094D01*
X169921806Y-131462292D01*
X169564388Y-131498453D01*
X169014815Y-131801126D01*
X168281585Y-132363997D01*
X167373198Y-133180754D01*
X166632568Y-133905285D01*
X165943049Y-134572273D01*
X165240397Y-135207149D01*
X164605805Y-135739132D01*
X164120468Y-136097441D01*
X164110829Y-136103638D01*
X163603878Y-136414333D01*
X163300932Y-136550588D01*
X163129567Y-136533615D01*
X163035514Y-136418602D01*
X162760945Y-136205467D01*
X162463555Y-136144000D01*
X162047002Y-136245017D01*
X161479104Y-136509939D01*
X160865054Y-136881574D01*
X160310042Y-137302728D01*
X160274000Y-137334474D01*
X159729417Y-137746261D01*
X158952365Y-138237129D01*
X158025589Y-138762331D01*
X157031840Y-139277121D01*
X156053864Y-139736753D01*
X155174409Y-140096481D01*
X155149280Y-140105675D01*
X154207012Y-140426812D01*
X153398626Y-140638999D01*
X152569108Y-140774809D01*
X151563445Y-140866812D01*
X151508614Y-140870648D01*
X150288289Y-140941969D01*
X149272957Y-140962819D01*
X148341887Y-140926840D01*
X147374345Y-140827671D01*
X146249599Y-140658955D01*
X145692522Y-140564302D01*
X144706234Y-140395480D01*
X144002486Y-140286471D01*
X143530538Y-140236946D01*
X143239646Y-140246577D01*
X143079068Y-140315036D01*
X142998062Y-140441994D01*
X142966398Y-140546666D01*
X142739375Y-140832860D01*
X142516584Y-140884210D01*
X142008092Y-140843996D01*
X141279115Y-140738274D01*
X140423720Y-140586002D01*
X139535971Y-140406138D01*
X138709933Y-140217639D01*
X138039672Y-140039465D01*
X137644365Y-139902259D01*
X137101324Y-139671435D01*
X136615408Y-139485573D01*
X136482667Y-139441438D01*
X136060279Y-139264739D01*
X135558351Y-138994103D01*
X135462180Y-138935028D01*
X134937584Y-138657657D01*
X134419016Y-138462447D01*
X134343911Y-138443744D01*
X133935659Y-138409926D01*
X133666573Y-138586049D01*
X133544065Y-138754686D01*
X133310322Y-139211214D01*
X133310167Y-139614716D01*
X133493903Y-140049327D01*
X133720386Y-140483322D01*
X132857860Y-140259871D01*
X132237319Y-140076329D01*
X131660522Y-139869264D01*
X131461743Y-139783543D01*
X131060051Y-139612436D01*
X130790351Y-139531625D01*
X130774974Y-139530666D01*
X130554566Y-139437311D01*
X130185687Y-139203298D01*
X130038565Y-139097482D01*
X129529283Y-138752522D01*
X129023923Y-138459221D01*
X128944943Y-138419808D01*
X128536894Y-138169245D01*
X127949604Y-137737563D01*
X127248038Y-137178285D01*
X126497162Y-136544936D01*
X125761942Y-135891042D01*
X125107342Y-135270126D01*
X125036975Y-135200056D01*
X124469274Y-134689959D01*
X123846999Y-134218772D01*
X123409485Y-133947477D01*
X122614376Y-133528955D01*
X122164201Y-133947477D01*
X121918376Y-134204925D01*
X121795529Y-134463890D01*
X121768855Y-134836340D01*
X121810642Y-135424333D01*
X121853014Y-135971514D01*
X121868139Y-136353849D01*
X121854979Y-136482666D01*
X121602397Y-136393827D01*
X121151909Y-136158312D01*
X120583774Y-135822625D01*
X119978255Y-135433270D01*
X119634000Y-135195813D01*
X118565156Y-134328355D01*
X117402761Y-133189152D01*
X116184083Y-131818842D01*
X114946388Y-130258061D01*
X114318033Y-129399265D01*
X113902000Y-128845703D01*
X113590679Y-128525753D01*
X113315895Y-128381811D01*
X113081726Y-128354666D01*
X112643357Y-128507421D01*
X112327748Y-128928435D01*
X112159523Y-129561830D01*
X112163303Y-130351730D01*
X112171736Y-130419720D01*
X112205921Y-131032831D01*
X112095195Y-131480509D01*
X111977175Y-131691069D01*
X111675334Y-132153701D01*
X111577369Y-130889184D01*
X111485529Y-130168054D01*
X111308269Y-129463508D01*
X111017884Y-128703706D01*
X110586671Y-127816811D01*
X109986925Y-126730982D01*
X109946929Y-126661333D01*
X108990879Y-124930344D01*
X108241815Y-123411216D01*
X107683837Y-122060825D01*
X107301045Y-120836047D01*
X107077538Y-119693759D01*
X106998641Y-118665184D01*
X106947776Y-117750181D01*
X106827864Y-117157107D01*
X106621779Y-116873224D01*
X106312395Y-116885800D01*
X105882588Y-117182097D01*
X105500954Y-117551444D01*
X105125196Y-117998257D01*
X104873648Y-118403873D01*
X104809696Y-118609778D01*
X104736100Y-119011808D01*
X104577151Y-119464666D01*
X104352244Y-119972666D01*
X104221640Y-119482594D01*
X104179304Y-119126733D01*
X104160004Y-118517587D01*
X104164602Y-117739809D01*
X104193958Y-116878052D01*
X104194931Y-116857927D01*
X104323321Y-115343792D01*
X104570291Y-113884899D01*
X104958296Y-112386064D01*
X105509790Y-110752102D01*
X105837009Y-109897333D01*
X106227824Y-108760362D01*
X106405074Y-107850960D01*
X106370736Y-107135471D01*
X106126785Y-106580240D01*
X106038346Y-106468333D01*
X105730598Y-106226999D01*
X105399091Y-106227938D01*
X105002022Y-106488989D01*
X104497587Y-107027994D01*
X104373540Y-107178864D01*
X103852219Y-107749319D01*
X103360758Y-108156135D01*
X102953920Y-108362255D01*
X102686471Y-108330620D01*
X102680248Y-108324691D01*
X102692869Y-108130865D01*
X102816576Y-107705623D01*
X103022967Y-107126156D01*
X103283640Y-106469657D01*
X103570194Y-105813317D01*
X103721498Y-105494666D01*
X105239921Y-102745890D01*
X106987497Y-100197973D01*
X108938158Y-97885336D01*
X110967480Y-95927333D01*
X111463616Y-95440158D01*
X111707573Y-95039838D01*
X111753927Y-94779018D01*
X111661215Y-94366920D01*
X111354892Y-94184017D01*
X110813163Y-94221994D01*
X110506412Y-94302952D01*
X109497341Y-94563703D01*
X108540995Y-94730081D01*
X107731955Y-94788837D01*
X107280906Y-94754717D01*
X106867262Y-94634532D01*
X106782352Y-94502606D01*
X107017379Y-94374926D01*
X107547831Y-94269570D01*
X107808049Y-94218411D01*
X108062998Y-94117206D01*
X108352411Y-93933263D01*
X108716019Y-93633893D01*
X109193554Y-93186405D01*
X109824750Y-92558108D01*
X110642293Y-91723545D01*
X111458008Y-90897471D01*
X112279177Y-90085986D01*
X113045556Y-89347189D01*
X113696900Y-88739182D01*
X114161320Y-88329741D01*
X115292639Y-87387167D01*
X116059766Y-88016583D01*
X117064206Y-88715407D01*
X118352709Y-89405931D01*
X119210667Y-89791390D01*
X121153686Y-90431935D01*
X123175018Y-90758453D01*
X125215648Y-90763510D01*
X126111580Y-90660898D01*
X126797210Y-90559177D01*
X127361112Y-90479923D01*
X127714871Y-90435384D01*
X127778482Y-90430005D01*
X127874523Y-90592699D01*
X127959935Y-91073869D01*
X128031813Y-91853410D01*
X128065114Y-92413666D01*
X128130212Y-93324128D01*
X128227126Y-94225097D01*
X128341343Y-94996932D01*
X128429694Y-95419333D01*
X128617536Y-96083800D01*
X128855034Y-96840289D01*
X129113567Y-97606952D01*
X129364516Y-98301940D01*
X129579262Y-98843404D01*
X129729184Y-99149495D01*
X129738720Y-99162967D01*
X129881676Y-99396078D01*
X130130666Y-99841439D01*
X130436333Y-100410386D01*
X130492806Y-100517634D01*
X131213158Y-101687869D01*
X132156350Y-102919600D01*
X133242483Y-104122516D01*
X134391659Y-105206306D01*
X135235271Y-105878233D01*
X137096872Y-107033433D01*
X139073275Y-107886764D01*
X141130126Y-108431990D01*
X143233075Y-108662873D01*
X145347768Y-108573175D01*
X147439856Y-108156660D01*
X147573122Y-108118453D01*
X148271241Y-107899195D01*
X148862111Y-107685607D01*
X149257124Y-107510963D01*
X149351122Y-107450757D01*
X149718392Y-107222470D01*
X150009507Y-107104808D01*
X150546545Y-106843049D01*
X151231122Y-106364064D01*
X152005894Y-105720290D01*
X152813519Y-104964163D01*
X153596653Y-104148122D01*
X154297954Y-103324603D01*
X154640489Y-102870000D01*
X155704575Y-101101736D01*
X156541028Y-99134093D01*
X157135123Y-97031062D01*
X157472137Y-94856634D01*
X157502323Y-93846624D01*
X155215497Y-93846624D01*
X155164236Y-94996082D01*
X155044704Y-95977328D01*
X154996257Y-96218671D01*
X154426683Y-98292134D01*
X153703264Y-100085562D01*
X152801625Y-101631859D01*
X151697391Y-102963932D01*
X150366188Y-104114686D01*
X148783639Y-105117028D01*
X148166667Y-105438471D01*
X146908136Y-105912781D01*
X145453560Y-106211475D01*
X143900037Y-106328529D01*
X142344665Y-106257922D01*
X140884542Y-105993631D01*
X140585134Y-105908712D01*
X138706774Y-105204837D01*
X137049937Y-104292840D01*
X135540230Y-103129309D01*
X135068815Y-102689734D01*
X134794318Y-102413660D01*
X134517162Y-102109633D01*
X134186365Y-101717198D01*
X133750946Y-101175899D01*
X133169629Y-100437674D01*
X132774622Y-99889935D01*
X132425642Y-99330225D01*
X132176250Y-98851563D01*
X132080008Y-98546969D01*
X132080000Y-98545346D01*
X131978186Y-98240677D01*
X131854124Y-98057333D01*
X131657991Y-97718304D01*
X131406621Y-97129706D01*
X131128822Y-96370040D01*
X130853406Y-95517808D01*
X130621273Y-94698032D01*
X130423031Y-93670542D01*
X130297918Y-92455796D01*
X130249174Y-91172127D01*
X130280037Y-89937867D01*
X130393744Y-88871349D01*
X130453326Y-88561333D01*
X130735109Y-87403709D01*
X131043486Y-86319534D01*
X131353418Y-85388714D01*
X131639870Y-84691159D01*
X131708068Y-84556645D01*
X131984782Y-84036135D01*
X132284341Y-83463434D01*
X132320547Y-83393444D01*
X132574072Y-83014662D01*
X133006811Y-82480186D01*
X133552877Y-81868035D01*
X134015123Y-81386799D01*
X134963821Y-80503454D01*
X135863837Y-79835416D01*
X136832459Y-79302782D01*
X137498667Y-79013622D01*
X137875374Y-78831283D01*
X138006667Y-78755897D01*
X138525676Y-78548041D01*
X139311318Y-78374645D01*
X140292442Y-78245767D01*
X141397894Y-78171466D01*
X142240000Y-78157455D01*
X143166541Y-78173714D01*
X143840512Y-78218830D01*
X144347560Y-78304173D01*
X144773330Y-78441111D01*
X144949334Y-78517120D01*
X145571224Y-78782279D01*
X146203474Y-79022009D01*
X146376998Y-79080584D01*
X147401232Y-79535024D01*
X148509106Y-80241442D01*
X149644176Y-81143480D01*
X150749996Y-82184779D01*
X151770122Y-83308981D01*
X152648108Y-84459728D01*
X153327509Y-85580662D01*
X153671291Y-86363658D01*
X153888914Y-86893862D01*
X154123592Y-87344475D01*
X154172611Y-87419691D01*
X154374227Y-87833010D01*
X154434185Y-88133344D01*
X154486702Y-88465722D01*
X154621819Y-88998501D01*
X154797896Y-89577333D01*
X154989688Y-90394309D01*
X155125221Y-91445205D01*
X155201491Y-92629487D01*
X155215497Y-93846624D01*
X157502323Y-93846624D01*
X157537347Y-92674800D01*
X157382056Y-90954387D01*
X157077961Y-89388105D01*
X156636971Y-87779743D01*
X156091568Y-86220303D01*
X155474232Y-84800783D01*
X154817443Y-83612182D01*
X154694856Y-83425825D01*
X154433421Y-83018426D01*
X154275859Y-82730319D01*
X154255785Y-82669480D01*
X154150538Y-82479427D01*
X153892701Y-82138029D01*
X153747785Y-81963729D01*
X153447084Y-81588510D01*
X153268264Y-81320138D01*
X153246667Y-81261160D01*
X153383480Y-81122138D01*
X153731278Y-80899745D01*
X153966334Y-80771338D01*
X154585381Y-80390620D01*
X155341267Y-79836944D01*
X156139504Y-79184710D01*
X156885607Y-78508314D01*
X157067649Y-78329400D01*
X157695321Y-77611228D01*
X158338043Y-76722097D01*
X158959667Y-75729633D01*
X159524042Y-74701463D01*
X159995019Y-73705214D01*
X160336449Y-72808512D01*
X160512182Y-72078984D01*
X160528000Y-71855933D01*
X160528000Y-71413387D01*
X162179000Y-71512240D01*
X163880216Y-71646307D01*
X165393180Y-71830595D01*
X166664588Y-72057529D01*
X167470667Y-72264287D01*
X168191191Y-72413294D01*
X169134372Y-72506258D01*
X170196249Y-72543261D01*
X171272859Y-72524387D01*
X172260239Y-72449719D01*
X173054429Y-72319339D01*
X173270334Y-72259651D01*
X173728205Y-72127929D01*
X174019528Y-72075239D01*
X174074667Y-72090251D01*
X173972872Y-72353670D01*
X173725002Y-72744849D01*
X173417333Y-73145155D01*
X173136139Y-73435956D01*
X173054665Y-73492808D01*
X172740464Y-73574776D01*
X172196300Y-73638232D01*
X171530813Y-73671216D01*
X171418799Y-73672882D01*
X170351371Y-73727662D01*
X169587880Y-73873895D01*
X169103864Y-74120269D01*
X168874863Y-74475472D01*
X168854429Y-74583671D01*
X168863884Y-74982552D01*
X168953271Y-75210337D01*
X169168354Y-75294249D01*
X169652713Y-75418501D01*
X170341475Y-75568320D01*
X171169764Y-75728935D01*
X171464176Y-75782057D01*
X172923215Y-76041802D01*
X174082999Y-76251917D01*
X174978157Y-76419488D01*
X175643321Y-76551596D01*
X176113118Y-76655325D01*
X176422179Y-76737758D01*
X176605134Y-76805979D01*
X176675298Y-76847957D01*
X176971540Y-76985427D01*
X177399245Y-77099321D01*
X177940793Y-77210828D01*
X178372912Y-77310839D01*
X178816000Y-77422047D01*
X178816000Y-74741283D01*
X177588334Y-74439082D01*
X176960555Y-74282841D01*
X176447918Y-74152148D01*
X176151846Y-74072901D01*
X176136972Y-74068473D01*
X176029049Y-73951819D01*
X176141105Y-73687986D01*
X176248264Y-73529619D01*
X176481083Y-73063390D01*
X176614240Y-72426221D01*
X176657107Y-71556397D01*
X176644306Y-70921358D01*
X176568435Y-70331371D01*
X176343329Y-69889684D01*
X176080686Y-69596070D01*
X175658477Y-69244594D01*
X175321443Y-69148453D01*
X175191686Y-69172852D01*
X174778591Y-69287603D01*
X174266468Y-69413185D01*
X174244000Y-69418312D01*
X173791632Y-69529051D01*
X173142686Y-69697474D01*
X172426686Y-69889872D01*
X172324752Y-69917823D01*
X170756762Y-70231089D01*
X169270873Y-70296906D01*
X168063334Y-70140971D01*
X167431335Y-70014724D01*
X166558941Y-69866154D01*
X165542442Y-69709515D01*
X164478129Y-69559060D01*
X163462292Y-69429043D01*
X162644667Y-69338883D01*
X161870712Y-69263579D01*
X161367906Y-69179962D01*
X161072637Y-69028413D01*
X160921297Y-68749314D01*
X160850276Y-68283045D01*
X160849844Y-68277365D01*
X158783237Y-68277365D01*
X158729666Y-70211983D01*
X158356591Y-72084134D01*
X157681944Y-73860212D01*
X156723656Y-75506607D01*
X155499660Y-76989713D01*
X154027887Y-78275921D01*
X153123803Y-78884480D01*
X152418863Y-79292057D01*
X151919171Y-79510568D01*
X151558128Y-79552929D01*
X151269140Y-79432055D01*
X151094264Y-79278074D01*
X150688410Y-78925638D01*
X150126616Y-78508442D01*
X149548579Y-78126927D01*
X149269717Y-77966231D01*
X148922095Y-77777438D01*
X148426606Y-77503664D01*
X148166667Y-77358709D01*
X147347094Y-76971387D01*
X135946612Y-76971387D01*
X135870159Y-77180373D01*
X135509000Y-77374127D01*
X134888812Y-77705372D01*
X134142707Y-78219981D01*
X133367420Y-78846128D01*
X132740055Y-79430138D01*
X132233173Y-79961846D01*
X131727168Y-80529157D01*
X131274922Y-81068188D01*
X130929322Y-81515051D01*
X130743249Y-81805864D01*
X130725334Y-81863966D01*
X130635174Y-82071204D01*
X130411746Y-82426783D01*
X130344334Y-82523150D01*
X129988495Y-83062052D01*
X129660061Y-83620025D01*
X129654729Y-83629905D01*
X129436918Y-84105198D01*
X129181407Y-84767758D01*
X128917645Y-85526776D01*
X128675085Y-86291443D01*
X128483178Y-86970950D01*
X128371375Y-87474487D01*
X128354667Y-87638472D01*
X128280712Y-87933484D01*
X128002194Y-88127865D01*
X127719667Y-88223551D01*
X125938136Y-88605776D01*
X124171430Y-88700523D01*
X122318866Y-88512581D01*
X122174000Y-88487285D01*
X120647539Y-88137004D01*
X119337667Y-87655287D01*
X118133352Y-86996484D01*
X117517334Y-86572701D01*
X116309108Y-85568551D01*
X115282017Y-84439748D01*
X114390534Y-83124388D01*
X113589129Y-81560573D01*
X113250934Y-80772000D01*
X113017464Y-80160230D01*
X112858805Y-79613344D01*
X112756018Y-79027263D01*
X112690161Y-78297907D01*
X112647838Y-77457835D01*
X112635162Y-76038734D01*
X112741933Y-74827071D01*
X112991493Y-73705543D01*
X113407185Y-72556843D01*
X113791313Y-71711430D01*
X114766461Y-70077140D01*
X116029630Y-68620582D01*
X117580998Y-67341592D01*
X119420743Y-66240007D01*
X120142000Y-65892148D01*
X121234064Y-65530469D01*
X122546652Y-65312184D01*
X123994668Y-65234774D01*
X125493015Y-65295723D01*
X126956594Y-65492511D01*
X128300310Y-65822621D01*
X129186061Y-66159766D01*
X129793738Y-66485841D01*
X130533237Y-66950359D01*
X131305946Y-67484167D01*
X132013254Y-68018112D01*
X132556547Y-68483043D01*
X132689860Y-68616836D01*
X132955163Y-68942436D01*
X133137449Y-69300005D01*
X133270557Y-69785416D01*
X133388328Y-70494545D01*
X133411685Y-70661916D01*
X133592679Y-71649620D01*
X133862511Y-72706526D01*
X134191142Y-73742310D01*
X134548532Y-74666646D01*
X134904643Y-75389209D01*
X135066686Y-75638368D01*
X135322700Y-76020670D01*
X135459538Y-76297649D01*
X135466667Y-76337301D01*
X135583003Y-76568054D01*
X135720667Y-76708000D01*
X135946612Y-76971387D01*
X147347094Y-76971387D01*
X147328947Y-76962811D01*
X146267174Y-76570942D01*
X145094192Y-76221689D01*
X144250158Y-76019555D01*
X143735011Y-75955734D01*
X142963681Y-75917078D01*
X142017665Y-75902922D01*
X140978460Y-75912601D01*
X139927564Y-75945448D01*
X138946475Y-76000801D01*
X138193338Y-76068989D01*
X137982344Y-76064278D01*
X137787060Y-75968452D01*
X137574229Y-75737706D01*
X137310597Y-75328237D01*
X136962910Y-74696241D01*
X136557304Y-73914000D01*
X136037533Y-72651301D01*
X135644990Y-71194611D01*
X135404872Y-69672868D01*
X135342375Y-68215014D01*
X135362675Y-67800643D01*
X135675322Y-65869414D01*
X136324200Y-63943564D01*
X136469382Y-63613829D01*
X136917155Y-62797898D01*
X137530091Y-61907419D01*
X138239357Y-61024525D01*
X138976124Y-60231348D01*
X139671560Y-59610018D01*
X140038639Y-59354891D01*
X140354940Y-59156546D01*
X140806201Y-58862755D01*
X140988121Y-58742072D01*
X141447820Y-58482605D01*
X142111781Y-58165877D01*
X142864337Y-57845717D01*
X143171334Y-57726072D01*
X143794244Y-57496269D01*
X144294849Y-57337741D01*
X144761705Y-57237609D01*
X145283368Y-57182990D01*
X145948396Y-57161004D01*
X146845345Y-57158771D01*
X147066000Y-57159584D01*
X148059544Y-57170010D01*
X148806022Y-57199819D01*
X149396948Y-57260725D01*
X149923836Y-57364441D01*
X150478201Y-57522683D01*
X150846823Y-57643537D01*
X152619028Y-58415048D01*
X154231530Y-59471506D01*
X155651099Y-60783694D01*
X156844501Y-62322395D01*
X157526384Y-63516329D01*
X158025745Y-64588123D01*
X158368931Y-65517445D01*
X158590642Y-66435738D01*
X158725575Y-67474441D01*
X158783237Y-68277365D01*
X160849844Y-68277365D01*
X160799001Y-67609006D01*
X160523630Y-65823518D01*
X159992171Y-64003301D01*
X159246555Y-62274493D01*
X158711721Y-61330196D01*
X158381477Y-60856163D01*
X157934862Y-60281044D01*
X157439782Y-59684944D01*
X156964142Y-59147965D01*
X156575849Y-58750211D01*
X156398753Y-58601749D01*
X156048268Y-58344694D01*
X155590952Y-57984374D01*
X155414611Y-57839749D01*
X154689860Y-57252136D01*
X154152250Y-56855759D01*
X153742091Y-56609975D01*
X153416000Y-56478912D01*
X152987475Y-56328220D01*
X152450908Y-56111051D01*
X152315334Y-56051927D01*
X151791719Y-55838610D01*
X151105510Y-55584076D01*
X150498182Y-55374679D01*
X149337473Y-55108316D01*
X147968515Y-54981959D01*
X146489109Y-54990596D01*
G37*
X146489109Y-54990596D02*
X144997055Y-55129221D01*
X143590154Y-55392825D01*
X142366206Y-55776399D01*
X142324667Y-55793252D01*
X140240182Y-56807589D01*
X138418488Y-58035325D01*
X136858363Y-59477746D01*
X135558583Y-61136141D01*
X134517925Y-63011796D01*
X133860982Y-64700829D01*
X133330091Y-66337025D01*
X132410332Y-65680102D01*
X131452745Y-65058120D01*
X130386131Y-64495410D01*
X129112755Y-63942005D01*
X128672327Y-63768984D01*
X127961538Y-63551088D01*
X127073042Y-63360927D01*
X126091025Y-63207599D01*
X125099676Y-63100197D01*
X124183182Y-63047818D01*
X123425731Y-63059558D01*
X122911512Y-63144512D01*
X122906928Y-63146094D01*
X122372888Y-63280458D01*
X121907424Y-63330666D01*
X121485631Y-63396120D01*
X120844264Y-63571054D01*
X120071385Y-63823325D01*
X119255051Y-64120792D01*
X118483324Y-64431312D01*
X117844263Y-64722745D01*
X117425929Y-64962946D01*
X117416684Y-64969793D01*
X117050266Y-65222814D01*
X116800284Y-65356437D01*
X116770263Y-65362666D01*
X116525984Y-65481038D01*
X116108534Y-65802198D01*
X115568944Y-66275217D01*
X114958243Y-66849164D01*
X114327460Y-67473106D01*
X113727626Y-68096115D01*
X113209770Y-68667258D01*
X112824921Y-69135604D01*
X112624109Y-69450224D01*
X112606667Y-69518203D01*
X112509052Y-69746562D01*
X112382529Y-69921333D01*
X112121987Y-70336114D01*
X111810411Y-70988099D01*
X111483505Y-71787122D01*
X111176973Y-72643017D01*
X110926517Y-73465617D01*
X110835057Y-73829333D01*
X110614652Y-75077472D01*
X110490105Y-76410455D01*
X110467697Y-77701213D01*
X110553712Y-78822677D01*
X110579945Y-78989536D01*
X110745781Y-79764906D01*
X110981948Y-80630557D01*
X111258271Y-81496362D01*
X111544573Y-82272193D01*
X111810680Y-82867924D01*
X111963953Y-83123169D01*
X112185270Y-83493966D01*
X112268000Y-83770123D01*
X112371182Y-84021072D01*
X112639227Y-84427081D01*
X112945334Y-84816518D01*
X113301756Y-85265093D01*
X113547119Y-85623379D01*
X113622667Y-85791575D01*
X113502591Y-85977659D01*
X113185296Y-86311882D01*
X112735185Y-86727327D01*
X112655362Y-86796677D01*
X112163032Y-87239077D01*
X111514538Y-87847626D01*
X110790051Y-88545900D01*
X110069738Y-89257474D01*
X109988362Y-89339148D01*
X108968411Y-90343356D01*
X108118683Y-91127660D01*
X107391356Y-91731287D01*
X106738605Y-92193468D01*
X106112609Y-92553431D01*
X106002667Y-92608632D01*
X105044672Y-93092565D01*
X104357501Y-93473774D01*
X103899954Y-93781198D01*
X103630830Y-94043779D01*
X103508928Y-94290456D01*
X103494311Y-94370524D01*
X103575498Y-95007529D01*
X103923595Y-95672664D01*
X104480533Y-96298752D01*
X105188243Y-96818619D01*
X105881740Y-97132330D01*
X106353479Y-97286048D01*
X105416073Y-98422509D01*
X104991553Y-98963119D01*
X104667260Y-99425490D01*
X104494182Y-99734871D01*
X104478667Y-99796750D01*
X104359014Y-100097607D01*
X104224667Y-100245333D01*
X104012409Y-100478937D01*
X103970667Y-100583098D01*
X103889164Y-100773303D01*
X103669169Y-101186103D01*
X103347452Y-101754306D01*
X103078548Y-102213364D01*
X102362769Y-103479015D01*
X101704301Y-104757082D01*
X101128035Y-105990619D01*
X100658861Y-107122674D01*
X100321669Y-108096301D01*
X100141348Y-108854550D01*
X100127239Y-108966000D01*
X100179881Y-109799833D01*
X100507941Y-110469171D01*
X101087792Y-110934851D01*
X101388334Y-111056401D01*
X101824196Y-111242989D01*
X102079646Y-111446781D01*
X102108000Y-111521993D01*
X102080076Y-111785987D01*
X102005233Y-112295000D01*
X101896868Y-112960796D01*
X101834066Y-113326257D01*
X101696699Y-114309514D01*
X101629770Y-115341301D01*
X101627684Y-116537267D01*
X101647375Y-117185376D01*
X101694145Y-118187773D01*
X101757555Y-118952507D01*
X101854097Y-119580581D01*
X102000266Y-120172999D01*
X102212553Y-120830765D01*
X102268950Y-120991958D01*
X102532268Y-121689744D01*
X102789517Y-122289352D01*
X103000709Y-122700757D01*
X103074552Y-122805581D01*
X103510195Y-123057338D01*
X104063734Y-123070470D01*
X104609872Y-122842046D01*
X104610620Y-122841523D01*
X104998150Y-122675228D01*
X105256293Y-122768623D01*
X105325334Y-123009926D01*
X105444203Y-123301834D01*
X105562720Y-123430211D01*
X105786728Y-123742159D01*
X105908027Y-124057214D01*
X106038322Y-124429672D01*
X106272110Y-124978280D01*
X106533396Y-125531934D01*
X106840097Y-126152630D01*
X107122498Y-126726613D01*
X107297556Y-127084666D01*
X107518698Y-127519297D01*
X107701688Y-127846666D01*
X108187091Y-128683016D01*
X108506865Y-129402328D01*
X108693382Y-130122722D01*
X108779015Y-130962317D01*
X108796667Y-131841935D01*
X108805440Y-132811514D01*
X108857150Y-133490352D01*
X108989888Y-133926337D01*
X109241741Y-134167361D01*
X109650799Y-134261312D01*
X110255152Y-134256080D01*
X110694104Y-134227607D01*
X111958073Y-134054294D01*
X113056524Y-133738192D01*
X113110131Y-133716913D01*
X113696899Y-133500770D01*
X114023987Y-133436881D01*
X114130436Y-133517933D01*
X114130667Y-133525758D01*
X114245823Y-133724686D01*
X114558398Y-134104941D01*
X115019049Y-134615894D01*
X115578437Y-135206913D01*
X116187221Y-135827367D01*
X116796059Y-136426625D01*
X117355610Y-136954055D01*
X117816534Y-137359028D01*
X118025334Y-137522251D01*
X118956997Y-138111448D01*
X119954017Y-138603883D01*
X120960085Y-138985167D01*
X121918895Y-139240912D01*
X122774140Y-139356729D01*
X123469513Y-139318229D01*
X123948706Y-139111024D01*
X124010423Y-139051666D01*
X124228812Y-138732167D01*
X124290667Y-138533586D01*
X124404772Y-138537495D01*
X124697437Y-138709571D01*
X125094192Y-138992883D01*
X125520564Y-139330498D01*
X125902080Y-139665486D01*
X126164270Y-139940914D01*
X126204081Y-139996333D01*
X126429169Y-140189169D01*
X126512238Y-140208000D01*
X126742115Y-140297377D01*
X127136913Y-140525358D01*
X127392824Y-140693520D01*
X128530827Y-141390790D01*
X129745034Y-141988365D01*
X130989077Y-142476409D01*
X132216582Y-142845083D01*
X133381180Y-143084549D01*
X134436500Y-143184969D01*
X135336171Y-143136506D01*
X136033821Y-142929321D01*
X136439861Y-142612930D01*
X136575820Y-142487864D01*
X136774194Y-142445674D01*
X137111829Y-142491367D01*
X137665567Y-142629952D01*
X137963861Y-142712260D01*
X139380032Y-143060067D01*
X140709619Y-143295630D01*
X141898823Y-143414019D01*
X142893845Y-143410306D01*
X143640886Y-143279563D01*
X143745452Y-143241924D01*
X144186969Y-143053488D01*
X144690946Y-142823392D01*
X144702613Y-142817863D01*
X145057921Y-142675297D01*
X145378824Y-142645014D01*
X145800756Y-142728556D01*
X146160495Y-142834499D01*
X147118266Y-143046253D01*
X148286019Y-143178527D01*
X149543612Y-143227424D01*
X150770904Y-143189047D01*
X151847752Y-143059501D01*
X152023641Y-143024642D01*
X153259843Y-142722136D01*
X154519196Y-142346707D01*
X155711210Y-141929886D01*
X156745396Y-141503201D01*
X157502151Y-141115712D01*
X158008234Y-140824236D01*
X158398312Y-140619029D01*
X158580131Y-140546666D01*
X158775833Y-140455566D01*
X159151037Y-140220359D01*
X159489314Y-139987359D01*
X160245816Y-139489998D01*
X160845713Y-139205464D01*
X161368229Y-139103520D01*
X161744313Y-139126713D01*
X162395182Y-139097373D01*
X163219633Y-138865591D01*
X164148987Y-138465577D01*
X165114565Y-137931541D01*
X166047687Y-137297695D01*
X166879673Y-136598247D01*
X166943425Y-136536964D01*
X167366292Y-136258150D01*
X167805916Y-136144000D01*
X168579873Y-136022548D01*
X169536776Y-135676746D01*
X170633513Y-135134419D01*
X171826974Y-134423396D01*
X173074048Y-133571505D01*
X174331624Y-132606572D01*
X175556593Y-131556424D01*
X176705842Y-130448890D01*
X176833280Y-130316935D01*
X177497235Y-129621036D01*
X177993567Y-129066091D01*
X178346643Y-128584324D01*
X178580830Y-128107959D01*
X178720493Y-127569220D01*
X178790000Y-126900334D01*
X178813718Y-126033522D01*
X178816013Y-124901012D01*
X178816000Y-124802031D01*
X178811140Y-123675549D01*
X178794650Y-122848674D01*
X178763663Y-122282462D01*
X178715316Y-121937966D01*
X178646744Y-121776241D01*
X178591518Y-121750666D01*
X178236759Y-121904965D01*
X177890330Y-122314176D01*
X177607186Y-122897766D01*
X177471085Y-123392581D01*
X177176515Y-124580631D01*
X176769293Y-125712666D01*
X176294816Y-126669903D01*
X176106671Y-126962617D01*
X175819826Y-127388224D01*
X175635629Y-127693123D01*
X175598667Y-127780785D01*
X175487823Y-127995039D01*
X175186021Y-128397207D01*
X174739355Y-128933335D01*
X174193918Y-129549467D01*
X173595806Y-130191648D01*
X173142826Y-130655474D01*
X172545837Y-131216784D01*
X171899714Y-131765675D01*
X171259829Y-132262093D01*
X170681551Y-132665987D01*
X170220250Y-132937302D01*
X169931298Y-133035988D01*
X169876461Y-133018238D01*
X169891390Y-132836023D01*
X169979623Y-132720644D01*
X170142341Y-132391186D01*
X170170062Y-131968627D01*
X170069730Y-131604094D01*
X169921806Y-131462292D01*
X169564388Y-131498453D01*
X169014815Y-131801126D01*
X168281585Y-132363997D01*
X167373198Y-133180754D01*
X166632568Y-133905285D01*
X165943049Y-134572273D01*
X165240397Y-135207149D01*
X164605805Y-135739132D01*
X164120468Y-136097441D01*
X164110829Y-136103638D01*
X163603878Y-136414333D01*
X163300932Y-136550588D01*
X163129567Y-136533615D01*
X163035514Y-136418602D01*
X162760945Y-136205467D01*
X162463555Y-136144000D01*
X162047002Y-136245017D01*
X161479104Y-136509939D01*
X160865054Y-136881574D01*
X160310042Y-137302728D01*
X160274000Y-137334474D01*
X159729417Y-137746261D01*
X158952365Y-138237129D01*
X158025589Y-138762331D01*
X157031840Y-139277121D01*
X156053864Y-139736753D01*
X155174409Y-140096481D01*
X155149280Y-140105675D01*
X154207012Y-140426812D01*
X153398626Y-140638999D01*
X152569108Y-140774809D01*
X151563445Y-140866812D01*
X151508614Y-140870648D01*
X150288289Y-140941969D01*
X149272957Y-140962819D01*
X148341887Y-140926840D01*
X147374345Y-140827671D01*
X146249599Y-140658955D01*
X145692522Y-140564302D01*
X144706234Y-140395480D01*
X144002486Y-140286471D01*
X143530538Y-140236946D01*
X143239646Y-140246577D01*
X143079068Y-140315036D01*
X142998062Y-140441994D01*
X142966398Y-140546666D01*
X142739375Y-140832860D01*
X142516584Y-140884210D01*
X142008092Y-140843996D01*
X141279115Y-140738274D01*
X140423720Y-140586002D01*
X139535971Y-140406138D01*
X138709933Y-140217639D01*
X138039672Y-140039465D01*
X137644365Y-139902259D01*
X137101324Y-139671435D01*
X136615408Y-139485573D01*
X136482667Y-139441438D01*
X136060279Y-139264739D01*
X135558351Y-138994103D01*
X135462180Y-138935028D01*
X134937584Y-138657657D01*
X134419016Y-138462447D01*
X134343911Y-138443744D01*
X133935659Y-138409926D01*
X133666573Y-138586049D01*
X133544065Y-138754686D01*
X133310322Y-139211214D01*
X133310167Y-139614716D01*
X133493903Y-140049327D01*
X133720386Y-140483322D01*
X132857860Y-140259871D01*
X132237319Y-140076329D01*
X131660522Y-139869264D01*
X131461743Y-139783543D01*
X131060051Y-139612436D01*
X130790351Y-139531625D01*
X130774974Y-139530666D01*
X130554566Y-139437311D01*
X130185687Y-139203298D01*
X130038565Y-139097482D01*
X129529283Y-138752522D01*
X129023923Y-138459221D01*
X128944943Y-138419808D01*
X128536894Y-138169245D01*
X127949604Y-137737563D01*
X127248038Y-137178285D01*
X126497162Y-136544936D01*
X125761942Y-135891042D01*
X125107342Y-135270126D01*
X125036975Y-135200056D01*
X124469274Y-134689959D01*
X123846999Y-134218772D01*
X123409485Y-133947477D01*
X122614376Y-133528955D01*
X122164201Y-133947477D01*
X121918376Y-134204925D01*
X121795529Y-134463890D01*
X121768855Y-134836340D01*
X121810642Y-135424333D01*
X121853014Y-135971514D01*
X121868139Y-136353849D01*
X121854979Y-136482666D01*
X121602397Y-136393827D01*
X121151909Y-136158312D01*
X120583774Y-135822625D01*
X119978255Y-135433270D01*
X119634000Y-135195813D01*
X118565156Y-134328355D01*
X117402761Y-133189152D01*
X116184083Y-131818842D01*
X114946388Y-130258061D01*
X114318033Y-129399265D01*
X113902000Y-128845703D01*
X113590679Y-128525753D01*
X113315895Y-128381811D01*
X113081726Y-128354666D01*
X112643357Y-128507421D01*
X112327748Y-128928435D01*
X112159523Y-129561830D01*
X112163303Y-130351730D01*
X112171736Y-130419720D01*
X112205921Y-131032831D01*
X112095195Y-131480509D01*
X111977175Y-131691069D01*
X111675334Y-132153701D01*
X111577369Y-130889184D01*
X111485529Y-130168054D01*
X111308269Y-129463508D01*
X111017884Y-128703706D01*
X110586671Y-127816811D01*
X109986925Y-126730982D01*
X109946929Y-126661333D01*
X108990879Y-124930344D01*
X108241815Y-123411216D01*
X107683837Y-122060825D01*
X107301045Y-120836047D01*
X107077538Y-119693759D01*
X106998641Y-118665184D01*
X106947776Y-117750181D01*
X106827864Y-117157107D01*
X106621779Y-116873224D01*
X106312395Y-116885800D01*
X105882588Y-117182097D01*
X105500954Y-117551444D01*
X105125196Y-117998257D01*
X104873648Y-118403873D01*
X104809696Y-118609778D01*
X104736100Y-119011808D01*
X104577151Y-119464666D01*
X104352244Y-119972666D01*
X104221640Y-119482594D01*
X104179304Y-119126733D01*
X104160004Y-118517587D01*
X104164602Y-117739809D01*
X104193958Y-116878052D01*
X104194931Y-116857927D01*
X104323321Y-115343792D01*
X104570291Y-113884899D01*
X104958296Y-112386064D01*
X105509790Y-110752102D01*
X105837009Y-109897333D01*
X106227824Y-108760362D01*
X106405074Y-107850960D01*
X106370736Y-107135471D01*
X106126785Y-106580240D01*
X106038346Y-106468333D01*
X105730598Y-106226999D01*
X105399091Y-106227938D01*
X105002022Y-106488989D01*
X104497587Y-107027994D01*
X104373540Y-107178864D01*
X103852219Y-107749319D01*
X103360758Y-108156135D01*
X102953920Y-108362255D01*
X102686471Y-108330620D01*
X102680248Y-108324691D01*
X102692869Y-108130865D01*
X102816576Y-107705623D01*
X103022967Y-107126156D01*
X103283640Y-106469657D01*
X103570194Y-105813317D01*
X103721498Y-105494666D01*
X105239921Y-102745890D01*
X106987497Y-100197973D01*
X108938158Y-97885336D01*
X110967480Y-95927333D01*
X111463616Y-95440158D01*
X111707573Y-95039838D01*
X111753927Y-94779018D01*
X111661215Y-94366920D01*
X111354892Y-94184017D01*
X110813163Y-94221994D01*
X110506412Y-94302952D01*
X109497341Y-94563703D01*
X108540995Y-94730081D01*
X107731955Y-94788837D01*
X107280906Y-94754717D01*
X106867262Y-94634532D01*
X106782352Y-94502606D01*
X107017379Y-94374926D01*
X107547831Y-94269570D01*
X107808049Y-94218411D01*
X108062998Y-94117206D01*
X108352411Y-93933263D01*
X108716019Y-93633893D01*
X109193554Y-93186405D01*
X109824750Y-92558108D01*
X110642293Y-91723545D01*
X111458008Y-90897471D01*
X112279177Y-90085986D01*
X113045556Y-89347189D01*
X113696900Y-88739182D01*
X114161320Y-88329741D01*
X115292639Y-87387167D01*
X116059766Y-88016583D01*
X117064206Y-88715407D01*
X118352709Y-89405931D01*
X119210667Y-89791390D01*
X121153686Y-90431935D01*
X123175018Y-90758453D01*
X125215648Y-90763510D01*
X126111580Y-90660898D01*
X126797210Y-90559177D01*
X127361112Y-90479923D01*
X127714871Y-90435384D01*
X127778482Y-90430005D01*
X127874523Y-90592699D01*
X127959935Y-91073869D01*
X128031813Y-91853410D01*
X128065114Y-92413666D01*
X128130212Y-93324128D01*
X128227126Y-94225097D01*
X128341343Y-94996932D01*
X128429694Y-95419333D01*
X128617536Y-96083800D01*
X128855034Y-96840289D01*
X129113567Y-97606952D01*
X129364516Y-98301940D01*
X129579262Y-98843404D01*
X129729184Y-99149495D01*
X129738720Y-99162967D01*
X129881676Y-99396078D01*
X130130666Y-99841439D01*
X130436333Y-100410386D01*
X130492806Y-100517634D01*
X131213158Y-101687869D01*
X132156350Y-102919600D01*
X133242483Y-104122516D01*
X134391659Y-105206306D01*
X135235271Y-105878233D01*
X137096872Y-107033433D01*
X139073275Y-107886764D01*
X141130126Y-108431990D01*
X143233075Y-108662873D01*
X145347768Y-108573175D01*
X147439856Y-108156660D01*
X147573122Y-108118453D01*
X148271241Y-107899195D01*
X148862111Y-107685607D01*
X149257124Y-107510963D01*
X149351122Y-107450757D01*
X149718392Y-107222470D01*
X150009507Y-107104808D01*
X150546545Y-106843049D01*
X151231122Y-106364064D01*
X152005894Y-105720290D01*
X152813519Y-104964163D01*
X153596653Y-104148122D01*
X154297954Y-103324603D01*
X154640489Y-102870000D01*
X155704575Y-101101736D01*
X156541028Y-99134093D01*
X157135123Y-97031062D01*
X157472137Y-94856634D01*
X157502323Y-93846624D01*
X155215497Y-93846624D01*
X155164236Y-94996082D01*
X155044704Y-95977328D01*
X154996257Y-96218671D01*
X154426683Y-98292134D01*
X153703264Y-100085562D01*
X152801625Y-101631859D01*
X151697391Y-102963932D01*
X150366188Y-104114686D01*
X148783639Y-105117028D01*
X148166667Y-105438471D01*
X146908136Y-105912781D01*
X145453560Y-106211475D01*
X143900037Y-106328529D01*
X142344665Y-106257922D01*
X140884542Y-105993631D01*
X140585134Y-105908712D01*
X138706774Y-105204837D01*
X137049937Y-104292840D01*
X135540230Y-103129309D01*
X135068815Y-102689734D01*
X134794318Y-102413660D01*
X134517162Y-102109633D01*
X134186365Y-101717198D01*
X133750946Y-101175899D01*
X133169629Y-100437674D01*
X132774622Y-99889935D01*
X132425642Y-99330225D01*
X132176250Y-98851563D01*
X132080008Y-98546969D01*
X132080000Y-98545346D01*
X131978186Y-98240677D01*
X131854124Y-98057333D01*
X131657991Y-97718304D01*
X131406621Y-97129706D01*
X131128822Y-96370040D01*
X130853406Y-95517808D01*
X130621273Y-94698032D01*
X130423031Y-93670542D01*
X130297918Y-92455796D01*
X130249174Y-91172127D01*
X130280037Y-89937867D01*
X130393744Y-88871349D01*
X130453326Y-88561333D01*
X130735109Y-87403709D01*
X131043486Y-86319534D01*
X131353418Y-85388714D01*
X131639870Y-84691159D01*
X131708068Y-84556645D01*
X131984782Y-84036135D01*
X132284341Y-83463434D01*
X132320547Y-83393444D01*
X132574072Y-83014662D01*
X133006811Y-82480186D01*
X133552877Y-81868035D01*
X134015123Y-81386799D01*
X134963821Y-80503454D01*
X135863837Y-79835416D01*
X136832459Y-79302782D01*
X137498667Y-79013622D01*
X137875374Y-78831283D01*
X138006667Y-78755897D01*
X138525676Y-78548041D01*
X139311318Y-78374645D01*
X140292442Y-78245767D01*
X141397894Y-78171466D01*
X142240000Y-78157455D01*
X143166541Y-78173714D01*
X143840512Y-78218830D01*
X144347560Y-78304173D01*
X144773330Y-78441111D01*
X144949334Y-78517120D01*
X145571224Y-78782279D01*
X146203474Y-79022009D01*
X146376998Y-79080584D01*
X147401232Y-79535024D01*
X148509106Y-80241442D01*
X149644176Y-81143480D01*
X150749996Y-82184779D01*
X151770122Y-83308981D01*
X152648108Y-84459728D01*
X153327509Y-85580662D01*
X153671291Y-86363658D01*
X153888914Y-86893862D01*
X154123592Y-87344475D01*
X154172611Y-87419691D01*
X154374227Y-87833010D01*
X154434185Y-88133344D01*
X154486702Y-88465722D01*
X154621819Y-88998501D01*
X154797896Y-89577333D01*
X154989688Y-90394309D01*
X155125221Y-91445205D01*
X155201491Y-92629487D01*
X155215497Y-93846624D01*
X157502323Y-93846624D01*
X157537347Y-92674800D01*
X157382056Y-90954387D01*
X157077961Y-89388105D01*
X156636971Y-87779743D01*
X156091568Y-86220303D01*
X155474232Y-84800783D01*
X154817443Y-83612182D01*
X154694856Y-83425825D01*
X154433421Y-83018426D01*
X154275859Y-82730319D01*
X154255785Y-82669480D01*
X154150538Y-82479427D01*
X153892701Y-82138029D01*
X153747785Y-81963729D01*
X153447084Y-81588510D01*
X153268264Y-81320138D01*
X153246667Y-81261160D01*
X153383480Y-81122138D01*
X153731278Y-80899745D01*
X153966334Y-80771338D01*
X154585381Y-80390620D01*
X155341267Y-79836944D01*
X156139504Y-79184710D01*
X156885607Y-78508314D01*
X157067649Y-78329400D01*
X157695321Y-77611228D01*
X158338043Y-76722097D01*
X158959667Y-75729633D01*
X159524042Y-74701463D01*
X159995019Y-73705214D01*
X160336449Y-72808512D01*
X160512182Y-72078984D01*
X160528000Y-71855933D01*
X160528000Y-71413387D01*
X162179000Y-71512240D01*
X163880216Y-71646307D01*
X165393180Y-71830595D01*
X166664588Y-72057529D01*
X167470667Y-72264287D01*
X168191191Y-72413294D01*
X169134372Y-72506258D01*
X170196249Y-72543261D01*
X171272859Y-72524387D01*
X172260239Y-72449719D01*
X173054429Y-72319339D01*
X173270334Y-72259651D01*
X173728205Y-72127929D01*
X174019528Y-72075239D01*
X174074667Y-72090251D01*
X173972872Y-72353670D01*
X173725002Y-72744849D01*
X173417333Y-73145155D01*
X173136139Y-73435956D01*
X173054665Y-73492808D01*
X172740464Y-73574776D01*
X172196300Y-73638232D01*
X171530813Y-73671216D01*
X171418799Y-73672882D01*
X170351371Y-73727662D01*
X169587880Y-73873895D01*
X169103864Y-74120269D01*
X168874863Y-74475472D01*
X168854429Y-74583671D01*
X168863884Y-74982552D01*
X168953271Y-75210337D01*
X169168354Y-75294249D01*
X169652713Y-75418501D01*
X170341475Y-75568320D01*
X171169764Y-75728935D01*
X171464176Y-75782057D01*
X172923215Y-76041802D01*
X174082999Y-76251917D01*
X174978157Y-76419488D01*
X175643321Y-76551596D01*
X176113118Y-76655325D01*
X176422179Y-76737758D01*
X176605134Y-76805979D01*
X176675298Y-76847957D01*
X176971540Y-76985427D01*
X177399245Y-77099321D01*
X177940793Y-77210828D01*
X178372912Y-77310839D01*
X178816000Y-77422047D01*
X178816000Y-74741283D01*
X177588334Y-74439082D01*
X176960555Y-74282841D01*
X176447918Y-74152148D01*
X176151846Y-74072901D01*
X176136972Y-74068473D01*
X176029049Y-73951819D01*
X176141105Y-73687986D01*
X176248264Y-73529619D01*
X176481083Y-73063390D01*
X176614240Y-72426221D01*
X176657107Y-71556397D01*
X176644306Y-70921358D01*
X176568435Y-70331371D01*
X176343329Y-69889684D01*
X176080686Y-69596070D01*
X175658477Y-69244594D01*
X175321443Y-69148453D01*
X175191686Y-69172852D01*
X174778591Y-69287603D01*
X174266468Y-69413185D01*
X174244000Y-69418312D01*
X173791632Y-69529051D01*
X173142686Y-69697474D01*
X172426686Y-69889872D01*
X172324752Y-69917823D01*
X170756762Y-70231089D01*
X169270873Y-70296906D01*
X168063334Y-70140971D01*
X167431335Y-70014724D01*
X166558941Y-69866154D01*
X165542442Y-69709515D01*
X164478129Y-69559060D01*
X163462292Y-69429043D01*
X162644667Y-69338883D01*
X161870712Y-69263579D01*
X161367906Y-69179962D01*
X161072637Y-69028413D01*
X160921297Y-68749314D01*
X160850276Y-68283045D01*
X160849844Y-68277365D01*
X158783237Y-68277365D01*
X158729666Y-70211983D01*
X158356591Y-72084134D01*
X157681944Y-73860212D01*
X156723656Y-75506607D01*
X155499660Y-76989713D01*
X154027887Y-78275921D01*
X153123803Y-78884480D01*
X152418863Y-79292057D01*
X151919171Y-79510568D01*
X151558128Y-79552929D01*
X151269140Y-79432055D01*
X151094264Y-79278074D01*
X150688410Y-78925638D01*
X150126616Y-78508442D01*
X149548579Y-78126927D01*
X149269717Y-77966231D01*
X148922095Y-77777438D01*
X148426606Y-77503664D01*
X148166667Y-77358709D01*
X147347094Y-76971387D01*
X135946612Y-76971387D01*
X135870159Y-77180373D01*
X135509000Y-77374127D01*
X134888812Y-77705372D01*
X134142707Y-78219981D01*
X133367420Y-78846128D01*
X132740055Y-79430138D01*
X132233173Y-79961846D01*
X131727168Y-80529157D01*
X131274922Y-81068188D01*
X130929322Y-81515051D01*
X130743249Y-81805864D01*
X130725334Y-81863966D01*
X130635174Y-82071204D01*
X130411746Y-82426783D01*
X130344334Y-82523150D01*
X129988495Y-83062052D01*
X129660061Y-83620025D01*
X129654729Y-83629905D01*
X129436918Y-84105198D01*
X129181407Y-84767758D01*
X128917645Y-85526776D01*
X128675085Y-86291443D01*
X128483178Y-86970950D01*
X128371375Y-87474487D01*
X128354667Y-87638472D01*
X128280712Y-87933484D01*
X128002194Y-88127865D01*
X127719667Y-88223551D01*
X125938136Y-88605776D01*
X124171430Y-88700523D01*
X122318866Y-88512581D01*
X122174000Y-88487285D01*
X120647539Y-88137004D01*
X119337667Y-87655287D01*
X118133352Y-86996484D01*
X117517334Y-86572701D01*
X116309108Y-85568551D01*
X115282017Y-84439748D01*
X114390534Y-83124388D01*
X113589129Y-81560573D01*
X113250934Y-80772000D01*
X113017464Y-80160230D01*
X112858805Y-79613344D01*
X112756018Y-79027263D01*
X112690161Y-78297907D01*
X112647838Y-77457835D01*
X112635162Y-76038734D01*
X112741933Y-74827071D01*
X112991493Y-73705543D01*
X113407185Y-72556843D01*
X113791313Y-71711430D01*
X114766461Y-70077140D01*
X116029630Y-68620582D01*
X117580998Y-67341592D01*
X119420743Y-66240007D01*
X120142000Y-65892148D01*
X121234064Y-65530469D01*
X122546652Y-65312184D01*
X123994668Y-65234774D01*
X125493015Y-65295723D01*
X126956594Y-65492511D01*
X128300310Y-65822621D01*
X129186061Y-66159766D01*
X129793738Y-66485841D01*
X130533237Y-66950359D01*
X131305946Y-67484167D01*
X132013254Y-68018112D01*
X132556547Y-68483043D01*
X132689860Y-68616836D01*
X132955163Y-68942436D01*
X133137449Y-69300005D01*
X133270557Y-69785416D01*
X133388328Y-70494545D01*
X133411685Y-70661916D01*
X133592679Y-71649620D01*
X133862511Y-72706526D01*
X134191142Y-73742310D01*
X134548532Y-74666646D01*
X134904643Y-75389209D01*
X135066686Y-75638368D01*
X135322700Y-76020670D01*
X135459538Y-76297649D01*
X135466667Y-76337301D01*
X135583003Y-76568054D01*
X135720667Y-76708000D01*
X135946612Y-76971387D01*
X147347094Y-76971387D01*
X147328947Y-76962811D01*
X146267174Y-76570942D01*
X145094192Y-76221689D01*
X144250158Y-76019555D01*
X143735011Y-75955734D01*
X142963681Y-75917078D01*
X142017665Y-75902922D01*
X140978460Y-75912601D01*
X139927564Y-75945448D01*
X138946475Y-76000801D01*
X138193338Y-76068989D01*
X137982344Y-76064278D01*
X137787060Y-75968452D01*
X137574229Y-75737706D01*
X137310597Y-75328237D01*
X136962910Y-74696241D01*
X136557304Y-73914000D01*
X136037533Y-72651301D01*
X135644990Y-71194611D01*
X135404872Y-69672868D01*
X135342375Y-68215014D01*
X135362675Y-67800643D01*
X135675322Y-65869414D01*
X136324200Y-63943564D01*
X136469382Y-63613829D01*
X136917155Y-62797898D01*
X137530091Y-61907419D01*
X138239357Y-61024525D01*
X138976124Y-60231348D01*
X139671560Y-59610018D01*
X140038639Y-59354891D01*
X140354940Y-59156546D01*
X140806201Y-58862755D01*
X140988121Y-58742072D01*
X141447820Y-58482605D01*
X142111781Y-58165877D01*
X142864337Y-57845717D01*
X143171334Y-57726072D01*
X143794244Y-57496269D01*
X144294849Y-57337741D01*
X144761705Y-57237609D01*
X145283368Y-57182990D01*
X145948396Y-57161004D01*
X146845345Y-57158771D01*
X147066000Y-57159584D01*
X148059544Y-57170010D01*
X148806022Y-57199819D01*
X149396948Y-57260725D01*
X149923836Y-57364441D01*
X150478201Y-57522683D01*
X150846823Y-57643537D01*
X152619028Y-58415048D01*
X154231530Y-59471506D01*
X155651099Y-60783694D01*
X156844501Y-62322395D01*
X157526384Y-63516329D01*
X158025745Y-64588123D01*
X158368931Y-65517445D01*
X158590642Y-66435738D01*
X158725575Y-67474441D01*
X158783237Y-68277365D01*
X160849844Y-68277365D01*
X160799001Y-67609006D01*
X160523630Y-65823518D01*
X159992171Y-64003301D01*
X159246555Y-62274493D01*
X158711721Y-61330196D01*
X158381477Y-60856163D01*
X157934862Y-60281044D01*
X157439782Y-59684944D01*
X156964142Y-59147965D01*
X156575849Y-58750211D01*
X156398753Y-58601749D01*
X156048268Y-58344694D01*
X155590952Y-57984374D01*
X155414611Y-57839749D01*
X154689860Y-57252136D01*
X154152250Y-56855759D01*
X153742091Y-56609975D01*
X153416000Y-56478912D01*
X152987475Y-56328220D01*
X152450908Y-56111051D01*
X152315334Y-56051927D01*
X151791719Y-55838610D01*
X151105510Y-55584076D01*
X150498182Y-55374679D01*
X149337473Y-55108316D01*
X147968515Y-54981959D01*
X146489109Y-54990596D01*
G36*
X178011667Y-95032727D02*
G01*
X177291907Y-95487829D01*
X176343460Y-95999783D01*
X175260411Y-96522908D01*
X174136845Y-97011518D01*
X173170481Y-97383386D01*
X172572883Y-97701396D01*
X172276148Y-98141260D01*
X172243894Y-98673330D01*
X172389892Y-99039783D01*
X172775214Y-99275315D01*
X172854568Y-99303359D01*
X173412469Y-99490138D01*
X172939235Y-99921559D01*
X172469294Y-100314526D01*
X171977473Y-100633216D01*
X171369898Y-100928230D01*
X170552693Y-101250171D01*
X170309739Y-101338948D01*
X169541922Y-101634852D01*
X169048540Y-101884952D01*
X168777641Y-102133818D01*
X168677275Y-102426022D01*
X168686098Y-102731956D01*
X168804626Y-103098357D01*
X169118617Y-103268026D01*
X169241301Y-103292916D01*
X169484229Y-103347843D01*
X169508009Y-103414331D01*
X169277926Y-103520350D01*
X168759265Y-103693869D01*
X168733301Y-103702201D01*
X168302038Y-103821794D01*
X167818369Y-103911485D01*
X167222969Y-103976322D01*
X166456508Y-104021356D01*
X165459661Y-104051635D01*
X164422667Y-104069075D01*
X163082425Y-104095335D01*
X162045681Y-104138566D01*
X161277443Y-104204803D01*
X160742719Y-104300078D01*
X160406517Y-104430423D01*
X160233846Y-104601870D01*
X160189334Y-104798913D01*
X160316311Y-105073823D01*
X160631347Y-105438570D01*
X161035600Y-105803037D01*
X161430229Y-106077107D01*
X161695368Y-106172000D01*
X161881014Y-106250386D01*
X161800519Y-106456936D01*
X161480022Y-106748733D01*
X161247667Y-106907069D01*
X160605020Y-107281056D01*
X159906294Y-107637990D01*
X159240498Y-107937524D01*
X158696645Y-108139310D01*
X158386528Y-108204000D01*
X158024110Y-108284942D01*
X157885798Y-108373935D01*
X157545271Y-108562190D01*
X156932688Y-108754650D01*
X156114306Y-108940100D01*
X155156386Y-109107322D01*
X154125184Y-109245097D01*
X153086961Y-109342210D01*
X152107975Y-109387443D01*
X151888009Y-109389333D01*
X150513610Y-109478117D01*
X149187687Y-109728977D01*
X147993379Y-110118677D01*
X147013828Y-110623981D01*
X146727334Y-110831673D01*
X146202712Y-111228800D01*
X145485004Y-111739439D01*
X144659032Y-112306595D01*
X143809621Y-112873272D01*
X143021592Y-113382476D01*
X142379770Y-113777212D01*
X142140546Y-113913652D01*
X141052668Y-114369235D01*
X139785018Y-114677543D01*
X138476415Y-114806166D01*
X138309757Y-114808000D01*
X137160000Y-114808000D01*
X137160000Y-114295808D01*
X137080523Y-113877603D01*
X136787371Y-113643459D01*
X136725644Y-113618475D01*
X136314343Y-113485546D01*
X136031080Y-113508410D01*
X135734416Y-113723616D01*
X135522026Y-113929514D01*
X135083208Y-114344658D01*
X134546302Y-114821755D01*
X133974666Y-115308463D01*
X133431658Y-115752443D01*
X132980637Y-116101352D01*
X132684961Y-116302851D01*
X132613833Y-116332000D01*
X132386274Y-116447778D01*
X132261448Y-116571403D01*
X132024045Y-116759954D01*
X131625066Y-116996881D01*
X131167939Y-117230607D01*
X130756088Y-117409553D01*
X130492940Y-117482140D01*
X130454666Y-117472442D01*
X130521182Y-117325353D01*
X130764175Y-117030873D01*
X130896762Y-116890554D01*
X131249070Y-116430442D01*
X131482707Y-115944497D01*
X131508134Y-115847000D01*
X131534830Y-115425594D01*
X131389148Y-115232782D01*
X131053468Y-115270481D01*
X130510170Y-115540608D01*
X129751444Y-116038207D01*
X129014873Y-116511087D01*
X128220349Y-116952838D01*
X127509375Y-117286447D01*
X127334736Y-117353500D01*
X126749625Y-117573298D01*
X126280258Y-117770569D01*
X126033270Y-117899576D01*
X125782288Y-117961576D01*
X125399934Y-117950109D01*
X125029001Y-117883164D01*
X124812282Y-117778729D01*
X124798667Y-117744043D01*
X124897336Y-117577248D01*
X125152077Y-117235479D01*
X125404300Y-116919901D01*
X125793014Y-116336738D01*
X125948767Y-115847158D01*
X125865895Y-115498361D01*
X125593120Y-115345744D01*
X125320982Y-115410613D01*
X124859530Y-115634031D01*
X124292042Y-115973579D01*
X124069120Y-116122036D01*
X123281875Y-116627087D01*
X122450027Y-117102819D01*
X121645348Y-117513786D01*
X120939611Y-117824544D01*
X120404588Y-117999648D01*
X120215083Y-118025333D01*
X119778757Y-118105908D01*
X119512766Y-118214237D01*
X119015334Y-118382403D01*
X118304093Y-118505284D01*
X117502192Y-118571558D01*
X116732782Y-118569901D01*
X116239762Y-118515171D01*
X115431325Y-118288781D01*
X114519510Y-117918812D01*
X113664142Y-117474797D01*
X113280785Y-117227868D01*
X113029795Y-117014437D01*
X112924642Y-116769858D01*
X112932774Y-116373837D01*
X112969617Y-116078000D01*
X113067060Y-115281736D01*
X113094150Y-114751587D01*
X113042085Y-114420636D01*
X112902062Y-114221973D01*
X112710523Y-114108599D01*
X112184415Y-114039085D01*
X111654455Y-114256974D01*
X111199090Y-114721154D01*
X111049131Y-114979297D01*
X110867279Y-115578543D01*
X110765100Y-116395105D01*
X110742638Y-117317123D01*
X110799937Y-118232741D01*
X110937041Y-119030100D01*
X111047389Y-119380000D01*
X111487178Y-120331859D01*
X111947346Y-121051597D01*
X112403778Y-121514738D01*
X112832355Y-121696811D01*
X113208892Y-121573400D01*
X113367564Y-121363038D01*
X113417959Y-121026771D01*
X113374039Y-120465389D01*
X113369730Y-120430532D01*
X113255464Y-119515979D01*
X114237627Y-120054997D01*
X115314031Y-120510052D01*
X116550906Y-120817009D01*
X117800701Y-120947699D01*
X118702667Y-120907463D01*
X119348140Y-120781759D01*
X120132076Y-120571043D01*
X120856821Y-120330779D01*
X122079641Y-119875735D01*
X123142821Y-120422145D01*
X123771896Y-120763290D01*
X124356411Y-121110197D01*
X124729984Y-121359611D01*
X125093609Y-121611333D01*
X125337191Y-121744404D01*
X125365449Y-121750666D01*
X125530863Y-121846779D01*
X125905344Y-122105863D01*
X126429800Y-122484037D01*
X127045143Y-122937419D01*
X127692283Y-123422128D01*
X128312131Y-123894282D01*
X128845597Y-124310000D01*
X129212614Y-124607681D01*
X129832036Y-125107260D01*
X130650348Y-125735829D01*
X131608199Y-126450755D01*
X132646239Y-127209405D01*
X133705117Y-127969144D01*
X134725482Y-128687341D01*
X135647985Y-129321361D01*
X136413275Y-129828571D01*
X136906000Y-130134093D01*
X139015557Y-131274330D01*
X141012530Y-132155029D01*
X142971647Y-132798807D01*
X144967631Y-133228280D01*
X147075209Y-133466063D01*
X148082000Y-133516622D01*
X149201932Y-133532564D01*
X150164286Y-133488449D01*
X151135558Y-133371039D01*
X152146000Y-133193478D01*
X153602761Y-132857938D01*
X155190857Y-132397439D01*
X156795438Y-131851292D01*
X158301657Y-131258804D01*
X159594666Y-130659286D01*
X159681334Y-130614355D01*
X161877440Y-129312366D01*
X163845399Y-127811805D01*
X165638074Y-126067493D01*
X167179937Y-124206000D01*
X167730671Y-123408807D01*
X168336017Y-122423273D01*
X168950715Y-121334290D01*
X169529504Y-120226753D01*
X170027124Y-119185556D01*
X170398312Y-118295593D01*
X170520259Y-117940666D01*
X170685610Y-117476740D01*
X170841671Y-117151684D01*
X170877790Y-117102466D01*
X171005515Y-116807601D01*
X171026667Y-116620057D01*
X171093230Y-116243429D01*
X171253969Y-115778649D01*
X171259924Y-115764924D01*
X171428806Y-115306479D01*
X171643960Y-114622154D01*
X171875712Y-113816110D01*
X172094394Y-112992512D01*
X172270335Y-112255519D01*
X172302671Y-112104224D01*
X172422995Y-111628950D01*
X172549710Y-111272818D01*
X172557249Y-111257558D01*
X172661099Y-110957991D01*
X172793444Y-110449071D01*
X172896194Y-109982000D01*
X173097625Y-109048561D01*
X173345430Y-107993318D01*
X173625414Y-106867736D01*
X173923381Y-105723278D01*
X174225138Y-104611409D01*
X174516489Y-103583592D01*
X174783239Y-102691291D01*
X175011194Y-101985969D01*
X175186160Y-101519092D01*
X175275841Y-101354466D01*
X175421130Y-101045551D01*
X175429334Y-100962616D01*
X175504347Y-100637431D01*
X175693962Y-100157093D01*
X175945042Y-99630133D01*
X176204451Y-99165084D01*
X176419052Y-98870477D01*
X176474832Y-98827177D01*
X176671928Y-98719075D01*
X176971198Y-98531123D01*
X177428928Y-98226591D01*
X178101410Y-97768746D01*
X178193995Y-97705333D01*
X178811808Y-97282000D01*
X178813904Y-95869115D01*
X178816001Y-94456231D01*
X178011667Y-95032727D01*
G37*
X178011667Y-95032727D02*
X177291907Y-95487829D01*
X176343460Y-95999783D01*
X175260411Y-96522908D01*
X174136845Y-97011518D01*
X173170481Y-97383386D01*
X172572883Y-97701396D01*
X172276148Y-98141260D01*
X172243894Y-98673330D01*
X172389892Y-99039783D01*
X172775214Y-99275315D01*
X172854568Y-99303359D01*
X173412469Y-99490138D01*
X172939235Y-99921559D01*
X172469294Y-100314526D01*
X171977473Y-100633216D01*
X171369898Y-100928230D01*
X170552693Y-101250171D01*
X170309739Y-101338948D01*
X169541922Y-101634852D01*
X169048540Y-101884952D01*
X168777641Y-102133818D01*
X168677275Y-102426022D01*
X168686098Y-102731956D01*
X168804626Y-103098357D01*
X169118617Y-103268026D01*
X169241301Y-103292916D01*
X169484229Y-103347843D01*
X169508009Y-103414331D01*
X169277926Y-103520350D01*
X168759265Y-103693869D01*
X168733301Y-103702201D01*
X168302038Y-103821794D01*
X167818369Y-103911485D01*
X167222969Y-103976322D01*
X166456508Y-104021356D01*
X165459661Y-104051635D01*
X164422667Y-104069075D01*
X163082425Y-104095335D01*
X162045681Y-104138566D01*
X161277443Y-104204803D01*
X160742719Y-104300078D01*
X160406517Y-104430423D01*
X160233846Y-104601870D01*
X160189334Y-104798913D01*
X160316311Y-105073823D01*
X160631347Y-105438570D01*
X161035600Y-105803037D01*
X161430229Y-106077107D01*
X161695368Y-106172000D01*
X161881014Y-106250386D01*
X161800519Y-106456936D01*
X161480022Y-106748733D01*
X161247667Y-106907069D01*
X160605020Y-107281056D01*
X159906294Y-107637990D01*
X159240498Y-107937524D01*
X158696645Y-108139310D01*
X158386528Y-108204000D01*
X158024110Y-108284942D01*
X157885798Y-108373935D01*
X157545271Y-108562190D01*
X156932688Y-108754650D01*
X156114306Y-108940100D01*
X155156386Y-109107322D01*
X154125184Y-109245097D01*
X153086961Y-109342210D01*
X152107975Y-109387443D01*
X151888009Y-109389333D01*
X150513610Y-109478117D01*
X149187687Y-109728977D01*
X147993379Y-110118677D01*
X147013828Y-110623981D01*
X146727334Y-110831673D01*
X146202712Y-111228800D01*
X145485004Y-111739439D01*
X144659032Y-112306595D01*
X143809621Y-112873272D01*
X143021592Y-113382476D01*
X142379770Y-113777212D01*
X142140546Y-113913652D01*
X141052668Y-114369235D01*
X139785018Y-114677543D01*
X138476415Y-114806166D01*
X138309757Y-114808000D01*
X137160000Y-114808000D01*
X137160000Y-114295808D01*
X137080523Y-113877603D01*
X136787371Y-113643459D01*
X136725644Y-113618475D01*
X136314343Y-113485546D01*
X136031080Y-113508410D01*
X135734416Y-113723616D01*
X135522026Y-113929514D01*
X135083208Y-114344658D01*
X134546302Y-114821755D01*
X133974666Y-115308463D01*
X133431658Y-115752443D01*
X132980637Y-116101352D01*
X132684961Y-116302851D01*
X132613833Y-116332000D01*
X132386274Y-116447778D01*
X132261448Y-116571403D01*
X132024045Y-116759954D01*
X131625066Y-116996881D01*
X131167939Y-117230607D01*
X130756088Y-117409553D01*
X130492940Y-117482140D01*
X130454666Y-117472442D01*
X130521182Y-117325353D01*
X130764175Y-117030873D01*
X130896762Y-116890554D01*
X131249070Y-116430442D01*
X131482707Y-115944497D01*
X131508134Y-115847000D01*
X131534830Y-115425594D01*
X131389148Y-115232782D01*
X131053468Y-115270481D01*
X130510170Y-115540608D01*
X129751444Y-116038207D01*
X129014873Y-116511087D01*
X128220349Y-116952838D01*
X127509375Y-117286447D01*
X127334736Y-117353500D01*
X126749625Y-117573298D01*
X126280258Y-117770569D01*
X126033270Y-117899576D01*
X125782288Y-117961576D01*
X125399934Y-117950109D01*
X125029001Y-117883164D01*
X124812282Y-117778729D01*
X124798667Y-117744043D01*
X124897336Y-117577248D01*
X125152077Y-117235479D01*
X125404300Y-116919901D01*
X125793014Y-116336738D01*
X125948767Y-115847158D01*
X125865895Y-115498361D01*
X125593120Y-115345744D01*
X125320982Y-115410613D01*
X124859530Y-115634031D01*
X124292042Y-115973579D01*
X124069120Y-116122036D01*
X123281875Y-116627087D01*
X122450027Y-117102819D01*
X121645348Y-117513786D01*
X120939611Y-117824544D01*
X120404588Y-117999648D01*
X120215083Y-118025333D01*
X119778757Y-118105908D01*
X119512766Y-118214237D01*
X119015334Y-118382403D01*
X118304093Y-118505284D01*
X117502192Y-118571558D01*
X116732782Y-118569901D01*
X116239762Y-118515171D01*
X115431325Y-118288781D01*
X114519510Y-117918812D01*
X113664142Y-117474797D01*
X113280785Y-117227868D01*
X113029795Y-117014437D01*
X112924642Y-116769858D01*
X112932774Y-116373837D01*
X112969617Y-116078000D01*
X113067060Y-115281736D01*
X113094150Y-114751587D01*
X113042085Y-114420636D01*
X112902062Y-114221973D01*
X112710523Y-114108599D01*
X112184415Y-114039085D01*
X111654455Y-114256974D01*
X111199090Y-114721154D01*
X111049131Y-114979297D01*
X110867279Y-115578543D01*
X110765100Y-116395105D01*
X110742638Y-117317123D01*
X110799937Y-118232741D01*
X110937041Y-119030100D01*
X111047389Y-119380000D01*
X111487178Y-120331859D01*
X111947346Y-121051597D01*
X112403778Y-121514738D01*
X112832355Y-121696811D01*
X113208892Y-121573400D01*
X113367564Y-121363038D01*
X113417959Y-121026771D01*
X113374039Y-120465389D01*
X113369730Y-120430532D01*
X113255464Y-119515979D01*
X114237627Y-120054997D01*
X115314031Y-120510052D01*
X116550906Y-120817009D01*
X117800701Y-120947699D01*
X118702667Y-120907463D01*
X119348140Y-120781759D01*
X120132076Y-120571043D01*
X120856821Y-120330779D01*
X122079641Y-119875735D01*
X123142821Y-120422145D01*
X123771896Y-120763290D01*
X124356411Y-121110197D01*
X124729984Y-121359611D01*
X125093609Y-121611333D01*
X125337191Y-121744404D01*
X125365449Y-121750666D01*
X125530863Y-121846779D01*
X125905344Y-122105863D01*
X126429800Y-122484037D01*
X127045143Y-122937419D01*
X127692283Y-123422128D01*
X128312131Y-123894282D01*
X128845597Y-124310000D01*
X129212614Y-124607681D01*
X129832036Y-125107260D01*
X130650348Y-125735829D01*
X131608199Y-126450755D01*
X132646239Y-127209405D01*
X133705117Y-127969144D01*
X134725482Y-128687341D01*
X135647985Y-129321361D01*
X136413275Y-129828571D01*
X136906000Y-130134093D01*
X139015557Y-131274330D01*
X141012530Y-132155029D01*
X142971647Y-132798807D01*
X144967631Y-133228280D01*
X147075209Y-133466063D01*
X148082000Y-133516622D01*
X149201932Y-133532564D01*
X150164286Y-133488449D01*
X151135558Y-133371039D01*
X152146000Y-133193478D01*
X153602761Y-132857938D01*
X155190857Y-132397439D01*
X156795438Y-131851292D01*
X158301657Y-131258804D01*
X159594666Y-130659286D01*
X159681334Y-130614355D01*
X161877440Y-129312366D01*
X163845399Y-127811805D01*
X165638074Y-126067493D01*
X167179937Y-124206000D01*
X167730671Y-123408807D01*
X168336017Y-122423273D01*
X168950715Y-121334290D01*
X169529504Y-120226753D01*
X170027124Y-119185556D01*
X170398312Y-118295593D01*
X170520259Y-117940666D01*
X170685610Y-117476740D01*
X170841671Y-117151684D01*
X170877790Y-117102466D01*
X171005515Y-116807601D01*
X171026667Y-116620057D01*
X171093230Y-116243429D01*
X171253969Y-115778649D01*
X171259924Y-115764924D01*
X171428806Y-115306479D01*
X171643960Y-114622154D01*
X171875712Y-113816110D01*
X172094394Y-112992512D01*
X172270335Y-112255519D01*
X172302671Y-112104224D01*
X172422995Y-111628950D01*
X172549710Y-111272818D01*
X172557249Y-111257558D01*
X172661099Y-110957991D01*
X172793444Y-110449071D01*
X172896194Y-109982000D01*
X173097625Y-109048561D01*
X173345430Y-107993318D01*
X173625414Y-106867736D01*
X173923381Y-105723278D01*
X174225138Y-104611409D01*
X174516489Y-103583592D01*
X174783239Y-102691291D01*
X175011194Y-101985969D01*
X175186160Y-101519092D01*
X175275841Y-101354466D01*
X175421130Y-101045551D01*
X175429334Y-100962616D01*
X175504347Y-100637431D01*
X175693962Y-100157093D01*
X175945042Y-99630133D01*
X176204451Y-99165084D01*
X176419052Y-98870477D01*
X176474832Y-98827177D01*
X176671928Y-98719075D01*
X176971198Y-98531123D01*
X177428928Y-98226591D01*
X178101410Y-97768746D01*
X178193995Y-97705333D01*
X178811808Y-97282000D01*
X178813904Y-95869115D01*
X178816001Y-94456231D01*
X178011667Y-95032727D01*
G36*
X125541364Y-71382266D02*
G01*
X124237908Y-71693200D01*
X123120542Y-72206490D01*
X122343334Y-72801113D01*
X121702633Y-73466528D01*
X121271670Y-74030468D01*
X120991919Y-74598169D01*
X120804851Y-75274867D01*
X120723173Y-75714283D01*
X120614570Y-77116063D01*
X120787568Y-78342636D01*
X121240926Y-79386085D01*
X121317133Y-79503078D01*
X121577319Y-79909120D01*
X121732012Y-80194257D01*
X121750667Y-80254295D01*
X121884952Y-80421525D01*
X122234723Y-80702039D01*
X122720352Y-81042977D01*
X123262214Y-81391479D01*
X123780681Y-81694685D01*
X124196126Y-81899735D01*
X124273602Y-81929138D01*
X124978784Y-82068523D01*
X125883835Y-82098540D01*
X126867907Y-82018618D01*
X127320051Y-81943561D01*
X127841980Y-81803879D01*
X128251139Y-81630479D01*
X128336051Y-81573811D01*
X128697588Y-81326777D01*
X129043828Y-81133409D01*
X129664149Y-80668462D01*
X130247417Y-79955217D01*
X130749293Y-79083963D01*
X131125435Y-78144991D01*
X131331503Y-77228590D01*
X131331531Y-76474970D01*
X131038400Y-75145679D01*
X130595333Y-74072128D01*
X129974002Y-73193976D01*
X129627745Y-72845609D01*
X128662154Y-72134443D01*
X127588354Y-71634313D01*
X126494657Y-71376845D01*
X125541364Y-71382266D01*
G37*
X125541364Y-71382266D02*
X124237908Y-71693200D01*
X123120542Y-72206490D01*
X122343334Y-72801113D01*
X121702633Y-73466528D01*
X121271670Y-74030468D01*
X120991919Y-74598169D01*
X120804851Y-75274867D01*
X120723173Y-75714283D01*
X120614570Y-77116063D01*
X120787568Y-78342636D01*
X121240926Y-79386085D01*
X121317133Y-79503078D01*
X121577319Y-79909120D01*
X121732012Y-80194257D01*
X121750667Y-80254295D01*
X121884952Y-80421525D01*
X122234723Y-80702039D01*
X122720352Y-81042977D01*
X123262214Y-81391479D01*
X123780681Y-81694685D01*
X124196126Y-81899735D01*
X124273602Y-81929138D01*
X124978784Y-82068523D01*
X125883835Y-82098540D01*
X126867907Y-82018618D01*
X127320051Y-81943561D01*
X127841980Y-81803879D01*
X128251139Y-81630479D01*
X128336051Y-81573811D01*
X128697588Y-81326777D01*
X129043828Y-81133409D01*
X129664149Y-80668462D01*
X130247417Y-79955217D01*
X130749293Y-79083963D01*
X131125435Y-78144991D01*
X131331503Y-77228590D01*
X131331531Y-76474970D01*
X131038400Y-75145679D01*
X130595333Y-74072128D01*
X129974002Y-73193976D01*
X129627745Y-72845609D01*
X128662154Y-72134443D01*
X127588354Y-71634313D01*
X126494657Y-71376845D01*
X125541364Y-71382266D01*
G36*
X144680773Y-64538198D02*
G01*
X143519568Y-64849197D01*
X142417980Y-65440176D01*
X141419395Y-66317592D01*
X141031937Y-66785269D01*
X140472587Y-67677754D01*
X140158268Y-68589552D01*
X140061219Y-69625707D01*
X140094246Y-70333388D01*
X140240175Y-71396342D01*
X140505001Y-72234594D01*
X140936326Y-72954521D01*
X141581749Y-73662499D01*
X141585604Y-73666197D01*
X142354068Y-74335196D01*
X143060926Y-74767577D01*
X143824371Y-75013718D01*
X144762593Y-75123999D01*
X145034000Y-75136097D01*
X145865611Y-75138236D01*
X146515733Y-75062279D01*
X147136890Y-74886080D01*
X147377877Y-74795768D01*
X148534593Y-74169880D01*
X149473111Y-73290789D01*
X150181463Y-72173927D01*
X150647683Y-70834725D01*
X150721862Y-70483841D01*
X150815080Y-69915265D01*
X150830775Y-69478162D01*
X150754507Y-69040832D01*
X150571836Y-68471572D01*
X150470375Y-68190132D01*
X149862563Y-66956868D01*
X149054055Y-65964837D01*
X148088236Y-65220497D01*
X147008493Y-64730305D01*
X145858210Y-64500719D01*
X144680773Y-64538198D01*
G37*
X144680773Y-64538198D02*
X143519568Y-64849197D01*
X142417980Y-65440176D01*
X141419395Y-66317592D01*
X141031937Y-66785269D01*
X140472587Y-67677754D01*
X140158268Y-68589552D01*
X140061219Y-69625707D01*
X140094246Y-70333388D01*
X140240175Y-71396342D01*
X140505001Y-72234594D01*
X140936326Y-72954521D01*
X141581749Y-73662499D01*
X141585604Y-73666197D01*
X142354068Y-74335196D01*
X143060926Y-74767577D01*
X143824371Y-75013718D01*
X144762593Y-75123999D01*
X145034000Y-75136097D01*
X145865611Y-75138236D01*
X146515733Y-75062279D01*
X147136890Y-74886080D01*
X147377877Y-74795768D01*
X148534593Y-74169880D01*
X149473111Y-73290789D01*
X150181463Y-72173927D01*
X150647683Y-70834725D01*
X150721862Y-70483841D01*
X150815080Y-69915265D01*
X150830775Y-69478162D01*
X150754507Y-69040832D01*
X150571836Y-68471572D01*
X150470375Y-68190132D01*
X149862563Y-66956868D01*
X149054055Y-65964837D01*
X148088236Y-65220497D01*
X147008493Y-64730305D01*
X145858210Y-64500719D01*
X144680773Y-64538198D01*
%TD*%
%LPC*%
D12*
%TO.C,ISP1*%
X89662000Y-134366000D03*
X92202000Y-134366000D03*
X89662000Y-136906000D03*
X92202000Y-136906000D03*
X89662000Y-139446000D03*
D13*
X92202000Y-139446000D03*
%TD*%
D14*
%TO.C,D19*%
X120904000Y-126492000D03*
D15*
X120904000Y-118872000D03*
%TD*%
D16*
%TO.C,MX16*%
X113919000Y-123698000D03*
D17*
X111379000Y-128778000D03*
D16*
X107569000Y-126238000D03*
D18*
X106299000Y-128778000D03*
X116459000Y-128778000D03*
%TD*%
D16*
%TO.C,MX20*%
X152019000Y-142748000D03*
D17*
X149479000Y-147828000D03*
D16*
X145669000Y-145288000D03*
D18*
X144399000Y-147828000D03*
X154559000Y-147828000D03*
%TD*%
D16*
%TO.C,MX19*%
X123444000Y-142748000D03*
D17*
X120904000Y-147828000D03*
D16*
X117094000Y-145288000D03*
D18*
X115824000Y-147828000D03*
X125984000Y-147828000D03*
D19*
X108997750Y-140843000D03*
X132810250Y-140843000D03*
D17*
X108997750Y-156083000D03*
X132810250Y-156083000D03*
%TD*%
D16*
%TO.C,MX18*%
X152019000Y-123698000D03*
D17*
X149479000Y-128778000D03*
D16*
X145669000Y-126238000D03*
D18*
X144399000Y-128778000D03*
X154559000Y-128778000D03*
%TD*%
D16*
%TO.C,MX21*%
X163449000Y-135763000D03*
D17*
X168529000Y-138303000D03*
D16*
X165989000Y-142113000D03*
D18*
X168529000Y-143383000D03*
X168529000Y-133223000D03*
D19*
X161544000Y-150209250D03*
X161544000Y-126396750D03*
D17*
X176784000Y-150209250D03*
X176784000Y-126396750D03*
%TD*%
D16*
%TO.C,MX15*%
X163449000Y-97663000D03*
D17*
X168529000Y-100203000D03*
D16*
X165989000Y-104013000D03*
D18*
X168529000Y-105283000D03*
X168529000Y-95123000D03*
D19*
X161544000Y-112109250D03*
X161544000Y-88296750D03*
D17*
X176784000Y-112109250D03*
X176784000Y-88296750D03*
%TD*%
D14*
%TO.C,D23*%
X159004000Y-145415000D03*
D15*
X159004000Y-137795000D03*
%TD*%
D14*
%TO.C,D22*%
X139954000Y-145415000D03*
D15*
X139954000Y-137795000D03*
%TD*%
D14*
%TO.C,D21*%
X101854000Y-145288000D03*
D15*
X101854000Y-137668000D03*
%TD*%
D14*
%TO.C,D17*%
X159004000Y-100076000D03*
D15*
X159004000Y-107696000D03*
%TD*%
D14*
%TO.C,MCU1*%
X94742000Y-76962000D03*
X87122000Y-109982000D03*
X94742000Y-79502000D03*
X87122000Y-107442000D03*
X94742000Y-82042000D03*
X87122000Y-104902000D03*
X94742000Y-84582000D03*
X87122000Y-102362000D03*
X94742000Y-87122000D03*
X87122000Y-99822000D03*
X94742000Y-89662000D03*
X87122000Y-97282000D03*
X94742000Y-92202000D03*
X87122000Y-94742000D03*
X94742000Y-94742000D03*
X87122000Y-92202000D03*
X94742000Y-97282000D03*
X87122000Y-89662000D03*
X94742000Y-99822000D03*
X87122000Y-87122000D03*
X94742000Y-102362000D03*
X87122000Y-84582000D03*
X94742000Y-104902000D03*
X87122000Y-82042000D03*
X94742000Y-107442000D03*
X87122000Y-79502000D03*
X94742000Y-109982000D03*
D15*
X87122000Y-76962000D03*
%TD*%
D16*
%TO.C,MX5*%
X113919000Y-66548000D03*
D17*
X111379000Y-71628000D03*
D16*
X107569000Y-69088000D03*
D18*
X106299000Y-71628000D03*
X116459000Y-71628000D03*
%TD*%
D16*
%TO.C,MX17*%
X132969000Y-123698000D03*
D17*
X130429000Y-128778000D03*
D16*
X126619000Y-126238000D03*
D18*
X125349000Y-128778000D03*
X135509000Y-128778000D03*
%TD*%
D16*
%TO.C,MX14*%
X152019000Y-104648000D03*
D17*
X149479000Y-109728000D03*
D16*
X145669000Y-107188000D03*
D18*
X144399000Y-109728000D03*
X154559000Y-109728000D03*
%TD*%
D16*
%TO.C,MX13*%
X132969000Y-104648000D03*
D17*
X130429000Y-109728000D03*
D16*
X126619000Y-107188000D03*
D18*
X125349000Y-109728000D03*
X135509000Y-109728000D03*
%TD*%
D16*
%TO.C,MX12*%
X113919000Y-104648000D03*
D17*
X111379000Y-109728000D03*
D16*
X107569000Y-107188000D03*
D18*
X106299000Y-109728000D03*
X116459000Y-109728000D03*
%TD*%
D16*
%TO.C,MX11*%
X152019000Y-85598000D03*
D17*
X149479000Y-90678000D03*
D16*
X145669000Y-88138000D03*
D18*
X144399000Y-90678000D03*
X154559000Y-90678000D03*
%TD*%
D16*
%TO.C,MX10*%
X132969000Y-85598000D03*
D17*
X130429000Y-90678000D03*
D16*
X126619000Y-88138000D03*
D18*
X125349000Y-90678000D03*
X135509000Y-90678000D03*
%TD*%
D16*
%TO.C,MX9*%
X113919000Y-85598000D03*
D17*
X111379000Y-90678000D03*
D16*
X107569000Y-88138000D03*
D18*
X106299000Y-90678000D03*
X116459000Y-90678000D03*
%TD*%
D16*
%TO.C,MX8*%
X171069000Y-66548000D03*
D17*
X168529000Y-71628000D03*
D16*
X164719000Y-69088000D03*
D18*
X163449000Y-71628000D03*
X173609000Y-71628000D03*
%TD*%
D16*
%TO.C,MX7*%
X152019000Y-66548000D03*
D17*
X149479000Y-71628000D03*
D16*
X145669000Y-69088000D03*
D18*
X144399000Y-71628000D03*
X154559000Y-71628000D03*
%TD*%
D16*
%TO.C,MX6*%
X132969000Y-66548000D03*
D17*
X130429000Y-71628000D03*
D16*
X126619000Y-69088000D03*
D18*
X125349000Y-71628000D03*
X135509000Y-71628000D03*
%TD*%
D16*
%TO.C,MX4*%
X171069000Y-47498000D03*
D17*
X168529000Y-52578000D03*
D16*
X164719000Y-50038000D03*
D18*
X163449000Y-52578000D03*
X173609000Y-52578000D03*
%TD*%
D16*
%TO.C,MX3*%
X152019000Y-47498000D03*
D17*
X149479000Y-52578000D03*
D16*
X145669000Y-50038000D03*
D18*
X144399000Y-52578000D03*
X154559000Y-52578000D03*
%TD*%
D16*
%TO.C,MX2*%
X132969000Y-47498000D03*
D17*
X130429000Y-52578000D03*
D16*
X126619000Y-50038000D03*
D18*
X125349000Y-52578000D03*
X135509000Y-52578000D03*
%TD*%
D16*
%TO.C,MX1*%
X113919000Y-47498000D03*
D17*
X111379000Y-52578000D03*
D16*
X107569000Y-50038000D03*
D18*
X106299000Y-52578000D03*
X116459000Y-52578000D03*
%TD*%
D20*
%TO.C,XTAL1*%
X93272000Y-116586000D03*
X88392000Y-116586000D03*
%TD*%
D21*
%TO.C,USB1*%
X92786000Y-50230000D03*
X91986000Y-48530000D03*
X91186000Y-50230000D03*
X90386000Y-48530000D03*
X89586000Y-50230000D03*
D22*
X94836000Y-44930000D03*
X87536000Y-44930000D03*
%TD*%
D23*
%TO.C,SW2*%
X99718000Y-151003000D03*
X99718000Y-155503000D03*
X93218000Y-151003000D03*
X93218000Y-155503000D03*
%TD*%
%TO.C,SW1*%
X89812000Y-151003000D03*
X89812000Y-155503000D03*
X83312000Y-151003000D03*
X83312000Y-155503000D03*
%TD*%
D24*
%TO.C,R4*%
X95250000Y-147828000D03*
D25*
X87630000Y-147828000D03*
%TD*%
D24*
%TO.C,R3*%
X90424000Y-65532000D03*
D25*
X90424000Y-73152000D03*
%TD*%
D24*
%TO.C,R2*%
X87630000Y-65532000D03*
D25*
X87630000Y-73152000D03*
%TD*%
D24*
%TO.C,R1*%
X84836000Y-65532000D03*
D25*
X84836000Y-73152000D03*
%TD*%
D23*
%TO.C,F1*%
X86624000Y-55626000D03*
X86614000Y-60706000D03*
%TD*%
D14*
%TO.C,D20*%
X139954000Y-126492000D03*
D15*
X139954000Y-118872000D03*
%TD*%
D14*
%TO.C,D18*%
X101854000Y-126492000D03*
D15*
X101854000Y-118872000D03*
%TD*%
D14*
%TO.C,D16*%
X139954000Y-105664000D03*
D15*
X139954000Y-113284000D03*
%TD*%
D14*
%TO.C,D15*%
X120904000Y-105664000D03*
D15*
X120904000Y-113284000D03*
%TD*%
D14*
%TO.C,D14*%
X101854000Y-105664000D03*
D15*
X101854000Y-113284000D03*
%TD*%
D14*
%TO.C,D13*%
X139954000Y-86614000D03*
D15*
X139954000Y-94234000D03*
%TD*%
D14*
%TO.C,D12*%
X120904000Y-86614000D03*
D15*
X120904000Y-94234000D03*
%TD*%
D14*
%TO.C,D11*%
X101854000Y-86614000D03*
D15*
X101854000Y-94234000D03*
%TD*%
D14*
%TO.C,D10*%
X159004000Y-67818000D03*
D15*
X159004000Y-75438000D03*
%TD*%
D14*
%TO.C,D9*%
X139954000Y-67818000D03*
D15*
X139954000Y-75438000D03*
%TD*%
D14*
%TO.C,D8*%
X120904000Y-67818000D03*
D15*
X120904000Y-75438000D03*
%TD*%
D14*
%TO.C,D7*%
X101854000Y-67818000D03*
D15*
X101854000Y-75438000D03*
%TD*%
D14*
%TO.C,D6*%
X159004000Y-48514000D03*
D15*
X159004000Y-56134000D03*
%TD*%
D14*
%TO.C,D5*%
X139954000Y-48514000D03*
D15*
X139954000Y-56134000D03*
%TD*%
D14*
%TO.C,D4*%
X120904000Y-48514000D03*
D15*
X120904000Y-56134000D03*
%TD*%
D14*
%TO.C,D3*%
X101854000Y-48514000D03*
D15*
X101854000Y-56134000D03*
%TD*%
D14*
%TO.C,D2*%
X93472000Y-65532000D03*
D15*
X93472000Y-73152000D03*
%TD*%
D14*
%TO.C,D1*%
X96774000Y-65532000D03*
D15*
X96774000Y-73152000D03*
%TD*%
D26*
%TO.C,C5*%
X88392000Y-125650000D03*
X88392000Y-120650000D03*
%TD*%
%TO.C,C4*%
X93218000Y-125650000D03*
X93218000Y-120650000D03*
%TD*%
%TO.C,C3*%
X97536000Y-92242000D03*
X97536000Y-94742000D03*
%TD*%
%TO.C,C2*%
X84328000Y-94702000D03*
X84328000Y-92202000D03*
%TD*%
D27*
%TO.C,C1*%
X94710000Y-57658000D03*
D28*
X92710000Y-57658000D03*
%TD*%
M02*
