G04 #@! TF.GenerationSoftware,KiCad,Pcbnew,5.1.6-c6e7f7d~87~ubuntu18.04.1*
G04 #@! TF.CreationDate,2020-08-05T15:47:38+02:00*
G04 #@! TF.ProjectId,numpad,6e756d70-6164-42e6-9b69-6361645f7063,rev?*
G04 #@! TF.SameCoordinates,Original*
G04 #@! TF.FileFunction,Legend,Top*
G04 #@! TF.FilePolarity,Positive*
%FSLAX46Y46*%
G04 Gerber Fmt 4.6, Leading zero omitted, Abs format (unit mm)*
G04 Created by KiCad (PCBNEW 5.1.6-c6e7f7d~87~ubuntu18.04.1) date 2020-08-05 15:47:38*
%MOMM*%
%LPD*%
G01*
G04 APERTURE LIST*
%ADD10C,0.200000*%
%ADD11C,0.120000*%
%ADD12C,0.150000*%
%ADD13C,3.100000*%
%ADD14O,1.500000X1.500000*%
%ADD15C,1.500000*%
%ADD16O,0.750000X1.100000*%
%ADD17O,1.000000X2.500000*%
%ADD18O,1.000000X1.800000*%
%ADD19O,1.800000X1.800000*%
%ADD20R,1.800000X1.800000*%
%ADD21O,1.700000X1.700000*%
%ADD22R,1.700000X1.700000*%
%ADD23C,2.350000*%
%ADD24C,4.087800*%
%ADD25C,1.850000*%
%ADD26C,3.148000*%
%ADD27C,1.600000*%
%ADD28C,2.100000*%
%ADD29C,1.700000*%
%ADD30C,1.300000*%
%ADD31R,1.300000X1.300000*%
G04 APERTURE END LIST*
D10*
X89306476Y-133966000D02*
X89230285Y-133927904D01*
X89116000Y-133927904D01*
X89001714Y-133966000D01*
X88925523Y-134042190D01*
X88887428Y-134118380D01*
X88849333Y-134270761D01*
X88849333Y-134385047D01*
X88887428Y-134537428D01*
X88925523Y-134613619D01*
X89001714Y-134689809D01*
X89116000Y-134727904D01*
X89192190Y-134727904D01*
X89306476Y-134689809D01*
X89344571Y-134651714D01*
X89344571Y-134385047D01*
X89192190Y-134385047D01*
X89687428Y-134727904D02*
X89687428Y-133927904D01*
X90144571Y-134727904D01*
X90144571Y-133927904D01*
X90525523Y-134727904D02*
X90525523Y-133927904D01*
X90716000Y-133927904D01*
X90830285Y-133966000D01*
X90906476Y-134042190D01*
X90944571Y-134118380D01*
X90982666Y-134270761D01*
X90982666Y-134385047D01*
X90944571Y-134537428D01*
X90906476Y-134613619D01*
X90830285Y-134689809D01*
X90716000Y-134727904D01*
X90525523Y-134727904D01*
D11*
G04 #@! TO.C,R6*
X94564000Y-128270000D02*
X93614000Y-128270000D01*
X88824000Y-128270000D02*
X89774000Y-128270000D01*
X93614000Y-127350000D02*
X89774000Y-127350000D01*
X93614000Y-129190000D02*
X93614000Y-127350000D01*
X89774000Y-129190000D02*
X93614000Y-129190000D01*
X89774000Y-127350000D02*
X89774000Y-129190000D01*
G04 #@! TO.C,R5*
X95377000Y-55804000D02*
X95377000Y-56754000D01*
X95377000Y-61544000D02*
X95377000Y-60594000D01*
X94457000Y-56754000D02*
X94457000Y-60594000D01*
X96297000Y-56754000D02*
X94457000Y-56754000D01*
X96297000Y-60594000D02*
X96297000Y-56754000D01*
X94457000Y-60594000D02*
X96297000Y-60594000D01*
G04 #@! TO.C,R4*
X98171000Y-55804000D02*
X98171000Y-56754000D01*
X98171000Y-61544000D02*
X98171000Y-60594000D01*
X97251000Y-56754000D02*
X97251000Y-60594000D01*
X99091000Y-56754000D02*
X97251000Y-56754000D01*
X99091000Y-60594000D02*
X99091000Y-56754000D01*
X97251000Y-60594000D02*
X99091000Y-60594000D01*
G04 #@! TO.C,R3*
X90424000Y-66472000D02*
X90424000Y-67422000D01*
X90424000Y-72212000D02*
X90424000Y-71262000D01*
X89504000Y-67422000D02*
X89504000Y-71262000D01*
X91344000Y-67422000D02*
X89504000Y-67422000D01*
X91344000Y-71262000D02*
X91344000Y-67422000D01*
X89504000Y-71262000D02*
X91344000Y-71262000D01*
G04 #@! TO.C,R2*
X87630000Y-66472000D02*
X87630000Y-67422000D01*
X87630000Y-72212000D02*
X87630000Y-71262000D01*
X86710000Y-67422000D02*
X86710000Y-71262000D01*
X88550000Y-67422000D02*
X86710000Y-67422000D01*
X88550000Y-71262000D02*
X88550000Y-67422000D01*
X86710000Y-71262000D02*
X88550000Y-71262000D01*
G04 #@! TO.C,R1*
X84836000Y-66472000D02*
X84836000Y-67422000D01*
X84836000Y-72212000D02*
X84836000Y-71262000D01*
X83916000Y-67422000D02*
X83916000Y-71262000D01*
X85756000Y-67422000D02*
X83916000Y-67422000D01*
X85756000Y-71262000D02*
X85756000Y-67422000D01*
X83916000Y-71262000D02*
X85756000Y-71262000D01*
D12*
G04 #@! TO.C,USB1*
X91059000Y-43180000D02*
X91059000Y-44450000D01*
X95534000Y-40670000D02*
X95539000Y-41430000D01*
X95534000Y-40670000D02*
X86584000Y-40670000D01*
X86579000Y-41430000D02*
X86584000Y-40670000D01*
X95534000Y-49840000D02*
X86584000Y-49840000D01*
X95684000Y-43180000D02*
X86434000Y-43180000D01*
D11*
G04 #@! TO.C,ISP1*
X91270000Y-140776000D02*
X91270000Y-133036000D01*
X91270000Y-133036000D02*
X88610000Y-133036000D01*
X88610000Y-133036000D02*
X88610000Y-140776000D01*
X88610000Y-140776000D02*
X91270000Y-140776000D01*
X88610000Y-139826000D02*
X82610000Y-139826000D01*
X82610000Y-139826000D02*
X82610000Y-139066000D01*
X82610000Y-139066000D02*
X88610000Y-139066000D01*
X88610000Y-139766000D02*
X82610000Y-139766000D01*
X88610000Y-139646000D02*
X82610000Y-139646000D01*
X88610000Y-139526000D02*
X82610000Y-139526000D01*
X88610000Y-139406000D02*
X82610000Y-139406000D01*
X88610000Y-139286000D02*
X82610000Y-139286000D01*
X88610000Y-139166000D02*
X82610000Y-139166000D01*
X91667071Y-139826000D02*
X91270000Y-139826000D01*
X91667071Y-139066000D02*
X91270000Y-139066000D01*
X94140000Y-139826000D02*
X93752929Y-139826000D01*
X94140000Y-139066000D02*
X93752929Y-139066000D01*
X91270000Y-138176000D02*
X88610000Y-138176000D01*
X88610000Y-137286000D02*
X82610000Y-137286000D01*
X82610000Y-137286000D02*
X82610000Y-136526000D01*
X82610000Y-136526000D02*
X88610000Y-136526000D01*
X91667071Y-137286000D02*
X91270000Y-137286000D01*
X91667071Y-136526000D02*
X91270000Y-136526000D01*
X94207071Y-137286000D02*
X93752929Y-137286000D01*
X94207071Y-136526000D02*
X93752929Y-136526000D01*
X91270000Y-135636000D02*
X88610000Y-135636000D01*
X88610000Y-134746000D02*
X82610000Y-134746000D01*
X82610000Y-134746000D02*
X82610000Y-133986000D01*
X82610000Y-133986000D02*
X88610000Y-133986000D01*
X91667071Y-134746000D02*
X91270000Y-134746000D01*
X91667071Y-133986000D02*
X91270000Y-133986000D01*
X94207071Y-134746000D02*
X93752929Y-134746000D01*
X94207071Y-133986000D02*
X93752929Y-133986000D01*
X96520000Y-139446000D02*
X96520000Y-140716000D01*
X96520000Y-140716000D02*
X95250000Y-140716000D01*
G04 #@! TO.C,D19*
X122024000Y-121162000D02*
X119784000Y-121162000D01*
X122024000Y-121402000D02*
X119784000Y-121402000D01*
X122024000Y-121282000D02*
X119784000Y-121282000D01*
X120904000Y-125452000D02*
X120904000Y-124802000D01*
X120904000Y-119912000D02*
X120904000Y-120562000D01*
X122024000Y-124802000D02*
X122024000Y-120562000D01*
X119784000Y-124802000D02*
X122024000Y-124802000D01*
X119784000Y-120562000D02*
X119784000Y-124802000D01*
X122024000Y-120562000D02*
X119784000Y-120562000D01*
G04 #@! TO.C,D23*
X160124000Y-139485000D02*
X157884000Y-139485000D01*
X157884000Y-139485000D02*
X157884000Y-143725000D01*
X157884000Y-143725000D02*
X160124000Y-143725000D01*
X160124000Y-143725000D02*
X160124000Y-139485000D01*
X159004000Y-138835000D02*
X159004000Y-139485000D01*
X159004000Y-144375000D02*
X159004000Y-143725000D01*
X160124000Y-140205000D02*
X157884000Y-140205000D01*
X160124000Y-140325000D02*
X157884000Y-140325000D01*
X160124000Y-140085000D02*
X157884000Y-140085000D01*
G04 #@! TO.C,D22*
X141074000Y-139485000D02*
X138834000Y-139485000D01*
X138834000Y-139485000D02*
X138834000Y-143725000D01*
X138834000Y-143725000D02*
X141074000Y-143725000D01*
X141074000Y-143725000D02*
X141074000Y-139485000D01*
X139954000Y-138835000D02*
X139954000Y-139485000D01*
X139954000Y-144375000D02*
X139954000Y-143725000D01*
X141074000Y-140205000D02*
X138834000Y-140205000D01*
X141074000Y-140325000D02*
X138834000Y-140325000D01*
X141074000Y-140085000D02*
X138834000Y-140085000D01*
G04 #@! TO.C,D21*
X102974000Y-142152000D02*
X100734000Y-142152000D01*
X100734000Y-142152000D02*
X100734000Y-146392000D01*
X100734000Y-146392000D02*
X102974000Y-146392000D01*
X102974000Y-146392000D02*
X102974000Y-142152000D01*
X101854000Y-141502000D02*
X101854000Y-142152000D01*
X101854000Y-147042000D02*
X101854000Y-146392000D01*
X102974000Y-142872000D02*
X100734000Y-142872000D01*
X102974000Y-142992000D02*
X100734000Y-142992000D01*
X102974000Y-142752000D02*
X100734000Y-142752000D01*
G04 #@! TO.C,D17*
X157884000Y-106006000D02*
X160124000Y-106006000D01*
X160124000Y-106006000D02*
X160124000Y-101766000D01*
X160124000Y-101766000D02*
X157884000Y-101766000D01*
X157884000Y-101766000D02*
X157884000Y-106006000D01*
X159004000Y-106656000D02*
X159004000Y-106006000D01*
X159004000Y-101116000D02*
X159004000Y-101766000D01*
X157884000Y-105286000D02*
X160124000Y-105286000D01*
X157884000Y-105166000D02*
X160124000Y-105166000D01*
X157884000Y-105406000D02*
X160124000Y-105406000D01*
G04 #@! TO.C,MCU1*
X89932000Y-75632000D02*
X88282000Y-75632000D01*
X88282000Y-75632000D02*
X88282000Y-111312000D01*
X88282000Y-111312000D02*
X93582000Y-111312000D01*
X93582000Y-111312000D02*
X93582000Y-75632000D01*
X93582000Y-75632000D02*
X91932000Y-75632000D01*
X91932000Y-75632000D02*
G75*
G02*
X89932000Y-75632000I-1000000J0D01*
G01*
G04 #@! TO.C,XTAL1*
X87632000Y-119111000D02*
X94032000Y-119111000D01*
X87632000Y-114061000D02*
X94032000Y-114061000D01*
X94032000Y-119111000D02*
G75*
G03*
X94032000Y-114061000I0J2525000D01*
G01*
X87632000Y-119111000D02*
G75*
G02*
X87632000Y-114061000I0J2525000D01*
G01*
G04 #@! TO.C,BOOT*
X99968000Y-154003000D02*
X99968000Y-152503000D01*
X98718000Y-150003000D02*
X94218000Y-150003000D01*
X92968000Y-152503000D02*
X92968000Y-154003000D01*
X94218000Y-156503000D02*
X98718000Y-156503000D01*
G04 #@! TO.C,RESET*
X90062000Y-154003000D02*
X90062000Y-152503000D01*
X88812000Y-150003000D02*
X84312000Y-150003000D01*
X83062000Y-152503000D02*
X83062000Y-154003000D01*
X84312000Y-156503000D02*
X88812000Y-156503000D01*
G04 #@! TO.C,F1*
X87718000Y-54050000D02*
X87718000Y-62790000D01*
X87718000Y-54050000D02*
X83478000Y-54050000D01*
X83478000Y-62790000D02*
X87718000Y-62790000D01*
X83478000Y-62790000D02*
X83478000Y-54050000D01*
G04 #@! TO.C,D20*
X141074000Y-121162000D02*
X138834000Y-121162000D01*
X141074000Y-121402000D02*
X138834000Y-121402000D01*
X141074000Y-121282000D02*
X138834000Y-121282000D01*
X139954000Y-125452000D02*
X139954000Y-124802000D01*
X139954000Y-119912000D02*
X139954000Y-120562000D01*
X141074000Y-124802000D02*
X141074000Y-120562000D01*
X138834000Y-124802000D02*
X141074000Y-124802000D01*
X138834000Y-120562000D02*
X138834000Y-124802000D01*
X141074000Y-120562000D02*
X138834000Y-120562000D01*
G04 #@! TO.C,D18*
X102974000Y-121162000D02*
X100734000Y-121162000D01*
X102974000Y-121402000D02*
X100734000Y-121402000D01*
X102974000Y-121282000D02*
X100734000Y-121282000D01*
X101854000Y-125452000D02*
X101854000Y-124802000D01*
X101854000Y-119912000D02*
X101854000Y-120562000D01*
X102974000Y-124802000D02*
X102974000Y-120562000D01*
X100734000Y-124802000D02*
X102974000Y-124802000D01*
X100734000Y-120562000D02*
X100734000Y-124802000D01*
X102974000Y-120562000D02*
X100734000Y-120562000D01*
G04 #@! TO.C,D16*
X138834000Y-110994000D02*
X141074000Y-110994000D01*
X138834000Y-110754000D02*
X141074000Y-110754000D01*
X138834000Y-110874000D02*
X141074000Y-110874000D01*
X139954000Y-106704000D02*
X139954000Y-107354000D01*
X139954000Y-112244000D02*
X139954000Y-111594000D01*
X138834000Y-107354000D02*
X138834000Y-111594000D01*
X141074000Y-107354000D02*
X138834000Y-107354000D01*
X141074000Y-111594000D02*
X141074000Y-107354000D01*
X138834000Y-111594000D02*
X141074000Y-111594000D01*
G04 #@! TO.C,D15*
X119784000Y-110994000D02*
X122024000Y-110994000D01*
X119784000Y-110754000D02*
X122024000Y-110754000D01*
X119784000Y-110874000D02*
X122024000Y-110874000D01*
X120904000Y-106704000D02*
X120904000Y-107354000D01*
X120904000Y-112244000D02*
X120904000Y-111594000D01*
X119784000Y-107354000D02*
X119784000Y-111594000D01*
X122024000Y-107354000D02*
X119784000Y-107354000D01*
X122024000Y-111594000D02*
X122024000Y-107354000D01*
X119784000Y-111594000D02*
X122024000Y-111594000D01*
G04 #@! TO.C,D14*
X100734000Y-110994000D02*
X102974000Y-110994000D01*
X100734000Y-110754000D02*
X102974000Y-110754000D01*
X100734000Y-110874000D02*
X102974000Y-110874000D01*
X101854000Y-106704000D02*
X101854000Y-107354000D01*
X101854000Y-112244000D02*
X101854000Y-111594000D01*
X100734000Y-107354000D02*
X100734000Y-111594000D01*
X102974000Y-107354000D02*
X100734000Y-107354000D01*
X102974000Y-111594000D02*
X102974000Y-107354000D01*
X100734000Y-111594000D02*
X102974000Y-111594000D01*
G04 #@! TO.C,D13*
X138834000Y-91944000D02*
X141074000Y-91944000D01*
X138834000Y-91704000D02*
X141074000Y-91704000D01*
X138834000Y-91824000D02*
X141074000Y-91824000D01*
X139954000Y-87654000D02*
X139954000Y-88304000D01*
X139954000Y-93194000D02*
X139954000Y-92544000D01*
X138834000Y-88304000D02*
X138834000Y-92544000D01*
X141074000Y-88304000D02*
X138834000Y-88304000D01*
X141074000Y-92544000D02*
X141074000Y-88304000D01*
X138834000Y-92544000D02*
X141074000Y-92544000D01*
G04 #@! TO.C,D12*
X119784000Y-91944000D02*
X122024000Y-91944000D01*
X119784000Y-91704000D02*
X122024000Y-91704000D01*
X119784000Y-91824000D02*
X122024000Y-91824000D01*
X120904000Y-87654000D02*
X120904000Y-88304000D01*
X120904000Y-93194000D02*
X120904000Y-92544000D01*
X119784000Y-88304000D02*
X119784000Y-92544000D01*
X122024000Y-88304000D02*
X119784000Y-88304000D01*
X122024000Y-92544000D02*
X122024000Y-88304000D01*
X119784000Y-92544000D02*
X122024000Y-92544000D01*
G04 #@! TO.C,D11*
X100734000Y-91944000D02*
X102974000Y-91944000D01*
X100734000Y-91704000D02*
X102974000Y-91704000D01*
X100734000Y-91824000D02*
X102974000Y-91824000D01*
X101854000Y-87654000D02*
X101854000Y-88304000D01*
X101854000Y-93194000D02*
X101854000Y-92544000D01*
X100734000Y-88304000D02*
X100734000Y-92544000D01*
X102974000Y-88304000D02*
X100734000Y-88304000D01*
X102974000Y-92544000D02*
X102974000Y-88304000D01*
X100734000Y-92544000D02*
X102974000Y-92544000D01*
G04 #@! TO.C,D10*
X157884000Y-73148000D02*
X160124000Y-73148000D01*
X157884000Y-72908000D02*
X160124000Y-72908000D01*
X157884000Y-73028000D02*
X160124000Y-73028000D01*
X159004000Y-68858000D02*
X159004000Y-69508000D01*
X159004000Y-74398000D02*
X159004000Y-73748000D01*
X157884000Y-69508000D02*
X157884000Y-73748000D01*
X160124000Y-69508000D02*
X157884000Y-69508000D01*
X160124000Y-73748000D02*
X160124000Y-69508000D01*
X157884000Y-73748000D02*
X160124000Y-73748000D01*
G04 #@! TO.C,D9*
X138834000Y-73148000D02*
X141074000Y-73148000D01*
X138834000Y-72908000D02*
X141074000Y-72908000D01*
X138834000Y-73028000D02*
X141074000Y-73028000D01*
X139954000Y-68858000D02*
X139954000Y-69508000D01*
X139954000Y-74398000D02*
X139954000Y-73748000D01*
X138834000Y-69508000D02*
X138834000Y-73748000D01*
X141074000Y-69508000D02*
X138834000Y-69508000D01*
X141074000Y-73748000D02*
X141074000Y-69508000D01*
X138834000Y-73748000D02*
X141074000Y-73748000D01*
G04 #@! TO.C,D8*
X119784000Y-73148000D02*
X122024000Y-73148000D01*
X119784000Y-72908000D02*
X122024000Y-72908000D01*
X119784000Y-73028000D02*
X122024000Y-73028000D01*
X120904000Y-68858000D02*
X120904000Y-69508000D01*
X120904000Y-74398000D02*
X120904000Y-73748000D01*
X119784000Y-69508000D02*
X119784000Y-73748000D01*
X122024000Y-69508000D02*
X119784000Y-69508000D01*
X122024000Y-73748000D02*
X122024000Y-69508000D01*
X119784000Y-73748000D02*
X122024000Y-73748000D01*
G04 #@! TO.C,D7*
X100734000Y-73148000D02*
X102974000Y-73148000D01*
X100734000Y-72908000D02*
X102974000Y-72908000D01*
X100734000Y-73028000D02*
X102974000Y-73028000D01*
X101854000Y-68858000D02*
X101854000Y-69508000D01*
X101854000Y-74398000D02*
X101854000Y-73748000D01*
X100734000Y-69508000D02*
X100734000Y-73748000D01*
X102974000Y-69508000D02*
X100734000Y-69508000D01*
X102974000Y-73748000D02*
X102974000Y-69508000D01*
X100734000Y-73748000D02*
X102974000Y-73748000D01*
G04 #@! TO.C,D6*
X157884000Y-53844000D02*
X160124000Y-53844000D01*
X157884000Y-53604000D02*
X160124000Y-53604000D01*
X157884000Y-53724000D02*
X160124000Y-53724000D01*
X159004000Y-49554000D02*
X159004000Y-50204000D01*
X159004000Y-55094000D02*
X159004000Y-54444000D01*
X157884000Y-50204000D02*
X157884000Y-54444000D01*
X160124000Y-50204000D02*
X157884000Y-50204000D01*
X160124000Y-54444000D02*
X160124000Y-50204000D01*
X157884000Y-54444000D02*
X160124000Y-54444000D01*
G04 #@! TO.C,D5*
X138834000Y-53844000D02*
X141074000Y-53844000D01*
X138834000Y-53604000D02*
X141074000Y-53604000D01*
X138834000Y-53724000D02*
X141074000Y-53724000D01*
X139954000Y-49554000D02*
X139954000Y-50204000D01*
X139954000Y-55094000D02*
X139954000Y-54444000D01*
X138834000Y-50204000D02*
X138834000Y-54444000D01*
X141074000Y-50204000D02*
X138834000Y-50204000D01*
X141074000Y-54444000D02*
X141074000Y-50204000D01*
X138834000Y-54444000D02*
X141074000Y-54444000D01*
G04 #@! TO.C,D4*
X119784000Y-53844000D02*
X122024000Y-53844000D01*
X119784000Y-53604000D02*
X122024000Y-53604000D01*
X119784000Y-53724000D02*
X122024000Y-53724000D01*
X120904000Y-49554000D02*
X120904000Y-50204000D01*
X120904000Y-55094000D02*
X120904000Y-54444000D01*
X119784000Y-50204000D02*
X119784000Y-54444000D01*
X122024000Y-50204000D02*
X119784000Y-50204000D01*
X122024000Y-54444000D02*
X122024000Y-50204000D01*
X119784000Y-54444000D02*
X122024000Y-54444000D01*
G04 #@! TO.C,D3*
X100734000Y-53844000D02*
X102974000Y-53844000D01*
X100734000Y-53604000D02*
X102974000Y-53604000D01*
X100734000Y-53724000D02*
X102974000Y-53724000D01*
X101854000Y-49554000D02*
X101854000Y-50204000D01*
X101854000Y-55094000D02*
X101854000Y-54444000D01*
X100734000Y-50204000D02*
X100734000Y-54444000D01*
X102974000Y-50204000D02*
X100734000Y-50204000D01*
X102974000Y-54444000D02*
X102974000Y-50204000D01*
X100734000Y-54444000D02*
X102974000Y-54444000D01*
G04 #@! TO.C,D2*
X92352000Y-70862000D02*
X94592000Y-70862000D01*
X92352000Y-70622000D02*
X94592000Y-70622000D01*
X92352000Y-70742000D02*
X94592000Y-70742000D01*
X93472000Y-66572000D02*
X93472000Y-67222000D01*
X93472000Y-72112000D02*
X93472000Y-71462000D01*
X92352000Y-67222000D02*
X92352000Y-71462000D01*
X94592000Y-67222000D02*
X92352000Y-67222000D01*
X94592000Y-71462000D02*
X94592000Y-67222000D01*
X92352000Y-71462000D02*
X94592000Y-71462000D01*
G04 #@! TO.C,D1*
X95654000Y-70862000D02*
X97894000Y-70862000D01*
X95654000Y-70622000D02*
X97894000Y-70622000D01*
X95654000Y-70742000D02*
X97894000Y-70742000D01*
X96774000Y-66572000D02*
X96774000Y-67222000D01*
X96774000Y-72112000D02*
X96774000Y-71462000D01*
X95654000Y-67222000D02*
X95654000Y-71462000D01*
X97894000Y-67222000D02*
X95654000Y-67222000D01*
X97894000Y-71462000D02*
X97894000Y-67222000D01*
X95654000Y-71462000D02*
X97894000Y-71462000D01*
G04 #@! TO.C,C5*
X87337000Y-125770000D02*
X87022000Y-125770000D01*
X89762000Y-125770000D02*
X89447000Y-125770000D01*
X87337000Y-120530000D02*
X87022000Y-120530000D01*
X89762000Y-120530000D02*
X89447000Y-120530000D01*
X87022000Y-120530000D02*
X87022000Y-125770000D01*
X89762000Y-120530000D02*
X89762000Y-125770000D01*
G04 #@! TO.C,C4*
X92163000Y-125770000D02*
X91848000Y-125770000D01*
X94588000Y-125770000D02*
X94273000Y-125770000D01*
X92163000Y-120530000D02*
X91848000Y-120530000D01*
X94588000Y-120530000D02*
X94273000Y-120530000D01*
X91848000Y-120530000D02*
X91848000Y-125770000D01*
X94588000Y-120530000D02*
X94588000Y-125770000D01*
G04 #@! TO.C,C3*
X96166000Y-90872000D02*
X98906000Y-90872000D01*
X96166000Y-96112000D02*
X98906000Y-96112000D01*
X98906000Y-96112000D02*
X98906000Y-90872000D01*
X96166000Y-96112000D02*
X96166000Y-90872000D01*
G04 #@! TO.C,C2*
X85698000Y-96072000D02*
X82958000Y-96072000D01*
X85698000Y-90832000D02*
X82958000Y-90832000D01*
X82958000Y-90832000D02*
X82958000Y-96072000D01*
X85698000Y-90832000D02*
X85698000Y-96072000D01*
G04 #@! TO.C,C1*
X89100199Y-54993000D02*
X89100199Y-55393000D01*
X88900199Y-55193000D02*
X89300199Y-55193000D01*
X93251000Y-56018000D02*
X93251000Y-56758000D01*
X93211000Y-55851000D02*
X93211000Y-56925000D01*
X93171000Y-55724000D02*
X93171000Y-57052000D01*
X93131000Y-55620000D02*
X93131000Y-57156000D01*
X93091000Y-55529000D02*
X93091000Y-57247000D01*
X93051000Y-55448000D02*
X93051000Y-57328000D01*
X93011000Y-55375000D02*
X93011000Y-57401000D01*
X92971000Y-57228000D02*
X92971000Y-57468000D01*
X92971000Y-55308000D02*
X92971000Y-55548000D01*
X92931000Y-57228000D02*
X92931000Y-57530000D01*
X92931000Y-55246000D02*
X92931000Y-55548000D01*
X92891000Y-57228000D02*
X92891000Y-57588000D01*
X92891000Y-55188000D02*
X92891000Y-55548000D01*
X92851000Y-57228000D02*
X92851000Y-57642000D01*
X92851000Y-55134000D02*
X92851000Y-55548000D01*
X92811000Y-57228000D02*
X92811000Y-57692000D01*
X92811000Y-55084000D02*
X92811000Y-55548000D01*
X92771000Y-57228000D02*
X92771000Y-57739000D01*
X92771000Y-55037000D02*
X92771000Y-55548000D01*
X92731000Y-57228000D02*
X92731000Y-57784000D01*
X92731000Y-54992000D02*
X92731000Y-55548000D01*
X92691000Y-57228000D02*
X92691000Y-57826000D01*
X92691000Y-54950000D02*
X92691000Y-55548000D01*
X92651000Y-57228000D02*
X92651000Y-57866000D01*
X92651000Y-54910000D02*
X92651000Y-55548000D01*
X92611000Y-57228000D02*
X92611000Y-57904000D01*
X92611000Y-54872000D02*
X92611000Y-55548000D01*
X92571000Y-57228000D02*
X92571000Y-57940000D01*
X92571000Y-54836000D02*
X92571000Y-55548000D01*
X92531000Y-57228000D02*
X92531000Y-57975000D01*
X92531000Y-54801000D02*
X92531000Y-55548000D01*
X92491000Y-57228000D02*
X92491000Y-58007000D01*
X92491000Y-54769000D02*
X92491000Y-55548000D01*
X92451000Y-57228000D02*
X92451000Y-58038000D01*
X92451000Y-54738000D02*
X92451000Y-55548000D01*
X92411000Y-57228000D02*
X92411000Y-58068000D01*
X92411000Y-54708000D02*
X92411000Y-55548000D01*
X92371000Y-57228000D02*
X92371000Y-58096000D01*
X92371000Y-54680000D02*
X92371000Y-55548000D01*
X92331000Y-57228000D02*
X92331000Y-58123000D01*
X92331000Y-54653000D02*
X92331000Y-55548000D01*
X92291000Y-57228000D02*
X92291000Y-58148000D01*
X92291000Y-54628000D02*
X92291000Y-55548000D01*
X92251000Y-57228000D02*
X92251000Y-58173000D01*
X92251000Y-54603000D02*
X92251000Y-55548000D01*
X92211000Y-57228000D02*
X92211000Y-58196000D01*
X92211000Y-54580000D02*
X92211000Y-55548000D01*
X92171000Y-57228000D02*
X92171000Y-58218000D01*
X92171000Y-54558000D02*
X92171000Y-55548000D01*
X92131000Y-57228000D02*
X92131000Y-58239000D01*
X92131000Y-54537000D02*
X92131000Y-55548000D01*
X92091000Y-57228000D02*
X92091000Y-58258000D01*
X92091000Y-54518000D02*
X92091000Y-55548000D01*
X92051000Y-57228000D02*
X92051000Y-58277000D01*
X92051000Y-54499000D02*
X92051000Y-55548000D01*
X92011000Y-57228000D02*
X92011000Y-58295000D01*
X92011000Y-54481000D02*
X92011000Y-55548000D01*
X91971000Y-57228000D02*
X91971000Y-58312000D01*
X91971000Y-54464000D02*
X91971000Y-55548000D01*
X91931000Y-57228000D02*
X91931000Y-58328000D01*
X91931000Y-54448000D02*
X91931000Y-55548000D01*
X91891000Y-57228000D02*
X91891000Y-58342000D01*
X91891000Y-54434000D02*
X91891000Y-55548000D01*
X91850000Y-57228000D02*
X91850000Y-58356000D01*
X91850000Y-54420000D02*
X91850000Y-55548000D01*
X91810000Y-57228000D02*
X91810000Y-58370000D01*
X91810000Y-54406000D02*
X91810000Y-55548000D01*
X91770000Y-57228000D02*
X91770000Y-58382000D01*
X91770000Y-54394000D02*
X91770000Y-55548000D01*
X91730000Y-57228000D02*
X91730000Y-58393000D01*
X91730000Y-54383000D02*
X91730000Y-55548000D01*
X91690000Y-57228000D02*
X91690000Y-58404000D01*
X91690000Y-54372000D02*
X91690000Y-55548000D01*
X91650000Y-57228000D02*
X91650000Y-58413000D01*
X91650000Y-54363000D02*
X91650000Y-55548000D01*
X91610000Y-57228000D02*
X91610000Y-58422000D01*
X91610000Y-54354000D02*
X91610000Y-55548000D01*
X91570000Y-57228000D02*
X91570000Y-58430000D01*
X91570000Y-54346000D02*
X91570000Y-55548000D01*
X91530000Y-57228000D02*
X91530000Y-58438000D01*
X91530000Y-54338000D02*
X91530000Y-55548000D01*
X91490000Y-57228000D02*
X91490000Y-58444000D01*
X91490000Y-54332000D02*
X91490000Y-55548000D01*
X91450000Y-57228000D02*
X91450000Y-58450000D01*
X91450000Y-54326000D02*
X91450000Y-55548000D01*
X91410000Y-57228000D02*
X91410000Y-58455000D01*
X91410000Y-54321000D02*
X91410000Y-55548000D01*
X91370000Y-57228000D02*
X91370000Y-58459000D01*
X91370000Y-54317000D02*
X91370000Y-55548000D01*
X91330000Y-54314000D02*
X91330000Y-58462000D01*
X91290000Y-54311000D02*
X91290000Y-58465000D01*
X91250000Y-54309000D02*
X91250000Y-58467000D01*
X91210000Y-54308000D02*
X91210000Y-58468000D01*
X91170000Y-54308000D02*
X91170000Y-58468000D01*
X93290000Y-56388000D02*
G75*
G03*
X93290000Y-56388000I-2120000J0D01*
G01*
G04 #@! TO.C,R6*
D12*
X91527333Y-126802380D02*
X91194000Y-126326190D01*
X90955904Y-126802380D02*
X90955904Y-125802380D01*
X91336857Y-125802380D01*
X91432095Y-125850000D01*
X91479714Y-125897619D01*
X91527333Y-125992857D01*
X91527333Y-126135714D01*
X91479714Y-126230952D01*
X91432095Y-126278571D01*
X91336857Y-126326190D01*
X90955904Y-126326190D01*
X92384476Y-125802380D02*
X92194000Y-125802380D01*
X92098761Y-125850000D01*
X92051142Y-125897619D01*
X91955904Y-126040476D01*
X91908285Y-126230952D01*
X91908285Y-126611904D01*
X91955904Y-126707142D01*
X92003523Y-126754761D01*
X92098761Y-126802380D01*
X92289238Y-126802380D01*
X92384476Y-126754761D01*
X92432095Y-126707142D01*
X92479714Y-126611904D01*
X92479714Y-126373809D01*
X92432095Y-126278571D01*
X92384476Y-126230952D01*
X92289238Y-126183333D01*
X92098761Y-126183333D01*
X92003523Y-126230952D01*
X91955904Y-126278571D01*
X91908285Y-126373809D01*
G04 #@! TO.C,R5*
X95956380Y-58840666D02*
X95480190Y-59174000D01*
X95956380Y-59412095D02*
X94956380Y-59412095D01*
X94956380Y-59031142D01*
X95004000Y-58935904D01*
X95051619Y-58888285D01*
X95146857Y-58840666D01*
X95289714Y-58840666D01*
X95384952Y-58888285D01*
X95432571Y-58935904D01*
X95480190Y-59031142D01*
X95480190Y-59412095D01*
X94956380Y-57935904D02*
X94956380Y-58412095D01*
X95432571Y-58459714D01*
X95384952Y-58412095D01*
X95337333Y-58316857D01*
X95337333Y-58078761D01*
X95384952Y-57983523D01*
X95432571Y-57935904D01*
X95527809Y-57888285D01*
X95765904Y-57888285D01*
X95861142Y-57935904D01*
X95908761Y-57983523D01*
X95956380Y-58078761D01*
X95956380Y-58316857D01*
X95908761Y-58412095D01*
X95861142Y-58459714D01*
G04 #@! TO.C,R4*
X98750380Y-58840666D02*
X98274190Y-59174000D01*
X98750380Y-59412095D02*
X97750380Y-59412095D01*
X97750380Y-59031142D01*
X97798000Y-58935904D01*
X97845619Y-58888285D01*
X97940857Y-58840666D01*
X98083714Y-58840666D01*
X98178952Y-58888285D01*
X98226571Y-58935904D01*
X98274190Y-59031142D01*
X98274190Y-59412095D01*
X98083714Y-57983523D02*
X98750380Y-57983523D01*
X97702761Y-58221619D02*
X98417047Y-58459714D01*
X98417047Y-57840666D01*
G04 #@! TO.C,R3*
X90876380Y-69508666D02*
X90400190Y-69842000D01*
X90876380Y-70080095D02*
X89876380Y-70080095D01*
X89876380Y-69699142D01*
X89924000Y-69603904D01*
X89971619Y-69556285D01*
X90066857Y-69508666D01*
X90209714Y-69508666D01*
X90304952Y-69556285D01*
X90352571Y-69603904D01*
X90400190Y-69699142D01*
X90400190Y-70080095D01*
X89876380Y-69175333D02*
X89876380Y-68556285D01*
X90257333Y-68889619D01*
X90257333Y-68746761D01*
X90304952Y-68651523D01*
X90352571Y-68603904D01*
X90447809Y-68556285D01*
X90685904Y-68556285D01*
X90781142Y-68603904D01*
X90828761Y-68651523D01*
X90876380Y-68746761D01*
X90876380Y-69032476D01*
X90828761Y-69127714D01*
X90781142Y-69175333D01*
G04 #@! TO.C,R2*
X88082380Y-69508666D02*
X87606190Y-69842000D01*
X88082380Y-70080095D02*
X87082380Y-70080095D01*
X87082380Y-69699142D01*
X87130000Y-69603904D01*
X87177619Y-69556285D01*
X87272857Y-69508666D01*
X87415714Y-69508666D01*
X87510952Y-69556285D01*
X87558571Y-69603904D01*
X87606190Y-69699142D01*
X87606190Y-70080095D01*
X87177619Y-69127714D02*
X87130000Y-69080095D01*
X87082380Y-68984857D01*
X87082380Y-68746761D01*
X87130000Y-68651523D01*
X87177619Y-68603904D01*
X87272857Y-68556285D01*
X87368095Y-68556285D01*
X87510952Y-68603904D01*
X88082380Y-69175333D01*
X88082380Y-68556285D01*
G04 #@! TO.C,R1*
X85288380Y-69508666D02*
X84812190Y-69842000D01*
X85288380Y-70080095D02*
X84288380Y-70080095D01*
X84288380Y-69699142D01*
X84336000Y-69603904D01*
X84383619Y-69556285D01*
X84478857Y-69508666D01*
X84621714Y-69508666D01*
X84716952Y-69556285D01*
X84764571Y-69603904D01*
X84812190Y-69699142D01*
X84812190Y-70080095D01*
X85288380Y-68556285D02*
X85288380Y-69127714D01*
X85288380Y-68842000D02*
X84288380Y-68842000D01*
X84431238Y-68937238D01*
X84526476Y-69032476D01*
X84574095Y-69127714D01*
G04 #@! TO.C,USB1*
X89338402Y-41495010D02*
X89338402Y-42304534D01*
X89386021Y-42399772D01*
X89433640Y-42447391D01*
X89528878Y-42495010D01*
X89719355Y-42495010D01*
X89814593Y-42447391D01*
X89862212Y-42399772D01*
X89909831Y-42304534D01*
X89909831Y-41495010D01*
X90338402Y-42447391D02*
X90481259Y-42495010D01*
X90719355Y-42495010D01*
X90814593Y-42447391D01*
X90862212Y-42399772D01*
X90909831Y-42304534D01*
X90909831Y-42209296D01*
X90862212Y-42114058D01*
X90814593Y-42066439D01*
X90719355Y-42018820D01*
X90528878Y-41971201D01*
X90433640Y-41923582D01*
X90386021Y-41875963D01*
X90338402Y-41780725D01*
X90338402Y-41685487D01*
X90386021Y-41590249D01*
X90433640Y-41542630D01*
X90528878Y-41495010D01*
X90766974Y-41495010D01*
X90909831Y-41542630D01*
X91671736Y-41971201D02*
X91814593Y-42018820D01*
X91862212Y-42066439D01*
X91909831Y-42161677D01*
X91909831Y-42304534D01*
X91862212Y-42399772D01*
X91814593Y-42447391D01*
X91719355Y-42495010D01*
X91338402Y-42495010D01*
X91338402Y-41495010D01*
X91671736Y-41495010D01*
X91766974Y-41542630D01*
X91814593Y-41590249D01*
X91862212Y-41685487D01*
X91862212Y-41780725D01*
X91814593Y-41875963D01*
X91766974Y-41923582D01*
X91671736Y-41971201D01*
X91338402Y-41971201D01*
X92862212Y-42495010D02*
X92290783Y-42495010D01*
X92576498Y-42495010D02*
X92576498Y-41495010D01*
X92481259Y-41637868D01*
X92386021Y-41733106D01*
X92290783Y-41780725D01*
G04 #@! TO.C,ISP1*
X88142619Y-142168380D02*
X88142619Y-141168380D01*
X88571190Y-142120761D02*
X88714047Y-142168380D01*
X88952142Y-142168380D01*
X89047380Y-142120761D01*
X89095000Y-142073142D01*
X89142619Y-141977904D01*
X89142619Y-141882666D01*
X89095000Y-141787428D01*
X89047380Y-141739809D01*
X88952142Y-141692190D01*
X88761666Y-141644571D01*
X88666428Y-141596952D01*
X88618809Y-141549333D01*
X88571190Y-141454095D01*
X88571190Y-141358857D01*
X88618809Y-141263619D01*
X88666428Y-141216000D01*
X88761666Y-141168380D01*
X88999761Y-141168380D01*
X89142619Y-141216000D01*
X89571190Y-142168380D02*
X89571190Y-141168380D01*
X89952142Y-141168380D01*
X90047380Y-141216000D01*
X90095000Y-141263619D01*
X90142619Y-141358857D01*
X90142619Y-141501714D01*
X90095000Y-141596952D01*
X90047380Y-141644571D01*
X89952142Y-141692190D01*
X89571190Y-141692190D01*
X91095000Y-142168380D02*
X90523571Y-142168380D01*
X90809285Y-142168380D02*
X90809285Y-141168380D01*
X90714047Y-141311238D01*
X90618809Y-141406476D01*
X90523571Y-141454095D01*
G04 #@! TO.C,D19*
X121356380Y-124404285D02*
X120356380Y-124404285D01*
X120356380Y-124166190D01*
X120404000Y-124023333D01*
X120499238Y-123928095D01*
X120594476Y-123880476D01*
X120784952Y-123832857D01*
X120927809Y-123832857D01*
X121118285Y-123880476D01*
X121213523Y-123928095D01*
X121308761Y-124023333D01*
X121356380Y-124166190D01*
X121356380Y-124404285D01*
X121356380Y-122880476D02*
X121356380Y-123451904D01*
X121356380Y-123166190D02*
X120356380Y-123166190D01*
X120499238Y-123261428D01*
X120594476Y-123356666D01*
X120642095Y-123451904D01*
X121356380Y-122404285D02*
X121356380Y-122213809D01*
X121308761Y-122118571D01*
X121261142Y-122070952D01*
X121118285Y-121975714D01*
X120927809Y-121928095D01*
X120546857Y-121928095D01*
X120451619Y-121975714D01*
X120404000Y-122023333D01*
X120356380Y-122118571D01*
X120356380Y-122309047D01*
X120404000Y-122404285D01*
X120451619Y-122451904D01*
X120546857Y-122499523D01*
X120784952Y-122499523D01*
X120880190Y-122451904D01*
X120927809Y-122404285D01*
X120975428Y-122309047D01*
X120975428Y-122118571D01*
X120927809Y-122023333D01*
X120880190Y-121975714D01*
X120784952Y-121928095D01*
G04 #@! TO.C,D23*
X159456380Y-143200285D02*
X158456380Y-143200285D01*
X158456380Y-142962190D01*
X158504000Y-142819333D01*
X158599238Y-142724095D01*
X158694476Y-142676476D01*
X158884952Y-142628857D01*
X159027809Y-142628857D01*
X159218285Y-142676476D01*
X159313523Y-142724095D01*
X159408761Y-142819333D01*
X159456380Y-142962190D01*
X159456380Y-143200285D01*
X158551619Y-142247904D02*
X158504000Y-142200285D01*
X158456380Y-142105047D01*
X158456380Y-141866952D01*
X158504000Y-141771714D01*
X158551619Y-141724095D01*
X158646857Y-141676476D01*
X158742095Y-141676476D01*
X158884952Y-141724095D01*
X159456380Y-142295523D01*
X159456380Y-141676476D01*
X158456380Y-141343142D02*
X158456380Y-140724095D01*
X158837333Y-141057428D01*
X158837333Y-140914571D01*
X158884952Y-140819333D01*
X158932571Y-140771714D01*
X159027809Y-140724095D01*
X159265904Y-140724095D01*
X159361142Y-140771714D01*
X159408761Y-140819333D01*
X159456380Y-140914571D01*
X159456380Y-141200285D01*
X159408761Y-141295523D01*
X159361142Y-141343142D01*
G04 #@! TO.C,D22*
X140406380Y-143200285D02*
X139406380Y-143200285D01*
X139406380Y-142962190D01*
X139454000Y-142819333D01*
X139549238Y-142724095D01*
X139644476Y-142676476D01*
X139834952Y-142628857D01*
X139977809Y-142628857D01*
X140168285Y-142676476D01*
X140263523Y-142724095D01*
X140358761Y-142819333D01*
X140406380Y-142962190D01*
X140406380Y-143200285D01*
X139501619Y-142247904D02*
X139454000Y-142200285D01*
X139406380Y-142105047D01*
X139406380Y-141866952D01*
X139454000Y-141771714D01*
X139501619Y-141724095D01*
X139596857Y-141676476D01*
X139692095Y-141676476D01*
X139834952Y-141724095D01*
X140406380Y-142295523D01*
X140406380Y-141676476D01*
X139501619Y-141295523D02*
X139454000Y-141247904D01*
X139406380Y-141152666D01*
X139406380Y-140914571D01*
X139454000Y-140819333D01*
X139501619Y-140771714D01*
X139596857Y-140724095D01*
X139692095Y-140724095D01*
X139834952Y-140771714D01*
X140406380Y-141343142D01*
X140406380Y-140724095D01*
G04 #@! TO.C,D21*
X102306380Y-145740285D02*
X101306380Y-145740285D01*
X101306380Y-145502190D01*
X101354000Y-145359333D01*
X101449238Y-145264095D01*
X101544476Y-145216476D01*
X101734952Y-145168857D01*
X101877809Y-145168857D01*
X102068285Y-145216476D01*
X102163523Y-145264095D01*
X102258761Y-145359333D01*
X102306380Y-145502190D01*
X102306380Y-145740285D01*
X101401619Y-144787904D02*
X101354000Y-144740285D01*
X101306380Y-144645047D01*
X101306380Y-144406952D01*
X101354000Y-144311714D01*
X101401619Y-144264095D01*
X101496857Y-144216476D01*
X101592095Y-144216476D01*
X101734952Y-144264095D01*
X102306380Y-144835523D01*
X102306380Y-144216476D01*
X102306380Y-143264095D02*
X102306380Y-143835523D01*
X102306380Y-143549809D02*
X101306380Y-143549809D01*
X101449238Y-143645047D01*
X101544476Y-143740285D01*
X101592095Y-143835523D01*
G04 #@! TO.C,D17*
X159456380Y-104846285D02*
X158456380Y-104846285D01*
X158456380Y-104608190D01*
X158504000Y-104465333D01*
X158599238Y-104370095D01*
X158694476Y-104322476D01*
X158884952Y-104274857D01*
X159027809Y-104274857D01*
X159218285Y-104322476D01*
X159313523Y-104370095D01*
X159408761Y-104465333D01*
X159456380Y-104608190D01*
X159456380Y-104846285D01*
X159456380Y-103322476D02*
X159456380Y-103893904D01*
X159456380Y-103608190D02*
X158456380Y-103608190D01*
X158599238Y-103703428D01*
X158694476Y-103798666D01*
X158742095Y-103893904D01*
X158456380Y-102989142D02*
X158456380Y-102322476D01*
X159456380Y-102751047D01*
G04 #@! TO.C,MCU1*
X89098666Y-93670380D02*
X89098666Y-92670380D01*
X89432000Y-93384666D01*
X89765333Y-92670380D01*
X89765333Y-93670380D01*
X90812952Y-93575142D02*
X90765333Y-93622761D01*
X90622476Y-93670380D01*
X90527238Y-93670380D01*
X90384380Y-93622761D01*
X90289142Y-93527523D01*
X90241523Y-93432285D01*
X90193904Y-93241809D01*
X90193904Y-93098952D01*
X90241523Y-92908476D01*
X90289142Y-92813238D01*
X90384380Y-92718000D01*
X90527238Y-92670380D01*
X90622476Y-92670380D01*
X90765333Y-92718000D01*
X90812952Y-92765619D01*
X91241523Y-92670380D02*
X91241523Y-93479904D01*
X91289142Y-93575142D01*
X91336761Y-93622761D01*
X91432000Y-93670380D01*
X91622476Y-93670380D01*
X91717714Y-93622761D01*
X91765333Y-93575142D01*
X91812952Y-93479904D01*
X91812952Y-92670380D01*
X92812952Y-93670380D02*
X92241523Y-93670380D01*
X92527238Y-93670380D02*
X92527238Y-92670380D01*
X92432000Y-92813238D01*
X92336761Y-92908476D01*
X92241523Y-92956095D01*
G04 #@! TO.C,XTAL1*
X88808190Y-112513380D02*
X89474857Y-113513380D01*
X89474857Y-112513380D02*
X88808190Y-113513380D01*
X89712952Y-112513380D02*
X90284380Y-112513380D01*
X89998666Y-113513380D02*
X89998666Y-112513380D01*
X90570095Y-113227666D02*
X91046285Y-113227666D01*
X90474857Y-113513380D02*
X90808190Y-112513380D01*
X91141523Y-113513380D01*
X91951047Y-113513380D02*
X91474857Y-113513380D01*
X91474857Y-112513380D01*
X92808190Y-113513380D02*
X92236761Y-113513380D01*
X92522476Y-113513380D02*
X92522476Y-112513380D01*
X92427238Y-112656238D01*
X92332000Y-112751476D01*
X92236761Y-112799095D01*
G04 #@! TO.C,BOOT*
X95416857Y-157662571D02*
X95559714Y-157710190D01*
X95607333Y-157757809D01*
X95654952Y-157853047D01*
X95654952Y-157995904D01*
X95607333Y-158091142D01*
X95559714Y-158138761D01*
X95464476Y-158186380D01*
X95083523Y-158186380D01*
X95083523Y-157186380D01*
X95416857Y-157186380D01*
X95512095Y-157234000D01*
X95559714Y-157281619D01*
X95607333Y-157376857D01*
X95607333Y-157472095D01*
X95559714Y-157567333D01*
X95512095Y-157614952D01*
X95416857Y-157662571D01*
X95083523Y-157662571D01*
X96274000Y-157186380D02*
X96464476Y-157186380D01*
X96559714Y-157234000D01*
X96654952Y-157329238D01*
X96702571Y-157519714D01*
X96702571Y-157853047D01*
X96654952Y-158043523D01*
X96559714Y-158138761D01*
X96464476Y-158186380D01*
X96274000Y-158186380D01*
X96178761Y-158138761D01*
X96083523Y-158043523D01*
X96035904Y-157853047D01*
X96035904Y-157519714D01*
X96083523Y-157329238D01*
X96178761Y-157234000D01*
X96274000Y-157186380D01*
X97321619Y-157186380D02*
X97512095Y-157186380D01*
X97607333Y-157234000D01*
X97702571Y-157329238D01*
X97750190Y-157519714D01*
X97750190Y-157853047D01*
X97702571Y-158043523D01*
X97607333Y-158138761D01*
X97512095Y-158186380D01*
X97321619Y-158186380D01*
X97226380Y-158138761D01*
X97131142Y-158043523D01*
X97083523Y-157853047D01*
X97083523Y-157519714D01*
X97131142Y-157329238D01*
X97226380Y-157234000D01*
X97321619Y-157186380D01*
X98035904Y-157186380D02*
X98607333Y-157186380D01*
X98321619Y-158186380D02*
X98321619Y-157186380D01*
G04 #@! TO.C,RESET*
X85161619Y-158186380D02*
X84828285Y-157710190D01*
X84590190Y-158186380D02*
X84590190Y-157186380D01*
X84971142Y-157186380D01*
X85066380Y-157234000D01*
X85114000Y-157281619D01*
X85161619Y-157376857D01*
X85161619Y-157519714D01*
X85114000Y-157614952D01*
X85066380Y-157662571D01*
X84971142Y-157710190D01*
X84590190Y-157710190D01*
X85590190Y-157662571D02*
X85923523Y-157662571D01*
X86066380Y-158186380D02*
X85590190Y-158186380D01*
X85590190Y-157186380D01*
X86066380Y-157186380D01*
X86447333Y-158138761D02*
X86590190Y-158186380D01*
X86828285Y-158186380D01*
X86923523Y-158138761D01*
X86971142Y-158091142D01*
X87018761Y-157995904D01*
X87018761Y-157900666D01*
X86971142Y-157805428D01*
X86923523Y-157757809D01*
X86828285Y-157710190D01*
X86637809Y-157662571D01*
X86542571Y-157614952D01*
X86494952Y-157567333D01*
X86447333Y-157472095D01*
X86447333Y-157376857D01*
X86494952Y-157281619D01*
X86542571Y-157234000D01*
X86637809Y-157186380D01*
X86875904Y-157186380D01*
X87018761Y-157234000D01*
X87447333Y-157662571D02*
X87780666Y-157662571D01*
X87923523Y-158186380D02*
X87447333Y-158186380D01*
X87447333Y-157186380D01*
X87923523Y-157186380D01*
X88209238Y-157186380D02*
X88780666Y-157186380D01*
X88494952Y-158186380D02*
X88494952Y-157186380D01*
G04 #@! TO.C,F1*
X85272571Y-58643333D02*
X85272571Y-58976666D01*
X85796380Y-58976666D02*
X84796380Y-58976666D01*
X84796380Y-58500476D01*
X85796380Y-57595714D02*
X85796380Y-58167142D01*
X85796380Y-57881428D02*
X84796380Y-57881428D01*
X84939238Y-57976666D01*
X85034476Y-58071904D01*
X85082095Y-58167142D01*
G04 #@! TO.C,D20*
X140406380Y-124404285D02*
X139406380Y-124404285D01*
X139406380Y-124166190D01*
X139454000Y-124023333D01*
X139549238Y-123928095D01*
X139644476Y-123880476D01*
X139834952Y-123832857D01*
X139977809Y-123832857D01*
X140168285Y-123880476D01*
X140263523Y-123928095D01*
X140358761Y-124023333D01*
X140406380Y-124166190D01*
X140406380Y-124404285D01*
X139501619Y-123451904D02*
X139454000Y-123404285D01*
X139406380Y-123309047D01*
X139406380Y-123070952D01*
X139454000Y-122975714D01*
X139501619Y-122928095D01*
X139596857Y-122880476D01*
X139692095Y-122880476D01*
X139834952Y-122928095D01*
X140406380Y-123499523D01*
X140406380Y-122880476D01*
X139406380Y-122261428D02*
X139406380Y-122166190D01*
X139454000Y-122070952D01*
X139501619Y-122023333D01*
X139596857Y-121975714D01*
X139787333Y-121928095D01*
X140025428Y-121928095D01*
X140215904Y-121975714D01*
X140311142Y-122023333D01*
X140358761Y-122070952D01*
X140406380Y-122166190D01*
X140406380Y-122261428D01*
X140358761Y-122356666D01*
X140311142Y-122404285D01*
X140215904Y-122451904D01*
X140025428Y-122499523D01*
X139787333Y-122499523D01*
X139596857Y-122451904D01*
X139501619Y-122404285D01*
X139454000Y-122356666D01*
X139406380Y-122261428D01*
G04 #@! TO.C,D18*
X102306380Y-124150285D02*
X101306380Y-124150285D01*
X101306380Y-123912190D01*
X101354000Y-123769333D01*
X101449238Y-123674095D01*
X101544476Y-123626476D01*
X101734952Y-123578857D01*
X101877809Y-123578857D01*
X102068285Y-123626476D01*
X102163523Y-123674095D01*
X102258761Y-123769333D01*
X102306380Y-123912190D01*
X102306380Y-124150285D01*
X102306380Y-122626476D02*
X102306380Y-123197904D01*
X102306380Y-122912190D02*
X101306380Y-122912190D01*
X101449238Y-123007428D01*
X101544476Y-123102666D01*
X101592095Y-123197904D01*
X101734952Y-122055047D02*
X101687333Y-122150285D01*
X101639714Y-122197904D01*
X101544476Y-122245523D01*
X101496857Y-122245523D01*
X101401619Y-122197904D01*
X101354000Y-122150285D01*
X101306380Y-122055047D01*
X101306380Y-121864571D01*
X101354000Y-121769333D01*
X101401619Y-121721714D01*
X101496857Y-121674095D01*
X101544476Y-121674095D01*
X101639714Y-121721714D01*
X101687333Y-121769333D01*
X101734952Y-121864571D01*
X101734952Y-122055047D01*
X101782571Y-122150285D01*
X101830190Y-122197904D01*
X101925428Y-122245523D01*
X102115904Y-122245523D01*
X102211142Y-122197904D01*
X102258761Y-122150285D01*
X102306380Y-122055047D01*
X102306380Y-121864571D01*
X102258761Y-121769333D01*
X102211142Y-121721714D01*
X102115904Y-121674095D01*
X101925428Y-121674095D01*
X101830190Y-121721714D01*
X101782571Y-121769333D01*
X101734952Y-121864571D01*
G04 #@! TO.C,D16*
X140406380Y-110434285D02*
X139406380Y-110434285D01*
X139406380Y-110196190D01*
X139454000Y-110053333D01*
X139549238Y-109958095D01*
X139644476Y-109910476D01*
X139834952Y-109862857D01*
X139977809Y-109862857D01*
X140168285Y-109910476D01*
X140263523Y-109958095D01*
X140358761Y-110053333D01*
X140406380Y-110196190D01*
X140406380Y-110434285D01*
X140406380Y-108910476D02*
X140406380Y-109481904D01*
X140406380Y-109196190D02*
X139406380Y-109196190D01*
X139549238Y-109291428D01*
X139644476Y-109386666D01*
X139692095Y-109481904D01*
X139406380Y-108053333D02*
X139406380Y-108243809D01*
X139454000Y-108339047D01*
X139501619Y-108386666D01*
X139644476Y-108481904D01*
X139834952Y-108529523D01*
X140215904Y-108529523D01*
X140311142Y-108481904D01*
X140358761Y-108434285D01*
X140406380Y-108339047D01*
X140406380Y-108148571D01*
X140358761Y-108053333D01*
X140311142Y-108005714D01*
X140215904Y-107958095D01*
X139977809Y-107958095D01*
X139882571Y-108005714D01*
X139834952Y-108053333D01*
X139787333Y-108148571D01*
X139787333Y-108339047D01*
X139834952Y-108434285D01*
X139882571Y-108481904D01*
X139977809Y-108529523D01*
G04 #@! TO.C,D15*
X121356380Y-110434285D02*
X120356380Y-110434285D01*
X120356380Y-110196190D01*
X120404000Y-110053333D01*
X120499238Y-109958095D01*
X120594476Y-109910476D01*
X120784952Y-109862857D01*
X120927809Y-109862857D01*
X121118285Y-109910476D01*
X121213523Y-109958095D01*
X121308761Y-110053333D01*
X121356380Y-110196190D01*
X121356380Y-110434285D01*
X121356380Y-108910476D02*
X121356380Y-109481904D01*
X121356380Y-109196190D02*
X120356380Y-109196190D01*
X120499238Y-109291428D01*
X120594476Y-109386666D01*
X120642095Y-109481904D01*
X120356380Y-108005714D02*
X120356380Y-108481904D01*
X120832571Y-108529523D01*
X120784952Y-108481904D01*
X120737333Y-108386666D01*
X120737333Y-108148571D01*
X120784952Y-108053333D01*
X120832571Y-108005714D01*
X120927809Y-107958095D01*
X121165904Y-107958095D01*
X121261142Y-108005714D01*
X121308761Y-108053333D01*
X121356380Y-108148571D01*
X121356380Y-108386666D01*
X121308761Y-108481904D01*
X121261142Y-108529523D01*
G04 #@! TO.C,D14*
X102306380Y-110434285D02*
X101306380Y-110434285D01*
X101306380Y-110196190D01*
X101354000Y-110053333D01*
X101449238Y-109958095D01*
X101544476Y-109910476D01*
X101734952Y-109862857D01*
X101877809Y-109862857D01*
X102068285Y-109910476D01*
X102163523Y-109958095D01*
X102258761Y-110053333D01*
X102306380Y-110196190D01*
X102306380Y-110434285D01*
X102306380Y-108910476D02*
X102306380Y-109481904D01*
X102306380Y-109196190D02*
X101306380Y-109196190D01*
X101449238Y-109291428D01*
X101544476Y-109386666D01*
X101592095Y-109481904D01*
X101639714Y-108053333D02*
X102306380Y-108053333D01*
X101258761Y-108291428D02*
X101973047Y-108529523D01*
X101973047Y-107910476D01*
G04 #@! TO.C,D13*
X140406380Y-91384285D02*
X139406380Y-91384285D01*
X139406380Y-91146190D01*
X139454000Y-91003333D01*
X139549238Y-90908095D01*
X139644476Y-90860476D01*
X139834952Y-90812857D01*
X139977809Y-90812857D01*
X140168285Y-90860476D01*
X140263523Y-90908095D01*
X140358761Y-91003333D01*
X140406380Y-91146190D01*
X140406380Y-91384285D01*
X140406380Y-89860476D02*
X140406380Y-90431904D01*
X140406380Y-90146190D02*
X139406380Y-90146190D01*
X139549238Y-90241428D01*
X139644476Y-90336666D01*
X139692095Y-90431904D01*
X139406380Y-89527142D02*
X139406380Y-88908095D01*
X139787333Y-89241428D01*
X139787333Y-89098571D01*
X139834952Y-89003333D01*
X139882571Y-88955714D01*
X139977809Y-88908095D01*
X140215904Y-88908095D01*
X140311142Y-88955714D01*
X140358761Y-89003333D01*
X140406380Y-89098571D01*
X140406380Y-89384285D01*
X140358761Y-89479523D01*
X140311142Y-89527142D01*
G04 #@! TO.C,D12*
X121356380Y-91384285D02*
X120356380Y-91384285D01*
X120356380Y-91146190D01*
X120404000Y-91003333D01*
X120499238Y-90908095D01*
X120594476Y-90860476D01*
X120784952Y-90812857D01*
X120927809Y-90812857D01*
X121118285Y-90860476D01*
X121213523Y-90908095D01*
X121308761Y-91003333D01*
X121356380Y-91146190D01*
X121356380Y-91384285D01*
X121356380Y-89860476D02*
X121356380Y-90431904D01*
X121356380Y-90146190D02*
X120356380Y-90146190D01*
X120499238Y-90241428D01*
X120594476Y-90336666D01*
X120642095Y-90431904D01*
X120451619Y-89479523D02*
X120404000Y-89431904D01*
X120356380Y-89336666D01*
X120356380Y-89098571D01*
X120404000Y-89003333D01*
X120451619Y-88955714D01*
X120546857Y-88908095D01*
X120642095Y-88908095D01*
X120784952Y-88955714D01*
X121356380Y-89527142D01*
X121356380Y-88908095D01*
G04 #@! TO.C,D11*
X102306380Y-91384285D02*
X101306380Y-91384285D01*
X101306380Y-91146190D01*
X101354000Y-91003333D01*
X101449238Y-90908095D01*
X101544476Y-90860476D01*
X101734952Y-90812857D01*
X101877809Y-90812857D01*
X102068285Y-90860476D01*
X102163523Y-90908095D01*
X102258761Y-91003333D01*
X102306380Y-91146190D01*
X102306380Y-91384285D01*
X102306380Y-89860476D02*
X102306380Y-90431904D01*
X102306380Y-90146190D02*
X101306380Y-90146190D01*
X101449238Y-90241428D01*
X101544476Y-90336666D01*
X101592095Y-90431904D01*
X102306380Y-88908095D02*
X102306380Y-89479523D01*
X102306380Y-89193809D02*
X101306380Y-89193809D01*
X101449238Y-89289047D01*
X101544476Y-89384285D01*
X101592095Y-89479523D01*
G04 #@! TO.C,D10*
X159456380Y-72588285D02*
X158456380Y-72588285D01*
X158456380Y-72350190D01*
X158504000Y-72207333D01*
X158599238Y-72112095D01*
X158694476Y-72064476D01*
X158884952Y-72016857D01*
X159027809Y-72016857D01*
X159218285Y-72064476D01*
X159313523Y-72112095D01*
X159408761Y-72207333D01*
X159456380Y-72350190D01*
X159456380Y-72588285D01*
X159456380Y-71064476D02*
X159456380Y-71635904D01*
X159456380Y-71350190D02*
X158456380Y-71350190D01*
X158599238Y-71445428D01*
X158694476Y-71540666D01*
X158742095Y-71635904D01*
X158456380Y-70445428D02*
X158456380Y-70350190D01*
X158504000Y-70254952D01*
X158551619Y-70207333D01*
X158646857Y-70159714D01*
X158837333Y-70112095D01*
X159075428Y-70112095D01*
X159265904Y-70159714D01*
X159361142Y-70207333D01*
X159408761Y-70254952D01*
X159456380Y-70350190D01*
X159456380Y-70445428D01*
X159408761Y-70540666D01*
X159361142Y-70588285D01*
X159265904Y-70635904D01*
X159075428Y-70683523D01*
X158837333Y-70683523D01*
X158646857Y-70635904D01*
X158551619Y-70588285D01*
X158504000Y-70540666D01*
X158456380Y-70445428D01*
G04 #@! TO.C,D9*
X140406380Y-72112095D02*
X139406380Y-72112095D01*
X139406380Y-71874000D01*
X139454000Y-71731142D01*
X139549238Y-71635904D01*
X139644476Y-71588285D01*
X139834952Y-71540666D01*
X139977809Y-71540666D01*
X140168285Y-71588285D01*
X140263523Y-71635904D01*
X140358761Y-71731142D01*
X140406380Y-71874000D01*
X140406380Y-72112095D01*
X140406380Y-71064476D02*
X140406380Y-70874000D01*
X140358761Y-70778761D01*
X140311142Y-70731142D01*
X140168285Y-70635904D01*
X139977809Y-70588285D01*
X139596857Y-70588285D01*
X139501619Y-70635904D01*
X139454000Y-70683523D01*
X139406380Y-70778761D01*
X139406380Y-70969238D01*
X139454000Y-71064476D01*
X139501619Y-71112095D01*
X139596857Y-71159714D01*
X139834952Y-71159714D01*
X139930190Y-71112095D01*
X139977809Y-71064476D01*
X140025428Y-70969238D01*
X140025428Y-70778761D01*
X139977809Y-70683523D01*
X139930190Y-70635904D01*
X139834952Y-70588285D01*
G04 #@! TO.C,D8*
X121356380Y-72366095D02*
X120356380Y-72366095D01*
X120356380Y-72128000D01*
X120404000Y-71985142D01*
X120499238Y-71889904D01*
X120594476Y-71842285D01*
X120784952Y-71794666D01*
X120927809Y-71794666D01*
X121118285Y-71842285D01*
X121213523Y-71889904D01*
X121308761Y-71985142D01*
X121356380Y-72128000D01*
X121356380Y-72366095D01*
X120784952Y-71223238D02*
X120737333Y-71318476D01*
X120689714Y-71366095D01*
X120594476Y-71413714D01*
X120546857Y-71413714D01*
X120451619Y-71366095D01*
X120404000Y-71318476D01*
X120356380Y-71223238D01*
X120356380Y-71032761D01*
X120404000Y-70937523D01*
X120451619Y-70889904D01*
X120546857Y-70842285D01*
X120594476Y-70842285D01*
X120689714Y-70889904D01*
X120737333Y-70937523D01*
X120784952Y-71032761D01*
X120784952Y-71223238D01*
X120832571Y-71318476D01*
X120880190Y-71366095D01*
X120975428Y-71413714D01*
X121165904Y-71413714D01*
X121261142Y-71366095D01*
X121308761Y-71318476D01*
X121356380Y-71223238D01*
X121356380Y-71032761D01*
X121308761Y-70937523D01*
X121261142Y-70889904D01*
X121165904Y-70842285D01*
X120975428Y-70842285D01*
X120880190Y-70889904D01*
X120832571Y-70937523D01*
X120784952Y-71032761D01*
G04 #@! TO.C,D7*
X102306380Y-72366095D02*
X101306380Y-72366095D01*
X101306380Y-72128000D01*
X101354000Y-71985142D01*
X101449238Y-71889904D01*
X101544476Y-71842285D01*
X101734952Y-71794666D01*
X101877809Y-71794666D01*
X102068285Y-71842285D01*
X102163523Y-71889904D01*
X102258761Y-71985142D01*
X102306380Y-72128000D01*
X102306380Y-72366095D01*
X101306380Y-71461333D02*
X101306380Y-70794666D01*
X102306380Y-71223238D01*
G04 #@! TO.C,D6*
X159456380Y-53062095D02*
X158456380Y-53062095D01*
X158456380Y-52824000D01*
X158504000Y-52681142D01*
X158599238Y-52585904D01*
X158694476Y-52538285D01*
X158884952Y-52490666D01*
X159027809Y-52490666D01*
X159218285Y-52538285D01*
X159313523Y-52585904D01*
X159408761Y-52681142D01*
X159456380Y-52824000D01*
X159456380Y-53062095D01*
X158456380Y-51633523D02*
X158456380Y-51824000D01*
X158504000Y-51919238D01*
X158551619Y-51966857D01*
X158694476Y-52062095D01*
X158884952Y-52109714D01*
X159265904Y-52109714D01*
X159361142Y-52062095D01*
X159408761Y-52014476D01*
X159456380Y-51919238D01*
X159456380Y-51728761D01*
X159408761Y-51633523D01*
X159361142Y-51585904D01*
X159265904Y-51538285D01*
X159027809Y-51538285D01*
X158932571Y-51585904D01*
X158884952Y-51633523D01*
X158837333Y-51728761D01*
X158837333Y-51919238D01*
X158884952Y-52014476D01*
X158932571Y-52062095D01*
X159027809Y-52109714D01*
G04 #@! TO.C,D5*
X140406380Y-53062095D02*
X139406380Y-53062095D01*
X139406380Y-52824000D01*
X139454000Y-52681142D01*
X139549238Y-52585904D01*
X139644476Y-52538285D01*
X139834952Y-52490666D01*
X139977809Y-52490666D01*
X140168285Y-52538285D01*
X140263523Y-52585904D01*
X140358761Y-52681142D01*
X140406380Y-52824000D01*
X140406380Y-53062095D01*
X139406380Y-51585904D02*
X139406380Y-52062095D01*
X139882571Y-52109714D01*
X139834952Y-52062095D01*
X139787333Y-51966857D01*
X139787333Y-51728761D01*
X139834952Y-51633523D01*
X139882571Y-51585904D01*
X139977809Y-51538285D01*
X140215904Y-51538285D01*
X140311142Y-51585904D01*
X140358761Y-51633523D01*
X140406380Y-51728761D01*
X140406380Y-51966857D01*
X140358761Y-52062095D01*
X140311142Y-52109714D01*
G04 #@! TO.C,D4*
X121356380Y-53062095D02*
X120356380Y-53062095D01*
X120356380Y-52824000D01*
X120404000Y-52681142D01*
X120499238Y-52585904D01*
X120594476Y-52538285D01*
X120784952Y-52490666D01*
X120927809Y-52490666D01*
X121118285Y-52538285D01*
X121213523Y-52585904D01*
X121308761Y-52681142D01*
X121356380Y-52824000D01*
X121356380Y-53062095D01*
X120689714Y-51633523D02*
X121356380Y-51633523D01*
X120308761Y-51871619D02*
X121023047Y-52109714D01*
X121023047Y-51490666D01*
G04 #@! TO.C,D3*
X102306380Y-53062095D02*
X101306380Y-53062095D01*
X101306380Y-52824000D01*
X101354000Y-52681142D01*
X101449238Y-52585904D01*
X101544476Y-52538285D01*
X101734952Y-52490666D01*
X101877809Y-52490666D01*
X102068285Y-52538285D01*
X102163523Y-52585904D01*
X102258761Y-52681142D01*
X102306380Y-52824000D01*
X102306380Y-53062095D01*
X101306380Y-52157333D02*
X101306380Y-51538285D01*
X101687333Y-51871619D01*
X101687333Y-51728761D01*
X101734952Y-51633523D01*
X101782571Y-51585904D01*
X101877809Y-51538285D01*
X102115904Y-51538285D01*
X102211142Y-51585904D01*
X102258761Y-51633523D01*
X102306380Y-51728761D01*
X102306380Y-52014476D01*
X102258761Y-52109714D01*
X102211142Y-52157333D01*
G04 #@! TO.C,D2*
X93924380Y-70080095D02*
X92924380Y-70080095D01*
X92924380Y-69842000D01*
X92972000Y-69699142D01*
X93067238Y-69603904D01*
X93162476Y-69556285D01*
X93352952Y-69508666D01*
X93495809Y-69508666D01*
X93686285Y-69556285D01*
X93781523Y-69603904D01*
X93876761Y-69699142D01*
X93924380Y-69842000D01*
X93924380Y-70080095D01*
X93019619Y-69127714D02*
X92972000Y-69080095D01*
X92924380Y-68984857D01*
X92924380Y-68746761D01*
X92972000Y-68651523D01*
X93019619Y-68603904D01*
X93114857Y-68556285D01*
X93210095Y-68556285D01*
X93352952Y-68603904D01*
X93924380Y-69175333D01*
X93924380Y-68556285D01*
G04 #@! TO.C,D1*
X97226380Y-70080095D02*
X96226380Y-70080095D01*
X96226380Y-69842000D01*
X96274000Y-69699142D01*
X96369238Y-69603904D01*
X96464476Y-69556285D01*
X96654952Y-69508666D01*
X96797809Y-69508666D01*
X96988285Y-69556285D01*
X97083523Y-69603904D01*
X97178761Y-69699142D01*
X97226380Y-69842000D01*
X97226380Y-70080095D01*
X97226380Y-68556285D02*
X97226380Y-69127714D01*
X97226380Y-68842000D02*
X96226380Y-68842000D01*
X96369238Y-68937238D01*
X96464476Y-69032476D01*
X96512095Y-69127714D01*
G04 #@! TO.C,C5*
X88749142Y-123316666D02*
X88796761Y-123364285D01*
X88844380Y-123507142D01*
X88844380Y-123602380D01*
X88796761Y-123745238D01*
X88701523Y-123840476D01*
X88606285Y-123888095D01*
X88415809Y-123935714D01*
X88272952Y-123935714D01*
X88082476Y-123888095D01*
X87987238Y-123840476D01*
X87892000Y-123745238D01*
X87844380Y-123602380D01*
X87844380Y-123507142D01*
X87892000Y-123364285D01*
X87939619Y-123316666D01*
X87844380Y-122411904D02*
X87844380Y-122888095D01*
X88320571Y-122935714D01*
X88272952Y-122888095D01*
X88225333Y-122792857D01*
X88225333Y-122554761D01*
X88272952Y-122459523D01*
X88320571Y-122411904D01*
X88415809Y-122364285D01*
X88653904Y-122364285D01*
X88749142Y-122411904D01*
X88796761Y-122459523D01*
X88844380Y-122554761D01*
X88844380Y-122792857D01*
X88796761Y-122888095D01*
X88749142Y-122935714D01*
G04 #@! TO.C,C4*
X93575142Y-123316666D02*
X93622761Y-123364285D01*
X93670380Y-123507142D01*
X93670380Y-123602380D01*
X93622761Y-123745238D01*
X93527523Y-123840476D01*
X93432285Y-123888095D01*
X93241809Y-123935714D01*
X93098952Y-123935714D01*
X92908476Y-123888095D01*
X92813238Y-123840476D01*
X92718000Y-123745238D01*
X92670380Y-123602380D01*
X92670380Y-123507142D01*
X92718000Y-123364285D01*
X92765619Y-123316666D01*
X93003714Y-122459523D02*
X93670380Y-122459523D01*
X92622761Y-122697619D02*
X93337047Y-122935714D01*
X93337047Y-122316666D01*
G04 #@! TO.C,C3*
X100052142Y-93638666D02*
X100099761Y-93686285D01*
X100147380Y-93829142D01*
X100147380Y-93924380D01*
X100099761Y-94067238D01*
X100004523Y-94162476D01*
X99909285Y-94210095D01*
X99718809Y-94257714D01*
X99575952Y-94257714D01*
X99385476Y-94210095D01*
X99290238Y-94162476D01*
X99195000Y-94067238D01*
X99147380Y-93924380D01*
X99147380Y-93829142D01*
X99195000Y-93686285D01*
X99242619Y-93638666D01*
X99147380Y-93305333D02*
X99147380Y-92686285D01*
X99528333Y-93019619D01*
X99528333Y-92876761D01*
X99575952Y-92781523D01*
X99623571Y-92733904D01*
X99718809Y-92686285D01*
X99956904Y-92686285D01*
X100052142Y-92733904D01*
X100099761Y-92781523D01*
X100147380Y-92876761D01*
X100147380Y-93162476D01*
X100099761Y-93257714D01*
X100052142Y-93305333D01*
G04 #@! TO.C,C2*
X82653142Y-93618666D02*
X82700761Y-93666285D01*
X82748380Y-93809142D01*
X82748380Y-93904380D01*
X82700761Y-94047238D01*
X82605523Y-94142476D01*
X82510285Y-94190095D01*
X82319809Y-94237714D01*
X82176952Y-94237714D01*
X81986476Y-94190095D01*
X81891238Y-94142476D01*
X81796000Y-94047238D01*
X81748380Y-93904380D01*
X81748380Y-93809142D01*
X81796000Y-93666285D01*
X81843619Y-93618666D01*
X81843619Y-93237714D02*
X81796000Y-93190095D01*
X81748380Y-93094857D01*
X81748380Y-92856761D01*
X81796000Y-92761523D01*
X81843619Y-92713904D01*
X81938857Y-92666285D01*
X82034095Y-92666285D01*
X82176952Y-92713904D01*
X82748380Y-93285333D01*
X82748380Y-92666285D01*
G04 #@! TO.C,C1*
X91003333Y-53495142D02*
X90955714Y-53542761D01*
X90812857Y-53590380D01*
X90717619Y-53590380D01*
X90574761Y-53542761D01*
X90479523Y-53447523D01*
X90431904Y-53352285D01*
X90384285Y-53161809D01*
X90384285Y-53018952D01*
X90431904Y-52828476D01*
X90479523Y-52733238D01*
X90574761Y-52638000D01*
X90717619Y-52590380D01*
X90812857Y-52590380D01*
X90955714Y-52638000D01*
X91003333Y-52685619D01*
X91955714Y-53590380D02*
X91384285Y-53590380D01*
X91670000Y-53590380D02*
X91670000Y-52590380D01*
X91574761Y-52733238D01*
X91479523Y-52828476D01*
X91384285Y-52876095D01*
G04 #@! TD*
%LPC*%
D13*
G04 #@! TO.C,REF\u002A\u002A*
X91186000Y-61722000D03*
G04 #@! TD*
G04 #@! TO.C,REF\u002A\u002A*
X91186000Y-146812000D03*
G04 #@! TD*
D14*
G04 #@! TO.C,R6*
X95504000Y-128270000D03*
D15*
X87884000Y-128270000D03*
G04 #@! TD*
D14*
G04 #@! TO.C,R5*
X95377000Y-54864000D03*
D15*
X95377000Y-62484000D03*
G04 #@! TD*
D14*
G04 #@! TO.C,R4*
X98171000Y-54864000D03*
D15*
X98171000Y-62484000D03*
G04 #@! TD*
D14*
G04 #@! TO.C,R3*
X90424000Y-65532000D03*
D15*
X90424000Y-73152000D03*
G04 #@! TD*
D14*
G04 #@! TO.C,R2*
X87630000Y-65532000D03*
D15*
X87630000Y-73152000D03*
G04 #@! TD*
D14*
G04 #@! TO.C,R1*
X84836000Y-65532000D03*
D15*
X84836000Y-73152000D03*
G04 #@! TD*
D13*
G04 #@! TO.C,REF\u002A\u002A*
X101854000Y-133350000D03*
G04 #@! TD*
G04 #@! TO.C,REF\u002A\u002A*
X159004000Y-133350000D03*
G04 #@! TD*
G04 #@! TO.C,REF\u002A\u002A*
X101854000Y-62103000D03*
G04 #@! TD*
G04 #@! TO.C,REF\u002A\u002A*
X159004000Y-62103000D03*
G04 #@! TD*
D16*
G04 #@! TO.C,USB1*
X92334000Y-49280000D03*
X94034000Y-49280000D03*
X93184000Y-49280000D03*
X91484000Y-49280000D03*
X90634000Y-49280000D03*
X89784000Y-49280000D03*
X88934000Y-49280000D03*
X88084000Y-49280000D03*
X94034000Y-47955000D03*
X93179000Y-47955000D03*
X92329000Y-47955000D03*
X91479000Y-47955000D03*
X90629000Y-47955000D03*
X89779000Y-47955000D03*
X88929000Y-47955000D03*
X88079000Y-47955000D03*
D17*
X95384000Y-48300000D03*
X86734000Y-48300000D03*
D18*
X95384000Y-44920000D03*
X86734000Y-44920000D03*
G04 #@! TD*
D19*
G04 #@! TO.C,ISP1*
X92710000Y-134366000D03*
X95250000Y-134366000D03*
X92710000Y-136906000D03*
X95250000Y-136906000D03*
X92710000Y-139446000D03*
D20*
X95250000Y-139446000D03*
G04 #@! TD*
D21*
G04 #@! TO.C,D19*
X120904000Y-126492000D03*
D22*
X120904000Y-118872000D03*
G04 #@! TD*
D23*
G04 #@! TO.C,MX16*
X113919000Y-123698000D03*
D24*
X111379000Y-128778000D03*
D23*
X107569000Y-126238000D03*
D25*
X106299000Y-128778000D03*
X116459000Y-128778000D03*
G04 #@! TD*
D23*
G04 #@! TO.C,MX20*
X152019000Y-142748000D03*
D24*
X149479000Y-147828000D03*
D23*
X145669000Y-145288000D03*
D25*
X144399000Y-147828000D03*
X154559000Y-147828000D03*
G04 #@! TD*
D23*
G04 #@! TO.C,MX19*
X123444000Y-142748000D03*
D24*
X120904000Y-147828000D03*
D23*
X117094000Y-145288000D03*
D25*
X115824000Y-147828000D03*
X125984000Y-147828000D03*
D26*
X108997750Y-140843000D03*
X132810250Y-140843000D03*
D24*
X108997750Y-156083000D03*
X132810250Y-156083000D03*
G04 #@! TD*
D23*
G04 #@! TO.C,MX18*
X152019000Y-123698000D03*
D24*
X149479000Y-128778000D03*
D23*
X145669000Y-126238000D03*
D25*
X144399000Y-128778000D03*
X154559000Y-128778000D03*
G04 #@! TD*
D23*
G04 #@! TO.C,MX21*
X163449000Y-135763000D03*
D24*
X168529000Y-138303000D03*
D23*
X165989000Y-142113000D03*
D25*
X168529000Y-143383000D03*
X168529000Y-133223000D03*
D26*
X161544000Y-150209250D03*
X161544000Y-126396750D03*
D24*
X176784000Y-150209250D03*
X176784000Y-126396750D03*
G04 #@! TD*
D23*
G04 #@! TO.C,MX15*
X163449000Y-97663000D03*
D24*
X168529000Y-100203000D03*
D23*
X165989000Y-104013000D03*
D25*
X168529000Y-105283000D03*
X168529000Y-95123000D03*
D26*
X161544000Y-112109250D03*
X161544000Y-88296750D03*
D24*
X176784000Y-112109250D03*
X176784000Y-88296750D03*
G04 #@! TD*
D21*
G04 #@! TO.C,D23*
X159004000Y-145415000D03*
D22*
X159004000Y-137795000D03*
G04 #@! TD*
D21*
G04 #@! TO.C,D22*
X139954000Y-145415000D03*
D22*
X139954000Y-137795000D03*
G04 #@! TD*
D21*
G04 #@! TO.C,D21*
X101854000Y-148082000D03*
D22*
X101854000Y-140462000D03*
G04 #@! TD*
D21*
G04 #@! TO.C,D17*
X159004000Y-100076000D03*
D22*
X159004000Y-107696000D03*
G04 #@! TD*
D21*
G04 #@! TO.C,MCU1*
X94742000Y-76962000D03*
X87122000Y-109982000D03*
X94742000Y-79502000D03*
X87122000Y-107442000D03*
X94742000Y-82042000D03*
X87122000Y-104902000D03*
X94742000Y-84582000D03*
X87122000Y-102362000D03*
X94742000Y-87122000D03*
X87122000Y-99822000D03*
X94742000Y-89662000D03*
X87122000Y-97282000D03*
X94742000Y-92202000D03*
X87122000Y-94742000D03*
X94742000Y-94742000D03*
X87122000Y-92202000D03*
X94742000Y-97282000D03*
X87122000Y-89662000D03*
X94742000Y-99822000D03*
X87122000Y-87122000D03*
X94742000Y-102362000D03*
X87122000Y-84582000D03*
X94742000Y-104902000D03*
X87122000Y-82042000D03*
X94742000Y-107442000D03*
X87122000Y-79502000D03*
X94742000Y-109982000D03*
D22*
X87122000Y-76962000D03*
G04 #@! TD*
D23*
G04 #@! TO.C,MX5*
X113919000Y-66548000D03*
D24*
X111379000Y-71628000D03*
D23*
X107569000Y-69088000D03*
D25*
X106299000Y-71628000D03*
X116459000Y-71628000D03*
G04 #@! TD*
D23*
G04 #@! TO.C,MX17*
X132969000Y-123698000D03*
D24*
X130429000Y-128778000D03*
D23*
X126619000Y-126238000D03*
D25*
X125349000Y-128778000D03*
X135509000Y-128778000D03*
G04 #@! TD*
D23*
G04 #@! TO.C,MX14*
X152019000Y-104648000D03*
D24*
X149479000Y-109728000D03*
D23*
X145669000Y-107188000D03*
D25*
X144399000Y-109728000D03*
X154559000Y-109728000D03*
G04 #@! TD*
D23*
G04 #@! TO.C,MX13*
X132969000Y-104648000D03*
D24*
X130429000Y-109728000D03*
D23*
X126619000Y-107188000D03*
D25*
X125349000Y-109728000D03*
X135509000Y-109728000D03*
G04 #@! TD*
D23*
G04 #@! TO.C,MX12*
X113919000Y-104648000D03*
D24*
X111379000Y-109728000D03*
D23*
X107569000Y-107188000D03*
D25*
X106299000Y-109728000D03*
X116459000Y-109728000D03*
G04 #@! TD*
D23*
G04 #@! TO.C,MX11*
X152019000Y-85598000D03*
D24*
X149479000Y-90678000D03*
D23*
X145669000Y-88138000D03*
D25*
X144399000Y-90678000D03*
X154559000Y-90678000D03*
G04 #@! TD*
D23*
G04 #@! TO.C,MX10*
X132969000Y-85598000D03*
D24*
X130429000Y-90678000D03*
D23*
X126619000Y-88138000D03*
D25*
X125349000Y-90678000D03*
X135509000Y-90678000D03*
G04 #@! TD*
D23*
G04 #@! TO.C,MX9*
X113919000Y-85598000D03*
D24*
X111379000Y-90678000D03*
D23*
X107569000Y-88138000D03*
D25*
X106299000Y-90678000D03*
X116459000Y-90678000D03*
G04 #@! TD*
D23*
G04 #@! TO.C,MX8*
X171069000Y-66548000D03*
D24*
X168529000Y-71628000D03*
D23*
X164719000Y-69088000D03*
D25*
X163449000Y-71628000D03*
X173609000Y-71628000D03*
G04 #@! TD*
D23*
G04 #@! TO.C,MX7*
X152019000Y-66548000D03*
D24*
X149479000Y-71628000D03*
D23*
X145669000Y-69088000D03*
D25*
X144399000Y-71628000D03*
X154559000Y-71628000D03*
G04 #@! TD*
D23*
G04 #@! TO.C,MX6*
X132969000Y-66548000D03*
D24*
X130429000Y-71628000D03*
D23*
X126619000Y-69088000D03*
D25*
X125349000Y-71628000D03*
X135509000Y-71628000D03*
G04 #@! TD*
D23*
G04 #@! TO.C,MX4*
X171069000Y-47498000D03*
D24*
X168529000Y-52578000D03*
D23*
X164719000Y-50038000D03*
D25*
X163449000Y-52578000D03*
X173609000Y-52578000D03*
G04 #@! TD*
D23*
G04 #@! TO.C,MX3*
X152019000Y-47498000D03*
D24*
X149479000Y-52578000D03*
D23*
X145669000Y-50038000D03*
D25*
X144399000Y-52578000D03*
X154559000Y-52578000D03*
G04 #@! TD*
D23*
G04 #@! TO.C,MX2*
X132969000Y-47498000D03*
D24*
X130429000Y-52578000D03*
D23*
X126619000Y-50038000D03*
D25*
X125349000Y-52578000D03*
X135509000Y-52578000D03*
G04 #@! TD*
D23*
G04 #@! TO.C,MX1*
X113919000Y-47498000D03*
D24*
X111379000Y-52578000D03*
D23*
X107569000Y-50038000D03*
D25*
X106299000Y-52578000D03*
X116459000Y-52578000D03*
G04 #@! TD*
D27*
G04 #@! TO.C,XTAL1*
X93272000Y-116586000D03*
X88392000Y-116586000D03*
G04 #@! TD*
D28*
G04 #@! TO.C,BOOT*
X99718000Y-151003000D03*
X99718000Y-155503000D03*
X93218000Y-151003000D03*
X93218000Y-155503000D03*
G04 #@! TD*
G04 #@! TO.C,RESET*
X89812000Y-151003000D03*
X89812000Y-155503000D03*
X83312000Y-151003000D03*
X83312000Y-155503000D03*
G04 #@! TD*
G04 #@! TO.C,F1*
X85608000Y-55880000D03*
X85598000Y-60960000D03*
G04 #@! TD*
D21*
G04 #@! TO.C,D20*
X139954000Y-126492000D03*
D22*
X139954000Y-118872000D03*
G04 #@! TD*
D21*
G04 #@! TO.C,D18*
X101854000Y-126492000D03*
D22*
X101854000Y-118872000D03*
G04 #@! TD*
D21*
G04 #@! TO.C,D16*
X139954000Y-105664000D03*
D22*
X139954000Y-113284000D03*
G04 #@! TD*
D21*
G04 #@! TO.C,D15*
X120904000Y-105664000D03*
D22*
X120904000Y-113284000D03*
G04 #@! TD*
D21*
G04 #@! TO.C,D14*
X101854000Y-105664000D03*
D22*
X101854000Y-113284000D03*
G04 #@! TD*
D21*
G04 #@! TO.C,D13*
X139954000Y-86614000D03*
D22*
X139954000Y-94234000D03*
G04 #@! TD*
D21*
G04 #@! TO.C,D12*
X120904000Y-86614000D03*
D22*
X120904000Y-94234000D03*
G04 #@! TD*
D21*
G04 #@! TO.C,D11*
X101854000Y-86614000D03*
D22*
X101854000Y-94234000D03*
G04 #@! TD*
D21*
G04 #@! TO.C,D10*
X159004000Y-67818000D03*
D22*
X159004000Y-75438000D03*
G04 #@! TD*
D21*
G04 #@! TO.C,D9*
X139954000Y-67818000D03*
D22*
X139954000Y-75438000D03*
G04 #@! TD*
D21*
G04 #@! TO.C,D8*
X120904000Y-67818000D03*
D22*
X120904000Y-75438000D03*
G04 #@! TD*
D21*
G04 #@! TO.C,D7*
X101854000Y-67818000D03*
D22*
X101854000Y-75438000D03*
G04 #@! TD*
D21*
G04 #@! TO.C,D6*
X159004000Y-48514000D03*
D22*
X159004000Y-56134000D03*
G04 #@! TD*
D21*
G04 #@! TO.C,D5*
X139954000Y-48514000D03*
D22*
X139954000Y-56134000D03*
G04 #@! TD*
D21*
G04 #@! TO.C,D4*
X120904000Y-48514000D03*
D22*
X120904000Y-56134000D03*
G04 #@! TD*
D21*
G04 #@! TO.C,D3*
X101854000Y-48514000D03*
D22*
X101854000Y-56134000D03*
G04 #@! TD*
D21*
G04 #@! TO.C,D2*
X93472000Y-65532000D03*
D22*
X93472000Y-73152000D03*
G04 #@! TD*
D21*
G04 #@! TO.C,D1*
X96774000Y-65532000D03*
D22*
X96774000Y-73152000D03*
G04 #@! TD*
D29*
G04 #@! TO.C,C5*
X88392000Y-125650000D03*
X88392000Y-120650000D03*
G04 #@! TD*
G04 #@! TO.C,C4*
X93218000Y-125650000D03*
X93218000Y-120650000D03*
G04 #@! TD*
G04 #@! TO.C,C3*
X97536000Y-92242000D03*
X97536000Y-94742000D03*
G04 #@! TD*
G04 #@! TO.C,C2*
X84328000Y-94702000D03*
X84328000Y-92202000D03*
G04 #@! TD*
D30*
G04 #@! TO.C,C1*
X92170000Y-56388000D03*
D31*
X90170000Y-56388000D03*
G04 #@! TD*
M02*
