M48
; DRILL file {KiCad 5.1.6-c6e7f7d~87~ubuntu18.04.1} date Wed Aug  5 15:47:38 2020
; FORMAT={-:-/ absolute / metric / decimal}
; #@! TF.CreationDate,2020-08-05T15:47:38+02:00
; #@! TF.GenerationSoftware,Kicad,Pcbnew,5.1.6-c6e7f7d~87~ubuntu18.04.1
FMAT,2
METRIC
T1C0.400
T2C0.600
T3C0.700
T4C0.800
T5C1.000
T6C1.100
T7C1.470
T8C2.000
T9C1.750
T10C3.048
T11C3.988
%
G90
G05
T1
X90.286Y-101.23
X90.634Y-51.899
X91.059Y-44.831
X91.484Y-52.624
X88.079Y-47.955
X88.084Y-49.28
X88.929Y-47.955
X88.934Y-49.28
X89.779Y-47.955
X89.784Y-49.28
X90.629Y-47.955
X90.634Y-49.28
X91.479Y-47.955
X91.484Y-49.28
X92.329Y-47.955
X92.334Y-49.28
X93.179Y-47.955
X93.184Y-49.28
X94.034Y-47.955
X94.034Y-49.28
T2
X90.17Y-56.388
X92.17Y-56.388
T3
X87.884Y-128.27
X95.504Y-128.27
X84.836Y-65.532
X84.836Y-73.152
X87.63Y-65.532
X87.63Y-73.152
X90.424Y-65.532
X90.424Y-73.152
X95.377Y-54.864
X95.377Y-62.484
X98.171Y-54.864
X98.171Y-62.484
T4
X120.904Y-86.614
X120.904Y-94.234
X159.004Y-137.795
X159.004Y-145.415
X139.954Y-137.795
X139.954Y-145.415
X139.954Y-105.664
X139.954Y-113.284
X101.854Y-140.462
X101.854Y-148.082
X84.328Y-92.202
X84.328Y-94.702
X139.954Y-67.818
X139.954Y-75.438
X159.004Y-48.514
X159.004Y-56.134
X101.854Y-48.514
X101.854Y-56.134
X120.904Y-118.872
X120.904Y-126.492
X93.218Y-120.65
X93.218Y-125.65
X139.954Y-86.614
X139.954Y-94.234
X88.392Y-120.65
X88.392Y-125.65
X101.854Y-118.872
X101.854Y-126.492
X101.854Y-105.664
X101.854Y-113.284
X159.004Y-67.818
X159.004Y-75.438
X101.854Y-67.818
X101.854Y-75.438
X120.904Y-48.514
X120.904Y-56.134
X96.774Y-65.532
X96.774Y-73.152
X87.122Y-76.962
X87.122Y-79.502
X87.122Y-82.042
X87.122Y-84.582
X87.122Y-87.122
X87.122Y-89.662
X87.122Y-92.202
X87.122Y-94.742
X87.122Y-97.282
X87.122Y-99.822
X87.122Y-102.362
X87.122Y-104.902
X87.122Y-107.442
X87.122Y-109.982
X94.742Y-76.962
X94.742Y-79.502
X94.742Y-82.042
X94.742Y-84.582
X94.742Y-87.122
X94.742Y-89.662
X94.742Y-92.202
X94.742Y-94.742
X94.742Y-97.282
X94.742Y-99.822
X94.742Y-102.362
X94.742Y-104.902
X94.742Y-107.442
X94.742Y-109.982
X88.392Y-116.586
X93.272Y-116.586
X101.854Y-86.614
X101.854Y-94.234
X97.536Y-92.242
X97.536Y-94.742
X120.904Y-105.664
X120.904Y-113.284
X139.954Y-118.872
X139.954Y-126.492
X120.904Y-67.818
X120.904Y-75.438
X139.954Y-48.514
X139.954Y-56.134
X93.472Y-65.532
X93.472Y-73.152
X159.004Y-100.076
X159.004Y-107.696
T5
X85.598Y-60.96
X85.608Y-55.88
X92.71Y-134.366
X92.71Y-136.906
X92.71Y-139.446
X95.25Y-134.366
X95.25Y-136.906
X95.25Y-139.446
T6
X93.218Y-151.003
X93.218Y-155.503
X99.718Y-151.003
X99.718Y-155.503
X83.312Y-151.003
X83.312Y-155.503
X89.812Y-151.003
X89.812Y-155.503
T7
X117.094Y-145.288
X123.444Y-142.748
X107.569Y-88.138
X113.919Y-85.598
X145.669Y-50.038
X152.019Y-47.498
X126.619Y-69.088
X132.969Y-66.548
X107.569Y-50.038
X113.919Y-47.498
X126.619Y-107.188
X132.969Y-104.648
X163.449Y-97.663
X165.989Y-104.013
X126.619Y-88.138
X132.969Y-85.598
X145.669Y-69.088
X152.019Y-66.548
X145.669Y-145.288
X152.019Y-142.748
X163.449Y-135.763
X165.989Y-142.113
X164.719Y-50.038
X171.069Y-47.498
X145.669Y-107.188
X152.019Y-104.648
X107.569Y-69.088
X113.919Y-66.548
X164.719Y-69.088
X171.069Y-66.548
X145.669Y-88.138
X152.019Y-85.598
X126.619Y-50.038
X132.969Y-47.498
X145.669Y-126.238
X152.019Y-123.698
X107.569Y-126.238
X113.919Y-123.698
X107.569Y-107.188
X113.919Y-104.648
X126.619Y-126.238
X132.969Y-123.698
T8
X159.004Y-133.35
X101.854Y-62.103
X159.004Y-62.103
X91.186Y-61.722
X91.186Y-146.812
X101.854Y-133.35
T9
X144.399Y-90.678
X154.559Y-90.678
X125.349Y-52.578
X135.509Y-52.578
X144.399Y-128.778
X154.559Y-128.778
X106.299Y-128.778
X116.459Y-128.778
X106.299Y-109.728
X116.459Y-109.728
X125.349Y-128.778
X135.509Y-128.778
X115.824Y-147.828
X125.984Y-147.828
X106.299Y-90.678
X116.459Y-90.678
X144.399Y-52.578
X154.559Y-52.578
X125.349Y-71.628
X135.509Y-71.628
X106.299Y-52.578
X116.459Y-52.578
X125.349Y-109.728
X135.509Y-109.728
X168.529Y-95.123
X168.529Y-105.283
X125.349Y-90.678
X135.509Y-90.678
X144.399Y-71.628
X154.559Y-71.628
X144.399Y-147.828
X154.559Y-147.828
X168.529Y-133.223
X168.529Y-143.383
X163.449Y-52.578
X173.609Y-52.578
X144.399Y-109.728
X154.559Y-109.728
X106.299Y-71.628
X116.459Y-71.628
X163.449Y-71.628
X173.609Y-71.628
T10
X108.998Y-140.843
X132.81Y-140.843
X161.544Y-88.297
X161.544Y-112.109
X161.544Y-126.397
X161.544Y-150.209
T11
X149.479Y-109.728
X111.379Y-71.628
X168.529Y-71.628
X149.479Y-90.678
X130.429Y-52.578
X149.479Y-128.778
X111.379Y-128.778
X111.379Y-109.728
X130.429Y-128.778
X108.998Y-156.083
X120.904Y-147.828
X132.81Y-156.083
X111.379Y-90.678
X149.479Y-52.578
X130.429Y-71.628
X111.379Y-52.578
X130.429Y-109.728
X168.529Y-100.203
X176.784Y-88.297
X176.784Y-112.109
X130.429Y-90.678
X149.479Y-71.628
X149.479Y-147.828
X168.529Y-138.303
X176.784Y-126.397
X176.784Y-150.209
X168.529Y-52.578
T2
G00X86.734Y-45.32
M15
G01X86.734Y-44.52
M16
G05
G00X86.734Y-49.05
M15
G01X86.734Y-47.55
M16
G05
G00X95.384Y-45.32
M15
G01X95.384Y-44.52
M16
G05
G00X95.384Y-49.05
M15
G01X95.384Y-47.55
M16
G05
T0
M30
