%TF.GenerationSoftware,KiCad,Pcbnew,(5.1.6)-1*%
%TF.CreationDate,2020-06-15T22:18:44+02:00*%
%TF.ProjectId,numpad,6e756d70-6164-42e6-9b69-6361645f7063,rev?*%
%TF.SameCoordinates,Original*%
%TF.FileFunction,Legend,Bot*%
%TF.FilePolarity,Positive*%
%FSLAX46Y46*%
G04 Gerber Fmt 4.6, Leading zero omitted, Abs format (unit mm)*
G04 Created by KiCad (PCBNEW (5.1.6)-1) date 2020-06-15 22:18:44*
%MOMM*%
%LPD*%
G01*
G04 APERTURE LIST*
%ADD10C,0.300000*%
%ADD11C,0.200000*%
%ADD12C,0.010000*%
G04 APERTURE END LIST*
D10*
X140211714Y-82720571D02*
X140211714Y-81720571D01*
X140211714Y-82006285D02*
X140140285Y-81863428D01*
X140068857Y-81792000D01*
X139926000Y-81720571D01*
X139783142Y-81720571D01*
X138711714Y-82649142D02*
X138854571Y-82720571D01*
X139140285Y-82720571D01*
X139283142Y-82649142D01*
X139354571Y-82506285D01*
X139354571Y-81934857D01*
X139283142Y-81792000D01*
X139140285Y-81720571D01*
X138854571Y-81720571D01*
X138711714Y-81792000D01*
X138640285Y-81934857D01*
X138640285Y-82077714D01*
X139354571Y-82220571D01*
X138140285Y-81720571D02*
X137783142Y-82720571D01*
X137426000Y-81720571D01*
X136068857Y-82720571D02*
X136926000Y-82720571D01*
X136497428Y-82720571D02*
X136497428Y-81220571D01*
X136640285Y-81434857D01*
X136783142Y-81577714D01*
X136926000Y-81649142D01*
X140143714Y-79359142D02*
X139477047Y-79359142D01*
X139191333Y-80406761D02*
X140143714Y-80406761D01*
X140143714Y-78406761D01*
X139191333Y-78406761D01*
X137381809Y-80406761D02*
X138334190Y-80406761D01*
X138334190Y-78406761D01*
X136715142Y-80406761D02*
X136715142Y-78406761D01*
X136048476Y-79835333D01*
X135381809Y-78406761D01*
X135381809Y-80406761D01*
X134048476Y-78406761D02*
X133667523Y-78406761D01*
X133477047Y-78502000D01*
X133286571Y-78692476D01*
X133191333Y-79073428D01*
X133191333Y-79740095D01*
X133286571Y-80121047D01*
X133477047Y-80311523D01*
X133667523Y-80406761D01*
X134048476Y-80406761D01*
X134238952Y-80311523D01*
X134429428Y-80121047D01*
X134524666Y-79740095D01*
X134524666Y-79073428D01*
X134429428Y-78692476D01*
X134238952Y-78502000D01*
X134048476Y-78406761D01*
X132334190Y-80406761D02*
X132334190Y-78406761D01*
X131572285Y-78406761D01*
X131381809Y-78502000D01*
X131286571Y-78597238D01*
X131191333Y-78787714D01*
X131191333Y-79073428D01*
X131286571Y-79263904D01*
X131381809Y-79359142D01*
X131572285Y-79454380D01*
X132334190Y-79454380D01*
X130429428Y-79835333D02*
X129477047Y-79835333D01*
X130619904Y-80406761D02*
X129953238Y-78406761D01*
X129286571Y-80406761D01*
X128619904Y-80406761D02*
X128619904Y-78406761D01*
X128143714Y-78406761D01*
X127858000Y-78502000D01*
X127667523Y-78692476D01*
X127572285Y-78882952D01*
X127477047Y-79263904D01*
X127477047Y-79549619D01*
X127572285Y-79930571D01*
X127667523Y-80121047D01*
X127858000Y-80311523D01*
X128143714Y-80406761D01*
X128619904Y-80406761D01*
D11*
X95605523Y-139300000D02*
X95681714Y-139261904D01*
X95796000Y-139261904D01*
X95910285Y-139300000D01*
X95986476Y-139376190D01*
X96024571Y-139452380D01*
X96062666Y-139604761D01*
X96062666Y-139719047D01*
X96024571Y-139871428D01*
X95986476Y-139947619D01*
X95910285Y-140023809D01*
X95796000Y-140061904D01*
X95719809Y-140061904D01*
X95605523Y-140023809D01*
X95567428Y-139985714D01*
X95567428Y-139719047D01*
X95719809Y-139719047D01*
X95224571Y-140061904D02*
X95224571Y-139261904D01*
X94767428Y-140061904D01*
X94767428Y-139261904D01*
X94386476Y-140061904D02*
X94386476Y-139261904D01*
X94196000Y-139261904D01*
X94081714Y-139300000D01*
X94005523Y-139376190D01*
X93967428Y-139452380D01*
X93929333Y-139604761D01*
X93929333Y-139719047D01*
X93967428Y-139871428D01*
X94005523Y-139947619D01*
X94081714Y-140023809D01*
X94196000Y-140061904D01*
X94386476Y-140061904D01*
X87560095Y-140061904D02*
X87826761Y-139680952D01*
X88017238Y-140061904D02*
X88017238Y-139261904D01*
X87712476Y-139261904D01*
X87636285Y-139300000D01*
X87598190Y-139338095D01*
X87560095Y-139414285D01*
X87560095Y-139528571D01*
X87598190Y-139604761D01*
X87636285Y-139642857D01*
X87712476Y-139680952D01*
X88017238Y-139680952D01*
X87255333Y-140023809D02*
X87141047Y-140061904D01*
X86950571Y-140061904D01*
X86874380Y-140023809D01*
X86836285Y-139985714D01*
X86798190Y-139909523D01*
X86798190Y-139833333D01*
X86836285Y-139757142D01*
X86874380Y-139719047D01*
X86950571Y-139680952D01*
X87102952Y-139642857D01*
X87179142Y-139604761D01*
X87217238Y-139566666D01*
X87255333Y-139490476D01*
X87255333Y-139414285D01*
X87217238Y-139338095D01*
X87179142Y-139300000D01*
X87102952Y-139261904D01*
X86912476Y-139261904D01*
X86798190Y-139300000D01*
X86569619Y-139261904D02*
X86112476Y-139261904D01*
X86341047Y-140061904D02*
X86341047Y-139261904D01*
X96253142Y-137267904D02*
X96253142Y-136467904D01*
X95986476Y-137039333D01*
X95719809Y-136467904D01*
X95719809Y-137267904D01*
X95186476Y-136467904D02*
X95034095Y-136467904D01*
X94957904Y-136506000D01*
X94881714Y-136582190D01*
X94843619Y-136734571D01*
X94843619Y-137001238D01*
X94881714Y-137153619D01*
X94957904Y-137229809D01*
X95034095Y-137267904D01*
X95186476Y-137267904D01*
X95262666Y-137229809D01*
X95338857Y-137153619D01*
X95376952Y-137001238D01*
X95376952Y-136734571D01*
X95338857Y-136582190D01*
X95262666Y-136506000D01*
X95186476Y-136467904D01*
X94538857Y-137229809D02*
X94424571Y-137267904D01*
X94234095Y-137267904D01*
X94157904Y-137229809D01*
X94119809Y-137191714D01*
X94081714Y-137115523D01*
X94081714Y-137039333D01*
X94119809Y-136963142D01*
X94157904Y-136925047D01*
X94234095Y-136886952D01*
X94386476Y-136848857D01*
X94462666Y-136810761D01*
X94500761Y-136772666D01*
X94538857Y-136696476D01*
X94538857Y-136620285D01*
X94500761Y-136544095D01*
X94462666Y-136506000D01*
X94386476Y-136467904D01*
X94196000Y-136467904D01*
X94081714Y-136506000D01*
X93738857Y-137267904D02*
X93738857Y-136467904D01*
X88125142Y-137267904D02*
X88125142Y-136467904D01*
X87858476Y-137039333D01*
X87591809Y-136467904D01*
X87591809Y-137267904D01*
X87210857Y-137267904D02*
X87210857Y-136467904D01*
X86868000Y-137229809D02*
X86753714Y-137267904D01*
X86563238Y-137267904D01*
X86487047Y-137229809D01*
X86448952Y-137191714D01*
X86410857Y-137115523D01*
X86410857Y-137039333D01*
X86448952Y-136963142D01*
X86487047Y-136925047D01*
X86563238Y-136886952D01*
X86715619Y-136848857D01*
X86791809Y-136810761D01*
X86829904Y-136772666D01*
X86868000Y-136696476D01*
X86868000Y-136620285D01*
X86829904Y-136544095D01*
X86791809Y-136506000D01*
X86715619Y-136467904D01*
X86525142Y-136467904D01*
X86410857Y-136506000D01*
X85915619Y-136467904D02*
X85763238Y-136467904D01*
X85687047Y-136506000D01*
X85610857Y-136582190D01*
X85572761Y-136734571D01*
X85572761Y-137001238D01*
X85610857Y-137153619D01*
X85687047Y-137229809D01*
X85763238Y-137267904D01*
X85915619Y-137267904D01*
X85991809Y-137229809D01*
X86068000Y-137153619D01*
X86106095Y-137001238D01*
X86106095Y-136734571D01*
X86068000Y-136582190D01*
X85991809Y-136506000D01*
X85915619Y-136467904D01*
X95770571Y-134689809D02*
X95656285Y-134727904D01*
X95465809Y-134727904D01*
X95389619Y-134689809D01*
X95351523Y-134651714D01*
X95313428Y-134575523D01*
X95313428Y-134499333D01*
X95351523Y-134423142D01*
X95389619Y-134385047D01*
X95465809Y-134346952D01*
X95618190Y-134308857D01*
X95694380Y-134270761D01*
X95732476Y-134232666D01*
X95770571Y-134156476D01*
X95770571Y-134080285D01*
X95732476Y-134004095D01*
X95694380Y-133966000D01*
X95618190Y-133927904D01*
X95427714Y-133927904D01*
X95313428Y-133966000D01*
X94513428Y-134651714D02*
X94551523Y-134689809D01*
X94665809Y-134727904D01*
X94742000Y-134727904D01*
X94856285Y-134689809D01*
X94932476Y-134613619D01*
X94970571Y-134537428D01*
X95008666Y-134385047D01*
X95008666Y-134270761D01*
X94970571Y-134118380D01*
X94932476Y-134042190D01*
X94856285Y-133966000D01*
X94742000Y-133927904D01*
X94665809Y-133927904D01*
X94551523Y-133966000D01*
X94513428Y-134004095D01*
X94170571Y-134727904D02*
X94170571Y-133927904D01*
X93713428Y-134727904D02*
X94056285Y-134270761D01*
X93713428Y-133927904D02*
X94170571Y-134385047D01*
X88188666Y-133927904D02*
X87922000Y-134727904D01*
X87655333Y-133927904D01*
X86931523Y-134651714D02*
X86969619Y-134689809D01*
X87083904Y-134727904D01*
X87160095Y-134727904D01*
X87274380Y-134689809D01*
X87350571Y-134613619D01*
X87388666Y-134537428D01*
X87426761Y-134385047D01*
X87426761Y-134270761D01*
X87388666Y-134118380D01*
X87350571Y-134042190D01*
X87274380Y-133966000D01*
X87160095Y-133927904D01*
X87083904Y-133927904D01*
X86969619Y-133966000D01*
X86931523Y-134004095D01*
X86131523Y-134651714D02*
X86169619Y-134689809D01*
X86283904Y-134727904D01*
X86360095Y-134727904D01*
X86474380Y-134689809D01*
X86550571Y-134613619D01*
X86588666Y-134537428D01*
X86626761Y-134385047D01*
X86626761Y-134270761D01*
X86588666Y-134118380D01*
X86550571Y-134042190D01*
X86474380Y-133966000D01*
X86360095Y-133927904D01*
X86283904Y-133927904D01*
X86169619Y-133966000D01*
X86131523Y-134004095D01*
D12*
%TO.C,G\u002A\u002A\u002A*%
G36*
X146747388Y-76713440D02*
G01*
X146657974Y-76741995D01*
X146629249Y-76754879D01*
X146515301Y-76826742D01*
X146424334Y-76923419D01*
X146356641Y-77044579D01*
X146344563Y-77075413D01*
X146321827Y-77140904D01*
X146310285Y-77188145D01*
X146308494Y-77230306D01*
X146315010Y-77280558D01*
X146319414Y-77304784D01*
X146359798Y-77443988D01*
X146423952Y-77560511D01*
X146510809Y-77653008D01*
X146619303Y-77720139D01*
X146663232Y-77737760D01*
X146757914Y-77761821D01*
X146860843Y-77773030D01*
X146959123Y-77770821D01*
X147039860Y-77754626D01*
X147040600Y-77754369D01*
X147116317Y-77716406D01*
X147195252Y-77658003D01*
X147267718Y-77588057D01*
X147324029Y-77515464D01*
X147346387Y-77473494D01*
X147366903Y-77402278D01*
X147379921Y-77312607D01*
X147384513Y-77218452D01*
X147379749Y-77133782D01*
X147371736Y-77092339D01*
X147328839Y-76994231D01*
X147260228Y-76901235D01*
X147173320Y-76819970D01*
X147075534Y-76757055D01*
X146974288Y-76719108D01*
X146947759Y-76714065D01*
X146839489Y-76704706D01*
X146747388Y-76713440D01*
G37*
X146747388Y-76713440D02*
X146657974Y-76741995D01*
X146629249Y-76754879D01*
X146515301Y-76826742D01*
X146424334Y-76923419D01*
X146356641Y-77044579D01*
X146344563Y-77075413D01*
X146321827Y-77140904D01*
X146310285Y-77188145D01*
X146308494Y-77230306D01*
X146315010Y-77280558D01*
X146319414Y-77304784D01*
X146359798Y-77443988D01*
X146423952Y-77560511D01*
X146510809Y-77653008D01*
X146619303Y-77720139D01*
X146663232Y-77737760D01*
X146757914Y-77761821D01*
X146860843Y-77773030D01*
X146959123Y-77770821D01*
X147039860Y-77754626D01*
X147040600Y-77754369D01*
X147116317Y-77716406D01*
X147195252Y-77658003D01*
X147267718Y-77588057D01*
X147324029Y-77515464D01*
X147346387Y-77473494D01*
X147366903Y-77402278D01*
X147379921Y-77312607D01*
X147384513Y-77218452D01*
X147379749Y-77133782D01*
X147371736Y-77092339D01*
X147328839Y-76994231D01*
X147260228Y-76901235D01*
X147173320Y-76819970D01*
X147075534Y-76757055D01*
X146974288Y-76719108D01*
X146947759Y-76714065D01*
X146839489Y-76704706D01*
X146747388Y-76713440D01*
G36*
X148734123Y-77395094D02*
G01*
X148624597Y-77422756D01*
X148517718Y-77474448D01*
X148428826Y-77540960D01*
X148357723Y-77621935D01*
X148305724Y-77719727D01*
X148269997Y-77840371D01*
X148258447Y-77903897D01*
X148258874Y-78006840D01*
X148288399Y-78112191D01*
X148343254Y-78214193D01*
X148419672Y-78307086D01*
X148513883Y-78385111D01*
X148606716Y-78436127D01*
X148655626Y-78449112D01*
X148725404Y-78457873D01*
X148804458Y-78462041D01*
X148881197Y-78461248D01*
X148944029Y-78455123D01*
X148972778Y-78447773D01*
X149011329Y-78428644D01*
X149061293Y-78399019D01*
X149114725Y-78364291D01*
X149163675Y-78329853D01*
X149200197Y-78301101D01*
X149216343Y-78283426D01*
X149216534Y-78282348D01*
X149225278Y-78262404D01*
X149247363Y-78225665D01*
X149259887Y-78206707D01*
X149308714Y-78104704D01*
X149329520Y-77984289D01*
X149322181Y-77846255D01*
X149319283Y-77827828D01*
X149303118Y-77750100D01*
X149280790Y-77688856D01*
X149246447Y-77633573D01*
X149194235Y-77573727D01*
X149157267Y-77536511D01*
X149066994Y-77469724D01*
X148952626Y-77420739D01*
X148837464Y-77394626D01*
X148734123Y-77395094D01*
G37*
X148734123Y-77395094D02*
X148624597Y-77422756D01*
X148517718Y-77474448D01*
X148428826Y-77540960D01*
X148357723Y-77621935D01*
X148305724Y-77719727D01*
X148269997Y-77840371D01*
X148258447Y-77903897D01*
X148258874Y-78006840D01*
X148288399Y-78112191D01*
X148343254Y-78214193D01*
X148419672Y-78307086D01*
X148513883Y-78385111D01*
X148606716Y-78436127D01*
X148655626Y-78449112D01*
X148725404Y-78457873D01*
X148804458Y-78462041D01*
X148881197Y-78461248D01*
X148944029Y-78455123D01*
X148972778Y-78447773D01*
X149011329Y-78428644D01*
X149061293Y-78399019D01*
X149114725Y-78364291D01*
X149163675Y-78329853D01*
X149200197Y-78301101D01*
X149216343Y-78283426D01*
X149216534Y-78282348D01*
X149225278Y-78262404D01*
X149247363Y-78225665D01*
X149259887Y-78206707D01*
X149308714Y-78104704D01*
X149329520Y-77984289D01*
X149322181Y-77846255D01*
X149319283Y-77827828D01*
X149303118Y-77750100D01*
X149280790Y-77688856D01*
X149246447Y-77633573D01*
X149194235Y-77573727D01*
X149157267Y-77536511D01*
X149066994Y-77469724D01*
X148952626Y-77420739D01*
X148837464Y-77394626D01*
X148734123Y-77395094D01*
G36*
X143285502Y-79212568D02*
G01*
X143220624Y-79252471D01*
X143159308Y-79320090D01*
X143063174Y-79458546D01*
X142994833Y-79581991D01*
X142953159Y-79693032D01*
X142937023Y-79794282D01*
X142937525Y-79833537D01*
X142949971Y-79900075D01*
X142974507Y-79936175D01*
X143007918Y-79941610D01*
X143046986Y-79916151D01*
X143088493Y-79859571D01*
X143096638Y-79844816D01*
X143129308Y-79787492D01*
X143164446Y-79732093D01*
X143171967Y-79721244D01*
X143210757Y-79666767D01*
X143246055Y-79715617D01*
X143329399Y-79817391D01*
X143430544Y-79914485D01*
X143531666Y-79995589D01*
X143589179Y-80038018D01*
X143636661Y-80071502D01*
X143667633Y-80091556D01*
X143675599Y-80095275D01*
X143707032Y-80110877D01*
X143745159Y-80149308D01*
X143784169Y-80201924D01*
X143818252Y-80260079D01*
X143841601Y-80315129D01*
X143848667Y-80352817D01*
X143859147Y-80385553D01*
X143864016Y-80391846D01*
X143876465Y-80416667D01*
X143895306Y-80469295D01*
X143919120Y-80544583D01*
X143946487Y-80637386D01*
X143975987Y-80742557D01*
X144006201Y-80854949D01*
X144035710Y-80969416D01*
X144063094Y-81080812D01*
X144086933Y-81183991D01*
X144101981Y-81254600D01*
X144115146Y-81313270D01*
X144128050Y-81360744D01*
X144135876Y-81382155D01*
X144148367Y-81416187D01*
X144160640Y-81463533D01*
X144161333Y-81466822D01*
X144177472Y-81536923D01*
X144198592Y-81618165D01*
X144221725Y-81700132D01*
X144243904Y-81772409D01*
X144262164Y-81824578D01*
X144265608Y-81832892D01*
X144281884Y-81879300D01*
X144288926Y-81917567D01*
X144288934Y-81918405D01*
X144296196Y-81953839D01*
X144303822Y-81966646D01*
X144317934Y-81992103D01*
X144334836Y-82035812D01*
X144339575Y-82050466D01*
X144368852Y-82128961D01*
X144412989Y-82226736D01*
X144467459Y-82335302D01*
X144527736Y-82446170D01*
X144589294Y-82550849D01*
X144647607Y-82640852D01*
X144673607Y-82676999D01*
X144830577Y-82866569D01*
X144997870Y-83030369D01*
X145180152Y-83171714D01*
X145382084Y-83293917D01*
X145608330Y-83400291D01*
X145787534Y-83468461D01*
X145963259Y-83523001D01*
X146141976Y-83565838D01*
X146316713Y-83595933D01*
X146480500Y-83612249D01*
X146626369Y-83613747D01*
X146710400Y-83605973D01*
X146747827Y-83600534D01*
X146806576Y-83592052D01*
X146874449Y-83582289D01*
X146879734Y-83581531D01*
X146987358Y-83561568D01*
X147105695Y-83532268D01*
X147221680Y-83497350D01*
X147322251Y-83460536D01*
X147355226Y-83446117D01*
X147511768Y-83370716D01*
X147642364Y-83302818D01*
X147701001Y-83269809D01*
X147758972Y-83233629D01*
X147837841Y-83181049D01*
X147931673Y-83116334D01*
X148034533Y-83043746D01*
X148140485Y-82967548D01*
X148243595Y-82892004D01*
X148337927Y-82821378D01*
X148417547Y-82759932D01*
X148470339Y-82717168D01*
X148510338Y-82684791D01*
X148564474Y-82642686D01*
X148626839Y-82595242D01*
X148691523Y-82546847D01*
X148752618Y-82501888D01*
X148804214Y-82464755D01*
X148840403Y-82439835D01*
X148855056Y-82431466D01*
X148874610Y-82422228D01*
X148909086Y-82399329D01*
X148918602Y-82392361D01*
X148961399Y-82364041D01*
X149020947Y-82329034D01*
X149077318Y-82298614D01*
X149183636Y-82243973D01*
X149305918Y-82289477D01*
X149381217Y-82314345D01*
X149459416Y-82335194D01*
X149521334Y-82347146D01*
X149636859Y-82350044D01*
X149762784Y-82333084D01*
X149884354Y-82299082D01*
X149967838Y-82261899D01*
X150066054Y-82207997D01*
X150054628Y-82299453D01*
X150049811Y-82356942D01*
X150054359Y-82391436D01*
X150069666Y-82412856D01*
X150070711Y-82413740D01*
X150108373Y-82426080D01*
X150151232Y-82407867D01*
X150196875Y-82361547D01*
X150242892Y-82289568D01*
X150286862Y-82194399D01*
X150304996Y-82126033D01*
X150315147Y-82039642D01*
X150317320Y-81946413D01*
X150311519Y-81857531D01*
X150297748Y-81784183D01*
X150286687Y-81754329D01*
X150246615Y-81698805D01*
X150195793Y-81666185D01*
X150142065Y-81660581D01*
X150120548Y-81667259D01*
X150098495Y-81681193D01*
X150085976Y-81702746D01*
X150082110Y-81738611D01*
X150086017Y-81795478D01*
X150094639Y-81864199D01*
X150099937Y-81916026D01*
X150095552Y-81946631D01*
X150078227Y-81968044D01*
X150063522Y-81979186D01*
X149987721Y-82024696D01*
X149897615Y-82066568D01*
X149809185Y-82097850D01*
X149767624Y-82107917D01*
X149701584Y-82114088D01*
X149622808Y-82112593D01*
X149543610Y-82104566D01*
X149476307Y-82091138D01*
X149440324Y-82077823D01*
X149396550Y-82062371D01*
X149370092Y-82058933D01*
X149328522Y-82050031D01*
X149266085Y-82025689D01*
X149189956Y-81989452D01*
X149107314Y-81944863D01*
X149025336Y-81895467D01*
X148984689Y-81868603D01*
X148926112Y-81831390D01*
X148875019Y-81804201D01*
X148839737Y-81791278D01*
X148832289Y-81790974D01*
X148802654Y-81809660D01*
X148797376Y-81846555D01*
X148815891Y-81896939D01*
X148851171Y-81948390D01*
X148884201Y-81990085D01*
X148906199Y-82020507D01*
X148911734Y-82030804D01*
X148897195Y-82041997D01*
X148863100Y-82049963D01*
X148823726Y-82052901D01*
X148793354Y-82049014D01*
X148788274Y-82046357D01*
X148762608Y-82033018D01*
X148715248Y-82013179D01*
X148658127Y-81991750D01*
X148592252Y-81963097D01*
X148513808Y-81921337D01*
X148436946Y-81874171D01*
X148416456Y-81860220D01*
X148339862Y-81810033D01*
X148285772Y-81783279D01*
X148252424Y-81779765D01*
X148238056Y-81799301D01*
X148240787Y-81841100D01*
X148259660Y-81887438D01*
X148293117Y-81935831D01*
X148301924Y-81945455D01*
X148331441Y-81978351D01*
X148346006Y-82000056D01*
X148346134Y-82003644D01*
X148327647Y-82001440D01*
X148290591Y-81986756D01*
X148245309Y-81964750D01*
X148202144Y-81940579D01*
X148171438Y-81919402D01*
X148165456Y-81913540D01*
X148141027Y-81893062D01*
X148130217Y-81889599D01*
X148111173Y-81879130D01*
X148073317Y-81851212D01*
X148022984Y-81811079D01*
X147966511Y-81763966D01*
X147910232Y-81715105D01*
X147860485Y-81669732D01*
X147839398Y-81649351D01*
X147803239Y-81616085D01*
X147775958Y-81604001D01*
X147743413Y-81609445D01*
X147719036Y-81618247D01*
X147686133Y-81640129D01*
X147675729Y-81678653D01*
X147675600Y-81685980D01*
X147675600Y-81737199D01*
X147560625Y-81737199D01*
X147430255Y-81726923D01*
X147302167Y-81698255D01*
X147190243Y-81654437D01*
X147177546Y-81647765D01*
X147123835Y-81616137D01*
X147051270Y-81570218D01*
X146968333Y-81515707D01*
X146883505Y-81458303D01*
X146805270Y-81403705D01*
X146742110Y-81357614D01*
X146718867Y-81339567D01*
X146630774Y-81285412D01*
X146518184Y-81241973D01*
X146389413Y-81211573D01*
X146252772Y-81196537D01*
X146202800Y-81195333D01*
X146107323Y-81192230D01*
X146004324Y-81183668D01*
X145900427Y-81170769D01*
X145802260Y-81154654D01*
X145716448Y-81136447D01*
X145649617Y-81117267D01*
X145608392Y-81098237D01*
X145603021Y-81093793D01*
X145572805Y-81079333D01*
X145552948Y-81076800D01*
X145516983Y-81068765D01*
X145460873Y-81047351D01*
X145393518Y-81016593D01*
X145323819Y-80980526D01*
X145266834Y-80947106D01*
X145224154Y-80915352D01*
X145204216Y-80890054D01*
X145209632Y-80875505D01*
X145222064Y-80873600D01*
X145252217Y-80862023D01*
X145292223Y-80833300D01*
X145332198Y-80796443D01*
X145362259Y-80760464D01*
X145372667Y-80736291D01*
X145367251Y-80714877D01*
X145348669Y-80698123D01*
X145313422Y-80685425D01*
X145258011Y-80676181D01*
X145178938Y-80669787D01*
X145072701Y-80665639D01*
X144949334Y-80663307D01*
X144826196Y-80661116D01*
X144730987Y-80657865D01*
X144657775Y-80653051D01*
X144600627Y-80646167D01*
X144553611Y-80636709D01*
X144518270Y-80626620D01*
X144465235Y-80608955D01*
X144441190Y-80598147D01*
X144442663Y-80591398D01*
X144466183Y-80585913D01*
X144467470Y-80585691D01*
X144505520Y-80571911D01*
X144521245Y-80541266D01*
X144522991Y-80529595D01*
X144523128Y-80493428D01*
X144510506Y-80465279D01*
X144479929Y-80440690D01*
X144426203Y-80415205D01*
X144360627Y-80390294D01*
X144272337Y-80356668D01*
X144207311Y-80326975D01*
X144156161Y-80296155D01*
X144109499Y-80259146D01*
X144097677Y-80248555D01*
X144050354Y-80205413D01*
X144106144Y-80186735D01*
X144148784Y-80164327D01*
X144166269Y-80130087D01*
X144167211Y-80123733D01*
X144162313Y-80065520D01*
X144129782Y-80022909D01*
X144074552Y-79994738D01*
X143898457Y-79925006D01*
X143741754Y-79848775D01*
X143608310Y-79768308D01*
X143501990Y-79685865D01*
X143443721Y-79625729D01*
X143398109Y-79562223D01*
X143379718Y-79512150D01*
X143387446Y-79470372D01*
X143405202Y-79446029D01*
X143439613Y-79397542D01*
X143465807Y-79340058D01*
X143476134Y-79290612D01*
X143462866Y-79267914D01*
X143429814Y-79239567D01*
X143417688Y-79231574D01*
X143350811Y-79205732D01*
X143285502Y-79212568D01*
G37*
X143285502Y-79212568D02*
X143220624Y-79252471D01*
X143159308Y-79320090D01*
X143063174Y-79458546D01*
X142994833Y-79581991D01*
X142953159Y-79693032D01*
X142937023Y-79794282D01*
X142937525Y-79833537D01*
X142949971Y-79900075D01*
X142974507Y-79936175D01*
X143007918Y-79941610D01*
X143046986Y-79916151D01*
X143088493Y-79859571D01*
X143096638Y-79844816D01*
X143129308Y-79787492D01*
X143164446Y-79732093D01*
X143171967Y-79721244D01*
X143210757Y-79666767D01*
X143246055Y-79715617D01*
X143329399Y-79817391D01*
X143430544Y-79914485D01*
X143531666Y-79995589D01*
X143589179Y-80038018D01*
X143636661Y-80071502D01*
X143667633Y-80091556D01*
X143675599Y-80095275D01*
X143707032Y-80110877D01*
X143745159Y-80149308D01*
X143784169Y-80201924D01*
X143818252Y-80260079D01*
X143841601Y-80315129D01*
X143848667Y-80352817D01*
X143859147Y-80385553D01*
X143864016Y-80391846D01*
X143876465Y-80416667D01*
X143895306Y-80469295D01*
X143919120Y-80544583D01*
X143946487Y-80637386D01*
X143975987Y-80742557D01*
X144006201Y-80854949D01*
X144035710Y-80969416D01*
X144063094Y-81080812D01*
X144086933Y-81183991D01*
X144101981Y-81254600D01*
X144115146Y-81313270D01*
X144128050Y-81360744D01*
X144135876Y-81382155D01*
X144148367Y-81416187D01*
X144160640Y-81463533D01*
X144161333Y-81466822D01*
X144177472Y-81536923D01*
X144198592Y-81618165D01*
X144221725Y-81700132D01*
X144243904Y-81772409D01*
X144262164Y-81824578D01*
X144265608Y-81832892D01*
X144281884Y-81879300D01*
X144288926Y-81917567D01*
X144288934Y-81918405D01*
X144296196Y-81953839D01*
X144303822Y-81966646D01*
X144317934Y-81992103D01*
X144334836Y-82035812D01*
X144339575Y-82050466D01*
X144368852Y-82128961D01*
X144412989Y-82226736D01*
X144467459Y-82335302D01*
X144527736Y-82446170D01*
X144589294Y-82550849D01*
X144647607Y-82640852D01*
X144673607Y-82676999D01*
X144830577Y-82866569D01*
X144997870Y-83030369D01*
X145180152Y-83171714D01*
X145382084Y-83293917D01*
X145608330Y-83400291D01*
X145787534Y-83468461D01*
X145963259Y-83523001D01*
X146141976Y-83565838D01*
X146316713Y-83595933D01*
X146480500Y-83612249D01*
X146626369Y-83613747D01*
X146710400Y-83605973D01*
X146747827Y-83600534D01*
X146806576Y-83592052D01*
X146874449Y-83582289D01*
X146879734Y-83581531D01*
X146987358Y-83561568D01*
X147105695Y-83532268D01*
X147221680Y-83497350D01*
X147322251Y-83460536D01*
X147355226Y-83446117D01*
X147511768Y-83370716D01*
X147642364Y-83302818D01*
X147701001Y-83269809D01*
X147758972Y-83233629D01*
X147837841Y-83181049D01*
X147931673Y-83116334D01*
X148034533Y-83043746D01*
X148140485Y-82967548D01*
X148243595Y-82892004D01*
X148337927Y-82821378D01*
X148417547Y-82759932D01*
X148470339Y-82717168D01*
X148510338Y-82684791D01*
X148564474Y-82642686D01*
X148626839Y-82595242D01*
X148691523Y-82546847D01*
X148752618Y-82501888D01*
X148804214Y-82464755D01*
X148840403Y-82439835D01*
X148855056Y-82431466D01*
X148874610Y-82422228D01*
X148909086Y-82399329D01*
X148918602Y-82392361D01*
X148961399Y-82364041D01*
X149020947Y-82329034D01*
X149077318Y-82298614D01*
X149183636Y-82243973D01*
X149305918Y-82289477D01*
X149381217Y-82314345D01*
X149459416Y-82335194D01*
X149521334Y-82347146D01*
X149636859Y-82350044D01*
X149762784Y-82333084D01*
X149884354Y-82299082D01*
X149967838Y-82261899D01*
X150066054Y-82207997D01*
X150054628Y-82299453D01*
X150049811Y-82356942D01*
X150054359Y-82391436D01*
X150069666Y-82412856D01*
X150070711Y-82413740D01*
X150108373Y-82426080D01*
X150151232Y-82407867D01*
X150196875Y-82361547D01*
X150242892Y-82289568D01*
X150286862Y-82194399D01*
X150304996Y-82126033D01*
X150315147Y-82039642D01*
X150317320Y-81946413D01*
X150311519Y-81857531D01*
X150297748Y-81784183D01*
X150286687Y-81754329D01*
X150246615Y-81698805D01*
X150195793Y-81666185D01*
X150142065Y-81660581D01*
X150120548Y-81667259D01*
X150098495Y-81681193D01*
X150085976Y-81702746D01*
X150082110Y-81738611D01*
X150086017Y-81795478D01*
X150094639Y-81864199D01*
X150099937Y-81916026D01*
X150095552Y-81946631D01*
X150078227Y-81968044D01*
X150063522Y-81979186D01*
X149987721Y-82024696D01*
X149897615Y-82066568D01*
X149809185Y-82097850D01*
X149767624Y-82107917D01*
X149701584Y-82114088D01*
X149622808Y-82112593D01*
X149543610Y-82104566D01*
X149476307Y-82091138D01*
X149440324Y-82077823D01*
X149396550Y-82062371D01*
X149370092Y-82058933D01*
X149328522Y-82050031D01*
X149266085Y-82025689D01*
X149189956Y-81989452D01*
X149107314Y-81944863D01*
X149025336Y-81895467D01*
X148984689Y-81868603D01*
X148926112Y-81831390D01*
X148875019Y-81804201D01*
X148839737Y-81791278D01*
X148832289Y-81790974D01*
X148802654Y-81809660D01*
X148797376Y-81846555D01*
X148815891Y-81896939D01*
X148851171Y-81948390D01*
X148884201Y-81990085D01*
X148906199Y-82020507D01*
X148911734Y-82030804D01*
X148897195Y-82041997D01*
X148863100Y-82049963D01*
X148823726Y-82052901D01*
X148793354Y-82049014D01*
X148788274Y-82046357D01*
X148762608Y-82033018D01*
X148715248Y-82013179D01*
X148658127Y-81991750D01*
X148592252Y-81963097D01*
X148513808Y-81921337D01*
X148436946Y-81874171D01*
X148416456Y-81860220D01*
X148339862Y-81810033D01*
X148285772Y-81783279D01*
X148252424Y-81779765D01*
X148238056Y-81799301D01*
X148240787Y-81841100D01*
X148259660Y-81887438D01*
X148293117Y-81935831D01*
X148301924Y-81945455D01*
X148331441Y-81978351D01*
X148346006Y-82000056D01*
X148346134Y-82003644D01*
X148327647Y-82001440D01*
X148290591Y-81986756D01*
X148245309Y-81964750D01*
X148202144Y-81940579D01*
X148171438Y-81919402D01*
X148165456Y-81913540D01*
X148141027Y-81893062D01*
X148130217Y-81889599D01*
X148111173Y-81879130D01*
X148073317Y-81851212D01*
X148022984Y-81811079D01*
X147966511Y-81763966D01*
X147910232Y-81715105D01*
X147860485Y-81669732D01*
X147839398Y-81649351D01*
X147803239Y-81616085D01*
X147775958Y-81604001D01*
X147743413Y-81609445D01*
X147719036Y-81618247D01*
X147686133Y-81640129D01*
X147675729Y-81678653D01*
X147675600Y-81685980D01*
X147675600Y-81737199D01*
X147560625Y-81737199D01*
X147430255Y-81726923D01*
X147302167Y-81698255D01*
X147190243Y-81654437D01*
X147177546Y-81647765D01*
X147123835Y-81616137D01*
X147051270Y-81570218D01*
X146968333Y-81515707D01*
X146883505Y-81458303D01*
X146805270Y-81403705D01*
X146742110Y-81357614D01*
X146718867Y-81339567D01*
X146630774Y-81285412D01*
X146518184Y-81241973D01*
X146389413Y-81211573D01*
X146252772Y-81196537D01*
X146202800Y-81195333D01*
X146107323Y-81192230D01*
X146004324Y-81183668D01*
X145900427Y-81170769D01*
X145802260Y-81154654D01*
X145716448Y-81136447D01*
X145649617Y-81117267D01*
X145608392Y-81098237D01*
X145603021Y-81093793D01*
X145572805Y-81079333D01*
X145552948Y-81076800D01*
X145516983Y-81068765D01*
X145460873Y-81047351D01*
X145393518Y-81016593D01*
X145323819Y-80980526D01*
X145266834Y-80947106D01*
X145224154Y-80915352D01*
X145204216Y-80890054D01*
X145209632Y-80875505D01*
X145222064Y-80873600D01*
X145252217Y-80862023D01*
X145292223Y-80833300D01*
X145332198Y-80796443D01*
X145362259Y-80760464D01*
X145372667Y-80736291D01*
X145367251Y-80714877D01*
X145348669Y-80698123D01*
X145313422Y-80685425D01*
X145258011Y-80676181D01*
X145178938Y-80669787D01*
X145072701Y-80665639D01*
X144949334Y-80663307D01*
X144826196Y-80661116D01*
X144730987Y-80657865D01*
X144657775Y-80653051D01*
X144600627Y-80646167D01*
X144553611Y-80636709D01*
X144518270Y-80626620D01*
X144465235Y-80608955D01*
X144441190Y-80598147D01*
X144442663Y-80591398D01*
X144466183Y-80585913D01*
X144467470Y-80585691D01*
X144505520Y-80571911D01*
X144521245Y-80541266D01*
X144522991Y-80529595D01*
X144523128Y-80493428D01*
X144510506Y-80465279D01*
X144479929Y-80440690D01*
X144426203Y-80415205D01*
X144360627Y-80390294D01*
X144272337Y-80356668D01*
X144207311Y-80326975D01*
X144156161Y-80296155D01*
X144109499Y-80259146D01*
X144097677Y-80248555D01*
X144050354Y-80205413D01*
X144106144Y-80186735D01*
X144148784Y-80164327D01*
X144166269Y-80130087D01*
X144167211Y-80123733D01*
X144162313Y-80065520D01*
X144129782Y-80022909D01*
X144074552Y-79994738D01*
X143898457Y-79925006D01*
X143741754Y-79848775D01*
X143608310Y-79768308D01*
X143501990Y-79685865D01*
X143443721Y-79625729D01*
X143398109Y-79562223D01*
X143379718Y-79512150D01*
X143387446Y-79470372D01*
X143405202Y-79446029D01*
X143439613Y-79397542D01*
X143465807Y-79340058D01*
X143476134Y-79290612D01*
X143462866Y-79267914D01*
X143429814Y-79239567D01*
X143417688Y-79231574D01*
X143350811Y-79205732D01*
X143285502Y-79212568D01*
G36*
X146462730Y-75766499D02*
G01*
X146345690Y-75792595D01*
X146341782Y-75793867D01*
X146272110Y-75818018D01*
X146204646Y-75843283D01*
X146160067Y-75861592D01*
X146106881Y-75883780D01*
X146059218Y-75901368D01*
X146050000Y-75904291D01*
X146015565Y-75918324D01*
X145974057Y-75943554D01*
X145919508Y-75984045D01*
X145850139Y-76040374D01*
X145804336Y-76077271D01*
X145763284Y-76108434D01*
X145751725Y-76116574D01*
X145722516Y-76142584D01*
X145680035Y-76187868D01*
X145631073Y-76244416D01*
X145582420Y-76304218D01*
X145540868Y-76359263D01*
X145520428Y-76389419D01*
X145434992Y-76550709D01*
X145368446Y-76728736D01*
X145324984Y-76910887D01*
X145311700Y-77017300D01*
X145306332Y-77087341D01*
X145299000Y-77132978D01*
X145283344Y-77160171D01*
X145253003Y-77174883D01*
X145201616Y-77183076D01*
X145127134Y-77190288D01*
X145038719Y-77200106D01*
X144936492Y-77213294D01*
X144830081Y-77228428D01*
X144729116Y-77244082D01*
X144643226Y-77258831D01*
X144585267Y-77270497D01*
X144450432Y-77286552D01*
X144300703Y-77277512D01*
X144159125Y-77248182D01*
X144087629Y-77228874D01*
X144020955Y-77211474D01*
X143972057Y-77199353D01*
X143967201Y-77198231D01*
X143916093Y-77185769D01*
X143873804Y-77174109D01*
X143872432Y-77173685D01*
X143839837Y-77174154D01*
X143802020Y-77198588D01*
X143783532Y-77216007D01*
X143747179Y-77260328D01*
X143730792Y-77307622D01*
X143727170Y-77348535D01*
X143726653Y-77451859D01*
X143734624Y-77528326D01*
X143752017Y-77584095D01*
X143766724Y-77609292D01*
X143787630Y-77640793D01*
X143795187Y-77656661D01*
X143794787Y-77657075D01*
X143777192Y-77661594D01*
X143734434Y-77673052D01*
X143674011Y-77689430D01*
X143637001Y-77699522D01*
X143554253Y-77722046D01*
X143469636Y-77744942D01*
X143398320Y-77764108D01*
X143383000Y-77768194D01*
X143324722Y-77785900D01*
X143277587Y-77804144D01*
X143256000Y-77816091D01*
X143223281Y-77836060D01*
X143177018Y-77857183D01*
X143171334Y-77859384D01*
X143091734Y-77899097D01*
X143012533Y-77955386D01*
X142938493Y-78022773D01*
X142874373Y-78095779D01*
X142824936Y-78168924D01*
X142794942Y-78236729D01*
X142789152Y-78293715D01*
X142790005Y-78298236D01*
X142805794Y-78341204D01*
X142825289Y-78368370D01*
X142845949Y-78392284D01*
X142849601Y-78402809D01*
X142838158Y-78419757D01*
X142807184Y-78454579D01*
X142761708Y-78501832D01*
X142718367Y-78544829D01*
X142656897Y-78603316D01*
X142609157Y-78643491D01*
X142565415Y-78671468D01*
X142515943Y-78693362D01*
X142451010Y-78715287D01*
X142443200Y-78717745D01*
X142364386Y-78745965D01*
X142301295Y-78775352D01*
X142262406Y-78801927D01*
X142261167Y-78803197D01*
X142230324Y-78858925D01*
X142224442Y-78928345D01*
X142244061Y-79001684D01*
X142249580Y-79013086D01*
X142282295Y-79067396D01*
X142326692Y-79129986D01*
X142374243Y-79189746D01*
X142416416Y-79235569D01*
X142429134Y-79246916D01*
X142445767Y-79261885D01*
X142450731Y-79276171D01*
X142440982Y-79295958D01*
X142413473Y-79327427D01*
X142365190Y-79376733D01*
X142269495Y-79486979D01*
X142188549Y-79607227D01*
X142126482Y-79729886D01*
X142087421Y-79847365D01*
X142077345Y-79906003D01*
X142078412Y-79985492D01*
X142102006Y-80041205D01*
X142149731Y-80075995D01*
X142178043Y-80085227D01*
X142219403Y-80098598D01*
X142234476Y-80114990D01*
X142232236Y-80136027D01*
X142204139Y-80239249D01*
X142186025Y-80321435D01*
X142176060Y-80393288D01*
X142172409Y-80465509D01*
X142172267Y-80485746D01*
X142180232Y-80600999D01*
X142202437Y-80709738D01*
X142236348Y-80801554D01*
X142258668Y-80840484D01*
X142281738Y-80879760D01*
X142310387Y-80935978D01*
X142330599Y-80979558D01*
X142358180Y-81035857D01*
X142385739Y-81068845D01*
X142424145Y-81086407D01*
X142484268Y-81096427D01*
X142493123Y-81097459D01*
X142514576Y-81102172D01*
X142527549Y-81115214D01*
X142534805Y-81144069D01*
X142539110Y-81196219D01*
X142540667Y-81226120D01*
X142538488Y-81322054D01*
X142524199Y-81414851D01*
X142500055Y-81494427D01*
X142468306Y-81550700D01*
X142468109Y-81550933D01*
X142433510Y-81600160D01*
X142400277Y-81661134D01*
X142373946Y-81722073D01*
X142360054Y-81771197D01*
X142359143Y-81782792D01*
X142375688Y-81841751D01*
X142419306Y-81894031D01*
X142483316Y-81935703D01*
X142561036Y-81962843D01*
X142645786Y-81971524D01*
X142676671Y-81969382D01*
X142729767Y-81962570D01*
X142770794Y-81956388D01*
X142781557Y-81954337D01*
X142798081Y-81962314D01*
X142812433Y-81997066D01*
X142824184Y-82050466D01*
X142835666Y-82109074D01*
X142846289Y-82156329D01*
X142852257Y-82177466D01*
X142863208Y-82209301D01*
X142878647Y-82256911D01*
X142882963Y-82270599D01*
X142923661Y-82376204D01*
X142981113Y-82493121D01*
X143048262Y-82608582D01*
X143118050Y-82709816D01*
X143142845Y-82740775D01*
X143194383Y-82795749D01*
X143256958Y-82853433D01*
X143322532Y-82907313D01*
X143383071Y-82950874D01*
X143430537Y-82977604D01*
X143438890Y-82980728D01*
X143466654Y-83000126D01*
X143503237Y-83039224D01*
X143533921Y-83079950D01*
X143613037Y-83183636D01*
X143709641Y-83290226D01*
X143819454Y-83396576D01*
X143938195Y-83499546D01*
X144061586Y-83595992D01*
X144185348Y-83682773D01*
X144305200Y-83756746D01*
X144416863Y-83814769D01*
X144516058Y-83853701D01*
X144598506Y-83870398D01*
X144611009Y-83870800D01*
X144655536Y-83882472D01*
X144697258Y-83910096D01*
X144779282Y-83980440D01*
X144872003Y-84044514D01*
X144968552Y-84098898D01*
X145062061Y-84140169D01*
X145145663Y-84164908D01*
X145212490Y-84169693D01*
X145217169Y-84169071D01*
X145268767Y-84167900D01*
X145322350Y-84182793D01*
X145385839Y-84216773D01*
X145442669Y-84255135D01*
X145487489Y-84285636D01*
X145521225Y-84305951D01*
X145533587Y-84311066D01*
X145553513Y-84319152D01*
X145593414Y-84340286D01*
X145641385Y-84367971D01*
X145721300Y-84408640D01*
X145825634Y-84451332D01*
X145945338Y-84492894D01*
X146071365Y-84530173D01*
X146189236Y-84558864D01*
X146292705Y-84573571D01*
X146413476Y-84579097D01*
X146539540Y-84575830D01*
X146658886Y-84564159D01*
X146759505Y-84544474D01*
X146775476Y-84539872D01*
X146828797Y-84524691D01*
X146865096Y-84520961D01*
X146899550Y-84529625D01*
X146944810Y-84550399D01*
X147024801Y-84576621D01*
X147127086Y-84591063D01*
X147242023Y-84593212D01*
X147359969Y-84582555D01*
X147404667Y-84574824D01*
X147484977Y-84557190D01*
X147572269Y-84535566D01*
X147620847Y-84522279D01*
X147679093Y-84506437D01*
X147713947Y-84500817D01*
X147734207Y-84505125D01*
X147747847Y-84518010D01*
X147796235Y-84553193D01*
X147868862Y-84571673D01*
X147961084Y-84574436D01*
X148068262Y-84562469D01*
X148185752Y-84536759D01*
X148308914Y-84498292D01*
X148433105Y-84448055D01*
X148553685Y-84387034D01*
X148652318Y-84325752D01*
X148696300Y-84297765D01*
X148729990Y-84280220D01*
X148740377Y-84277200D01*
X148764088Y-84264735D01*
X148771192Y-84256033D01*
X148794129Y-84229463D01*
X148830503Y-84196426D01*
X148872893Y-84162481D01*
X148913879Y-84133188D01*
X148946038Y-84114106D01*
X148961950Y-84110793D01*
X148962534Y-84112700D01*
X148978067Y-84151319D01*
X149021366Y-84178542D01*
X149087475Y-84191716D01*
X149111647Y-84192533D01*
X149196808Y-84182288D01*
X149298185Y-84154058D01*
X149406028Y-84111598D01*
X149510588Y-84058665D01*
X149589067Y-84008625D01*
X149626868Y-83977912D01*
X149677493Y-83931914D01*
X149736010Y-83875693D01*
X149797483Y-83814313D01*
X149856980Y-83752836D01*
X149909565Y-83696326D01*
X149950304Y-83649847D01*
X149974265Y-83618460D01*
X149978534Y-83608975D01*
X149988166Y-83600156D01*
X150019664Y-83605793D01*
X150076932Y-83626619D01*
X150080587Y-83628091D01*
X150189073Y-83660408D01*
X150314931Y-83678621D01*
X150322190Y-83679160D01*
X150395254Y-83683151D01*
X150446650Y-83679912D01*
X150480189Y-83664653D01*
X150499678Y-83632585D01*
X150508927Y-83578920D01*
X150511745Y-83498867D01*
X150511934Y-83440593D01*
X150512628Y-83355526D01*
X150515768Y-83294999D01*
X150522938Y-83249697D01*
X150535724Y-83210304D01*
X150555710Y-83167506D01*
X150559743Y-83159599D01*
X150590223Y-83099887D01*
X150618314Y-83044297D01*
X150632590Y-83015666D01*
X150654805Y-82972284D01*
X150672979Y-82939466D01*
X150697292Y-82895075D01*
X150726915Y-82835249D01*
X150756949Y-82770622D01*
X150782492Y-82711826D01*
X150798646Y-82669494D01*
X150800798Y-82662121D01*
X150817954Y-82621489D01*
X150835329Y-82599421D01*
X150855876Y-82571188D01*
X150859067Y-82557392D01*
X150870300Y-82528985D01*
X150899594Y-82525340D01*
X150930539Y-82540552D01*
X150985142Y-82563431D01*
X151040504Y-82562153D01*
X151084095Y-82537013D01*
X151084145Y-82536958D01*
X151101595Y-82508172D01*
X151125588Y-82456204D01*
X151152126Y-82390058D01*
X151164706Y-82355595D01*
X151187587Y-82287068D01*
X151203498Y-82227266D01*
X151214089Y-82166090D01*
X151221008Y-82093440D01*
X151225906Y-81999214D01*
X151226863Y-81974937D01*
X151229494Y-81843697D01*
X151225902Y-81734282D01*
X151215529Y-81635127D01*
X151208194Y-81589025D01*
X151196180Y-81517903D01*
X151186846Y-81458031D01*
X151181532Y-81418233D01*
X151180800Y-81408599D01*
X151195524Y-81389534D01*
X151232725Y-81369319D01*
X151252767Y-81362040D01*
X151320262Y-81324818D01*
X151363532Y-81265646D01*
X151380216Y-81188442D01*
X151378877Y-81153000D01*
X151364060Y-81082046D01*
X151124472Y-81082046D01*
X151123576Y-81088869D01*
X151097424Y-81092940D01*
X151057139Y-81073106D01*
X151008199Y-81033070D01*
X150956079Y-80976540D01*
X150954247Y-80974286D01*
X150901005Y-80914295D01*
X150859381Y-80882475D01*
X150825195Y-80877043D01*
X150794267Y-80896215D01*
X150787766Y-80903233D01*
X150758426Y-80955447D01*
X150750001Y-81022889D01*
X150762687Y-81108923D01*
X150796683Y-81216916D01*
X150807900Y-81246133D01*
X150871639Y-81419329D01*
X150917959Y-81574471D01*
X150949104Y-81721078D01*
X150967320Y-81868669D01*
X150972107Y-81942192D01*
X150975101Y-82028461D01*
X150975617Y-82106527D01*
X150973741Y-82167925D01*
X150969559Y-82204188D01*
X150969437Y-82204659D01*
X150956376Y-82253666D01*
X150933885Y-82202866D01*
X150917566Y-82156019D01*
X150910631Y-82117377D01*
X150898966Y-82086670D01*
X150869679Y-82043880D01*
X150841505Y-82011544D01*
X150789077Y-81962814D01*
X150749890Y-81941565D01*
X150722231Y-81949070D01*
X150704389Y-81986603D01*
X150694649Y-82055437D01*
X150691736Y-82122918D01*
X150682803Y-82233341D01*
X150659424Y-82347992D01*
X150620008Y-82471185D01*
X150562966Y-82607231D01*
X150486708Y-82760442D01*
X150396908Y-82922533D01*
X150335885Y-83032472D01*
X150291874Y-83122106D01*
X150262104Y-83198619D01*
X150243805Y-83269196D01*
X150234207Y-83341021D01*
X150233864Y-83345318D01*
X150224067Y-83471770D01*
X150193883Y-83425506D01*
X150174634Y-83383371D01*
X150171036Y-83332279D01*
X150174427Y-83298372D01*
X150176281Y-83218375D01*
X150160739Y-83153584D01*
X150130262Y-83109586D01*
X150087312Y-83091969D01*
X150083428Y-83091866D01*
X150054046Y-83096488D01*
X150026356Y-83114194D01*
X149993540Y-83150744D01*
X149959797Y-83196326D01*
X149836496Y-83360576D01*
X149713190Y-83507857D01*
X149593606Y-83634106D01*
X149481471Y-83735258D01*
X149428200Y-83775981D01*
X149369225Y-83815903D01*
X149309225Y-83853218D01*
X149256225Y-83883275D01*
X149218253Y-83901426D01*
X149206103Y-83904666D01*
X149204801Y-83889320D01*
X149206567Y-83849281D01*
X149210536Y-83798833D01*
X149214731Y-83739415D01*
X149211953Y-83702395D01*
X149199523Y-83676574D01*
X149175180Y-83651147D01*
X149130163Y-83609295D01*
X149050652Y-83651147D01*
X148995292Y-83686437D01*
X148932915Y-83735219D01*
X148887903Y-83776405D01*
X148823854Y-83837738D01*
X148750959Y-83903013D01*
X148675716Y-83966879D01*
X148604621Y-84023984D01*
X148544170Y-84068974D01*
X148500860Y-84096498D01*
X148497106Y-84098380D01*
X148449159Y-84125153D01*
X148396609Y-84159702D01*
X148387744Y-84166148D01*
X148348379Y-84192933D01*
X148319616Y-84208150D01*
X148314103Y-84209466D01*
X148289581Y-84216175D01*
X148250136Y-84232550D01*
X148245426Y-84234754D01*
X148196457Y-84254279D01*
X148134006Y-84274558D01*
X148105815Y-84282387D01*
X148019562Y-84304732D01*
X148042210Y-84261332D01*
X148061911Y-84212186D01*
X148058810Y-84172086D01*
X148037194Y-84131868D01*
X148011088Y-84102467D01*
X147978712Y-84097032D01*
X147957209Y-84100774D01*
X147907865Y-84117762D01*
X147853842Y-84144756D01*
X147845383Y-84149902D01*
X147796037Y-84177680D01*
X147750500Y-84198122D01*
X147743334Y-84200543D01*
X147701690Y-84215521D01*
X147647438Y-84237731D01*
X147627164Y-84246625D01*
X147582492Y-84261855D01*
X147513682Y-84279843D01*
X147430139Y-84298693D01*
X147341270Y-84316509D01*
X147256482Y-84331395D01*
X147185181Y-84341457D01*
X147139942Y-84344821D01*
X147105636Y-84330660D01*
X147094961Y-84311066D01*
X147075428Y-84283515D01*
X147056767Y-84277200D01*
X147030499Y-84279839D01*
X146980695Y-84286899D01*
X146915032Y-84297092D01*
X146841186Y-84309133D01*
X146766833Y-84321734D01*
X146699650Y-84333608D01*
X146647311Y-84343469D01*
X146617494Y-84350029D01*
X146613515Y-84351507D01*
X146594994Y-84353503D01*
X146549964Y-84353984D01*
X146485737Y-84353178D01*
X146409625Y-84351312D01*
X146328941Y-84348614D01*
X146250997Y-84345309D01*
X146183105Y-84341625D01*
X146132578Y-84337789D01*
X146117734Y-84336112D01*
X146030190Y-84316880D01*
X145923218Y-84282096D01*
X145805053Y-84235547D01*
X145683933Y-84181018D01*
X145568094Y-84122292D01*
X145465772Y-84063155D01*
X145385205Y-84007393D01*
X145364201Y-83989847D01*
X145309559Y-83947592D01*
X145248231Y-83909863D01*
X145190736Y-83882379D01*
X145147592Y-83870860D01*
X145145245Y-83870800D01*
X145107074Y-83880994D01*
X145088049Y-83898260D01*
X145076329Y-83911048D01*
X145057453Y-83910271D01*
X145024177Y-83893808D01*
X144980518Y-83866763D01*
X144932467Y-83831464D01*
X144869286Y-83778618D01*
X144799093Y-83715304D01*
X144730007Y-83648599D01*
X144728344Y-83646928D01*
X144625674Y-83547743D01*
X144539921Y-83473501D01*
X144471935Y-83424835D01*
X144422565Y-83402375D01*
X144399420Y-83402629D01*
X144380583Y-83425518D01*
X144374050Y-83465108D01*
X144380516Y-83506288D01*
X144393638Y-83528464D01*
X144406096Y-83550486D01*
X144403954Y-83558223D01*
X144383482Y-83556362D01*
X144343566Y-83535639D01*
X144289742Y-83500060D01*
X144227548Y-83453630D01*
X144162521Y-83400355D01*
X144100198Y-83344239D01*
X144077318Y-83321947D01*
X144018488Y-83261273D01*
X143960562Y-83198377D01*
X143908250Y-83138749D01*
X143866263Y-83087881D01*
X143839311Y-83051263D01*
X143831734Y-83035685D01*
X143823024Y-83018385D01*
X143800446Y-82981878D01*
X143775896Y-82944561D01*
X143735289Y-82870721D01*
X143695959Y-82775598D01*
X143662422Y-82671622D01*
X143639191Y-82571221D01*
X143638194Y-82565408D01*
X143618892Y-82511551D01*
X143586335Y-82465478D01*
X143585180Y-82464374D01*
X143549827Y-82439779D01*
X143518529Y-82440307D01*
X143487224Y-82468257D01*
X143451850Y-82525928D01*
X143441745Y-82545559D01*
X143398889Y-82630835D01*
X143357078Y-82594270D01*
X143274676Y-82503269D01*
X143205655Y-82385538D01*
X143149558Y-82239849D01*
X143105933Y-82064977D01*
X143074325Y-81859693D01*
X143069822Y-81818896D01*
X143059493Y-81735819D01*
X143047082Y-81659930D01*
X143034313Y-81600755D01*
X143025113Y-81572100D01*
X142992577Y-81528173D01*
X142949792Y-81515862D01*
X142898539Y-81535122D01*
X142849603Y-81576330D01*
X142801680Y-81621527D01*
X142750791Y-81662849D01*
X142704047Y-81695307D01*
X142668557Y-81713910D01*
X142652267Y-81714843D01*
X142652782Y-81694833D01*
X142667513Y-81665167D01*
X142686627Y-81629900D01*
X142712279Y-81574750D01*
X142738997Y-81511499D01*
X142739616Y-81509953D01*
X142756468Y-81466722D01*
X142768477Y-81429966D01*
X142776268Y-81393019D01*
X142780464Y-81349213D01*
X142781686Y-81291881D01*
X142780560Y-81214355D01*
X142777706Y-81109968D01*
X142777536Y-81104148D01*
X142771340Y-80960680D01*
X142761448Y-80847895D01*
X142746861Y-80762719D01*
X142726583Y-80702075D01*
X142699618Y-80662888D01*
X142664968Y-80642083D01*
X142625979Y-80636533D01*
X142589630Y-80642886D01*
X142565483Y-80668019D01*
X142552176Y-80695800D01*
X142532719Y-80734039D01*
X142515695Y-80754160D01*
X142512765Y-80755066D01*
X142502911Y-80739455D01*
X142491994Y-80697766D01*
X142481160Y-80637714D01*
X142471558Y-80567017D01*
X142464336Y-80493391D01*
X142460641Y-80424551D01*
X142460394Y-80403008D01*
X142469483Y-80298134D01*
X142494260Y-80176937D01*
X142531734Y-80051343D01*
X142577255Y-79936883D01*
X142610071Y-79859535D01*
X142625650Y-79805597D01*
X142624524Y-79769650D01*
X142607228Y-79746275D01*
X142596714Y-79739662D01*
X142567071Y-79726691D01*
X142541381Y-79726580D01*
X142511964Y-79742652D01*
X142471140Y-79778231D01*
X142441571Y-79806800D01*
X142384136Y-79858175D01*
X142341170Y-79886404D01*
X142315010Y-79890315D01*
X142307734Y-79873847D01*
X142319840Y-79841708D01*
X142353179Y-79792283D01*
X142403276Y-79730337D01*
X142465660Y-79660635D01*
X142535857Y-79587941D01*
X142609397Y-79517022D01*
X142681805Y-79452641D01*
X142748610Y-79399564D01*
X142761776Y-79390113D01*
X142842002Y-79330639D01*
X142895253Y-79283004D01*
X142924796Y-79243801D01*
X142933891Y-79210495D01*
X142925166Y-79183598D01*
X142895254Y-79163961D01*
X142839761Y-79149736D01*
X142766983Y-79140298D01*
X142675425Y-79122728D01*
X142598607Y-79091611D01*
X142544096Y-79050498D01*
X142527974Y-79028066D01*
X142522687Y-79007364D01*
X142536534Y-78989339D01*
X142575261Y-78967576D01*
X142587271Y-78961847D01*
X142633880Y-78941145D01*
X142667713Y-78928315D01*
X142676634Y-78926266D01*
X142707244Y-78915539D01*
X142754005Y-78887454D01*
X142808687Y-78848157D01*
X142863057Y-78803795D01*
X142908884Y-78760514D01*
X142928241Y-78738409D01*
X142987073Y-78668072D01*
X143054596Y-78595110D01*
X143124318Y-78525812D01*
X143189746Y-78466464D01*
X143244389Y-78423355D01*
X143269706Y-78407691D01*
X143348670Y-78361961D01*
X143408344Y-78316124D01*
X143446120Y-78273450D01*
X143459392Y-78237209D01*
X143445552Y-78210672D01*
X143432369Y-78203707D01*
X143399012Y-78201721D01*
X143341250Y-78209057D01*
X143266782Y-78224260D01*
X143183310Y-78245874D01*
X143138829Y-78259188D01*
X143093330Y-78271930D01*
X143063493Y-78277370D01*
X143057948Y-78276658D01*
X143065946Y-78263069D01*
X143092945Y-78234501D01*
X143119364Y-78209671D01*
X143186852Y-78159236D01*
X143277080Y-78106495D01*
X143379732Y-78056513D01*
X143484492Y-78014355D01*
X143572569Y-77987157D01*
X143635344Y-77970150D01*
X143688184Y-77953665D01*
X143719053Y-77941536D01*
X143735414Y-77934555D01*
X143761333Y-77926747D01*
X143800449Y-77917374D01*
X143856400Y-77905696D01*
X143932826Y-77890973D01*
X144033365Y-77872467D01*
X144161657Y-77849436D01*
X144245183Y-77834605D01*
X144331207Y-77818512D01*
X144405430Y-77803008D01*
X144461365Y-77789571D01*
X144492524Y-77779678D01*
X144496273Y-77777433D01*
X144505850Y-77750610D01*
X144506158Y-77714767D01*
X144489324Y-77676354D01*
X144447609Y-77649044D01*
X144378565Y-77631968D01*
X144279746Y-77624258D01*
X144249721Y-77623688D01*
X144182228Y-77620996D01*
X144125105Y-77615064D01*
X144089216Y-77607086D01*
X144086134Y-77605680D01*
X144061256Y-77583817D01*
X144030475Y-77546525D01*
X144002418Y-77505669D01*
X143985711Y-77473112D01*
X143984134Y-77465425D01*
X143998535Y-77464929D01*
X144035374Y-77473554D01*
X144064567Y-77482365D01*
X144134624Y-77497379D01*
X144227692Y-77506825D01*
X144333375Y-77510695D01*
X144441276Y-77508980D01*
X144541000Y-77501672D01*
X144622149Y-77488762D01*
X144644534Y-77482828D01*
X144748559Y-77457273D01*
X144880995Y-77435378D01*
X145036514Y-77417901D01*
X145173701Y-77407624D01*
X145338801Y-77397738D01*
X145338801Y-77441993D01*
X145348990Y-77506660D01*
X145377148Y-77590661D01*
X145419661Y-77687235D01*
X145472912Y-77789619D01*
X145533287Y-77891050D01*
X145597171Y-77984765D01*
X145660950Y-78064001D01*
X145684836Y-78089340D01*
X145756384Y-78156347D01*
X145835722Y-78222967D01*
X145913403Y-78281761D01*
X145979978Y-78325289D01*
X145994967Y-78333533D01*
X146037054Y-78357588D01*
X146062969Y-78376659D01*
X146066934Y-78382516D01*
X146056842Y-78401301D01*
X146031348Y-78435277D01*
X146016822Y-78452772D01*
X145986587Y-78490393D01*
X145968361Y-78517395D01*
X145966022Y-78523348D01*
X145956851Y-78543440D01*
X145934500Y-78580274D01*
X145922115Y-78598982D01*
X145856064Y-78712601D01*
X145793360Y-78850987D01*
X145737252Y-79005039D01*
X145690988Y-79165659D01*
X145657816Y-79323744D01*
X145653395Y-79351838D01*
X145636937Y-79565961D01*
X145648845Y-79784501D01*
X145687649Y-80001059D01*
X145751875Y-80209236D01*
X145840051Y-80402633D01*
X145927552Y-80543400D01*
X145990415Y-80623819D01*
X146064745Y-80706493D01*
X146144808Y-80786178D01*
X146224867Y-80857629D01*
X146299191Y-80915604D01*
X146362043Y-80954858D01*
X146390650Y-80966880D01*
X146433288Y-80985754D01*
X146456488Y-81001475D01*
X146492983Y-81021774D01*
X146555017Y-81044528D01*
X146634562Y-81067701D01*
X146723590Y-81089255D01*
X146814073Y-81107154D01*
X146897983Y-81119361D01*
X146933957Y-81122626D01*
X147091417Y-81122885D01*
X147255826Y-81105164D01*
X147409499Y-81071502D01*
X147430067Y-81065349D01*
X147518217Y-81032489D01*
X147620934Y-80985879D01*
X147725559Y-80931911D01*
X147819431Y-80876975D01*
X147868073Y-80844223D01*
X147982514Y-80750466D01*
X148096559Y-80638116D01*
X148202220Y-80516204D01*
X148291507Y-80393763D01*
X148342320Y-80308163D01*
X148373377Y-80250000D01*
X148399643Y-80202622D01*
X148416183Y-80174893D01*
X148417729Y-80172696D01*
X148431981Y-80144664D01*
X148452978Y-80092342D01*
X148477860Y-80023914D01*
X148503763Y-79947565D01*
X148527826Y-79871480D01*
X148547186Y-79803845D01*
X148548631Y-79798333D01*
X148560398Y-79738701D01*
X148571524Y-79657176D01*
X148580558Y-79565722D01*
X148585089Y-79497766D01*
X148591391Y-79403959D01*
X148599209Y-79338861D01*
X148601669Y-79329506D01*
X148366529Y-79329506D01*
X148364387Y-79457496D01*
X148354496Y-79582711D01*
X148337180Y-79693317D01*
X148329473Y-79726203D01*
X148304805Y-79812958D01*
X148277176Y-79897878D01*
X148249466Y-79973110D01*
X148224557Y-80030806D01*
X148206188Y-80062133D01*
X148187338Y-80094390D01*
X148183601Y-80110934D01*
X148174134Y-80141200D01*
X148149306Y-80188954D01*
X148114472Y-80244894D01*
X148074988Y-80299719D01*
X148074638Y-80300167D01*
X148041908Y-80341833D01*
X148002021Y-80392471D01*
X147988867Y-80409140D01*
X147858950Y-80549785D01*
X147709771Y-80669588D01*
X147546440Y-80765922D01*
X147374064Y-80836156D01*
X147197753Y-80877662D01*
X147057534Y-80888416D01*
X146969854Y-80885956D01*
X146877283Y-80879147D01*
X146797656Y-80869365D01*
X146786600Y-80867489D01*
X146638718Y-80825766D01*
X146489987Y-80755693D01*
X146347516Y-80661840D01*
X146218411Y-80548777D01*
X146125663Y-80442525D01*
X146054033Y-80329874D01*
X145988561Y-80190098D01*
X145931965Y-80029765D01*
X145891975Y-79878267D01*
X145877962Y-79786983D01*
X145870865Y-79675930D01*
X145870382Y-79555159D01*
X145876214Y-79434725D01*
X145888060Y-79324681D01*
X145905620Y-79235080D01*
X145911811Y-79214133D01*
X145930364Y-79152860D01*
X145943483Y-79100410D01*
X145948182Y-79069734D01*
X145957918Y-79029497D01*
X145974339Y-78998369D01*
X145996814Y-78958205D01*
X146019848Y-78905310D01*
X146024471Y-78892765D01*
X146073927Y-78786564D01*
X146147450Y-78673179D01*
X146239397Y-78558245D01*
X146344123Y-78447398D01*
X146455984Y-78346274D01*
X146569334Y-78260509D01*
X146678531Y-78195738D01*
X146753901Y-78164458D01*
X146812198Y-78143421D01*
X146877358Y-78116723D01*
X146896667Y-78108112D01*
X146960289Y-78089134D01*
X147047282Y-78077125D01*
X147149366Y-78071801D01*
X147258256Y-78072876D01*
X147365672Y-78080066D01*
X147463331Y-78093087D01*
X147542951Y-78111652D01*
X147590934Y-78131989D01*
X147628605Y-78151979D01*
X147641734Y-78157762D01*
X147748398Y-78206723D01*
X147841131Y-78264408D01*
X147931662Y-78338807D01*
X147990088Y-78395079D01*
X148048961Y-78456937D01*
X148101640Y-78517113D01*
X148141537Y-78567805D01*
X148159546Y-78595744D01*
X148188776Y-78651758D01*
X148217555Y-78706036D01*
X148220794Y-78712064D01*
X148248407Y-78774369D01*
X148279026Y-78862100D01*
X148310147Y-78967264D01*
X148339266Y-79081871D01*
X148346268Y-79112533D01*
X148360597Y-79210574D01*
X148366529Y-79329506D01*
X148601669Y-79329506D01*
X148608252Y-79304483D01*
X148613752Y-79299400D01*
X148638007Y-79302085D01*
X148686886Y-79308741D01*
X148751547Y-79318144D01*
X148780443Y-79322489D01*
X148983472Y-79336480D01*
X149187190Y-79317996D01*
X149385693Y-79267778D01*
X149470534Y-79235539D01*
X149613416Y-79168363D01*
X149731023Y-79098593D01*
X149785624Y-79058058D01*
X149862337Y-78995116D01*
X149975469Y-79089374D01*
X150023715Y-79131965D01*
X150089301Y-79193263D01*
X150166202Y-79267458D01*
X150248393Y-79348741D01*
X150327371Y-79428754D01*
X150409669Y-79512760D01*
X150472658Y-79575441D01*
X150520311Y-79620066D01*
X150556601Y-79649904D01*
X150585501Y-79668223D01*
X150610985Y-79678294D01*
X150636817Y-79683357D01*
X150690741Y-79694164D01*
X150713530Y-79706960D01*
X150704306Y-79720143D01*
X150663510Y-79731871D01*
X150599745Y-79734882D01*
X150514198Y-79726144D01*
X150416325Y-79706980D01*
X150340959Y-79686695D01*
X150276125Y-79673764D01*
X150235757Y-79682569D01*
X150217677Y-79713939D01*
X150216208Y-79734301D01*
X150226069Y-79772425D01*
X150257856Y-79814426D01*
X150294853Y-79849133D01*
X150506886Y-80054703D01*
X150701101Y-80287090D01*
X150874892Y-80542852D01*
X151019451Y-80805866D01*
X151048328Y-80868400D01*
X151076109Y-80935004D01*
X151099953Y-80997959D01*
X151117021Y-81049546D01*
X151124472Y-81082046D01*
X151364060Y-81082046D01*
X151363999Y-81081754D01*
X151332977Y-80987923D01*
X151288299Y-80877203D01*
X151232455Y-80755288D01*
X151167933Y-80627873D01*
X151097222Y-80500652D01*
X151083746Y-80477736D01*
X151046600Y-80413982D01*
X151017026Y-80361016D01*
X150998700Y-80325557D01*
X150994534Y-80314709D01*
X150983042Y-80294562D01*
X150969134Y-80280933D01*
X150947604Y-80251863D01*
X150943734Y-80236075D01*
X150933505Y-80212906D01*
X150906218Y-80171599D01*
X150866973Y-80119629D01*
X150849993Y-80098650D01*
X150756253Y-79985004D01*
X150803427Y-79969633D01*
X150882594Y-79932360D01*
X150951738Y-79878618D01*
X151005053Y-79815124D01*
X151036732Y-79748596D01*
X151042169Y-79693452D01*
X151033810Y-79668683D01*
X151012042Y-79643247D01*
X150972747Y-79614249D01*
X150911804Y-79578797D01*
X150825094Y-79533996D01*
X150791334Y-79517263D01*
X150728711Y-79482647D01*
X150664247Y-79438493D01*
X150593158Y-79380879D01*
X150510663Y-79305880D01*
X150411980Y-79209576D01*
X150392764Y-79190314D01*
X150321314Y-79119506D01*
X150248496Y-79049122D01*
X150182327Y-78986803D01*
X150130823Y-78940194D01*
X150126064Y-78936067D01*
X150079530Y-78893846D01*
X150045249Y-78858679D01*
X150029663Y-78837258D01*
X150029334Y-78835557D01*
X150039539Y-78814415D01*
X150066075Y-78776722D01*
X150097067Y-78738051D01*
X150132891Y-78691863D01*
X150157442Y-78653126D01*
X150164801Y-78633412D01*
X150174411Y-78602951D01*
X150195205Y-78568716D01*
X150218739Y-78526434D01*
X150246334Y-78460046D01*
X150274971Y-78378565D01*
X150301634Y-78291003D01*
X150323305Y-78206373D01*
X150333606Y-78155353D01*
X150344139Y-78047408D01*
X150343722Y-77920343D01*
X150342408Y-77904010D01*
X150128871Y-77904010D01*
X150126817Y-78002183D01*
X150121911Y-78096259D01*
X150114975Y-78166877D01*
X150104112Y-78224444D01*
X150087431Y-78279369D01*
X150066507Y-78333600D01*
X149988903Y-78502971D01*
X149904308Y-78644753D01*
X149808170Y-78765137D01*
X149695936Y-78870312D01*
X149639867Y-78913670D01*
X149486853Y-79005741D01*
X149316068Y-79073202D01*
X149134594Y-79114447D01*
X148949516Y-79127869D01*
X148767915Y-79111862D01*
X148766677Y-79111643D01*
X148676623Y-79094128D01*
X148615415Y-79077805D01*
X148578194Y-79060551D01*
X148560103Y-79040243D01*
X148556134Y-79019613D01*
X148550375Y-78982480D01*
X148535061Y-78922937D01*
X148513138Y-78850053D01*
X148487550Y-78772895D01*
X148461243Y-78700528D01*
X148437163Y-78642020D01*
X148426128Y-78619390D01*
X148393530Y-78563854D01*
X148357823Y-78509635D01*
X148357167Y-78508715D01*
X148332624Y-78471376D01*
X148319669Y-78445863D01*
X148319067Y-78442796D01*
X148308276Y-78421699D01*
X148279428Y-78382455D01*
X148237813Y-78331453D01*
X148188717Y-78275081D01*
X148137431Y-78219729D01*
X148117595Y-78199413D01*
X148045465Y-78132929D01*
X147967773Y-78071302D01*
X147894193Y-78021714D01*
X147840701Y-77993812D01*
X147803181Y-77973182D01*
X147797487Y-77952098D01*
X147819534Y-77927200D01*
X147840852Y-77902183D01*
X147844934Y-77890130D01*
X147854261Y-77867326D01*
X147877417Y-77830649D01*
X147884932Y-77820236D01*
X147919411Y-77760908D01*
X147955463Y-77677055D01*
X147990085Y-77577712D01*
X148020273Y-77471911D01*
X148043022Y-77368683D01*
X148050432Y-77322591D01*
X148062300Y-77246362D01*
X148075060Y-77194320D01*
X148092098Y-77156878D01*
X148101819Y-77144113D01*
X147857365Y-77144113D01*
X147835836Y-77336668D01*
X147782464Y-77530580D01*
X147697221Y-77723737D01*
X147644016Y-77817133D01*
X147612332Y-77854325D01*
X147576388Y-77863670D01*
X147572267Y-77863298D01*
X147487340Y-77855803D01*
X147388128Y-77850498D01*
X147282781Y-77847450D01*
X147179448Y-77846727D01*
X147086280Y-77848393D01*
X147011425Y-77852517D01*
X146966585Y-77858355D01*
X146848253Y-77887869D01*
X146732977Y-77924403D01*
X146632039Y-77964099D01*
X146574934Y-77992270D01*
X146523514Y-78020857D01*
X146479436Y-78045046D01*
X146464629Y-78053023D01*
X146412022Y-78084784D01*
X146353211Y-78125742D01*
X146302168Y-78165851D01*
X146282174Y-78184207D01*
X146254996Y-78205731D01*
X146225169Y-78212182D01*
X146185944Y-78202261D01*
X146130574Y-78174669D01*
X146080731Y-78145438D01*
X145921205Y-78030225D01*
X145785124Y-77893089D01*
X145674342Y-77737498D01*
X145590711Y-77566915D01*
X145536086Y-77384807D01*
X145512317Y-77194639D01*
X145513277Y-77084136D01*
X145522987Y-76965372D01*
X145539117Y-76867201D01*
X145565137Y-76776480D01*
X145604516Y-76680065D01*
X145638962Y-76608032D01*
X145740528Y-76440070D01*
X145867032Y-76292717D01*
X146015151Y-76168895D01*
X146181563Y-76071527D01*
X146306918Y-76020753D01*
X146368113Y-76001245D01*
X146421273Y-75987867D01*
X146475549Y-75979446D01*
X146540094Y-75974811D01*
X146624059Y-75972792D01*
X146685000Y-75972358D01*
X146780546Y-75972335D01*
X146851084Y-75974024D01*
X146905468Y-75978711D01*
X146952556Y-75987686D01*
X147001202Y-76002236D01*
X147060263Y-76023650D01*
X147074467Y-76029007D01*
X147150013Y-76059609D01*
X147221436Y-76092074D01*
X147277171Y-76121017D01*
X147292788Y-76130607D01*
X147339229Y-76161161D01*
X147377883Y-76185856D01*
X147387737Y-76191889D01*
X147450720Y-76238885D01*
X147522912Y-76308409D01*
X147597178Y-76393328D01*
X147625620Y-76429682D01*
X147731180Y-76595699D01*
X147805009Y-76771517D01*
X147847080Y-76955025D01*
X147857365Y-77144113D01*
X148101819Y-77144113D01*
X148116796Y-77124448D01*
X148122615Y-77118083D01*
X148168862Y-77075645D01*
X148234967Y-77023883D01*
X148311068Y-76969710D01*
X148387304Y-76920042D01*
X148453814Y-76881796D01*
X148472994Y-76872376D01*
X148592627Y-76829437D01*
X148730690Y-76799639D01*
X148878674Y-76783234D01*
X149028070Y-76780475D01*
X149170366Y-76791612D01*
X149297054Y-76816898D01*
X149377400Y-76845614D01*
X149571600Y-76949490D01*
X149736954Y-77071099D01*
X149873483Y-77210460D01*
X149981204Y-77367588D01*
X150012469Y-77427543D01*
X150066507Y-77550823D01*
X150102364Y-77663507D01*
X150122374Y-77777326D01*
X150128871Y-77904010D01*
X150342408Y-77904010D01*
X150332983Y-77786866D01*
X150312549Y-77659684D01*
X150308095Y-77639333D01*
X150287102Y-77561998D01*
X150258751Y-77476914D01*
X150226613Y-77393097D01*
X150194258Y-77319565D01*
X150165256Y-77265333D01*
X150153348Y-77248533D01*
X150134873Y-77220584D01*
X150130934Y-77208220D01*
X150119074Y-77183839D01*
X150086895Y-77142175D01*
X150039502Y-77088321D01*
X149981996Y-77027369D01*
X149919481Y-76964412D01*
X149857059Y-76904545D01*
X149799834Y-76852860D01*
X149752908Y-76814449D01*
X149721385Y-76794407D01*
X149714574Y-76792666D01*
X149694296Y-76783374D01*
X149659418Y-76760346D01*
X149649932Y-76753379D01*
X149608999Y-76729588D01*
X149545696Y-76700566D01*
X149468828Y-76669526D01*
X149387202Y-76639682D01*
X149309623Y-76614250D01*
X149244897Y-76596442D01*
X149201832Y-76589474D01*
X149200858Y-76589466D01*
X149149901Y-76583631D01*
X149100908Y-76571009D01*
X149049847Y-76562415D01*
X148974357Y-76561154D01*
X148882856Y-76566317D01*
X148783764Y-76576993D01*
X148685498Y-76592273D01*
X148596477Y-76611249D01*
X148525121Y-76633009D01*
X148524368Y-76633298D01*
X148388856Y-76689341D01*
X148276974Y-76744804D01*
X148178950Y-76804683D01*
X148150567Y-76824410D01*
X148058591Y-76890102D01*
X148005502Y-76726482D01*
X147922450Y-76521127D01*
X147813585Y-76337603D01*
X147678786Y-76175781D01*
X147517929Y-76035532D01*
X147330892Y-75916728D01*
X147159134Y-75835725D01*
X147037626Y-75796922D01*
X146897452Y-75770097D01*
X146748391Y-75755751D01*
X146600224Y-75754385D01*
X146462730Y-75766499D01*
G37*
X146462730Y-75766499D02*
X146345690Y-75792595D01*
X146341782Y-75793867D01*
X146272110Y-75818018D01*
X146204646Y-75843283D01*
X146160067Y-75861592D01*
X146106881Y-75883780D01*
X146059218Y-75901368D01*
X146050000Y-75904291D01*
X146015565Y-75918324D01*
X145974057Y-75943554D01*
X145919508Y-75984045D01*
X145850139Y-76040374D01*
X145804336Y-76077271D01*
X145763284Y-76108434D01*
X145751725Y-76116574D01*
X145722516Y-76142584D01*
X145680035Y-76187868D01*
X145631073Y-76244416D01*
X145582420Y-76304218D01*
X145540868Y-76359263D01*
X145520428Y-76389419D01*
X145434992Y-76550709D01*
X145368446Y-76728736D01*
X145324984Y-76910887D01*
X145311700Y-77017300D01*
X145306332Y-77087341D01*
X145299000Y-77132978D01*
X145283344Y-77160171D01*
X145253003Y-77174883D01*
X145201616Y-77183076D01*
X145127134Y-77190288D01*
X145038719Y-77200106D01*
X144936492Y-77213294D01*
X144830081Y-77228428D01*
X144729116Y-77244082D01*
X144643226Y-77258831D01*
X144585267Y-77270497D01*
X144450432Y-77286552D01*
X144300703Y-77277512D01*
X144159125Y-77248182D01*
X144087629Y-77228874D01*
X144020955Y-77211474D01*
X143972057Y-77199353D01*
X143967201Y-77198231D01*
X143916093Y-77185769D01*
X143873804Y-77174109D01*
X143872432Y-77173685D01*
X143839837Y-77174154D01*
X143802020Y-77198588D01*
X143783532Y-77216007D01*
X143747179Y-77260328D01*
X143730792Y-77307622D01*
X143727170Y-77348535D01*
X143726653Y-77451859D01*
X143734624Y-77528326D01*
X143752017Y-77584095D01*
X143766724Y-77609292D01*
X143787630Y-77640793D01*
X143795187Y-77656661D01*
X143794787Y-77657075D01*
X143777192Y-77661594D01*
X143734434Y-77673052D01*
X143674011Y-77689430D01*
X143637001Y-77699522D01*
X143554253Y-77722046D01*
X143469636Y-77744942D01*
X143398320Y-77764108D01*
X143383000Y-77768194D01*
X143324722Y-77785900D01*
X143277587Y-77804144D01*
X143256000Y-77816091D01*
X143223281Y-77836060D01*
X143177018Y-77857183D01*
X143171334Y-77859384D01*
X143091734Y-77899097D01*
X143012533Y-77955386D01*
X142938493Y-78022773D01*
X142874373Y-78095779D01*
X142824936Y-78168924D01*
X142794942Y-78236729D01*
X142789152Y-78293715D01*
X142790005Y-78298236D01*
X142805794Y-78341204D01*
X142825289Y-78368370D01*
X142845949Y-78392284D01*
X142849601Y-78402809D01*
X142838158Y-78419757D01*
X142807184Y-78454579D01*
X142761708Y-78501832D01*
X142718367Y-78544829D01*
X142656897Y-78603316D01*
X142609157Y-78643491D01*
X142565415Y-78671468D01*
X142515943Y-78693362D01*
X142451010Y-78715287D01*
X142443200Y-78717745D01*
X142364386Y-78745965D01*
X142301295Y-78775352D01*
X142262406Y-78801927D01*
X142261167Y-78803197D01*
X142230324Y-78858925D01*
X142224442Y-78928345D01*
X142244061Y-79001684D01*
X142249580Y-79013086D01*
X142282295Y-79067396D01*
X142326692Y-79129986D01*
X142374243Y-79189746D01*
X142416416Y-79235569D01*
X142429134Y-79246916D01*
X142445767Y-79261885D01*
X142450731Y-79276171D01*
X142440982Y-79295958D01*
X142413473Y-79327427D01*
X142365190Y-79376733D01*
X142269495Y-79486979D01*
X142188549Y-79607227D01*
X142126482Y-79729886D01*
X142087421Y-79847365D01*
X142077345Y-79906003D01*
X142078412Y-79985492D01*
X142102006Y-80041205D01*
X142149731Y-80075995D01*
X142178043Y-80085227D01*
X142219403Y-80098598D01*
X142234476Y-80114990D01*
X142232236Y-80136027D01*
X142204139Y-80239249D01*
X142186025Y-80321435D01*
X142176060Y-80393288D01*
X142172409Y-80465509D01*
X142172267Y-80485746D01*
X142180232Y-80600999D01*
X142202437Y-80709738D01*
X142236348Y-80801554D01*
X142258668Y-80840484D01*
X142281738Y-80879760D01*
X142310387Y-80935978D01*
X142330599Y-80979558D01*
X142358180Y-81035857D01*
X142385739Y-81068845D01*
X142424145Y-81086407D01*
X142484268Y-81096427D01*
X142493123Y-81097459D01*
X142514576Y-81102172D01*
X142527549Y-81115214D01*
X142534805Y-81144069D01*
X142539110Y-81196219D01*
X142540667Y-81226120D01*
X142538488Y-81322054D01*
X142524199Y-81414851D01*
X142500055Y-81494427D01*
X142468306Y-81550700D01*
X142468109Y-81550933D01*
X142433510Y-81600160D01*
X142400277Y-81661134D01*
X142373946Y-81722073D01*
X142360054Y-81771197D01*
X142359143Y-81782792D01*
X142375688Y-81841751D01*
X142419306Y-81894031D01*
X142483316Y-81935703D01*
X142561036Y-81962843D01*
X142645786Y-81971524D01*
X142676671Y-81969382D01*
X142729767Y-81962570D01*
X142770794Y-81956388D01*
X142781557Y-81954337D01*
X142798081Y-81962314D01*
X142812433Y-81997066D01*
X142824184Y-82050466D01*
X142835666Y-82109074D01*
X142846289Y-82156329D01*
X142852257Y-82177466D01*
X142863208Y-82209301D01*
X142878647Y-82256911D01*
X142882963Y-82270599D01*
X142923661Y-82376204D01*
X142981113Y-82493121D01*
X143048262Y-82608582D01*
X143118050Y-82709816D01*
X143142845Y-82740775D01*
X143194383Y-82795749D01*
X143256958Y-82853433D01*
X143322532Y-82907313D01*
X143383071Y-82950874D01*
X143430537Y-82977604D01*
X143438890Y-82980728D01*
X143466654Y-83000126D01*
X143503237Y-83039224D01*
X143533921Y-83079950D01*
X143613037Y-83183636D01*
X143709641Y-83290226D01*
X143819454Y-83396576D01*
X143938195Y-83499546D01*
X144061586Y-83595992D01*
X144185348Y-83682773D01*
X144305200Y-83756746D01*
X144416863Y-83814769D01*
X144516058Y-83853701D01*
X144598506Y-83870398D01*
X144611009Y-83870800D01*
X144655536Y-83882472D01*
X144697258Y-83910096D01*
X144779282Y-83980440D01*
X144872003Y-84044514D01*
X144968552Y-84098898D01*
X145062061Y-84140169D01*
X145145663Y-84164908D01*
X145212490Y-84169693D01*
X145217169Y-84169071D01*
X145268767Y-84167900D01*
X145322350Y-84182793D01*
X145385839Y-84216773D01*
X145442669Y-84255135D01*
X145487489Y-84285636D01*
X145521225Y-84305951D01*
X145533587Y-84311066D01*
X145553513Y-84319152D01*
X145593414Y-84340286D01*
X145641385Y-84367971D01*
X145721300Y-84408640D01*
X145825634Y-84451332D01*
X145945338Y-84492894D01*
X146071365Y-84530173D01*
X146189236Y-84558864D01*
X146292705Y-84573571D01*
X146413476Y-84579097D01*
X146539540Y-84575830D01*
X146658886Y-84564159D01*
X146759505Y-84544474D01*
X146775476Y-84539872D01*
X146828797Y-84524691D01*
X146865096Y-84520961D01*
X146899550Y-84529625D01*
X146944810Y-84550399D01*
X147024801Y-84576621D01*
X147127086Y-84591063D01*
X147242023Y-84593212D01*
X147359969Y-84582555D01*
X147404667Y-84574824D01*
X147484977Y-84557190D01*
X147572269Y-84535566D01*
X147620847Y-84522279D01*
X147679093Y-84506437D01*
X147713947Y-84500817D01*
X147734207Y-84505125D01*
X147747847Y-84518010D01*
X147796235Y-84553193D01*
X147868862Y-84571673D01*
X147961084Y-84574436D01*
X148068262Y-84562469D01*
X148185752Y-84536759D01*
X148308914Y-84498292D01*
X148433105Y-84448055D01*
X148553685Y-84387034D01*
X148652318Y-84325752D01*
X148696300Y-84297765D01*
X148729990Y-84280220D01*
X148740377Y-84277200D01*
X148764088Y-84264735D01*
X148771192Y-84256033D01*
X148794129Y-84229463D01*
X148830503Y-84196426D01*
X148872893Y-84162481D01*
X148913879Y-84133188D01*
X148946038Y-84114106D01*
X148961950Y-84110793D01*
X148962534Y-84112700D01*
X148978067Y-84151319D01*
X149021366Y-84178542D01*
X149087475Y-84191716D01*
X149111647Y-84192533D01*
X149196808Y-84182288D01*
X149298185Y-84154058D01*
X149406028Y-84111598D01*
X149510588Y-84058665D01*
X149589067Y-84008625D01*
X149626868Y-83977912D01*
X149677493Y-83931914D01*
X149736010Y-83875693D01*
X149797483Y-83814313D01*
X149856980Y-83752836D01*
X149909565Y-83696326D01*
X149950304Y-83649847D01*
X149974265Y-83618460D01*
X149978534Y-83608975D01*
X149988166Y-83600156D01*
X150019664Y-83605793D01*
X150076932Y-83626619D01*
X150080587Y-83628091D01*
X150189073Y-83660408D01*
X150314931Y-83678621D01*
X150322190Y-83679160D01*
X150395254Y-83683151D01*
X150446650Y-83679912D01*
X150480189Y-83664653D01*
X150499678Y-83632585D01*
X150508927Y-83578920D01*
X150511745Y-83498867D01*
X150511934Y-83440593D01*
X150512628Y-83355526D01*
X150515768Y-83294999D01*
X150522938Y-83249697D01*
X150535724Y-83210304D01*
X150555710Y-83167506D01*
X150559743Y-83159599D01*
X150590223Y-83099887D01*
X150618314Y-83044297D01*
X150632590Y-83015666D01*
X150654805Y-82972284D01*
X150672979Y-82939466D01*
X150697292Y-82895075D01*
X150726915Y-82835249D01*
X150756949Y-82770622D01*
X150782492Y-82711826D01*
X150798646Y-82669494D01*
X150800798Y-82662121D01*
X150817954Y-82621489D01*
X150835329Y-82599421D01*
X150855876Y-82571188D01*
X150859067Y-82557392D01*
X150870300Y-82528985D01*
X150899594Y-82525340D01*
X150930539Y-82540552D01*
X150985142Y-82563431D01*
X151040504Y-82562153D01*
X151084095Y-82537013D01*
X151084145Y-82536958D01*
X151101595Y-82508172D01*
X151125588Y-82456204D01*
X151152126Y-82390058D01*
X151164706Y-82355595D01*
X151187587Y-82287068D01*
X151203498Y-82227266D01*
X151214089Y-82166090D01*
X151221008Y-82093440D01*
X151225906Y-81999214D01*
X151226863Y-81974937D01*
X151229494Y-81843697D01*
X151225902Y-81734282D01*
X151215529Y-81635127D01*
X151208194Y-81589025D01*
X151196180Y-81517903D01*
X151186846Y-81458031D01*
X151181532Y-81418233D01*
X151180800Y-81408599D01*
X151195524Y-81389534D01*
X151232725Y-81369319D01*
X151252767Y-81362040D01*
X151320262Y-81324818D01*
X151363532Y-81265646D01*
X151380216Y-81188442D01*
X151378877Y-81153000D01*
X151364060Y-81082046D01*
X151124472Y-81082046D01*
X151123576Y-81088869D01*
X151097424Y-81092940D01*
X151057139Y-81073106D01*
X151008199Y-81033070D01*
X150956079Y-80976540D01*
X150954247Y-80974286D01*
X150901005Y-80914295D01*
X150859381Y-80882475D01*
X150825195Y-80877043D01*
X150794267Y-80896215D01*
X150787766Y-80903233D01*
X150758426Y-80955447D01*
X150750001Y-81022889D01*
X150762687Y-81108923D01*
X150796683Y-81216916D01*
X150807900Y-81246133D01*
X150871639Y-81419329D01*
X150917959Y-81574471D01*
X150949104Y-81721078D01*
X150967320Y-81868669D01*
X150972107Y-81942192D01*
X150975101Y-82028461D01*
X150975617Y-82106527D01*
X150973741Y-82167925D01*
X150969559Y-82204188D01*
X150969437Y-82204659D01*
X150956376Y-82253666D01*
X150933885Y-82202866D01*
X150917566Y-82156019D01*
X150910631Y-82117377D01*
X150898966Y-82086670D01*
X150869679Y-82043880D01*
X150841505Y-82011544D01*
X150789077Y-81962814D01*
X150749890Y-81941565D01*
X150722231Y-81949070D01*
X150704389Y-81986603D01*
X150694649Y-82055437D01*
X150691736Y-82122918D01*
X150682803Y-82233341D01*
X150659424Y-82347992D01*
X150620008Y-82471185D01*
X150562966Y-82607231D01*
X150486708Y-82760442D01*
X150396908Y-82922533D01*
X150335885Y-83032472D01*
X150291874Y-83122106D01*
X150262104Y-83198619D01*
X150243805Y-83269196D01*
X150234207Y-83341021D01*
X150233864Y-83345318D01*
X150224067Y-83471770D01*
X150193883Y-83425506D01*
X150174634Y-83383371D01*
X150171036Y-83332279D01*
X150174427Y-83298372D01*
X150176281Y-83218375D01*
X150160739Y-83153584D01*
X150130262Y-83109586D01*
X150087312Y-83091969D01*
X150083428Y-83091866D01*
X150054046Y-83096488D01*
X150026356Y-83114194D01*
X149993540Y-83150744D01*
X149959797Y-83196326D01*
X149836496Y-83360576D01*
X149713190Y-83507857D01*
X149593606Y-83634106D01*
X149481471Y-83735258D01*
X149428200Y-83775981D01*
X149369225Y-83815903D01*
X149309225Y-83853218D01*
X149256225Y-83883275D01*
X149218253Y-83901426D01*
X149206103Y-83904666D01*
X149204801Y-83889320D01*
X149206567Y-83849281D01*
X149210536Y-83798833D01*
X149214731Y-83739415D01*
X149211953Y-83702395D01*
X149199523Y-83676574D01*
X149175180Y-83651147D01*
X149130163Y-83609295D01*
X149050652Y-83651147D01*
X148995292Y-83686437D01*
X148932915Y-83735219D01*
X148887903Y-83776405D01*
X148823854Y-83837738D01*
X148750959Y-83903013D01*
X148675716Y-83966879D01*
X148604621Y-84023984D01*
X148544170Y-84068974D01*
X148500860Y-84096498D01*
X148497106Y-84098380D01*
X148449159Y-84125153D01*
X148396609Y-84159702D01*
X148387744Y-84166148D01*
X148348379Y-84192933D01*
X148319616Y-84208150D01*
X148314103Y-84209466D01*
X148289581Y-84216175D01*
X148250136Y-84232550D01*
X148245426Y-84234754D01*
X148196457Y-84254279D01*
X148134006Y-84274558D01*
X148105815Y-84282387D01*
X148019562Y-84304732D01*
X148042210Y-84261332D01*
X148061911Y-84212186D01*
X148058810Y-84172086D01*
X148037194Y-84131868D01*
X148011088Y-84102467D01*
X147978712Y-84097032D01*
X147957209Y-84100774D01*
X147907865Y-84117762D01*
X147853842Y-84144756D01*
X147845383Y-84149902D01*
X147796037Y-84177680D01*
X147750500Y-84198122D01*
X147743334Y-84200543D01*
X147701690Y-84215521D01*
X147647438Y-84237731D01*
X147627164Y-84246625D01*
X147582492Y-84261855D01*
X147513682Y-84279843D01*
X147430139Y-84298693D01*
X147341270Y-84316509D01*
X147256482Y-84331395D01*
X147185181Y-84341457D01*
X147139942Y-84344821D01*
X147105636Y-84330660D01*
X147094961Y-84311066D01*
X147075428Y-84283515D01*
X147056767Y-84277200D01*
X147030499Y-84279839D01*
X146980695Y-84286899D01*
X146915032Y-84297092D01*
X146841186Y-84309133D01*
X146766833Y-84321734D01*
X146699650Y-84333608D01*
X146647311Y-84343469D01*
X146617494Y-84350029D01*
X146613515Y-84351507D01*
X146594994Y-84353503D01*
X146549964Y-84353984D01*
X146485737Y-84353178D01*
X146409625Y-84351312D01*
X146328941Y-84348614D01*
X146250997Y-84345309D01*
X146183105Y-84341625D01*
X146132578Y-84337789D01*
X146117734Y-84336112D01*
X146030190Y-84316880D01*
X145923218Y-84282096D01*
X145805053Y-84235547D01*
X145683933Y-84181018D01*
X145568094Y-84122292D01*
X145465772Y-84063155D01*
X145385205Y-84007393D01*
X145364201Y-83989847D01*
X145309559Y-83947592D01*
X145248231Y-83909863D01*
X145190736Y-83882379D01*
X145147592Y-83870860D01*
X145145245Y-83870800D01*
X145107074Y-83880994D01*
X145088049Y-83898260D01*
X145076329Y-83911048D01*
X145057453Y-83910271D01*
X145024177Y-83893808D01*
X144980518Y-83866763D01*
X144932467Y-83831464D01*
X144869286Y-83778618D01*
X144799093Y-83715304D01*
X144730007Y-83648599D01*
X144728344Y-83646928D01*
X144625674Y-83547743D01*
X144539921Y-83473501D01*
X144471935Y-83424835D01*
X144422565Y-83402375D01*
X144399420Y-83402629D01*
X144380583Y-83425518D01*
X144374050Y-83465108D01*
X144380516Y-83506288D01*
X144393638Y-83528464D01*
X144406096Y-83550486D01*
X144403954Y-83558223D01*
X144383482Y-83556362D01*
X144343566Y-83535639D01*
X144289742Y-83500060D01*
X144227548Y-83453630D01*
X144162521Y-83400355D01*
X144100198Y-83344239D01*
X144077318Y-83321947D01*
X144018488Y-83261273D01*
X143960562Y-83198377D01*
X143908250Y-83138749D01*
X143866263Y-83087881D01*
X143839311Y-83051263D01*
X143831734Y-83035685D01*
X143823024Y-83018385D01*
X143800446Y-82981878D01*
X143775896Y-82944561D01*
X143735289Y-82870721D01*
X143695959Y-82775598D01*
X143662422Y-82671622D01*
X143639191Y-82571221D01*
X143638194Y-82565408D01*
X143618892Y-82511551D01*
X143586335Y-82465478D01*
X143585180Y-82464374D01*
X143549827Y-82439779D01*
X143518529Y-82440307D01*
X143487224Y-82468257D01*
X143451850Y-82525928D01*
X143441745Y-82545559D01*
X143398889Y-82630835D01*
X143357078Y-82594270D01*
X143274676Y-82503269D01*
X143205655Y-82385538D01*
X143149558Y-82239849D01*
X143105933Y-82064977D01*
X143074325Y-81859693D01*
X143069822Y-81818896D01*
X143059493Y-81735819D01*
X143047082Y-81659930D01*
X143034313Y-81600755D01*
X143025113Y-81572100D01*
X142992577Y-81528173D01*
X142949792Y-81515862D01*
X142898539Y-81535122D01*
X142849603Y-81576330D01*
X142801680Y-81621527D01*
X142750791Y-81662849D01*
X142704047Y-81695307D01*
X142668557Y-81713910D01*
X142652267Y-81714843D01*
X142652782Y-81694833D01*
X142667513Y-81665167D01*
X142686627Y-81629900D01*
X142712279Y-81574750D01*
X142738997Y-81511499D01*
X142739616Y-81509953D01*
X142756468Y-81466722D01*
X142768477Y-81429966D01*
X142776268Y-81393019D01*
X142780464Y-81349213D01*
X142781686Y-81291881D01*
X142780560Y-81214355D01*
X142777706Y-81109968D01*
X142777536Y-81104148D01*
X142771340Y-80960680D01*
X142761448Y-80847895D01*
X142746861Y-80762719D01*
X142726583Y-80702075D01*
X142699618Y-80662888D01*
X142664968Y-80642083D01*
X142625979Y-80636533D01*
X142589630Y-80642886D01*
X142565483Y-80668019D01*
X142552176Y-80695800D01*
X142532719Y-80734039D01*
X142515695Y-80754160D01*
X142512765Y-80755066D01*
X142502911Y-80739455D01*
X142491994Y-80697766D01*
X142481160Y-80637714D01*
X142471558Y-80567017D01*
X142464336Y-80493391D01*
X142460641Y-80424551D01*
X142460394Y-80403008D01*
X142469483Y-80298134D01*
X142494260Y-80176937D01*
X142531734Y-80051343D01*
X142577255Y-79936883D01*
X142610071Y-79859535D01*
X142625650Y-79805597D01*
X142624524Y-79769650D01*
X142607228Y-79746275D01*
X142596714Y-79739662D01*
X142567071Y-79726691D01*
X142541381Y-79726580D01*
X142511964Y-79742652D01*
X142471140Y-79778231D01*
X142441571Y-79806800D01*
X142384136Y-79858175D01*
X142341170Y-79886404D01*
X142315010Y-79890315D01*
X142307734Y-79873847D01*
X142319840Y-79841708D01*
X142353179Y-79792283D01*
X142403276Y-79730337D01*
X142465660Y-79660635D01*
X142535857Y-79587941D01*
X142609397Y-79517022D01*
X142681805Y-79452641D01*
X142748610Y-79399564D01*
X142761776Y-79390113D01*
X142842002Y-79330639D01*
X142895253Y-79283004D01*
X142924796Y-79243801D01*
X142933891Y-79210495D01*
X142925166Y-79183598D01*
X142895254Y-79163961D01*
X142839761Y-79149736D01*
X142766983Y-79140298D01*
X142675425Y-79122728D01*
X142598607Y-79091611D01*
X142544096Y-79050498D01*
X142527974Y-79028066D01*
X142522687Y-79007364D01*
X142536534Y-78989339D01*
X142575261Y-78967576D01*
X142587271Y-78961847D01*
X142633880Y-78941145D01*
X142667713Y-78928315D01*
X142676634Y-78926266D01*
X142707244Y-78915539D01*
X142754005Y-78887454D01*
X142808687Y-78848157D01*
X142863057Y-78803795D01*
X142908884Y-78760514D01*
X142928241Y-78738409D01*
X142987073Y-78668072D01*
X143054596Y-78595110D01*
X143124318Y-78525812D01*
X143189746Y-78466464D01*
X143244389Y-78423355D01*
X143269706Y-78407691D01*
X143348670Y-78361961D01*
X143408344Y-78316124D01*
X143446120Y-78273450D01*
X143459392Y-78237209D01*
X143445552Y-78210672D01*
X143432369Y-78203707D01*
X143399012Y-78201721D01*
X143341250Y-78209057D01*
X143266782Y-78224260D01*
X143183310Y-78245874D01*
X143138829Y-78259188D01*
X143093330Y-78271930D01*
X143063493Y-78277370D01*
X143057948Y-78276658D01*
X143065946Y-78263069D01*
X143092945Y-78234501D01*
X143119364Y-78209671D01*
X143186852Y-78159236D01*
X143277080Y-78106495D01*
X143379732Y-78056513D01*
X143484492Y-78014355D01*
X143572569Y-77987157D01*
X143635344Y-77970150D01*
X143688184Y-77953665D01*
X143719053Y-77941536D01*
X143735414Y-77934555D01*
X143761333Y-77926747D01*
X143800449Y-77917374D01*
X143856400Y-77905696D01*
X143932826Y-77890973D01*
X144033365Y-77872467D01*
X144161657Y-77849436D01*
X144245183Y-77834605D01*
X144331207Y-77818512D01*
X144405430Y-77803008D01*
X144461365Y-77789571D01*
X144492524Y-77779678D01*
X144496273Y-77777433D01*
X144505850Y-77750610D01*
X144506158Y-77714767D01*
X144489324Y-77676354D01*
X144447609Y-77649044D01*
X144378565Y-77631968D01*
X144279746Y-77624258D01*
X144249721Y-77623688D01*
X144182228Y-77620996D01*
X144125105Y-77615064D01*
X144089216Y-77607086D01*
X144086134Y-77605680D01*
X144061256Y-77583817D01*
X144030475Y-77546525D01*
X144002418Y-77505669D01*
X143985711Y-77473112D01*
X143984134Y-77465425D01*
X143998535Y-77464929D01*
X144035374Y-77473554D01*
X144064567Y-77482365D01*
X144134624Y-77497379D01*
X144227692Y-77506825D01*
X144333375Y-77510695D01*
X144441276Y-77508980D01*
X144541000Y-77501672D01*
X144622149Y-77488762D01*
X144644534Y-77482828D01*
X144748559Y-77457273D01*
X144880995Y-77435378D01*
X145036514Y-77417901D01*
X145173701Y-77407624D01*
X145338801Y-77397738D01*
X145338801Y-77441993D01*
X145348990Y-77506660D01*
X145377148Y-77590661D01*
X145419661Y-77687235D01*
X145472912Y-77789619D01*
X145533287Y-77891050D01*
X145597171Y-77984765D01*
X145660950Y-78064001D01*
X145684836Y-78089340D01*
X145756384Y-78156347D01*
X145835722Y-78222967D01*
X145913403Y-78281761D01*
X145979978Y-78325289D01*
X145994967Y-78333533D01*
X146037054Y-78357588D01*
X146062969Y-78376659D01*
X146066934Y-78382516D01*
X146056842Y-78401301D01*
X146031348Y-78435277D01*
X146016822Y-78452772D01*
X145986587Y-78490393D01*
X145968361Y-78517395D01*
X145966022Y-78523348D01*
X145956851Y-78543440D01*
X145934500Y-78580274D01*
X145922115Y-78598982D01*
X145856064Y-78712601D01*
X145793360Y-78850987D01*
X145737252Y-79005039D01*
X145690988Y-79165659D01*
X145657816Y-79323744D01*
X145653395Y-79351838D01*
X145636937Y-79565961D01*
X145648845Y-79784501D01*
X145687649Y-80001059D01*
X145751875Y-80209236D01*
X145840051Y-80402633D01*
X145927552Y-80543400D01*
X145990415Y-80623819D01*
X146064745Y-80706493D01*
X146144808Y-80786178D01*
X146224867Y-80857629D01*
X146299191Y-80915604D01*
X146362043Y-80954858D01*
X146390650Y-80966880D01*
X146433288Y-80985754D01*
X146456488Y-81001475D01*
X146492983Y-81021774D01*
X146555017Y-81044528D01*
X146634562Y-81067701D01*
X146723590Y-81089255D01*
X146814073Y-81107154D01*
X146897983Y-81119361D01*
X146933957Y-81122626D01*
X147091417Y-81122885D01*
X147255826Y-81105164D01*
X147409499Y-81071502D01*
X147430067Y-81065349D01*
X147518217Y-81032489D01*
X147620934Y-80985879D01*
X147725559Y-80931911D01*
X147819431Y-80876975D01*
X147868073Y-80844223D01*
X147982514Y-80750466D01*
X148096559Y-80638116D01*
X148202220Y-80516204D01*
X148291507Y-80393763D01*
X148342320Y-80308163D01*
X148373377Y-80250000D01*
X148399643Y-80202622D01*
X148416183Y-80174893D01*
X148417729Y-80172696D01*
X148431981Y-80144664D01*
X148452978Y-80092342D01*
X148477860Y-80023914D01*
X148503763Y-79947565D01*
X148527826Y-79871480D01*
X148547186Y-79803845D01*
X148548631Y-79798333D01*
X148560398Y-79738701D01*
X148571524Y-79657176D01*
X148580558Y-79565722D01*
X148585089Y-79497766D01*
X148591391Y-79403959D01*
X148599209Y-79338861D01*
X148601669Y-79329506D01*
X148366529Y-79329506D01*
X148364387Y-79457496D01*
X148354496Y-79582711D01*
X148337180Y-79693317D01*
X148329473Y-79726203D01*
X148304805Y-79812958D01*
X148277176Y-79897878D01*
X148249466Y-79973110D01*
X148224557Y-80030806D01*
X148206188Y-80062133D01*
X148187338Y-80094390D01*
X148183601Y-80110934D01*
X148174134Y-80141200D01*
X148149306Y-80188954D01*
X148114472Y-80244894D01*
X148074988Y-80299719D01*
X148074638Y-80300167D01*
X148041908Y-80341833D01*
X148002021Y-80392471D01*
X147988867Y-80409140D01*
X147858950Y-80549785D01*
X147709771Y-80669588D01*
X147546440Y-80765922D01*
X147374064Y-80836156D01*
X147197753Y-80877662D01*
X147057534Y-80888416D01*
X146969854Y-80885956D01*
X146877283Y-80879147D01*
X146797656Y-80869365D01*
X146786600Y-80867489D01*
X146638718Y-80825766D01*
X146489987Y-80755693D01*
X146347516Y-80661840D01*
X146218411Y-80548777D01*
X146125663Y-80442525D01*
X146054033Y-80329874D01*
X145988561Y-80190098D01*
X145931965Y-80029765D01*
X145891975Y-79878267D01*
X145877962Y-79786983D01*
X145870865Y-79675930D01*
X145870382Y-79555159D01*
X145876214Y-79434725D01*
X145888060Y-79324681D01*
X145905620Y-79235080D01*
X145911811Y-79214133D01*
X145930364Y-79152860D01*
X145943483Y-79100410D01*
X145948182Y-79069734D01*
X145957918Y-79029497D01*
X145974339Y-78998369D01*
X145996814Y-78958205D01*
X146019848Y-78905310D01*
X146024471Y-78892765D01*
X146073927Y-78786564D01*
X146147450Y-78673179D01*
X146239397Y-78558245D01*
X146344123Y-78447398D01*
X146455984Y-78346274D01*
X146569334Y-78260509D01*
X146678531Y-78195738D01*
X146753901Y-78164458D01*
X146812198Y-78143421D01*
X146877358Y-78116723D01*
X146896667Y-78108112D01*
X146960289Y-78089134D01*
X147047282Y-78077125D01*
X147149366Y-78071801D01*
X147258256Y-78072876D01*
X147365672Y-78080066D01*
X147463331Y-78093087D01*
X147542951Y-78111652D01*
X147590934Y-78131989D01*
X147628605Y-78151979D01*
X147641734Y-78157762D01*
X147748398Y-78206723D01*
X147841131Y-78264408D01*
X147931662Y-78338807D01*
X147990088Y-78395079D01*
X148048961Y-78456937D01*
X148101640Y-78517113D01*
X148141537Y-78567805D01*
X148159546Y-78595744D01*
X148188776Y-78651758D01*
X148217555Y-78706036D01*
X148220794Y-78712064D01*
X148248407Y-78774369D01*
X148279026Y-78862100D01*
X148310147Y-78967264D01*
X148339266Y-79081871D01*
X148346268Y-79112533D01*
X148360597Y-79210574D01*
X148366529Y-79329506D01*
X148601669Y-79329506D01*
X148608252Y-79304483D01*
X148613752Y-79299400D01*
X148638007Y-79302085D01*
X148686886Y-79308741D01*
X148751547Y-79318144D01*
X148780443Y-79322489D01*
X148983472Y-79336480D01*
X149187190Y-79317996D01*
X149385693Y-79267778D01*
X149470534Y-79235539D01*
X149613416Y-79168363D01*
X149731023Y-79098593D01*
X149785624Y-79058058D01*
X149862337Y-78995116D01*
X149975469Y-79089374D01*
X150023715Y-79131965D01*
X150089301Y-79193263D01*
X150166202Y-79267458D01*
X150248393Y-79348741D01*
X150327371Y-79428754D01*
X150409669Y-79512760D01*
X150472658Y-79575441D01*
X150520311Y-79620066D01*
X150556601Y-79649904D01*
X150585501Y-79668223D01*
X150610985Y-79678294D01*
X150636817Y-79683357D01*
X150690741Y-79694164D01*
X150713530Y-79706960D01*
X150704306Y-79720143D01*
X150663510Y-79731871D01*
X150599745Y-79734882D01*
X150514198Y-79726144D01*
X150416325Y-79706980D01*
X150340959Y-79686695D01*
X150276125Y-79673764D01*
X150235757Y-79682569D01*
X150217677Y-79713939D01*
X150216208Y-79734301D01*
X150226069Y-79772425D01*
X150257856Y-79814426D01*
X150294853Y-79849133D01*
X150506886Y-80054703D01*
X150701101Y-80287090D01*
X150874892Y-80542852D01*
X151019451Y-80805866D01*
X151048328Y-80868400D01*
X151076109Y-80935004D01*
X151099953Y-80997959D01*
X151117021Y-81049546D01*
X151124472Y-81082046D01*
X151364060Y-81082046D01*
X151363999Y-81081754D01*
X151332977Y-80987923D01*
X151288299Y-80877203D01*
X151232455Y-80755288D01*
X151167933Y-80627873D01*
X151097222Y-80500652D01*
X151083746Y-80477736D01*
X151046600Y-80413982D01*
X151017026Y-80361016D01*
X150998700Y-80325557D01*
X150994534Y-80314709D01*
X150983042Y-80294562D01*
X150969134Y-80280933D01*
X150947604Y-80251863D01*
X150943734Y-80236075D01*
X150933505Y-80212906D01*
X150906218Y-80171599D01*
X150866973Y-80119629D01*
X150849993Y-80098650D01*
X150756253Y-79985004D01*
X150803427Y-79969633D01*
X150882594Y-79932360D01*
X150951738Y-79878618D01*
X151005053Y-79815124D01*
X151036732Y-79748596D01*
X151042169Y-79693452D01*
X151033810Y-79668683D01*
X151012042Y-79643247D01*
X150972747Y-79614249D01*
X150911804Y-79578797D01*
X150825094Y-79533996D01*
X150791334Y-79517263D01*
X150728711Y-79482647D01*
X150664247Y-79438493D01*
X150593158Y-79380879D01*
X150510663Y-79305880D01*
X150411980Y-79209576D01*
X150392764Y-79190314D01*
X150321314Y-79119506D01*
X150248496Y-79049122D01*
X150182327Y-78986803D01*
X150130823Y-78940194D01*
X150126064Y-78936067D01*
X150079530Y-78893846D01*
X150045249Y-78858679D01*
X150029663Y-78837258D01*
X150029334Y-78835557D01*
X150039539Y-78814415D01*
X150066075Y-78776722D01*
X150097067Y-78738051D01*
X150132891Y-78691863D01*
X150157442Y-78653126D01*
X150164801Y-78633412D01*
X150174411Y-78602951D01*
X150195205Y-78568716D01*
X150218739Y-78526434D01*
X150246334Y-78460046D01*
X150274971Y-78378565D01*
X150301634Y-78291003D01*
X150323305Y-78206373D01*
X150333606Y-78155353D01*
X150344139Y-78047408D01*
X150343722Y-77920343D01*
X150342408Y-77904010D01*
X150128871Y-77904010D01*
X150126817Y-78002183D01*
X150121911Y-78096259D01*
X150114975Y-78166877D01*
X150104112Y-78224444D01*
X150087431Y-78279369D01*
X150066507Y-78333600D01*
X149988903Y-78502971D01*
X149904308Y-78644753D01*
X149808170Y-78765137D01*
X149695936Y-78870312D01*
X149639867Y-78913670D01*
X149486853Y-79005741D01*
X149316068Y-79073202D01*
X149134594Y-79114447D01*
X148949516Y-79127869D01*
X148767915Y-79111862D01*
X148766677Y-79111643D01*
X148676623Y-79094128D01*
X148615415Y-79077805D01*
X148578194Y-79060551D01*
X148560103Y-79040243D01*
X148556134Y-79019613D01*
X148550375Y-78982480D01*
X148535061Y-78922937D01*
X148513138Y-78850053D01*
X148487550Y-78772895D01*
X148461243Y-78700528D01*
X148437163Y-78642020D01*
X148426128Y-78619390D01*
X148393530Y-78563854D01*
X148357823Y-78509635D01*
X148357167Y-78508715D01*
X148332624Y-78471376D01*
X148319669Y-78445863D01*
X148319067Y-78442796D01*
X148308276Y-78421699D01*
X148279428Y-78382455D01*
X148237813Y-78331453D01*
X148188717Y-78275081D01*
X148137431Y-78219729D01*
X148117595Y-78199413D01*
X148045465Y-78132929D01*
X147967773Y-78071302D01*
X147894193Y-78021714D01*
X147840701Y-77993812D01*
X147803181Y-77973182D01*
X147797487Y-77952098D01*
X147819534Y-77927200D01*
X147840852Y-77902183D01*
X147844934Y-77890130D01*
X147854261Y-77867326D01*
X147877417Y-77830649D01*
X147884932Y-77820236D01*
X147919411Y-77760908D01*
X147955463Y-77677055D01*
X147990085Y-77577712D01*
X148020273Y-77471911D01*
X148043022Y-77368683D01*
X148050432Y-77322591D01*
X148062300Y-77246362D01*
X148075060Y-77194320D01*
X148092098Y-77156878D01*
X148101819Y-77144113D01*
X147857365Y-77144113D01*
X147835836Y-77336668D01*
X147782464Y-77530580D01*
X147697221Y-77723737D01*
X147644016Y-77817133D01*
X147612332Y-77854325D01*
X147576388Y-77863670D01*
X147572267Y-77863298D01*
X147487340Y-77855803D01*
X147388128Y-77850498D01*
X147282781Y-77847450D01*
X147179448Y-77846727D01*
X147086280Y-77848393D01*
X147011425Y-77852517D01*
X146966585Y-77858355D01*
X146848253Y-77887869D01*
X146732977Y-77924403D01*
X146632039Y-77964099D01*
X146574934Y-77992270D01*
X146523514Y-78020857D01*
X146479436Y-78045046D01*
X146464629Y-78053023D01*
X146412022Y-78084784D01*
X146353211Y-78125742D01*
X146302168Y-78165851D01*
X146282174Y-78184207D01*
X146254996Y-78205731D01*
X146225169Y-78212182D01*
X146185944Y-78202261D01*
X146130574Y-78174669D01*
X146080731Y-78145438D01*
X145921205Y-78030225D01*
X145785124Y-77893089D01*
X145674342Y-77737498D01*
X145590711Y-77566915D01*
X145536086Y-77384807D01*
X145512317Y-77194639D01*
X145513277Y-77084136D01*
X145522987Y-76965372D01*
X145539117Y-76867201D01*
X145565137Y-76776480D01*
X145604516Y-76680065D01*
X145638962Y-76608032D01*
X145740528Y-76440070D01*
X145867032Y-76292717D01*
X146015151Y-76168895D01*
X146181563Y-76071527D01*
X146306918Y-76020753D01*
X146368113Y-76001245D01*
X146421273Y-75987867D01*
X146475549Y-75979446D01*
X146540094Y-75974811D01*
X146624059Y-75972792D01*
X146685000Y-75972358D01*
X146780546Y-75972335D01*
X146851084Y-75974024D01*
X146905468Y-75978711D01*
X146952556Y-75987686D01*
X147001202Y-76002236D01*
X147060263Y-76023650D01*
X147074467Y-76029007D01*
X147150013Y-76059609D01*
X147221436Y-76092074D01*
X147277171Y-76121017D01*
X147292788Y-76130607D01*
X147339229Y-76161161D01*
X147377883Y-76185856D01*
X147387737Y-76191889D01*
X147450720Y-76238885D01*
X147522912Y-76308409D01*
X147597178Y-76393328D01*
X147625620Y-76429682D01*
X147731180Y-76595699D01*
X147805009Y-76771517D01*
X147847080Y-76955025D01*
X147857365Y-77144113D01*
X148101819Y-77144113D01*
X148116796Y-77124448D01*
X148122615Y-77118083D01*
X148168862Y-77075645D01*
X148234967Y-77023883D01*
X148311068Y-76969710D01*
X148387304Y-76920042D01*
X148453814Y-76881796D01*
X148472994Y-76872376D01*
X148592627Y-76829437D01*
X148730690Y-76799639D01*
X148878674Y-76783234D01*
X149028070Y-76780475D01*
X149170366Y-76791612D01*
X149297054Y-76816898D01*
X149377400Y-76845614D01*
X149571600Y-76949490D01*
X149736954Y-77071099D01*
X149873483Y-77210460D01*
X149981204Y-77367588D01*
X150012469Y-77427543D01*
X150066507Y-77550823D01*
X150102364Y-77663507D01*
X150122374Y-77777326D01*
X150128871Y-77904010D01*
X150342408Y-77904010D01*
X150332983Y-77786866D01*
X150312549Y-77659684D01*
X150308095Y-77639333D01*
X150287102Y-77561998D01*
X150258751Y-77476914D01*
X150226613Y-77393097D01*
X150194258Y-77319565D01*
X150165256Y-77265333D01*
X150153348Y-77248533D01*
X150134873Y-77220584D01*
X150130934Y-77208220D01*
X150119074Y-77183839D01*
X150086895Y-77142175D01*
X150039502Y-77088321D01*
X149981996Y-77027369D01*
X149919481Y-76964412D01*
X149857059Y-76904545D01*
X149799834Y-76852860D01*
X149752908Y-76814449D01*
X149721385Y-76794407D01*
X149714574Y-76792666D01*
X149694296Y-76783374D01*
X149659418Y-76760346D01*
X149649932Y-76753379D01*
X149608999Y-76729588D01*
X149545696Y-76700566D01*
X149468828Y-76669526D01*
X149387202Y-76639682D01*
X149309623Y-76614250D01*
X149244897Y-76596442D01*
X149201832Y-76589474D01*
X149200858Y-76589466D01*
X149149901Y-76583631D01*
X149100908Y-76571009D01*
X149049847Y-76562415D01*
X148974357Y-76561154D01*
X148882856Y-76566317D01*
X148783764Y-76576993D01*
X148685498Y-76592273D01*
X148596477Y-76611249D01*
X148525121Y-76633009D01*
X148524368Y-76633298D01*
X148388856Y-76689341D01*
X148276974Y-76744804D01*
X148178950Y-76804683D01*
X148150567Y-76824410D01*
X148058591Y-76890102D01*
X148005502Y-76726482D01*
X147922450Y-76521127D01*
X147813585Y-76337603D01*
X147678786Y-76175781D01*
X147517929Y-76035532D01*
X147330892Y-75916728D01*
X147159134Y-75835725D01*
X147037626Y-75796922D01*
X146897452Y-75770097D01*
X146748391Y-75755751D01*
X146600224Y-75754385D01*
X146462730Y-75766499D01*
G36*
X123355875Y-77131403D02*
G01*
X123287319Y-77131652D01*
X123232503Y-77132144D01*
X123189830Y-77132942D01*
X123157703Y-77134108D01*
X123134525Y-77135706D01*
X123118699Y-77137799D01*
X123108630Y-77140448D01*
X123102719Y-77143717D01*
X123101705Y-77144638D01*
X123091070Y-77157738D01*
X123088400Y-77164091D01*
X123086898Y-77173523D01*
X123082619Y-77197745D01*
X123075902Y-77234905D01*
X123067084Y-77283149D01*
X123056507Y-77340623D01*
X123044507Y-77405475D01*
X123031425Y-77475851D01*
X123029373Y-77486862D01*
X123012903Y-77574269D01*
X122998945Y-77646171D01*
X122987231Y-77703765D01*
X122977491Y-77748252D01*
X122969459Y-77780828D01*
X122962866Y-77802693D01*
X122957443Y-77815044D01*
X122955289Y-77817841D01*
X122943722Y-77824678D01*
X122918587Y-77836812D01*
X122882053Y-77853286D01*
X122836289Y-77873145D01*
X122783464Y-77895434D01*
X122725746Y-77919197D01*
X122718656Y-77922078D01*
X122651105Y-77949285D01*
X122597439Y-77970401D01*
X122555976Y-77985997D01*
X122525035Y-77996646D01*
X122502933Y-78002921D01*
X122487989Y-78005394D01*
X122478521Y-78004638D01*
X122477356Y-78004238D01*
X122466102Y-77997814D01*
X122442588Y-77982859D01*
X122408471Y-77960479D01*
X122365414Y-77931783D01*
X122315077Y-77897877D01*
X122259119Y-77859869D01*
X122199202Y-77818867D01*
X122191670Y-77813692D01*
X122131756Y-77772734D01*
X122075885Y-77734975D01*
X122025660Y-77701466D01*
X121982687Y-77673260D01*
X121948569Y-77651408D01*
X121924912Y-77636961D01*
X121913320Y-77630971D01*
X121912729Y-77630867D01*
X121904034Y-77636669D01*
X121884803Y-77653211D01*
X121856408Y-77679193D01*
X121820222Y-77713319D01*
X121777620Y-77754290D01*
X121729973Y-77800808D01*
X121678656Y-77851574D01*
X121667413Y-77862781D01*
X121607313Y-77922929D01*
X121558303Y-77972393D01*
X121519353Y-78012310D01*
X121489430Y-78043818D01*
X121467503Y-78068056D01*
X121452539Y-78086162D01*
X121443507Y-78099273D01*
X121439375Y-78108527D01*
X121439023Y-78114665D01*
X121444599Y-78125989D01*
X121458758Y-78149539D01*
X121480409Y-78183644D01*
X121508461Y-78226633D01*
X121541822Y-78276834D01*
X121579400Y-78332576D01*
X121620105Y-78392189D01*
X121623449Y-78397054D01*
X121677794Y-78476636D01*
X121722180Y-78542875D01*
X121756760Y-78596013D01*
X121781688Y-78636291D01*
X121797115Y-78663948D01*
X121803194Y-78679227D01*
X121803307Y-78680687D01*
X121799794Y-78694504D01*
X121790345Y-78721242D01*
X121776021Y-78758412D01*
X121757886Y-78803529D01*
X121737002Y-78854107D01*
X121714431Y-78907659D01*
X121691237Y-78961698D01*
X121668482Y-79013738D01*
X121647228Y-79061294D01*
X121628538Y-79101877D01*
X121613475Y-79133003D01*
X121603101Y-79152184D01*
X121599924Y-79156600D01*
X121590186Y-79161759D01*
X121569282Y-79168395D01*
X121536276Y-79176715D01*
X121490235Y-79186929D01*
X121430224Y-79199244D01*
X121355308Y-79213868D01*
X121270709Y-79229859D01*
X121199701Y-79243225D01*
X121133821Y-79255817D01*
X121074952Y-79267260D01*
X121024976Y-79277180D01*
X120985777Y-79285204D01*
X120959236Y-79290956D01*
X120947237Y-79294062D01*
X120946859Y-79294242D01*
X120944247Y-79303659D01*
X120942093Y-79328573D01*
X120940388Y-79369246D01*
X120939127Y-79425942D01*
X120938302Y-79498925D01*
X120937907Y-79588457D01*
X120937867Y-79632696D01*
X120937956Y-79718867D01*
X120938256Y-79789583D01*
X120938820Y-79846323D01*
X120939699Y-79890564D01*
X120940942Y-79923785D01*
X120942603Y-79947464D01*
X120944732Y-79963079D01*
X120947380Y-79972107D01*
X120949752Y-79975457D01*
X120960557Y-79979224D01*
X120986085Y-79985609D01*
X121024400Y-79994202D01*
X121073563Y-80004594D01*
X121131637Y-80016375D01*
X121196685Y-80029137D01*
X121266770Y-80042468D01*
X121267431Y-80042592D01*
X121350901Y-80058499D01*
X121423398Y-80072877D01*
X121483859Y-80085493D01*
X121531225Y-80096115D01*
X121564433Y-80104512D01*
X121582423Y-80110450D01*
X121585116Y-80112082D01*
X121592049Y-80123883D01*
X121603901Y-80149129D01*
X121619715Y-80185387D01*
X121638529Y-80230224D01*
X121659384Y-80281204D01*
X121681319Y-80335895D01*
X121703377Y-80391863D01*
X121724595Y-80446673D01*
X121744015Y-80497892D01*
X121760677Y-80543085D01*
X121773620Y-80579821D01*
X121781886Y-80605663D01*
X121784533Y-80617738D01*
X121780944Y-80629867D01*
X121769872Y-80651617D01*
X121750864Y-80683712D01*
X121723466Y-80726875D01*
X121687224Y-80781829D01*
X121641684Y-80849297D01*
X121610967Y-80894252D01*
X121571113Y-80952734D01*
X121534482Y-81007187D01*
X121502153Y-81055957D01*
X121475203Y-81097385D01*
X121454710Y-81129817D01*
X121441751Y-81151595D01*
X121437400Y-81160964D01*
X121443217Y-81169770D01*
X121459807Y-81189093D01*
X121485877Y-81217570D01*
X121520134Y-81253837D01*
X121561287Y-81296530D01*
X121608044Y-81344286D01*
X121659111Y-81395739D01*
X121672998Y-81409617D01*
X121734436Y-81470724D01*
X121785109Y-81520653D01*
X121826063Y-81560357D01*
X121858346Y-81590792D01*
X121883007Y-81612909D01*
X121901092Y-81627663D01*
X121913650Y-81636007D01*
X121921727Y-81638895D01*
X121924514Y-81638554D01*
X121935037Y-81632453D01*
X121957773Y-81617866D01*
X121991007Y-81595939D01*
X122033025Y-81567818D01*
X122082113Y-81534649D01*
X122136555Y-81497579D01*
X122184552Y-81464690D01*
X122242141Y-81425453D01*
X122295893Y-81389474D01*
X122344087Y-81357856D01*
X122385001Y-81331703D01*
X122416914Y-81312119D01*
X122438103Y-81300205D01*
X122446333Y-81296933D01*
X122459808Y-81300762D01*
X122485013Y-81311297D01*
X122518823Y-81327112D01*
X122558115Y-81346781D01*
X122576167Y-81356200D01*
X122616411Y-81377029D01*
X122652033Y-81394656D01*
X122680060Y-81407669D01*
X122697519Y-81414661D01*
X122701150Y-81415467D01*
X122709302Y-81407966D01*
X122722457Y-81385301D01*
X122740737Y-81347226D01*
X122764261Y-81293495D01*
X122779672Y-81256717D01*
X122796698Y-81215593D01*
X122819200Y-81161261D01*
X122846168Y-81096153D01*
X122876595Y-81022705D01*
X122909473Y-80943350D01*
X122943792Y-80860522D01*
X122978544Y-80776656D01*
X123004991Y-80712836D01*
X123036581Y-80636318D01*
X123066094Y-80564263D01*
X123092906Y-80498236D01*
X123116390Y-80439806D01*
X123135922Y-80390539D01*
X123150876Y-80352001D01*
X123160627Y-80325760D01*
X123164551Y-80313382D01*
X123164600Y-80312893D01*
X123157886Y-80299972D01*
X123140769Y-80283845D01*
X123129193Y-80275728D01*
X123029870Y-80206106D01*
X122946340Y-80132182D01*
X122877752Y-80052780D01*
X122823258Y-79966724D01*
X122782007Y-79872835D01*
X122753149Y-79769938D01*
X122748993Y-79749251D01*
X122743456Y-79699984D01*
X122742566Y-79640486D01*
X122745971Y-79576706D01*
X122753320Y-79514591D01*
X122764261Y-79460090D01*
X122766590Y-79451528D01*
X122803971Y-79350289D01*
X122854993Y-79257907D01*
X122918311Y-79175393D01*
X122992583Y-79103764D01*
X123076466Y-79044034D01*
X123168614Y-78997216D01*
X123267686Y-78964327D01*
X123372338Y-78946379D01*
X123439767Y-78943200D01*
X123547215Y-78951325D01*
X123649922Y-78975025D01*
X123746541Y-79013284D01*
X123835732Y-79065088D01*
X123916149Y-79129423D01*
X123986450Y-79205274D01*
X124045291Y-79291627D01*
X124091328Y-79387467D01*
X124112943Y-79451528D01*
X124124495Y-79504021D01*
X124132518Y-79565202D01*
X124136661Y-79629121D01*
X124136572Y-79689832D01*
X124131899Y-79741385D01*
X124130540Y-79749251D01*
X124103944Y-79853995D01*
X124065115Y-79949506D01*
X124013205Y-80036962D01*
X123947363Y-80117539D01*
X123866740Y-80192414D01*
X123770486Y-80262763D01*
X123750340Y-80275728D01*
X123729589Y-80291637D01*
X123716868Y-80306828D01*
X123714933Y-80312893D01*
X123718095Y-80323452D01*
X123727161Y-80348068D01*
X123741507Y-80385174D01*
X123760508Y-80433202D01*
X123783539Y-80490587D01*
X123809974Y-80555761D01*
X123839188Y-80627158D01*
X123870555Y-80703210D01*
X123874542Y-80712836D01*
X123908940Y-80795842D01*
X123943683Y-80879686D01*
X123977760Y-80961933D01*
X124010165Y-81040149D01*
X124039888Y-81111900D01*
X124065922Y-81174753D01*
X124087258Y-81226273D01*
X124099862Y-81256717D01*
X124126359Y-81319268D01*
X124147543Y-81366026D01*
X124163535Y-81397238D01*
X124174456Y-81413149D01*
X124178384Y-81415467D01*
X124190078Y-81411667D01*
X124213687Y-81401206D01*
X124246237Y-81385494D01*
X124284756Y-81365941D01*
X124303367Y-81356200D01*
X124344072Y-81335296D01*
X124380656Y-81317626D01*
X124409996Y-81304614D01*
X124428969Y-81297687D01*
X124433201Y-81296933D01*
X124444119Y-81301598D01*
X124467198Y-81314854D01*
X124500716Y-81335600D01*
X124542951Y-81362731D01*
X124592182Y-81395145D01*
X124646687Y-81431739D01*
X124694982Y-81464690D01*
X124752566Y-81504126D01*
X124806216Y-81540612D01*
X124854220Y-81573001D01*
X124894861Y-81600147D01*
X124926427Y-81620904D01*
X124947202Y-81634125D01*
X124955020Y-81638554D01*
X124961176Y-81638135D01*
X124971265Y-81632757D01*
X124986335Y-81621467D01*
X125007433Y-81603311D01*
X125035608Y-81577336D01*
X125071907Y-81542588D01*
X125117377Y-81498114D01*
X125173066Y-81442959D01*
X125206536Y-81409617D01*
X125258517Y-81357422D01*
X125306523Y-81308569D01*
X125349265Y-81264422D01*
X125385448Y-81226345D01*
X125413781Y-81195702D01*
X125432971Y-81173857D01*
X125441726Y-81162173D01*
X125442133Y-81160964D01*
X125437486Y-81151062D01*
X125424261Y-81128905D01*
X125403537Y-81096150D01*
X125376392Y-81054452D01*
X125343903Y-81005469D01*
X125307149Y-80950855D01*
X125268567Y-80894252D01*
X125217450Y-80819226D01*
X125175893Y-80757131D01*
X125143442Y-80707246D01*
X125119644Y-80668846D01*
X125104043Y-80641209D01*
X125096187Y-80623612D01*
X125095000Y-80617738D01*
X125098102Y-80604097D01*
X125106766Y-80577318D01*
X125120034Y-80539837D01*
X125136945Y-80494086D01*
X125156540Y-80442500D01*
X125177858Y-80387512D01*
X125199940Y-80331557D01*
X125221826Y-80277067D01*
X125242557Y-80226478D01*
X125261171Y-80182223D01*
X125276710Y-80146735D01*
X125288214Y-80122449D01*
X125294417Y-80112082D01*
X125306037Y-80107189D01*
X125333299Y-80099746D01*
X125375142Y-80089984D01*
X125430504Y-80078136D01*
X125498325Y-80064434D01*
X125577543Y-80049109D01*
X125612102Y-80042592D01*
X125682224Y-80029257D01*
X125747328Y-80016489D01*
X125805475Y-80004697D01*
X125854728Y-79994290D01*
X125893151Y-79985679D01*
X125918806Y-79979272D01*
X125929755Y-79975479D01*
X125929782Y-79975457D01*
X125932856Y-79970417D01*
X125935371Y-79959906D01*
X125937380Y-79942445D01*
X125938934Y-79916556D01*
X125940083Y-79880762D01*
X125940879Y-79833584D01*
X125941374Y-79773544D01*
X125941618Y-79699164D01*
X125941667Y-79632696D01*
X125941456Y-79535873D01*
X125940819Y-79455714D01*
X125939749Y-79391956D01*
X125938238Y-79344336D01*
X125936281Y-79312591D01*
X125933869Y-79296456D01*
X125932675Y-79294242D01*
X125922578Y-79291484D01*
X125897711Y-79286035D01*
X125859956Y-79278269D01*
X125811194Y-79268560D01*
X125753310Y-79257282D01*
X125688184Y-79244810D01*
X125617701Y-79231519D01*
X125608825Y-79229859D01*
X125519088Y-79212882D01*
X125445131Y-79198409D01*
X125386021Y-79186231D01*
X125340822Y-79176142D01*
X125308600Y-79167933D01*
X125288421Y-79161395D01*
X125279610Y-79156600D01*
X125272078Y-79144574D01*
X125259308Y-79119317D01*
X125242362Y-79083316D01*
X125222302Y-79039057D01*
X125200190Y-78989027D01*
X125177091Y-78935711D01*
X125154065Y-78881597D01*
X125132176Y-78829170D01*
X125112486Y-78780917D01*
X125096058Y-78739325D01*
X125083954Y-78706880D01*
X125077237Y-78686069D01*
X125076227Y-78680687D01*
X125080641Y-78667599D01*
X125094391Y-78642143D01*
X125117627Y-78604083D01*
X125150496Y-78553186D01*
X125193149Y-78489214D01*
X125245734Y-78411933D01*
X125255948Y-78397054D01*
X125296785Y-78337379D01*
X125334603Y-78281638D01*
X125368312Y-78231470D01*
X125396824Y-78188516D01*
X125419052Y-78154415D01*
X125433906Y-78130809D01*
X125440300Y-78119338D01*
X125440421Y-78118966D01*
X125435636Y-78109262D01*
X125420146Y-78089474D01*
X125395521Y-78061184D01*
X125363333Y-78025971D01*
X125325152Y-77985416D01*
X125282549Y-77941101D01*
X125237094Y-77894605D01*
X125190358Y-77847509D01*
X125143912Y-77801393D01*
X125099327Y-77757839D01*
X125058172Y-77718426D01*
X125022019Y-77684736D01*
X124992438Y-77658349D01*
X124971001Y-77640844D01*
X124959277Y-77633804D01*
X124958273Y-77633781D01*
X124948341Y-77639223D01*
X124926088Y-77653203D01*
X124893135Y-77674648D01*
X124851101Y-77702484D01*
X124801608Y-77735637D01*
X124746273Y-77773033D01*
X124686719Y-77813599D01*
X124678873Y-77818966D01*
X124618803Y-77859949D01*
X124562679Y-77897994D01*
X124512134Y-77932012D01*
X124468802Y-77960915D01*
X124434316Y-77983612D01*
X124410310Y-77999016D01*
X124398419Y-78006038D01*
X124397877Y-78006268D01*
X124386258Y-78004620D01*
X124361531Y-77997244D01*
X124326138Y-77985113D01*
X124282523Y-77969198D01*
X124233130Y-77950473D01*
X124180400Y-77929908D01*
X124126777Y-77908477D01*
X124074705Y-77887151D01*
X124026626Y-77866902D01*
X123984983Y-77848702D01*
X123952220Y-77833525D01*
X123930780Y-77822341D01*
X123924189Y-77817785D01*
X123919210Y-77809417D01*
X123913205Y-77792197D01*
X123905904Y-77764914D01*
X123897034Y-77726355D01*
X123886325Y-77675309D01*
X123873505Y-77610563D01*
X123858301Y-77530906D01*
X123850106Y-77487171D01*
X123836892Y-77416152D01*
X123824710Y-77350361D01*
X123813900Y-77291657D01*
X123804801Y-77241897D01*
X123797753Y-77202937D01*
X123793095Y-77176635D01*
X123791166Y-77164850D01*
X123791133Y-77164455D01*
X123785785Y-77153896D01*
X123777829Y-77144638D01*
X123772708Y-77141204D01*
X123763827Y-77138406D01*
X123749589Y-77136180D01*
X123728397Y-77134465D01*
X123698655Y-77133196D01*
X123658766Y-77132312D01*
X123607133Y-77131750D01*
X123542159Y-77131446D01*
X123462248Y-77131337D01*
X123439767Y-77131334D01*
X123355875Y-77131403D01*
G37*
X123355875Y-77131403D02*
X123287319Y-77131652D01*
X123232503Y-77132144D01*
X123189830Y-77132942D01*
X123157703Y-77134108D01*
X123134525Y-77135706D01*
X123118699Y-77137799D01*
X123108630Y-77140448D01*
X123102719Y-77143717D01*
X123101705Y-77144638D01*
X123091070Y-77157738D01*
X123088400Y-77164091D01*
X123086898Y-77173523D01*
X123082619Y-77197745D01*
X123075902Y-77234905D01*
X123067084Y-77283149D01*
X123056507Y-77340623D01*
X123044507Y-77405475D01*
X123031425Y-77475851D01*
X123029373Y-77486862D01*
X123012903Y-77574269D01*
X122998945Y-77646171D01*
X122987231Y-77703765D01*
X122977491Y-77748252D01*
X122969459Y-77780828D01*
X122962866Y-77802693D01*
X122957443Y-77815044D01*
X122955289Y-77817841D01*
X122943722Y-77824678D01*
X122918587Y-77836812D01*
X122882053Y-77853286D01*
X122836289Y-77873145D01*
X122783464Y-77895434D01*
X122725746Y-77919197D01*
X122718656Y-77922078D01*
X122651105Y-77949285D01*
X122597439Y-77970401D01*
X122555976Y-77985997D01*
X122525035Y-77996646D01*
X122502933Y-78002921D01*
X122487989Y-78005394D01*
X122478521Y-78004638D01*
X122477356Y-78004238D01*
X122466102Y-77997814D01*
X122442588Y-77982859D01*
X122408471Y-77960479D01*
X122365414Y-77931783D01*
X122315077Y-77897877D01*
X122259119Y-77859869D01*
X122199202Y-77818867D01*
X122191670Y-77813692D01*
X122131756Y-77772734D01*
X122075885Y-77734975D01*
X122025660Y-77701466D01*
X121982687Y-77673260D01*
X121948569Y-77651408D01*
X121924912Y-77636961D01*
X121913320Y-77630971D01*
X121912729Y-77630867D01*
X121904034Y-77636669D01*
X121884803Y-77653211D01*
X121856408Y-77679193D01*
X121820222Y-77713319D01*
X121777620Y-77754290D01*
X121729973Y-77800808D01*
X121678656Y-77851574D01*
X121667413Y-77862781D01*
X121607313Y-77922929D01*
X121558303Y-77972393D01*
X121519353Y-78012310D01*
X121489430Y-78043818D01*
X121467503Y-78068056D01*
X121452539Y-78086162D01*
X121443507Y-78099273D01*
X121439375Y-78108527D01*
X121439023Y-78114665D01*
X121444599Y-78125989D01*
X121458758Y-78149539D01*
X121480409Y-78183644D01*
X121508461Y-78226633D01*
X121541822Y-78276834D01*
X121579400Y-78332576D01*
X121620105Y-78392189D01*
X121623449Y-78397054D01*
X121677794Y-78476636D01*
X121722180Y-78542875D01*
X121756760Y-78596013D01*
X121781688Y-78636291D01*
X121797115Y-78663948D01*
X121803194Y-78679227D01*
X121803307Y-78680687D01*
X121799794Y-78694504D01*
X121790345Y-78721242D01*
X121776021Y-78758412D01*
X121757886Y-78803529D01*
X121737002Y-78854107D01*
X121714431Y-78907659D01*
X121691237Y-78961698D01*
X121668482Y-79013738D01*
X121647228Y-79061294D01*
X121628538Y-79101877D01*
X121613475Y-79133003D01*
X121603101Y-79152184D01*
X121599924Y-79156600D01*
X121590186Y-79161759D01*
X121569282Y-79168395D01*
X121536276Y-79176715D01*
X121490235Y-79186929D01*
X121430224Y-79199244D01*
X121355308Y-79213868D01*
X121270709Y-79229859D01*
X121199701Y-79243225D01*
X121133821Y-79255817D01*
X121074952Y-79267260D01*
X121024976Y-79277180D01*
X120985777Y-79285204D01*
X120959236Y-79290956D01*
X120947237Y-79294062D01*
X120946859Y-79294242D01*
X120944247Y-79303659D01*
X120942093Y-79328573D01*
X120940388Y-79369246D01*
X120939127Y-79425942D01*
X120938302Y-79498925D01*
X120937907Y-79588457D01*
X120937867Y-79632696D01*
X120937956Y-79718867D01*
X120938256Y-79789583D01*
X120938820Y-79846323D01*
X120939699Y-79890564D01*
X120940942Y-79923785D01*
X120942603Y-79947464D01*
X120944732Y-79963079D01*
X120947380Y-79972107D01*
X120949752Y-79975457D01*
X120960557Y-79979224D01*
X120986085Y-79985609D01*
X121024400Y-79994202D01*
X121073563Y-80004594D01*
X121131637Y-80016375D01*
X121196685Y-80029137D01*
X121266770Y-80042468D01*
X121267431Y-80042592D01*
X121350901Y-80058499D01*
X121423398Y-80072877D01*
X121483859Y-80085493D01*
X121531225Y-80096115D01*
X121564433Y-80104512D01*
X121582423Y-80110450D01*
X121585116Y-80112082D01*
X121592049Y-80123883D01*
X121603901Y-80149129D01*
X121619715Y-80185387D01*
X121638529Y-80230224D01*
X121659384Y-80281204D01*
X121681319Y-80335895D01*
X121703377Y-80391863D01*
X121724595Y-80446673D01*
X121744015Y-80497892D01*
X121760677Y-80543085D01*
X121773620Y-80579821D01*
X121781886Y-80605663D01*
X121784533Y-80617738D01*
X121780944Y-80629867D01*
X121769872Y-80651617D01*
X121750864Y-80683712D01*
X121723466Y-80726875D01*
X121687224Y-80781829D01*
X121641684Y-80849297D01*
X121610967Y-80894252D01*
X121571113Y-80952734D01*
X121534482Y-81007187D01*
X121502153Y-81055957D01*
X121475203Y-81097385D01*
X121454710Y-81129817D01*
X121441751Y-81151595D01*
X121437400Y-81160964D01*
X121443217Y-81169770D01*
X121459807Y-81189093D01*
X121485877Y-81217570D01*
X121520134Y-81253837D01*
X121561287Y-81296530D01*
X121608044Y-81344286D01*
X121659111Y-81395739D01*
X121672998Y-81409617D01*
X121734436Y-81470724D01*
X121785109Y-81520653D01*
X121826063Y-81560357D01*
X121858346Y-81590792D01*
X121883007Y-81612909D01*
X121901092Y-81627663D01*
X121913650Y-81636007D01*
X121921727Y-81638895D01*
X121924514Y-81638554D01*
X121935037Y-81632453D01*
X121957773Y-81617866D01*
X121991007Y-81595939D01*
X122033025Y-81567818D01*
X122082113Y-81534649D01*
X122136555Y-81497579D01*
X122184552Y-81464690D01*
X122242141Y-81425453D01*
X122295893Y-81389474D01*
X122344087Y-81357856D01*
X122385001Y-81331703D01*
X122416914Y-81312119D01*
X122438103Y-81300205D01*
X122446333Y-81296933D01*
X122459808Y-81300762D01*
X122485013Y-81311297D01*
X122518823Y-81327112D01*
X122558115Y-81346781D01*
X122576167Y-81356200D01*
X122616411Y-81377029D01*
X122652033Y-81394656D01*
X122680060Y-81407669D01*
X122697519Y-81414661D01*
X122701150Y-81415467D01*
X122709302Y-81407966D01*
X122722457Y-81385301D01*
X122740737Y-81347226D01*
X122764261Y-81293495D01*
X122779672Y-81256717D01*
X122796698Y-81215593D01*
X122819200Y-81161261D01*
X122846168Y-81096153D01*
X122876595Y-81022705D01*
X122909473Y-80943350D01*
X122943792Y-80860522D01*
X122978544Y-80776656D01*
X123004991Y-80712836D01*
X123036581Y-80636318D01*
X123066094Y-80564263D01*
X123092906Y-80498236D01*
X123116390Y-80439806D01*
X123135922Y-80390539D01*
X123150876Y-80352001D01*
X123160627Y-80325760D01*
X123164551Y-80313382D01*
X123164600Y-80312893D01*
X123157886Y-80299972D01*
X123140769Y-80283845D01*
X123129193Y-80275728D01*
X123029870Y-80206106D01*
X122946340Y-80132182D01*
X122877752Y-80052780D01*
X122823258Y-79966724D01*
X122782007Y-79872835D01*
X122753149Y-79769938D01*
X122748993Y-79749251D01*
X122743456Y-79699984D01*
X122742566Y-79640486D01*
X122745971Y-79576706D01*
X122753320Y-79514591D01*
X122764261Y-79460090D01*
X122766590Y-79451528D01*
X122803971Y-79350289D01*
X122854993Y-79257907D01*
X122918311Y-79175393D01*
X122992583Y-79103764D01*
X123076466Y-79044034D01*
X123168614Y-78997216D01*
X123267686Y-78964327D01*
X123372338Y-78946379D01*
X123439767Y-78943200D01*
X123547215Y-78951325D01*
X123649922Y-78975025D01*
X123746541Y-79013284D01*
X123835732Y-79065088D01*
X123916149Y-79129423D01*
X123986450Y-79205274D01*
X124045291Y-79291627D01*
X124091328Y-79387467D01*
X124112943Y-79451528D01*
X124124495Y-79504021D01*
X124132518Y-79565202D01*
X124136661Y-79629121D01*
X124136572Y-79689832D01*
X124131899Y-79741385D01*
X124130540Y-79749251D01*
X124103944Y-79853995D01*
X124065115Y-79949506D01*
X124013205Y-80036962D01*
X123947363Y-80117539D01*
X123866740Y-80192414D01*
X123770486Y-80262763D01*
X123750340Y-80275728D01*
X123729589Y-80291637D01*
X123716868Y-80306828D01*
X123714933Y-80312893D01*
X123718095Y-80323452D01*
X123727161Y-80348068D01*
X123741507Y-80385174D01*
X123760508Y-80433202D01*
X123783539Y-80490587D01*
X123809974Y-80555761D01*
X123839188Y-80627158D01*
X123870555Y-80703210D01*
X123874542Y-80712836D01*
X123908940Y-80795842D01*
X123943683Y-80879686D01*
X123977760Y-80961933D01*
X124010165Y-81040149D01*
X124039888Y-81111900D01*
X124065922Y-81174753D01*
X124087258Y-81226273D01*
X124099862Y-81256717D01*
X124126359Y-81319268D01*
X124147543Y-81366026D01*
X124163535Y-81397238D01*
X124174456Y-81413149D01*
X124178384Y-81415467D01*
X124190078Y-81411667D01*
X124213687Y-81401206D01*
X124246237Y-81385494D01*
X124284756Y-81365941D01*
X124303367Y-81356200D01*
X124344072Y-81335296D01*
X124380656Y-81317626D01*
X124409996Y-81304614D01*
X124428969Y-81297687D01*
X124433201Y-81296933D01*
X124444119Y-81301598D01*
X124467198Y-81314854D01*
X124500716Y-81335600D01*
X124542951Y-81362731D01*
X124592182Y-81395145D01*
X124646687Y-81431739D01*
X124694982Y-81464690D01*
X124752566Y-81504126D01*
X124806216Y-81540612D01*
X124854220Y-81573001D01*
X124894861Y-81600147D01*
X124926427Y-81620904D01*
X124947202Y-81634125D01*
X124955020Y-81638554D01*
X124961176Y-81638135D01*
X124971265Y-81632757D01*
X124986335Y-81621467D01*
X125007433Y-81603311D01*
X125035608Y-81577336D01*
X125071907Y-81542588D01*
X125117377Y-81498114D01*
X125173066Y-81442959D01*
X125206536Y-81409617D01*
X125258517Y-81357422D01*
X125306523Y-81308569D01*
X125349265Y-81264422D01*
X125385448Y-81226345D01*
X125413781Y-81195702D01*
X125432971Y-81173857D01*
X125441726Y-81162173D01*
X125442133Y-81160964D01*
X125437486Y-81151062D01*
X125424261Y-81128905D01*
X125403537Y-81096150D01*
X125376392Y-81054452D01*
X125343903Y-81005469D01*
X125307149Y-80950855D01*
X125268567Y-80894252D01*
X125217450Y-80819226D01*
X125175893Y-80757131D01*
X125143442Y-80707246D01*
X125119644Y-80668846D01*
X125104043Y-80641209D01*
X125096187Y-80623612D01*
X125095000Y-80617738D01*
X125098102Y-80604097D01*
X125106766Y-80577318D01*
X125120034Y-80539837D01*
X125136945Y-80494086D01*
X125156540Y-80442500D01*
X125177858Y-80387512D01*
X125199940Y-80331557D01*
X125221826Y-80277067D01*
X125242557Y-80226478D01*
X125261171Y-80182223D01*
X125276710Y-80146735D01*
X125288214Y-80122449D01*
X125294417Y-80112082D01*
X125306037Y-80107189D01*
X125333299Y-80099746D01*
X125375142Y-80089984D01*
X125430504Y-80078136D01*
X125498325Y-80064434D01*
X125577543Y-80049109D01*
X125612102Y-80042592D01*
X125682224Y-80029257D01*
X125747328Y-80016489D01*
X125805475Y-80004697D01*
X125854728Y-79994290D01*
X125893151Y-79985679D01*
X125918806Y-79979272D01*
X125929755Y-79975479D01*
X125929782Y-79975457D01*
X125932856Y-79970417D01*
X125935371Y-79959906D01*
X125937380Y-79942445D01*
X125938934Y-79916556D01*
X125940083Y-79880762D01*
X125940879Y-79833584D01*
X125941374Y-79773544D01*
X125941618Y-79699164D01*
X125941667Y-79632696D01*
X125941456Y-79535873D01*
X125940819Y-79455714D01*
X125939749Y-79391956D01*
X125938238Y-79344336D01*
X125936281Y-79312591D01*
X125933869Y-79296456D01*
X125932675Y-79294242D01*
X125922578Y-79291484D01*
X125897711Y-79286035D01*
X125859956Y-79278269D01*
X125811194Y-79268560D01*
X125753310Y-79257282D01*
X125688184Y-79244810D01*
X125617701Y-79231519D01*
X125608825Y-79229859D01*
X125519088Y-79212882D01*
X125445131Y-79198409D01*
X125386021Y-79186231D01*
X125340822Y-79176142D01*
X125308600Y-79167933D01*
X125288421Y-79161395D01*
X125279610Y-79156600D01*
X125272078Y-79144574D01*
X125259308Y-79119317D01*
X125242362Y-79083316D01*
X125222302Y-79039057D01*
X125200190Y-78989027D01*
X125177091Y-78935711D01*
X125154065Y-78881597D01*
X125132176Y-78829170D01*
X125112486Y-78780917D01*
X125096058Y-78739325D01*
X125083954Y-78706880D01*
X125077237Y-78686069D01*
X125076227Y-78680687D01*
X125080641Y-78667599D01*
X125094391Y-78642143D01*
X125117627Y-78604083D01*
X125150496Y-78553186D01*
X125193149Y-78489214D01*
X125245734Y-78411933D01*
X125255948Y-78397054D01*
X125296785Y-78337379D01*
X125334603Y-78281638D01*
X125368312Y-78231470D01*
X125396824Y-78188516D01*
X125419052Y-78154415D01*
X125433906Y-78130809D01*
X125440300Y-78119338D01*
X125440421Y-78118966D01*
X125435636Y-78109262D01*
X125420146Y-78089474D01*
X125395521Y-78061184D01*
X125363333Y-78025971D01*
X125325152Y-77985416D01*
X125282549Y-77941101D01*
X125237094Y-77894605D01*
X125190358Y-77847509D01*
X125143912Y-77801393D01*
X125099327Y-77757839D01*
X125058172Y-77718426D01*
X125022019Y-77684736D01*
X124992438Y-77658349D01*
X124971001Y-77640844D01*
X124959277Y-77633804D01*
X124958273Y-77633781D01*
X124948341Y-77639223D01*
X124926088Y-77653203D01*
X124893135Y-77674648D01*
X124851101Y-77702484D01*
X124801608Y-77735637D01*
X124746273Y-77773033D01*
X124686719Y-77813599D01*
X124678873Y-77818966D01*
X124618803Y-77859949D01*
X124562679Y-77897994D01*
X124512134Y-77932012D01*
X124468802Y-77960915D01*
X124434316Y-77983612D01*
X124410310Y-77999016D01*
X124398419Y-78006038D01*
X124397877Y-78006268D01*
X124386258Y-78004620D01*
X124361531Y-77997244D01*
X124326138Y-77985113D01*
X124282523Y-77969198D01*
X124233130Y-77950473D01*
X124180400Y-77929908D01*
X124126777Y-77908477D01*
X124074705Y-77887151D01*
X124026626Y-77866902D01*
X123984983Y-77848702D01*
X123952220Y-77833525D01*
X123930780Y-77822341D01*
X123924189Y-77817785D01*
X123919210Y-77809417D01*
X123913205Y-77792197D01*
X123905904Y-77764914D01*
X123897034Y-77726355D01*
X123886325Y-77675309D01*
X123873505Y-77610563D01*
X123858301Y-77530906D01*
X123850106Y-77487171D01*
X123836892Y-77416152D01*
X123824710Y-77350361D01*
X123813900Y-77291657D01*
X123804801Y-77241897D01*
X123797753Y-77202937D01*
X123793095Y-77176635D01*
X123791166Y-77164850D01*
X123791133Y-77164455D01*
X123785785Y-77153896D01*
X123777829Y-77144638D01*
X123772708Y-77141204D01*
X123763827Y-77138406D01*
X123749589Y-77136180D01*
X123728397Y-77134465D01*
X123698655Y-77133196D01*
X123658766Y-77132312D01*
X123607133Y-77131750D01*
X123542159Y-77131446D01*
X123462248Y-77131337D01*
X123439767Y-77131334D01*
X123355875Y-77131403D01*
G36*
X121434060Y-82162799D02*
G01*
X121392898Y-82176413D01*
X121381909Y-82181553D01*
X121335486Y-82204266D01*
X121360420Y-82235317D01*
X121382487Y-82262413D01*
X121405607Y-82290256D01*
X121410160Y-82295654D01*
X121434967Y-82324942D01*
X121459467Y-82308862D01*
X121496109Y-82294241D01*
X121536729Y-82293149D01*
X121576900Y-82304414D01*
X121612194Y-82326866D01*
X121636067Y-82355566D01*
X121641276Y-82365474D01*
X121645369Y-82376808D01*
X121648514Y-82391715D01*
X121650880Y-82412343D01*
X121652636Y-82440842D01*
X121653950Y-82479359D01*
X121654991Y-82530042D01*
X121655926Y-82595040D01*
X121656134Y-82611384D01*
X121658967Y-82837867D01*
X121722016Y-82837867D01*
X121760372Y-82836491D01*
X121782634Y-82832299D01*
X121789135Y-82827260D01*
X121789987Y-82816675D01*
X121790664Y-82791065D01*
X121791157Y-82752335D01*
X121791455Y-82702394D01*
X121791548Y-82643148D01*
X121791425Y-82576503D01*
X121791075Y-82504367D01*
X121790986Y-82490710D01*
X121788767Y-82164767D01*
X121657533Y-82159821D01*
X121657533Y-82194044D01*
X121655608Y-82218507D01*
X121649087Y-82227094D01*
X121636860Y-82220500D01*
X121628609Y-82212116D01*
X121602207Y-82192092D01*
X121564674Y-82175178D01*
X121521778Y-82163415D01*
X121479290Y-82158845D01*
X121478012Y-82158840D01*
X121434060Y-82162799D01*
G37*
X121434060Y-82162799D02*
X121392898Y-82176413D01*
X121381909Y-82181553D01*
X121335486Y-82204266D01*
X121360420Y-82235317D01*
X121382487Y-82262413D01*
X121405607Y-82290256D01*
X121410160Y-82295654D01*
X121434967Y-82324942D01*
X121459467Y-82308862D01*
X121496109Y-82294241D01*
X121536729Y-82293149D01*
X121576900Y-82304414D01*
X121612194Y-82326866D01*
X121636067Y-82355566D01*
X121641276Y-82365474D01*
X121645369Y-82376808D01*
X121648514Y-82391715D01*
X121650880Y-82412343D01*
X121652636Y-82440842D01*
X121653950Y-82479359D01*
X121654991Y-82530042D01*
X121655926Y-82595040D01*
X121656134Y-82611384D01*
X121658967Y-82837867D01*
X121722016Y-82837867D01*
X121760372Y-82836491D01*
X121782634Y-82832299D01*
X121789135Y-82827260D01*
X121789987Y-82816675D01*
X121790664Y-82791065D01*
X121791157Y-82752335D01*
X121791455Y-82702394D01*
X121791548Y-82643148D01*
X121791425Y-82576503D01*
X121791075Y-82504367D01*
X121790986Y-82490710D01*
X121788767Y-82164767D01*
X121657533Y-82159821D01*
X121657533Y-82194044D01*
X121655608Y-82218507D01*
X121649087Y-82227094D01*
X121636860Y-82220500D01*
X121628609Y-82212116D01*
X121602207Y-82192092D01*
X121564674Y-82175178D01*
X121521778Y-82163415D01*
X121479290Y-82158845D01*
X121478012Y-82158840D01*
X121434060Y-82162799D01*
G36*
X124326604Y-82166352D02*
G01*
X124271538Y-82188390D01*
X124224986Y-82223699D01*
X124189124Y-82270915D01*
X124179685Y-82289589D01*
X124173952Y-82302858D01*
X124169434Y-82315631D01*
X124165984Y-82330041D01*
X124163458Y-82348220D01*
X124161710Y-82372300D01*
X124160593Y-82404413D01*
X124159962Y-82446693D01*
X124159670Y-82501272D01*
X124159573Y-82570282D01*
X124159566Y-82583867D01*
X124159433Y-82833634D01*
X124224424Y-82836095D01*
X124289414Y-82838557D01*
X124292157Y-82615962D01*
X124293074Y-82548157D01*
X124294070Y-82495069D01*
X124295325Y-82454480D01*
X124297014Y-82424173D01*
X124299315Y-82401930D01*
X124302405Y-82385536D01*
X124306462Y-82372772D01*
X124311663Y-82361422D01*
X124312659Y-82359500D01*
X124339105Y-82325352D01*
X124373967Y-82303228D01*
X124413674Y-82293191D01*
X124454657Y-82295302D01*
X124493348Y-82309622D01*
X124526177Y-82336214D01*
X124540134Y-82355566D01*
X124545340Y-82365461D01*
X124549428Y-82376759D01*
X124552563Y-82391607D01*
X124554912Y-82412155D01*
X124556643Y-82440551D01*
X124557921Y-82478942D01*
X124558914Y-82529479D01*
X124559788Y-82594308D01*
X124559988Y-82611384D01*
X124562610Y-82837867D01*
X124697067Y-82837867D01*
X124697067Y-82160534D01*
X124561600Y-82160534D01*
X124561600Y-82238488D01*
X124530466Y-82211151D01*
X124489230Y-82181530D01*
X124445494Y-82164861D01*
X124393455Y-82159017D01*
X124388010Y-82158949D01*
X124326604Y-82166352D01*
G37*
X124326604Y-82166352D02*
X124271538Y-82188390D01*
X124224986Y-82223699D01*
X124189124Y-82270915D01*
X124179685Y-82289589D01*
X124173952Y-82302858D01*
X124169434Y-82315631D01*
X124165984Y-82330041D01*
X124163458Y-82348220D01*
X124161710Y-82372300D01*
X124160593Y-82404413D01*
X124159962Y-82446693D01*
X124159670Y-82501272D01*
X124159573Y-82570282D01*
X124159566Y-82583867D01*
X124159433Y-82833634D01*
X124224424Y-82836095D01*
X124289414Y-82838557D01*
X124292157Y-82615962D01*
X124293074Y-82548157D01*
X124294070Y-82495069D01*
X124295325Y-82454480D01*
X124297014Y-82424173D01*
X124299315Y-82401930D01*
X124302405Y-82385536D01*
X124306462Y-82372772D01*
X124311663Y-82361422D01*
X124312659Y-82359500D01*
X124339105Y-82325352D01*
X124373967Y-82303228D01*
X124413674Y-82293191D01*
X124454657Y-82295302D01*
X124493348Y-82309622D01*
X124526177Y-82336214D01*
X124540134Y-82355566D01*
X124545340Y-82365461D01*
X124549428Y-82376759D01*
X124552563Y-82391607D01*
X124554912Y-82412155D01*
X124556643Y-82440551D01*
X124557921Y-82478942D01*
X124558914Y-82529479D01*
X124559788Y-82594308D01*
X124559988Y-82611384D01*
X124562610Y-82837867D01*
X124697067Y-82837867D01*
X124697067Y-82160534D01*
X124561600Y-82160534D01*
X124561600Y-82238488D01*
X124530466Y-82211151D01*
X124489230Y-82181530D01*
X124445494Y-82164861D01*
X124393455Y-82159017D01*
X124388010Y-82158949D01*
X124326604Y-82166352D01*
G36*
X120405301Y-82172380D02*
G01*
X120347388Y-82199334D01*
X120311677Y-82225044D01*
X120270749Y-82270524D01*
X120241522Y-82328231D01*
X120224003Y-82398145D01*
X120218200Y-82479812D01*
X120218200Y-82550000D01*
X120635269Y-82550000D01*
X120630866Y-82589067D01*
X120618363Y-82633281D01*
X120593506Y-82668784D01*
X120558939Y-82694718D01*
X120517311Y-82710225D01*
X120471268Y-82714447D01*
X120423457Y-82706525D01*
X120376524Y-82685601D01*
X120362288Y-82676139D01*
X120327719Y-82651097D01*
X120281426Y-82691063D01*
X120258786Y-82711345D01*
X120242292Y-82727523D01*
X120235200Y-82736384D01*
X120235133Y-82736749D01*
X120241288Y-82744609D01*
X120257236Y-82759109D01*
X120274405Y-82773064D01*
X120335933Y-82810470D01*
X120404815Y-82833162D01*
X120479316Y-82840713D01*
X120533240Y-82836850D01*
X120599214Y-82820245D01*
X120654653Y-82790512D01*
X120699354Y-82747934D01*
X120733118Y-82692795D01*
X120755746Y-82625380D01*
X120767035Y-82545971D01*
X120768368Y-82503434D01*
X120765620Y-82435532D01*
X120762605Y-82416327D01*
X120633067Y-82416327D01*
X120633067Y-82439934D01*
X120493367Y-82439934D01*
X120441826Y-82439845D01*
X120404816Y-82439381D01*
X120379936Y-82438248D01*
X120364784Y-82436148D01*
X120356958Y-82432786D01*
X120354056Y-82427866D01*
X120353667Y-82422728D01*
X120358177Y-82398509D01*
X120369503Y-82368503D01*
X120384344Y-82340498D01*
X120394186Y-82327193D01*
X120426459Y-82303127D01*
X120467350Y-82289203D01*
X120511358Y-82286219D01*
X120552983Y-82294968D01*
X120567961Y-82302063D01*
X120591308Y-82322640D01*
X120612498Y-82353321D01*
X120627690Y-82387364D01*
X120633067Y-82416327D01*
X120762605Y-82416327D01*
X120756702Y-82378731D01*
X120740510Y-82327972D01*
X120721230Y-82287681D01*
X120684914Y-82237410D01*
X120638707Y-82199047D01*
X120585125Y-82172977D01*
X120526686Y-82159587D01*
X120465906Y-82159259D01*
X120405301Y-82172380D01*
G37*
X120405301Y-82172380D02*
X120347388Y-82199334D01*
X120311677Y-82225044D01*
X120270749Y-82270524D01*
X120241522Y-82328231D01*
X120224003Y-82398145D01*
X120218200Y-82479812D01*
X120218200Y-82550000D01*
X120635269Y-82550000D01*
X120630866Y-82589067D01*
X120618363Y-82633281D01*
X120593506Y-82668784D01*
X120558939Y-82694718D01*
X120517311Y-82710225D01*
X120471268Y-82714447D01*
X120423457Y-82706525D01*
X120376524Y-82685601D01*
X120362288Y-82676139D01*
X120327719Y-82651097D01*
X120281426Y-82691063D01*
X120258786Y-82711345D01*
X120242292Y-82727523D01*
X120235200Y-82736384D01*
X120235133Y-82736749D01*
X120241288Y-82744609D01*
X120257236Y-82759109D01*
X120274405Y-82773064D01*
X120335933Y-82810470D01*
X120404815Y-82833162D01*
X120479316Y-82840713D01*
X120533240Y-82836850D01*
X120599214Y-82820245D01*
X120654653Y-82790512D01*
X120699354Y-82747934D01*
X120733118Y-82692795D01*
X120755746Y-82625380D01*
X120767035Y-82545971D01*
X120768368Y-82503434D01*
X120765620Y-82435532D01*
X120762605Y-82416327D01*
X120633067Y-82416327D01*
X120633067Y-82439934D01*
X120493367Y-82439934D01*
X120441826Y-82439845D01*
X120404816Y-82439381D01*
X120379936Y-82438248D01*
X120364784Y-82436148D01*
X120356958Y-82432786D01*
X120354056Y-82427866D01*
X120353667Y-82422728D01*
X120358177Y-82398509D01*
X120369503Y-82368503D01*
X120384344Y-82340498D01*
X120394186Y-82327193D01*
X120426459Y-82303127D01*
X120467350Y-82289203D01*
X120511358Y-82286219D01*
X120552983Y-82294968D01*
X120567961Y-82302063D01*
X120591308Y-82322640D01*
X120612498Y-82353321D01*
X120627690Y-82387364D01*
X120633067Y-82416327D01*
X120762605Y-82416327D01*
X120756702Y-82378731D01*
X120740510Y-82327972D01*
X120721230Y-82287681D01*
X120684914Y-82237410D01*
X120638707Y-82199047D01*
X120585125Y-82172977D01*
X120526686Y-82159587D01*
X120465906Y-82159259D01*
X120405301Y-82172380D01*
G36*
X120960353Y-82170008D02*
G01*
X120900509Y-82194702D01*
X120882833Y-82205524D01*
X120858743Y-82223195D01*
X120836133Y-82242322D01*
X120818917Y-82259316D01*
X120811009Y-82270587D01*
X120810867Y-82271530D01*
X120816850Y-82279709D01*
X120832597Y-82295386D01*
X120854803Y-82315288D01*
X120856662Y-82316882D01*
X120902457Y-82356006D01*
X120939789Y-82329692D01*
X120988350Y-82303949D01*
X121038066Y-82292778D01*
X121086269Y-82295683D01*
X121130288Y-82312167D01*
X121167453Y-82341734D01*
X121191498Y-82376466D01*
X121201997Y-82399163D01*
X121208453Y-82420930D01*
X121211800Y-82447075D01*
X121212967Y-82482908D01*
X121213033Y-82499200D01*
X121212422Y-82539820D01*
X121209968Y-82568841D01*
X121204738Y-82591572D01*
X121195801Y-82613322D01*
X121191498Y-82621934D01*
X121161926Y-82662791D01*
X121123466Y-82690620D01*
X121078620Y-82704918D01*
X121029893Y-82705186D01*
X120979787Y-82690922D01*
X120944292Y-82671393D01*
X120901904Y-82642868D01*
X120856385Y-82681755D01*
X120833898Y-82701785D01*
X120817630Y-82717836D01*
X120810896Y-82726624D01*
X120810867Y-82726871D01*
X120816536Y-82736141D01*
X120830534Y-82751090D01*
X120834150Y-82754487D01*
X120894304Y-82799108D01*
X120959993Y-82828065D01*
X121029925Y-82840965D01*
X121102809Y-82837415D01*
X121105285Y-82837007D01*
X121171112Y-82817725D01*
X121228723Y-82784069D01*
X121276593Y-82737221D01*
X121313193Y-82678366D01*
X121314919Y-82674650D01*
X121337599Y-82608341D01*
X121348645Y-82537120D01*
X121348480Y-82464389D01*
X121337525Y-82393552D01*
X121316203Y-82328014D01*
X121284937Y-82271178D01*
X121261274Y-82242352D01*
X121211947Y-82202853D01*
X121153866Y-82175546D01*
X121090356Y-82160754D01*
X121024743Y-82158800D01*
X120960353Y-82170008D01*
G37*
X120960353Y-82170008D02*
X120900509Y-82194702D01*
X120882833Y-82205524D01*
X120858743Y-82223195D01*
X120836133Y-82242322D01*
X120818917Y-82259316D01*
X120811009Y-82270587D01*
X120810867Y-82271530D01*
X120816850Y-82279709D01*
X120832597Y-82295386D01*
X120854803Y-82315288D01*
X120856662Y-82316882D01*
X120902457Y-82356006D01*
X120939789Y-82329692D01*
X120988350Y-82303949D01*
X121038066Y-82292778D01*
X121086269Y-82295683D01*
X121130288Y-82312167D01*
X121167453Y-82341734D01*
X121191498Y-82376466D01*
X121201997Y-82399163D01*
X121208453Y-82420930D01*
X121211800Y-82447075D01*
X121212967Y-82482908D01*
X121213033Y-82499200D01*
X121212422Y-82539820D01*
X121209968Y-82568841D01*
X121204738Y-82591572D01*
X121195801Y-82613322D01*
X121191498Y-82621934D01*
X121161926Y-82662791D01*
X121123466Y-82690620D01*
X121078620Y-82704918D01*
X121029893Y-82705186D01*
X120979787Y-82690922D01*
X120944292Y-82671393D01*
X120901904Y-82642868D01*
X120856385Y-82681755D01*
X120833898Y-82701785D01*
X120817630Y-82717836D01*
X120810896Y-82726624D01*
X120810867Y-82726871D01*
X120816536Y-82736141D01*
X120830534Y-82751090D01*
X120834150Y-82754487D01*
X120894304Y-82799108D01*
X120959993Y-82828065D01*
X121029925Y-82840965D01*
X121102809Y-82837415D01*
X121105285Y-82837007D01*
X121171112Y-82817725D01*
X121228723Y-82784069D01*
X121276593Y-82737221D01*
X121313193Y-82678366D01*
X121314919Y-82674650D01*
X121337599Y-82608341D01*
X121348645Y-82537120D01*
X121348480Y-82464389D01*
X121337525Y-82393552D01*
X121316203Y-82328014D01*
X121284937Y-82271178D01*
X121261274Y-82242352D01*
X121211947Y-82202853D01*
X121153866Y-82175546D01*
X121090356Y-82160754D01*
X121024743Y-82158800D01*
X120960353Y-82170008D01*
G36*
X122339100Y-82164767D02*
G01*
X122334867Y-82393367D01*
X122333486Y-82462586D01*
X122332096Y-82516967D01*
X122330533Y-82558604D01*
X122328629Y-82589593D01*
X122326218Y-82612028D01*
X122323136Y-82628004D01*
X122319216Y-82639614D01*
X122314669Y-82648336D01*
X122286121Y-82680878D01*
X122247893Y-82699784D01*
X122200858Y-82705339D01*
X122159529Y-82700003D01*
X122127981Y-82683690D01*
X122102506Y-82653998D01*
X122091450Y-82634494D01*
X122085639Y-82622433D01*
X122081147Y-82610283D01*
X122077805Y-82595770D01*
X122075442Y-82576622D01*
X122073891Y-82550566D01*
X122072981Y-82515329D01*
X122072543Y-82468638D01*
X122072408Y-82408222D01*
X122072400Y-82378873D01*
X122072400Y-82160534D01*
X121936933Y-82160534D01*
X121936933Y-82837867D01*
X122072400Y-82837867D01*
X122072400Y-82759696D01*
X122105160Y-82789293D01*
X122151952Y-82820525D01*
X122206345Y-82837995D01*
X122264961Y-82840833D01*
X122291291Y-82837208D01*
X122338124Y-82821795D01*
X122382854Y-82796128D01*
X122418783Y-82764229D01*
X122424472Y-82757262D01*
X122436698Y-82740452D01*
X122446496Y-82724130D01*
X122454139Y-82706238D01*
X122459896Y-82684722D01*
X122464038Y-82657524D01*
X122466837Y-82622590D01*
X122468564Y-82577863D01*
X122469488Y-82521286D01*
X122469883Y-82450805D01*
X122469962Y-82412061D01*
X122470334Y-82159821D01*
X122339100Y-82164767D01*
G37*
X122339100Y-82164767D02*
X122334867Y-82393367D01*
X122333486Y-82462586D01*
X122332096Y-82516967D01*
X122330533Y-82558604D01*
X122328629Y-82589593D01*
X122326218Y-82612028D01*
X122323136Y-82628004D01*
X122319216Y-82639614D01*
X122314669Y-82648336D01*
X122286121Y-82680878D01*
X122247893Y-82699784D01*
X122200858Y-82705339D01*
X122159529Y-82700003D01*
X122127981Y-82683690D01*
X122102506Y-82653998D01*
X122091450Y-82634494D01*
X122085639Y-82622433D01*
X122081147Y-82610283D01*
X122077805Y-82595770D01*
X122075442Y-82576622D01*
X122073891Y-82550566D01*
X122072981Y-82515329D01*
X122072543Y-82468638D01*
X122072408Y-82408222D01*
X122072400Y-82378873D01*
X122072400Y-82160534D01*
X121936933Y-82160534D01*
X121936933Y-82837867D01*
X122072400Y-82837867D01*
X122072400Y-82759696D01*
X122105160Y-82789293D01*
X122151952Y-82820525D01*
X122206345Y-82837995D01*
X122264961Y-82840833D01*
X122291291Y-82837208D01*
X122338124Y-82821795D01*
X122382854Y-82796128D01*
X122418783Y-82764229D01*
X122424472Y-82757262D01*
X122436698Y-82740452D01*
X122446496Y-82724130D01*
X122454139Y-82706238D01*
X122459896Y-82684722D01*
X122464038Y-82657524D01*
X122466837Y-82622590D01*
X122468564Y-82577863D01*
X122469488Y-82521286D01*
X122469883Y-82450805D01*
X122469962Y-82412061D01*
X122470334Y-82159821D01*
X122339100Y-82164767D01*
G36*
X122810332Y-82162323D02*
G01*
X122757628Y-82176702D01*
X122711124Y-82202954D01*
X122673189Y-82235973D01*
X122644818Y-82267407D01*
X122623788Y-82298809D01*
X122609100Y-82333456D01*
X122599757Y-82374625D01*
X122594763Y-82425596D01*
X122593120Y-82489644D01*
X122593100Y-82499200D01*
X122594378Y-82565210D01*
X122598875Y-82617710D01*
X122607589Y-82659980D01*
X122621518Y-82695296D01*
X122641659Y-82726937D01*
X122669009Y-82758181D01*
X122673189Y-82762428D01*
X122724219Y-82803499D01*
X122781066Y-82829395D01*
X122844941Y-82840489D01*
X122916012Y-82837296D01*
X122975341Y-82821148D01*
X123029605Y-82790549D01*
X123075812Y-82747856D01*
X123110977Y-82695424D01*
X123119398Y-82677000D01*
X123125456Y-82659456D01*
X123129760Y-82639127D01*
X123132585Y-82612890D01*
X123134203Y-82577623D01*
X123134888Y-82530202D01*
X123134967Y-82499200D01*
X123003734Y-82499200D01*
X123003287Y-82546675D01*
X123001671Y-82580803D01*
X122998472Y-82605151D01*
X122993277Y-82623289D01*
X122988058Y-82634526D01*
X122959291Y-82671979D01*
X122921532Y-82695943D01*
X122876836Y-82705761D01*
X122827254Y-82700780D01*
X122803479Y-82693380D01*
X122771648Y-82673476D01*
X122748170Y-82640541D01*
X122732795Y-82593957D01*
X122725274Y-82533105D01*
X122724381Y-82497568D01*
X122726383Y-82442544D01*
X122732981Y-82400248D01*
X122745183Y-82366854D01*
X122764000Y-82338541D01*
X122767467Y-82334482D01*
X122800102Y-82309304D01*
X122840687Y-82295686D01*
X122884434Y-82294032D01*
X122926556Y-82304745D01*
X122951419Y-82318994D01*
X122971826Y-82337244D01*
X122986351Y-82358734D01*
X122995886Y-82386530D01*
X123001319Y-82423698D01*
X123003543Y-82473304D01*
X123003734Y-82499200D01*
X123134967Y-82499200D01*
X123134664Y-82444102D01*
X123133572Y-82402807D01*
X123131418Y-82372192D01*
X123127929Y-82349132D01*
X123122832Y-82330507D01*
X123119398Y-82321400D01*
X123087359Y-82264275D01*
X123043382Y-82218046D01*
X122989525Y-82184078D01*
X122927846Y-82163739D01*
X122873422Y-82158191D01*
X122810332Y-82162323D01*
G37*
X122810332Y-82162323D02*
X122757628Y-82176702D01*
X122711124Y-82202954D01*
X122673189Y-82235973D01*
X122644818Y-82267407D01*
X122623788Y-82298809D01*
X122609100Y-82333456D01*
X122599757Y-82374625D01*
X122594763Y-82425596D01*
X122593120Y-82489644D01*
X122593100Y-82499200D01*
X122594378Y-82565210D01*
X122598875Y-82617710D01*
X122607589Y-82659980D01*
X122621518Y-82695296D01*
X122641659Y-82726937D01*
X122669009Y-82758181D01*
X122673189Y-82762428D01*
X122724219Y-82803499D01*
X122781066Y-82829395D01*
X122844941Y-82840489D01*
X122916012Y-82837296D01*
X122975341Y-82821148D01*
X123029605Y-82790549D01*
X123075812Y-82747856D01*
X123110977Y-82695424D01*
X123119398Y-82677000D01*
X123125456Y-82659456D01*
X123129760Y-82639127D01*
X123132585Y-82612890D01*
X123134203Y-82577623D01*
X123134888Y-82530202D01*
X123134967Y-82499200D01*
X123003734Y-82499200D01*
X123003287Y-82546675D01*
X123001671Y-82580803D01*
X122998472Y-82605151D01*
X122993277Y-82623289D01*
X122988058Y-82634526D01*
X122959291Y-82671979D01*
X122921532Y-82695943D01*
X122876836Y-82705761D01*
X122827254Y-82700780D01*
X122803479Y-82693380D01*
X122771648Y-82673476D01*
X122748170Y-82640541D01*
X122732795Y-82593957D01*
X122725274Y-82533105D01*
X122724381Y-82497568D01*
X122726383Y-82442544D01*
X122732981Y-82400248D01*
X122745183Y-82366854D01*
X122764000Y-82338541D01*
X122767467Y-82334482D01*
X122800102Y-82309304D01*
X122840687Y-82295686D01*
X122884434Y-82294032D01*
X122926556Y-82304745D01*
X122951419Y-82318994D01*
X122971826Y-82337244D01*
X122986351Y-82358734D01*
X122995886Y-82386530D01*
X123001319Y-82423698D01*
X123003543Y-82473304D01*
X123003734Y-82499200D01*
X123134967Y-82499200D01*
X123134664Y-82444102D01*
X123133572Y-82402807D01*
X123131418Y-82372192D01*
X123127929Y-82349132D01*
X123122832Y-82330507D01*
X123119398Y-82321400D01*
X123087359Y-82264275D01*
X123043382Y-82218046D01*
X122989525Y-82184078D01*
X122927846Y-82163739D01*
X122873422Y-82158191D01*
X122810332Y-82162323D01*
G36*
X123460958Y-82160848D02*
G01*
X123413605Y-82165420D01*
X123377603Y-82172467D01*
X123350677Y-82181798D01*
X123320127Y-82195354D01*
X123289915Y-82210960D01*
X123264003Y-82226441D01*
X123246352Y-82239622D01*
X123240800Y-82247554D01*
X123245967Y-82257142D01*
X123259542Y-82275460D01*
X123278637Y-82298622D01*
X123279521Y-82299648D01*
X123318243Y-82344499D01*
X123362230Y-82320674D01*
X123409142Y-82300324D01*
X123456415Y-82288721D01*
X123501558Y-82285445D01*
X123542084Y-82290077D01*
X123575503Y-82302198D01*
X123599327Y-82321391D01*
X123611066Y-82347236D01*
X123611618Y-82362628D01*
X123607066Y-82384689D01*
X123596253Y-82401196D01*
X123576894Y-82413233D01*
X123546702Y-82421888D01*
X123503392Y-82428245D01*
X123466138Y-82431740D01*
X123405385Y-82438278D01*
X123358306Y-82447417D01*
X123321714Y-82460234D01*
X123292418Y-82477806D01*
X123270371Y-82497813D01*
X123246140Y-82529955D01*
X123231606Y-82566784D01*
X123225161Y-82613036D01*
X123224511Y-82632971D01*
X123228286Y-82682095D01*
X123242442Y-82722379D01*
X123269216Y-82759827D01*
X123273517Y-82764559D01*
X123313061Y-82795969D01*
X123364666Y-82819868D01*
X123424795Y-82835336D01*
X123489912Y-82841451D01*
X123554067Y-82837634D01*
X123626197Y-82820937D01*
X123694928Y-82792459D01*
X123754642Y-82754625D01*
X123763898Y-82747094D01*
X123791696Y-82723544D01*
X123745855Y-82678272D01*
X123700014Y-82633001D01*
X123655892Y-82663351D01*
X123604510Y-82692352D01*
X123551321Y-82708286D01*
X123494772Y-82713114D01*
X123440904Y-82709077D01*
X123400209Y-82696031D01*
X123373219Y-82674301D01*
X123360466Y-82644212D01*
X123359463Y-82630666D01*
X123361520Y-82608929D01*
X123368949Y-82592622D01*
X123384013Y-82580615D01*
X123408974Y-82571780D01*
X123446095Y-82564989D01*
X123497639Y-82559111D01*
X123504157Y-82558484D01*
X123578353Y-82547684D01*
X123637653Y-82530354D01*
X123683080Y-82505734D01*
X123715658Y-82473063D01*
X123736412Y-82431580D01*
X123746365Y-82380526D01*
X123746540Y-82378445D01*
X123743717Y-82319596D01*
X123725918Y-82267830D01*
X123694072Y-82224414D01*
X123649104Y-82190614D01*
X123592297Y-82167793D01*
X123556614Y-82161898D01*
X123510731Y-82159629D01*
X123460958Y-82160848D01*
G37*
X123460958Y-82160848D02*
X123413605Y-82165420D01*
X123377603Y-82172467D01*
X123350677Y-82181798D01*
X123320127Y-82195354D01*
X123289915Y-82210960D01*
X123264003Y-82226441D01*
X123246352Y-82239622D01*
X123240800Y-82247554D01*
X123245967Y-82257142D01*
X123259542Y-82275460D01*
X123278637Y-82298622D01*
X123279521Y-82299648D01*
X123318243Y-82344499D01*
X123362230Y-82320674D01*
X123409142Y-82300324D01*
X123456415Y-82288721D01*
X123501558Y-82285445D01*
X123542084Y-82290077D01*
X123575503Y-82302198D01*
X123599327Y-82321391D01*
X123611066Y-82347236D01*
X123611618Y-82362628D01*
X123607066Y-82384689D01*
X123596253Y-82401196D01*
X123576894Y-82413233D01*
X123546702Y-82421888D01*
X123503392Y-82428245D01*
X123466138Y-82431740D01*
X123405385Y-82438278D01*
X123358306Y-82447417D01*
X123321714Y-82460234D01*
X123292418Y-82477806D01*
X123270371Y-82497813D01*
X123246140Y-82529955D01*
X123231606Y-82566784D01*
X123225161Y-82613036D01*
X123224511Y-82632971D01*
X123228286Y-82682095D01*
X123242442Y-82722379D01*
X123269216Y-82759827D01*
X123273517Y-82764559D01*
X123313061Y-82795969D01*
X123364666Y-82819868D01*
X123424795Y-82835336D01*
X123489912Y-82841451D01*
X123554067Y-82837634D01*
X123626197Y-82820937D01*
X123694928Y-82792459D01*
X123754642Y-82754625D01*
X123763898Y-82747094D01*
X123791696Y-82723544D01*
X123745855Y-82678272D01*
X123700014Y-82633001D01*
X123655892Y-82663351D01*
X123604510Y-82692352D01*
X123551321Y-82708286D01*
X123494772Y-82713114D01*
X123440904Y-82709077D01*
X123400209Y-82696031D01*
X123373219Y-82674301D01*
X123360466Y-82644212D01*
X123359463Y-82630666D01*
X123361520Y-82608929D01*
X123368949Y-82592622D01*
X123384013Y-82580615D01*
X123408974Y-82571780D01*
X123446095Y-82564989D01*
X123497639Y-82559111D01*
X123504157Y-82558484D01*
X123578353Y-82547684D01*
X123637653Y-82530354D01*
X123683080Y-82505734D01*
X123715658Y-82473063D01*
X123736412Y-82431580D01*
X123746365Y-82380526D01*
X123746540Y-82378445D01*
X123743717Y-82319596D01*
X123725918Y-82267830D01*
X123694072Y-82224414D01*
X123649104Y-82190614D01*
X123592297Y-82167793D01*
X123556614Y-82161898D01*
X123510731Y-82159629D01*
X123460958Y-82160848D01*
G36*
X125042170Y-82161600D02*
G01*
X125039147Y-82162061D01*
X124980979Y-82177210D01*
X124930887Y-82204339D01*
X124887034Y-82242889D01*
X124857225Y-82279855D01*
X124835632Y-82321419D01*
X124821035Y-82371050D01*
X124812212Y-82432218D01*
X124809961Y-82461737D01*
X124804560Y-82550000D01*
X125232351Y-82550000D01*
X125226625Y-82581750D01*
X125210273Y-82632176D01*
X125182719Y-82671311D01*
X125146011Y-82698406D01*
X125102196Y-82712714D01*
X125053324Y-82713484D01*
X125001442Y-82699970D01*
X124960263Y-82679069D01*
X124919453Y-82653700D01*
X124872350Y-82693895D01*
X124825247Y-82734089D01*
X124852174Y-82759248D01*
X124908798Y-82800879D01*
X124973371Y-82828414D01*
X125043507Y-82841171D01*
X125116819Y-82838468D01*
X125124919Y-82837207D01*
X125191124Y-82818446D01*
X125247310Y-82786535D01*
X125292991Y-82742318D01*
X125327678Y-82686641D01*
X125350887Y-82620348D01*
X125362130Y-82544283D01*
X125360921Y-82459293D01*
X125358879Y-82439934D01*
X125232351Y-82439934D01*
X124944874Y-82439934D01*
X124950775Y-82408184D01*
X124966237Y-82358003D01*
X124991844Y-82321104D01*
X125028245Y-82296747D01*
X125056709Y-82287577D01*
X125103556Y-82284889D01*
X125146424Y-82297312D01*
X125182842Y-82323092D01*
X125210340Y-82360474D01*
X125226448Y-82407703D01*
X125226536Y-82408184D01*
X125232351Y-82439934D01*
X125358879Y-82439934D01*
X125358077Y-82432332D01*
X125341931Y-82355728D01*
X125314657Y-82290524D01*
X125277136Y-82237466D01*
X125230246Y-82197298D01*
X125174869Y-82170768D01*
X125111884Y-82158620D01*
X125042170Y-82161600D01*
G37*
X125042170Y-82161600D02*
X125039147Y-82162061D01*
X124980979Y-82177210D01*
X124930887Y-82204339D01*
X124887034Y-82242889D01*
X124857225Y-82279855D01*
X124835632Y-82321419D01*
X124821035Y-82371050D01*
X124812212Y-82432218D01*
X124809961Y-82461737D01*
X124804560Y-82550000D01*
X125232351Y-82550000D01*
X125226625Y-82581750D01*
X125210273Y-82632176D01*
X125182719Y-82671311D01*
X125146011Y-82698406D01*
X125102196Y-82712714D01*
X125053324Y-82713484D01*
X125001442Y-82699970D01*
X124960263Y-82679069D01*
X124919453Y-82653700D01*
X124872350Y-82693895D01*
X124825247Y-82734089D01*
X124852174Y-82759248D01*
X124908798Y-82800879D01*
X124973371Y-82828414D01*
X125043507Y-82841171D01*
X125116819Y-82838468D01*
X125124919Y-82837207D01*
X125191124Y-82818446D01*
X125247310Y-82786535D01*
X125292991Y-82742318D01*
X125327678Y-82686641D01*
X125350887Y-82620348D01*
X125362130Y-82544283D01*
X125360921Y-82459293D01*
X125358879Y-82439934D01*
X125232351Y-82439934D01*
X124944874Y-82439934D01*
X124950775Y-82408184D01*
X124966237Y-82358003D01*
X124991844Y-82321104D01*
X125028245Y-82296747D01*
X125056709Y-82287577D01*
X125103556Y-82284889D01*
X125146424Y-82297312D01*
X125182842Y-82323092D01*
X125210340Y-82360474D01*
X125226448Y-82407703D01*
X125226536Y-82408184D01*
X125232351Y-82439934D01*
X125358879Y-82439934D01*
X125358077Y-82432332D01*
X125341931Y-82355728D01*
X125314657Y-82290524D01*
X125277136Y-82237466D01*
X125230246Y-82197298D01*
X125174869Y-82170768D01*
X125111884Y-82158620D01*
X125042170Y-82161600D01*
G36*
X126348412Y-82158961D02*
G01*
X126285835Y-82174090D01*
X126229342Y-82202892D01*
X126181013Y-82244495D01*
X126142926Y-82298025D01*
X126131652Y-82321126D01*
X126125365Y-82337822D01*
X126120884Y-82356425D01*
X126117921Y-82380072D01*
X126116185Y-82411898D01*
X126115389Y-82455038D01*
X126115233Y-82499200D01*
X126115492Y-82553501D01*
X126116462Y-82594009D01*
X126118431Y-82623860D01*
X126121688Y-82646189D01*
X126126524Y-82664133D01*
X126131652Y-82677274D01*
X126164671Y-82735524D01*
X126207822Y-82780603D01*
X126257272Y-82811361D01*
X126312798Y-82832262D01*
X126368275Y-82840521D01*
X126430149Y-82837146D01*
X126490299Y-82821257D01*
X126544975Y-82791473D01*
X126591276Y-82750200D01*
X126626301Y-82699843D01*
X126642327Y-82661219D01*
X126650473Y-82622606D01*
X126655649Y-82572367D01*
X126657866Y-82515542D01*
X126657372Y-82476116D01*
X126525233Y-82476116D01*
X126525085Y-82525577D01*
X126521972Y-82571588D01*
X126516276Y-82605991D01*
X126497949Y-82647663D01*
X126468342Y-82679059D01*
X126430452Y-82699009D01*
X126387273Y-82706347D01*
X126341800Y-82699903D01*
X126309967Y-82686435D01*
X126290724Y-82670256D01*
X126271862Y-82645870D01*
X126265517Y-82634796D01*
X126257010Y-82615856D01*
X126251463Y-82596397D01*
X126248285Y-82572179D01*
X126246885Y-82538962D01*
X126246653Y-82499523D01*
X126247381Y-82452126D01*
X126249686Y-82417575D01*
X126254063Y-82391816D01*
X126261004Y-82370796D01*
X126262877Y-82366510D01*
X126287254Y-82330544D01*
X126320066Y-82306579D01*
X126358155Y-82294278D01*
X126398359Y-82293303D01*
X126437519Y-82303315D01*
X126472475Y-82323976D01*
X126500066Y-82354949D01*
X126516591Y-82393663D01*
X126522405Y-82429909D01*
X126525233Y-82476116D01*
X126657372Y-82476116D01*
X126657134Y-82457173D01*
X126653462Y-82402304D01*
X126646862Y-82355975D01*
X126641672Y-82334928D01*
X126618973Y-82286434D01*
X126583693Y-82240954D01*
X126540097Y-82202849D01*
X126492451Y-82176478D01*
X126483503Y-82173223D01*
X126414995Y-82158381D01*
X126348412Y-82158961D01*
G37*
X126348412Y-82158961D02*
X126285835Y-82174090D01*
X126229342Y-82202892D01*
X126181013Y-82244495D01*
X126142926Y-82298025D01*
X126131652Y-82321126D01*
X126125365Y-82337822D01*
X126120884Y-82356425D01*
X126117921Y-82380072D01*
X126116185Y-82411898D01*
X126115389Y-82455038D01*
X126115233Y-82499200D01*
X126115492Y-82553501D01*
X126116462Y-82594009D01*
X126118431Y-82623860D01*
X126121688Y-82646189D01*
X126126524Y-82664133D01*
X126131652Y-82677274D01*
X126164671Y-82735524D01*
X126207822Y-82780603D01*
X126257272Y-82811361D01*
X126312798Y-82832262D01*
X126368275Y-82840521D01*
X126430149Y-82837146D01*
X126490299Y-82821257D01*
X126544975Y-82791473D01*
X126591276Y-82750200D01*
X126626301Y-82699843D01*
X126642327Y-82661219D01*
X126650473Y-82622606D01*
X126655649Y-82572367D01*
X126657866Y-82515542D01*
X126657372Y-82476116D01*
X126525233Y-82476116D01*
X126525085Y-82525577D01*
X126521972Y-82571588D01*
X126516276Y-82605991D01*
X126497949Y-82647663D01*
X126468342Y-82679059D01*
X126430452Y-82699009D01*
X126387273Y-82706347D01*
X126341800Y-82699903D01*
X126309967Y-82686435D01*
X126290724Y-82670256D01*
X126271862Y-82645870D01*
X126265517Y-82634796D01*
X126257010Y-82615856D01*
X126251463Y-82596397D01*
X126248285Y-82572179D01*
X126246885Y-82538962D01*
X126246653Y-82499523D01*
X126247381Y-82452126D01*
X126249686Y-82417575D01*
X126254063Y-82391816D01*
X126261004Y-82370796D01*
X126262877Y-82366510D01*
X126287254Y-82330544D01*
X126320066Y-82306579D01*
X126358155Y-82294278D01*
X126398359Y-82293303D01*
X126437519Y-82303315D01*
X126472475Y-82323976D01*
X126500066Y-82354949D01*
X126516591Y-82393663D01*
X126522405Y-82429909D01*
X126525233Y-82476116D01*
X126657372Y-82476116D01*
X126657134Y-82457173D01*
X126653462Y-82402304D01*
X126646862Y-82355975D01*
X126641672Y-82334928D01*
X126618973Y-82286434D01*
X126583693Y-82240954D01*
X126540097Y-82202849D01*
X126492451Y-82176478D01*
X126483503Y-82173223D01*
X126414995Y-82158381D01*
X126348412Y-82158961D01*
G36*
X121569666Y-83232531D02*
G01*
X121515799Y-83259152D01*
X121514259Y-83260174D01*
X121510263Y-83266689D01*
X121514049Y-83277982D01*
X121526996Y-83296593D01*
X121547763Y-83321868D01*
X121568980Y-83346919D01*
X121585611Y-83366680D01*
X121594909Y-83377881D01*
X121595894Y-83379134D01*
X121604343Y-83378192D01*
X121622184Y-83371363D01*
X121628294Y-83368551D01*
X121673090Y-83355453D01*
X121717609Y-83357235D01*
X121758285Y-83372925D01*
X121791549Y-83401556D01*
X121801513Y-83415639D01*
X121806578Y-83424938D01*
X121810515Y-83435633D01*
X121813465Y-83449858D01*
X121815569Y-83469744D01*
X121816969Y-83497425D01*
X121817807Y-83535032D01*
X121818224Y-83584698D01*
X121818361Y-83648554D01*
X121818369Y-83669717D01*
X121818400Y-83896200D01*
X121953867Y-83896200D01*
X121953867Y-83227334D01*
X121818400Y-83227334D01*
X121818400Y-83296386D01*
X121784179Y-83267094D01*
X121737119Y-83237462D01*
X121683538Y-83221769D01*
X121626650Y-83220098D01*
X121569666Y-83232531D01*
G37*
X121569666Y-83232531D02*
X121515799Y-83259152D01*
X121514259Y-83260174D01*
X121510263Y-83266689D01*
X121514049Y-83277982D01*
X121526996Y-83296593D01*
X121547763Y-83321868D01*
X121568980Y-83346919D01*
X121585611Y-83366680D01*
X121594909Y-83377881D01*
X121595894Y-83379134D01*
X121604343Y-83378192D01*
X121622184Y-83371363D01*
X121628294Y-83368551D01*
X121673090Y-83355453D01*
X121717609Y-83357235D01*
X121758285Y-83372925D01*
X121791549Y-83401556D01*
X121801513Y-83415639D01*
X121806578Y-83424938D01*
X121810515Y-83435633D01*
X121813465Y-83449858D01*
X121815569Y-83469744D01*
X121816969Y-83497425D01*
X121817807Y-83535032D01*
X121818224Y-83584698D01*
X121818361Y-83648554D01*
X121818369Y-83669717D01*
X121818400Y-83896200D01*
X121953867Y-83896200D01*
X121953867Y-83227334D01*
X121818400Y-83227334D01*
X121818400Y-83296386D01*
X121784179Y-83267094D01*
X121737119Y-83237462D01*
X121683538Y-83221769D01*
X121626650Y-83220098D01*
X121569666Y-83232531D01*
G36*
X123401355Y-83455934D02*
G01*
X123385100Y-83515181D01*
X123370091Y-83568721D01*
X123356936Y-83614481D01*
X123346241Y-83650391D01*
X123338613Y-83674377D01*
X123334657Y-83684369D01*
X123334428Y-83684533D01*
X123330672Y-83676807D01*
X123322457Y-83654981D01*
X123310486Y-83621082D01*
X123295458Y-83577138D01*
X123278076Y-83525176D01*
X123259041Y-83467226D01*
X123255369Y-83455934D01*
X123181160Y-83227334D01*
X123081689Y-83227334D01*
X123016839Y-83428417D01*
X122998330Y-83485787D01*
X122980960Y-83539584D01*
X122965594Y-83587136D01*
X122953095Y-83625771D01*
X122944327Y-83652817D01*
X122940889Y-83663367D01*
X122929790Y-83697233D01*
X122916230Y-83650667D01*
X122909989Y-83628714D01*
X122900175Y-83593558D01*
X122887657Y-83548337D01*
X122873300Y-83496187D01*
X122857975Y-83440247D01*
X122852214Y-83419151D01*
X122837558Y-83365857D01*
X122824240Y-83318239D01*
X122812940Y-83278664D01*
X122804338Y-83249495D01*
X122799114Y-83233097D01*
X122797964Y-83230408D01*
X122788312Y-83228928D01*
X122766040Y-83228362D01*
X122735438Y-83228788D01*
X122726084Y-83229091D01*
X122657998Y-83231567D01*
X122750449Y-83519434D01*
X122772477Y-83588107D01*
X122793385Y-83653452D01*
X122812474Y-83713273D01*
X122829045Y-83765374D01*
X122842401Y-83807558D01*
X122851842Y-83837629D01*
X122856184Y-83851750D01*
X122869468Y-83896200D01*
X122991034Y-83896120D01*
X123053881Y-83682377D01*
X123071119Y-83623954D01*
X123087157Y-83569989D01*
X123101268Y-83522894D01*
X123112728Y-83485077D01*
X123120810Y-83458951D01*
X123124581Y-83447467D01*
X123127529Y-83443402D01*
X123131598Y-83445982D01*
X123137316Y-83456641D01*
X123145209Y-83476814D01*
X123155806Y-83507934D01*
X123169633Y-83551437D01*
X123187220Y-83608755D01*
X123202429Y-83659133D01*
X123272424Y-83891967D01*
X123332334Y-83894445D01*
X123392243Y-83896923D01*
X123452680Y-83708178D01*
X123488422Y-83596530D01*
X123519354Y-83499855D01*
X123545415Y-83418340D01*
X123566546Y-83352173D01*
X123582687Y-83301542D01*
X123593778Y-83266634D01*
X123599758Y-83247637D01*
X123600146Y-83246384D01*
X123602278Y-83237129D01*
X123599625Y-83231494D01*
X123589102Y-83228582D01*
X123567627Y-83227494D01*
X123534720Y-83227334D01*
X123463432Y-83227334D01*
X123401355Y-83455934D01*
G37*
X123401355Y-83455934D02*
X123385100Y-83515181D01*
X123370091Y-83568721D01*
X123356936Y-83614481D01*
X123346241Y-83650391D01*
X123338613Y-83674377D01*
X123334657Y-83684369D01*
X123334428Y-83684533D01*
X123330672Y-83676807D01*
X123322457Y-83654981D01*
X123310486Y-83621082D01*
X123295458Y-83577138D01*
X123278076Y-83525176D01*
X123259041Y-83467226D01*
X123255369Y-83455934D01*
X123181160Y-83227334D01*
X123081689Y-83227334D01*
X123016839Y-83428417D01*
X122998330Y-83485787D01*
X122980960Y-83539584D01*
X122965594Y-83587136D01*
X122953095Y-83625771D01*
X122944327Y-83652817D01*
X122940889Y-83663367D01*
X122929790Y-83697233D01*
X122916230Y-83650667D01*
X122909989Y-83628714D01*
X122900175Y-83593558D01*
X122887657Y-83548337D01*
X122873300Y-83496187D01*
X122857975Y-83440247D01*
X122852214Y-83419151D01*
X122837558Y-83365857D01*
X122824240Y-83318239D01*
X122812940Y-83278664D01*
X122804338Y-83249495D01*
X122799114Y-83233097D01*
X122797964Y-83230408D01*
X122788312Y-83228928D01*
X122766040Y-83228362D01*
X122735438Y-83228788D01*
X122726084Y-83229091D01*
X122657998Y-83231567D01*
X122750449Y-83519434D01*
X122772477Y-83588107D01*
X122793385Y-83653452D01*
X122812474Y-83713273D01*
X122829045Y-83765374D01*
X122842401Y-83807558D01*
X122851842Y-83837629D01*
X122856184Y-83851750D01*
X122869468Y-83896200D01*
X122991034Y-83896120D01*
X123053881Y-83682377D01*
X123071119Y-83623954D01*
X123087157Y-83569989D01*
X123101268Y-83522894D01*
X123112728Y-83485077D01*
X123120810Y-83458951D01*
X123124581Y-83447467D01*
X123127529Y-83443402D01*
X123131598Y-83445982D01*
X123137316Y-83456641D01*
X123145209Y-83476814D01*
X123155806Y-83507934D01*
X123169633Y-83551437D01*
X123187220Y-83608755D01*
X123202429Y-83659133D01*
X123272424Y-83891967D01*
X123332334Y-83894445D01*
X123392243Y-83896923D01*
X123452680Y-83708178D01*
X123488422Y-83596530D01*
X123519354Y-83499855D01*
X123545415Y-83418340D01*
X123566546Y-83352173D01*
X123582687Y-83301542D01*
X123593778Y-83266634D01*
X123599758Y-83247637D01*
X123600146Y-83246384D01*
X123602278Y-83237129D01*
X123599625Y-83231494D01*
X123589102Y-83228582D01*
X123567627Y-83227494D01*
X123534720Y-83227334D01*
X123463432Y-83227334D01*
X123401355Y-83455934D01*
G36*
X124301744Y-83227691D02*
G01*
X124248127Y-83249774D01*
X124232084Y-83259884D01*
X124228030Y-83266447D01*
X124231430Y-83277719D01*
X124243635Y-83296305D01*
X124265312Y-83323969D01*
X124286944Y-83349356D01*
X124305327Y-83368615D01*
X124317439Y-83378664D01*
X124319662Y-83379433D01*
X124333194Y-83375301D01*
X124349933Y-83367034D01*
X124383397Y-83356185D01*
X124422698Y-83355476D01*
X124460401Y-83364528D01*
X124477798Y-83373552D01*
X124494253Y-83385310D01*
X124507292Y-83397497D01*
X124517311Y-83412151D01*
X124524706Y-83431311D01*
X124529873Y-83457014D01*
X124533209Y-83491298D01*
X124535108Y-83536202D01*
X124535969Y-83593762D01*
X124536185Y-83666017D01*
X124536187Y-83673950D01*
X124536200Y-83896200D01*
X124671667Y-83896200D01*
X124671667Y-83227334D01*
X124536200Y-83227334D01*
X124536200Y-83298235D01*
X124512917Y-83275983D01*
X124467581Y-83243815D01*
X124414953Y-83224911D01*
X124358514Y-83219470D01*
X124301744Y-83227691D01*
G37*
X124301744Y-83227691D02*
X124248127Y-83249774D01*
X124232084Y-83259884D01*
X124228030Y-83266447D01*
X124231430Y-83277719D01*
X124243635Y-83296305D01*
X124265312Y-83323969D01*
X124286944Y-83349356D01*
X124305327Y-83368615D01*
X124317439Y-83378664D01*
X124319662Y-83379433D01*
X124333194Y-83375301D01*
X124349933Y-83367034D01*
X124383397Y-83356185D01*
X124422698Y-83355476D01*
X124460401Y-83364528D01*
X124477798Y-83373552D01*
X124494253Y-83385310D01*
X124507292Y-83397497D01*
X124517311Y-83412151D01*
X124524706Y-83431311D01*
X124529873Y-83457014D01*
X124533209Y-83491298D01*
X124535108Y-83536202D01*
X124535969Y-83593762D01*
X124536185Y-83666017D01*
X124536187Y-83673950D01*
X124536200Y-83896200D01*
X124671667Y-83896200D01*
X124671667Y-83227334D01*
X124536200Y-83227334D01*
X124536200Y-83298235D01*
X124512917Y-83275983D01*
X124467581Y-83243815D01*
X124414953Y-83224911D01*
X124358514Y-83219470D01*
X124301744Y-83227691D01*
G36*
X125621818Y-82166944D02*
G01*
X125568806Y-82188151D01*
X125524177Y-82221297D01*
X125490293Y-82264583D01*
X125469513Y-82316210D01*
X125468313Y-82321453D01*
X125464458Y-82349697D01*
X125461677Y-82390705D01*
X125459972Y-82440340D01*
X125459342Y-82494466D01*
X125459787Y-82548949D01*
X125461307Y-82599652D01*
X125463903Y-82642439D01*
X125467573Y-82673175D01*
X125468313Y-82676947D01*
X125487347Y-82728580D01*
X125518798Y-82771602D01*
X125559972Y-82805046D01*
X125608175Y-82827943D01*
X125660713Y-82839325D01*
X125714893Y-82838223D01*
X125768020Y-82823669D01*
X125810434Y-82799930D01*
X125830233Y-82786026D01*
X125845192Y-82776125D01*
X125846417Y-82775384D01*
X125849476Y-82776827D01*
X125851922Y-82786101D01*
X125853812Y-82804623D01*
X125855204Y-82833809D01*
X125856157Y-82875078D01*
X125856729Y-82929847D01*
X125856978Y-82999533D01*
X125857000Y-83033685D01*
X125857000Y-83298235D01*
X125833717Y-83275983D01*
X125787608Y-83242691D01*
X125736142Y-83223699D01*
X125682056Y-83218433D01*
X125628089Y-83226323D01*
X125576980Y-83246794D01*
X125531466Y-83279275D01*
X125494287Y-83323192D01*
X125479279Y-83350100D01*
X125473554Y-83362651D01*
X125469037Y-83374772D01*
X125465584Y-83388566D01*
X125463051Y-83406135D01*
X125461295Y-83429582D01*
X125460171Y-83461010D01*
X125459536Y-83502520D01*
X125459246Y-83556216D01*
X125459157Y-83624201D01*
X125459150Y-83644317D01*
X125459067Y-83896200D01*
X125594533Y-83896200D01*
X125594547Y-83673950D01*
X125594667Y-83605319D01*
X125595103Y-83551468D01*
X125595981Y-83510248D01*
X125597428Y-83479506D01*
X125599571Y-83457092D01*
X125602536Y-83440854D01*
X125606449Y-83428641D01*
X125609363Y-83422236D01*
X125635119Y-83387666D01*
X125669282Y-83365069D01*
X125708319Y-83354453D01*
X125748697Y-83355825D01*
X125786884Y-83369192D01*
X125819347Y-83394562D01*
X125837950Y-83421744D01*
X125843762Y-83433964D01*
X125848254Y-83446254D01*
X125851597Y-83460890D01*
X125853959Y-83480151D01*
X125855511Y-83506314D01*
X125856420Y-83541657D01*
X125856858Y-83588457D01*
X125856993Y-83648993D01*
X125857000Y-83677861D01*
X125857000Y-83896200D01*
X125992467Y-83896200D01*
X125992467Y-82479053D01*
X125855545Y-82479053D01*
X125854702Y-82551134D01*
X125845894Y-82608737D01*
X125828871Y-82652457D01*
X125803387Y-82682889D01*
X125769192Y-82700627D01*
X125762303Y-82702468D01*
X125718161Y-82705593D01*
X125672218Y-82696735D01*
X125651018Y-82688007D01*
X125629570Y-82672377D01*
X125613868Y-82648926D01*
X125603284Y-82615535D01*
X125597187Y-82570085D01*
X125594948Y-82510458D01*
X125594905Y-82499200D01*
X125597086Y-82433083D01*
X125604303Y-82381864D01*
X125617568Y-82343994D01*
X125637893Y-82317924D01*
X125666291Y-82302105D01*
X125703771Y-82294985D01*
X125728769Y-82294218D01*
X125770400Y-82299335D01*
X125802726Y-82314683D01*
X125826606Y-82341517D01*
X125842900Y-82381089D01*
X125852468Y-82434653D01*
X125855545Y-82479053D01*
X125992467Y-82479053D01*
X125992467Y-82160534D01*
X125857000Y-82160534D01*
X125857000Y-82229129D01*
X125829028Y-82207793D01*
X125780563Y-82178474D01*
X125728251Y-82163002D01*
X125680853Y-82159475D01*
X125621818Y-82166944D01*
G37*
X125621818Y-82166944D02*
X125568806Y-82188151D01*
X125524177Y-82221297D01*
X125490293Y-82264583D01*
X125469513Y-82316210D01*
X125468313Y-82321453D01*
X125464458Y-82349697D01*
X125461677Y-82390705D01*
X125459972Y-82440340D01*
X125459342Y-82494466D01*
X125459787Y-82548949D01*
X125461307Y-82599652D01*
X125463903Y-82642439D01*
X125467573Y-82673175D01*
X125468313Y-82676947D01*
X125487347Y-82728580D01*
X125518798Y-82771602D01*
X125559972Y-82805046D01*
X125608175Y-82827943D01*
X125660713Y-82839325D01*
X125714893Y-82838223D01*
X125768020Y-82823669D01*
X125810434Y-82799930D01*
X125830233Y-82786026D01*
X125845192Y-82776125D01*
X125846417Y-82775384D01*
X125849476Y-82776827D01*
X125851922Y-82786101D01*
X125853812Y-82804623D01*
X125855204Y-82833809D01*
X125856157Y-82875078D01*
X125856729Y-82929847D01*
X125856978Y-82999533D01*
X125857000Y-83033685D01*
X125857000Y-83298235D01*
X125833717Y-83275983D01*
X125787608Y-83242691D01*
X125736142Y-83223699D01*
X125682056Y-83218433D01*
X125628089Y-83226323D01*
X125576980Y-83246794D01*
X125531466Y-83279275D01*
X125494287Y-83323192D01*
X125479279Y-83350100D01*
X125473554Y-83362651D01*
X125469037Y-83374772D01*
X125465584Y-83388566D01*
X125463051Y-83406135D01*
X125461295Y-83429582D01*
X125460171Y-83461010D01*
X125459536Y-83502520D01*
X125459246Y-83556216D01*
X125459157Y-83624201D01*
X125459150Y-83644317D01*
X125459067Y-83896200D01*
X125594533Y-83896200D01*
X125594547Y-83673950D01*
X125594667Y-83605319D01*
X125595103Y-83551468D01*
X125595981Y-83510248D01*
X125597428Y-83479506D01*
X125599571Y-83457092D01*
X125602536Y-83440854D01*
X125606449Y-83428641D01*
X125609363Y-83422236D01*
X125635119Y-83387666D01*
X125669282Y-83365069D01*
X125708319Y-83354453D01*
X125748697Y-83355825D01*
X125786884Y-83369192D01*
X125819347Y-83394562D01*
X125837950Y-83421744D01*
X125843762Y-83433964D01*
X125848254Y-83446254D01*
X125851597Y-83460890D01*
X125853959Y-83480151D01*
X125855511Y-83506314D01*
X125856420Y-83541657D01*
X125856858Y-83588457D01*
X125856993Y-83648993D01*
X125857000Y-83677861D01*
X125857000Y-83896200D01*
X125992467Y-83896200D01*
X125992467Y-82479053D01*
X125855545Y-82479053D01*
X125854702Y-82551134D01*
X125845894Y-82608737D01*
X125828871Y-82652457D01*
X125803387Y-82682889D01*
X125769192Y-82700627D01*
X125762303Y-82702468D01*
X125718161Y-82705593D01*
X125672218Y-82696735D01*
X125651018Y-82688007D01*
X125629570Y-82672377D01*
X125613868Y-82648926D01*
X125603284Y-82615535D01*
X125597187Y-82570085D01*
X125594948Y-82510458D01*
X125594905Y-82499200D01*
X125597086Y-82433083D01*
X125604303Y-82381864D01*
X125617568Y-82343994D01*
X125637893Y-82317924D01*
X125666291Y-82302105D01*
X125703771Y-82294985D01*
X125728769Y-82294218D01*
X125770400Y-82299335D01*
X125802726Y-82314683D01*
X125826606Y-82341517D01*
X125842900Y-82381089D01*
X125852468Y-82434653D01*
X125855545Y-82479053D01*
X125992467Y-82479053D01*
X125992467Y-82160534D01*
X125857000Y-82160534D01*
X125857000Y-82229129D01*
X125829028Y-82207793D01*
X125780563Y-82178474D01*
X125728251Y-82163002D01*
X125680853Y-82159475D01*
X125621818Y-82166944D01*
G36*
X121177504Y-83223500D02*
G01*
X121117807Y-83240222D01*
X121062794Y-83269736D01*
X121027107Y-83299524D01*
X120991201Y-83344912D01*
X120966160Y-83399191D01*
X120951401Y-83464133D01*
X120946342Y-83541510D01*
X120946333Y-83545250D01*
X120946333Y-83608334D01*
X121361200Y-83608334D01*
X121361200Y-83638931D01*
X121354166Y-83675802D01*
X121335650Y-83712914D01*
X121309535Y-83743389D01*
X121297005Y-83752696D01*
X121251866Y-83771067D01*
X121201489Y-83775328D01*
X121149596Y-83765737D01*
X121099912Y-83742551D01*
X121093937Y-83738638D01*
X121075436Y-83727256D01*
X121060341Y-83722980D01*
X121044847Y-83726904D01*
X121025149Y-83740124D01*
X120997443Y-83763731D01*
X120993019Y-83767652D01*
X120961383Y-83795737D01*
X120980860Y-83816470D01*
X121022363Y-83849896D01*
X121075200Y-83876320D01*
X121134786Y-83894516D01*
X121196539Y-83903260D01*
X121255874Y-83901328D01*
X121280767Y-83896599D01*
X121344160Y-83873107D01*
X121398866Y-83835837D01*
X121403212Y-83831984D01*
X121441296Y-83789235D01*
X121468908Y-83738386D01*
X121486710Y-83677518D01*
X121495362Y-83604713D01*
X121496466Y-83561767D01*
X121492030Y-83480815D01*
X121490969Y-83475540D01*
X121361200Y-83475540D01*
X121361200Y-83498267D01*
X121079683Y-83498267D01*
X121085151Y-83470928D01*
X121098433Y-83430102D01*
X121119517Y-83393374D01*
X121143413Y-83368239D01*
X121176564Y-83352698D01*
X121217284Y-83346849D01*
X121259109Y-83350904D01*
X121292680Y-83363376D01*
X121323279Y-83388503D01*
X121346919Y-83422898D01*
X121359857Y-83460435D01*
X121361200Y-83475540D01*
X121490969Y-83475540D01*
X121478259Y-83412385D01*
X121454454Y-83354431D01*
X121419917Y-83304912D01*
X121402542Y-83286619D01*
X121354405Y-83251130D01*
X121298833Y-83228850D01*
X121238856Y-83219675D01*
X121177504Y-83223500D01*
G37*
X121177504Y-83223500D02*
X121117807Y-83240222D01*
X121062794Y-83269736D01*
X121027107Y-83299524D01*
X120991201Y-83344912D01*
X120966160Y-83399191D01*
X120951401Y-83464133D01*
X120946342Y-83541510D01*
X120946333Y-83545250D01*
X120946333Y-83608334D01*
X121361200Y-83608334D01*
X121361200Y-83638931D01*
X121354166Y-83675802D01*
X121335650Y-83712914D01*
X121309535Y-83743389D01*
X121297005Y-83752696D01*
X121251866Y-83771067D01*
X121201489Y-83775328D01*
X121149596Y-83765737D01*
X121099912Y-83742551D01*
X121093937Y-83738638D01*
X121075436Y-83727256D01*
X121060341Y-83722980D01*
X121044847Y-83726904D01*
X121025149Y-83740124D01*
X120997443Y-83763731D01*
X120993019Y-83767652D01*
X120961383Y-83795737D01*
X120980860Y-83816470D01*
X121022363Y-83849896D01*
X121075200Y-83876320D01*
X121134786Y-83894516D01*
X121196539Y-83903260D01*
X121255874Y-83901328D01*
X121280767Y-83896599D01*
X121344160Y-83873107D01*
X121398866Y-83835837D01*
X121403212Y-83831984D01*
X121441296Y-83789235D01*
X121468908Y-83738386D01*
X121486710Y-83677518D01*
X121495362Y-83604713D01*
X121496466Y-83561767D01*
X121492030Y-83480815D01*
X121490969Y-83475540D01*
X121361200Y-83475540D01*
X121361200Y-83498267D01*
X121079683Y-83498267D01*
X121085151Y-83470928D01*
X121098433Y-83430102D01*
X121119517Y-83393374D01*
X121143413Y-83368239D01*
X121176564Y-83352698D01*
X121217284Y-83346849D01*
X121259109Y-83350904D01*
X121292680Y-83363376D01*
X121323279Y-83388503D01*
X121346919Y-83422898D01*
X121359857Y-83460435D01*
X121361200Y-83475540D01*
X121490969Y-83475540D01*
X121478259Y-83412385D01*
X121454454Y-83354431D01*
X121419917Y-83304912D01*
X121402542Y-83286619D01*
X121354405Y-83251130D01*
X121298833Y-83228850D01*
X121238856Y-83219675D01*
X121177504Y-83223500D01*
G36*
X122329484Y-83221878D02*
G01*
X122275485Y-83229646D01*
X122231016Y-83242284D01*
X122226549Y-83244139D01*
X122181837Y-83270990D01*
X122145092Y-83307592D01*
X122120261Y-83349749D01*
X122116093Y-83361602D01*
X122112659Y-83382694D01*
X122109954Y-83420503D01*
X122107983Y-83474826D01*
X122106754Y-83545462D01*
X122106274Y-83632210D01*
X122106267Y-83645299D01*
X122106267Y-83896200D01*
X122241733Y-83896200D01*
X122241733Y-83838606D01*
X122266886Y-83862103D01*
X122301746Y-83884390D01*
X122347389Y-83898573D01*
X122399470Y-83904152D01*
X122453644Y-83900629D01*
X122501385Y-83888994D01*
X122557386Y-83862421D01*
X122599452Y-83826322D01*
X122627436Y-83780896D01*
X122641188Y-83726346D01*
X122642693Y-83697631D01*
X122642113Y-83693258D01*
X122516336Y-83693258D01*
X122510451Y-83718955D01*
X122508677Y-83723356D01*
X122500226Y-83742145D01*
X122494632Y-83751980D01*
X122494049Y-83752394D01*
X122485313Y-83755164D01*
X122466400Y-83761969D01*
X122457633Y-83765231D01*
X122428895Y-83771908D01*
X122391817Y-83775006D01*
X122352005Y-83774680D01*
X122315067Y-83771085D01*
X122286611Y-83764377D01*
X122277868Y-83760260D01*
X122257742Y-83738551D01*
X122245793Y-83703419D01*
X122241736Y-83654020D01*
X122241733Y-83652494D01*
X122241733Y-83606047D01*
X122345450Y-83610073D01*
X122401897Y-83613399D01*
X122443868Y-83618930D01*
X122473766Y-83627505D01*
X122493993Y-83639962D01*
X122506950Y-83657140D01*
X122511560Y-83668066D01*
X122516336Y-83693258D01*
X122642113Y-83693258D01*
X122635072Y-83640184D01*
X122612438Y-83590470D01*
X122583292Y-83555866D01*
X122560958Y-83537190D01*
X122536871Y-83523309D01*
X122507952Y-83513433D01*
X122471126Y-83506768D01*
X122423315Y-83502521D01*
X122366617Y-83500057D01*
X122241733Y-83496171D01*
X122241733Y-83450096D01*
X122243381Y-83420721D01*
X122247592Y-83396171D01*
X122250882Y-83386927D01*
X122269756Y-83368103D01*
X122300500Y-83354882D01*
X122338978Y-83347342D01*
X122381055Y-83345555D01*
X122422596Y-83349598D01*
X122459465Y-83359545D01*
X122487527Y-83375472D01*
X122494527Y-83382502D01*
X122501656Y-83388622D01*
X122510675Y-83388410D01*
X122524976Y-83380466D01*
X122547947Y-83363392D01*
X122555910Y-83357165D01*
X122579920Y-83337487D01*
X122597603Y-83321442D01*
X122605633Y-83312079D01*
X122605800Y-83311411D01*
X122598781Y-83298965D01*
X122580433Y-83282242D01*
X122554817Y-83264022D01*
X122525996Y-83247086D01*
X122498032Y-83234215D01*
X122488139Y-83230869D01*
X122441863Y-83222183D01*
X122386960Y-83219288D01*
X122329484Y-83221878D01*
G37*
X122329484Y-83221878D02*
X122275485Y-83229646D01*
X122231016Y-83242284D01*
X122226549Y-83244139D01*
X122181837Y-83270990D01*
X122145092Y-83307592D01*
X122120261Y-83349749D01*
X122116093Y-83361602D01*
X122112659Y-83382694D01*
X122109954Y-83420503D01*
X122107983Y-83474826D01*
X122106754Y-83545462D01*
X122106274Y-83632210D01*
X122106267Y-83645299D01*
X122106267Y-83896200D01*
X122241733Y-83896200D01*
X122241733Y-83838606D01*
X122266886Y-83862103D01*
X122301746Y-83884390D01*
X122347389Y-83898573D01*
X122399470Y-83904152D01*
X122453644Y-83900629D01*
X122501385Y-83888994D01*
X122557386Y-83862421D01*
X122599452Y-83826322D01*
X122627436Y-83780896D01*
X122641188Y-83726346D01*
X122642693Y-83697631D01*
X122642113Y-83693258D01*
X122516336Y-83693258D01*
X122510451Y-83718955D01*
X122508677Y-83723356D01*
X122500226Y-83742145D01*
X122494632Y-83751980D01*
X122494049Y-83752394D01*
X122485313Y-83755164D01*
X122466400Y-83761969D01*
X122457633Y-83765231D01*
X122428895Y-83771908D01*
X122391817Y-83775006D01*
X122352005Y-83774680D01*
X122315067Y-83771085D01*
X122286611Y-83764377D01*
X122277868Y-83760260D01*
X122257742Y-83738551D01*
X122245793Y-83703419D01*
X122241736Y-83654020D01*
X122241733Y-83652494D01*
X122241733Y-83606047D01*
X122345450Y-83610073D01*
X122401897Y-83613399D01*
X122443868Y-83618930D01*
X122473766Y-83627505D01*
X122493993Y-83639962D01*
X122506950Y-83657140D01*
X122511560Y-83668066D01*
X122516336Y-83693258D01*
X122642113Y-83693258D01*
X122635072Y-83640184D01*
X122612438Y-83590470D01*
X122583292Y-83555866D01*
X122560958Y-83537190D01*
X122536871Y-83523309D01*
X122507952Y-83513433D01*
X122471126Y-83506768D01*
X122423315Y-83502521D01*
X122366617Y-83500057D01*
X122241733Y-83496171D01*
X122241733Y-83450096D01*
X122243381Y-83420721D01*
X122247592Y-83396171D01*
X122250882Y-83386927D01*
X122269756Y-83368103D01*
X122300500Y-83354882D01*
X122338978Y-83347342D01*
X122381055Y-83345555D01*
X122422596Y-83349598D01*
X122459465Y-83359545D01*
X122487527Y-83375472D01*
X122494527Y-83382502D01*
X122501656Y-83388622D01*
X122510675Y-83388410D01*
X122524976Y-83380466D01*
X122547947Y-83363392D01*
X122555910Y-83357165D01*
X122579920Y-83337487D01*
X122597603Y-83321442D01*
X122605633Y-83312079D01*
X122605800Y-83311411D01*
X122598781Y-83298965D01*
X122580433Y-83282242D01*
X122554817Y-83264022D01*
X122525996Y-83247086D01*
X122498032Y-83234215D01*
X122488139Y-83230869D01*
X122441863Y-83222183D01*
X122386960Y-83219288D01*
X122329484Y-83221878D01*
G36*
X123681067Y-83896200D02*
G01*
X123816533Y-83896200D01*
X123816533Y-83827669D01*
X123849230Y-83853944D01*
X123900825Y-83884955D01*
X123958322Y-83900651D01*
X124019708Y-83900690D01*
X124065114Y-83890850D01*
X124104225Y-83872090D01*
X124142247Y-83842301D01*
X124174434Y-83806136D01*
X124196034Y-83768247D01*
X124199055Y-83759615D01*
X124203807Y-83734549D01*
X124207357Y-83697050D01*
X124209725Y-83650466D01*
X124210935Y-83598147D01*
X124210983Y-83561767D01*
X124074767Y-83561767D01*
X124074491Y-83610459D01*
X124073402Y-83645572D01*
X124071112Y-83670455D01*
X124067232Y-83688455D01*
X124061372Y-83702923D01*
X124057545Y-83709933D01*
X124030131Y-83741117D01*
X123992317Y-83761648D01*
X123948466Y-83769172D01*
X123947767Y-83769174D01*
X123916916Y-83765195D01*
X123887167Y-83755502D01*
X123884848Y-83754370D01*
X123861477Y-83739238D01*
X123844280Y-83719402D01*
X123832438Y-83692338D01*
X123825128Y-83655523D01*
X123821528Y-83606432D01*
X123820767Y-83557534D01*
X123821649Y-83500908D01*
X123824885Y-83458285D01*
X123831359Y-83426798D01*
X123841956Y-83403580D01*
X123857559Y-83385764D01*
X123878328Y-83370924D01*
X123917563Y-83355869D01*
X123959879Y-83354149D01*
X124000844Y-83364678D01*
X124036030Y-83386369D01*
X124059539Y-83415342D01*
X124065874Y-83429750D01*
X124070228Y-83447882D01*
X124072937Y-83472968D01*
X124074338Y-83508242D01*
X124074765Y-83556933D01*
X124074767Y-83561767D01*
X124210983Y-83561767D01*
X124211008Y-83543439D01*
X124209965Y-83489692D01*
X124207828Y-83440255D01*
X124204618Y-83398475D01*
X124200359Y-83367700D01*
X124196425Y-83353718D01*
X124164625Y-83302212D01*
X124122855Y-83262580D01*
X124073751Y-83235420D01*
X124019946Y-83221332D01*
X123964074Y-83220917D01*
X123908771Y-83234774D01*
X123856670Y-83263503D01*
X123843987Y-83273472D01*
X123816533Y-83296572D01*
X123816533Y-82956400D01*
X123681067Y-82956400D01*
X123681067Y-83896200D01*
G37*
X123681067Y-83896200D02*
X123816533Y-83896200D01*
X123816533Y-83827669D01*
X123849230Y-83853944D01*
X123900825Y-83884955D01*
X123958322Y-83900651D01*
X124019708Y-83900690D01*
X124065114Y-83890850D01*
X124104225Y-83872090D01*
X124142247Y-83842301D01*
X124174434Y-83806136D01*
X124196034Y-83768247D01*
X124199055Y-83759615D01*
X124203807Y-83734549D01*
X124207357Y-83697050D01*
X124209725Y-83650466D01*
X124210935Y-83598147D01*
X124210983Y-83561767D01*
X124074767Y-83561767D01*
X124074491Y-83610459D01*
X124073402Y-83645572D01*
X124071112Y-83670455D01*
X124067232Y-83688455D01*
X124061372Y-83702923D01*
X124057545Y-83709933D01*
X124030131Y-83741117D01*
X123992317Y-83761648D01*
X123948466Y-83769172D01*
X123947767Y-83769174D01*
X123916916Y-83765195D01*
X123887167Y-83755502D01*
X123884848Y-83754370D01*
X123861477Y-83739238D01*
X123844280Y-83719402D01*
X123832438Y-83692338D01*
X123825128Y-83655523D01*
X123821528Y-83606432D01*
X123820767Y-83557534D01*
X123821649Y-83500908D01*
X123824885Y-83458285D01*
X123831359Y-83426798D01*
X123841956Y-83403580D01*
X123857559Y-83385764D01*
X123878328Y-83370924D01*
X123917563Y-83355869D01*
X123959879Y-83354149D01*
X124000844Y-83364678D01*
X124036030Y-83386369D01*
X124059539Y-83415342D01*
X124065874Y-83429750D01*
X124070228Y-83447882D01*
X124072937Y-83472968D01*
X124074338Y-83508242D01*
X124074765Y-83556933D01*
X124074767Y-83561767D01*
X124210983Y-83561767D01*
X124211008Y-83543439D01*
X124209965Y-83489692D01*
X124207828Y-83440255D01*
X124204618Y-83398475D01*
X124200359Y-83367700D01*
X124196425Y-83353718D01*
X124164625Y-83302212D01*
X124122855Y-83262580D01*
X124073751Y-83235420D01*
X124019946Y-83221332D01*
X123964074Y-83220917D01*
X123908771Y-83234774D01*
X123856670Y-83263503D01*
X123843987Y-83273472D01*
X123816533Y-83296572D01*
X123816533Y-82956400D01*
X123681067Y-82956400D01*
X123681067Y-83896200D01*
G36*
X125036105Y-83222220D02*
G01*
X124968663Y-83235122D01*
X124913628Y-83259203D01*
X124871171Y-83294393D01*
X124845237Y-83332713D01*
X124824067Y-83374592D01*
X124824067Y-83896200D01*
X124959534Y-83896200D01*
X124959534Y-83843895D01*
X124985196Y-83865489D01*
X125023129Y-83887556D01*
X125071407Y-83900778D01*
X125125681Y-83904725D01*
X125181601Y-83898965D01*
X125219903Y-83888751D01*
X125274275Y-83862377D01*
X125315282Y-83825659D01*
X125342607Y-83779038D01*
X125355934Y-83722956D01*
X125357281Y-83696911D01*
X125356783Y-83693000D01*
X125230467Y-83693000D01*
X125222655Y-83725553D01*
X125200646Y-83751299D01*
X125166584Y-83767880D01*
X125161170Y-83769290D01*
X125119498Y-83775316D01*
X125073095Y-83776183D01*
X125030679Y-83771918D01*
X125016933Y-83768824D01*
X124989563Y-83757389D01*
X124972032Y-83739264D01*
X124962607Y-83711337D01*
X124959555Y-83670494D01*
X124959534Y-83665716D01*
X124959534Y-83608334D01*
X125037850Y-83608702D01*
X125103488Y-83611012D01*
X125153935Y-83617635D01*
X125190517Y-83629151D01*
X125214558Y-83646139D01*
X125227386Y-83669182D01*
X125230467Y-83693000D01*
X125356783Y-83693000D01*
X125349970Y-83639559D01*
X125328283Y-83590519D01*
X125293250Y-83551078D01*
X125245903Y-83522527D01*
X125207823Y-83510136D01*
X125178727Y-83505361D01*
X125138570Y-83501514D01*
X125093219Y-83499055D01*
X125058630Y-83498399D01*
X124958760Y-83498267D01*
X124961263Y-83441987D01*
X124965320Y-83404792D01*
X124975334Y-83378879D01*
X124993883Y-83362137D01*
X125023543Y-83352453D01*
X125066891Y-83347718D01*
X125076948Y-83347201D01*
X125127748Y-83347899D01*
X125168041Y-83356097D01*
X125203071Y-83373080D01*
X125214352Y-83380818D01*
X125224048Y-83384337D01*
X125237232Y-83380572D01*
X125257379Y-83368036D01*
X125275735Y-83354571D01*
X125299342Y-83335979D01*
X125316441Y-83321049D01*
X125323565Y-83312821D01*
X125323600Y-83312567D01*
X125316745Y-83300296D01*
X125298891Y-83283467D01*
X125274102Y-83265254D01*
X125246443Y-83248834D01*
X125234700Y-83243124D01*
X125200182Y-83231147D01*
X125158362Y-83223798D01*
X125115785Y-83220570D01*
X125036105Y-83222220D01*
G37*
X125036105Y-83222220D02*
X124968663Y-83235122D01*
X124913628Y-83259203D01*
X124871171Y-83294393D01*
X124845237Y-83332713D01*
X124824067Y-83374592D01*
X124824067Y-83896200D01*
X124959534Y-83896200D01*
X124959534Y-83843895D01*
X124985196Y-83865489D01*
X125023129Y-83887556D01*
X125071407Y-83900778D01*
X125125681Y-83904725D01*
X125181601Y-83898965D01*
X125219903Y-83888751D01*
X125274275Y-83862377D01*
X125315282Y-83825659D01*
X125342607Y-83779038D01*
X125355934Y-83722956D01*
X125357281Y-83696911D01*
X125356783Y-83693000D01*
X125230467Y-83693000D01*
X125222655Y-83725553D01*
X125200646Y-83751299D01*
X125166584Y-83767880D01*
X125161170Y-83769290D01*
X125119498Y-83775316D01*
X125073095Y-83776183D01*
X125030679Y-83771918D01*
X125016933Y-83768824D01*
X124989563Y-83757389D01*
X124972032Y-83739264D01*
X124962607Y-83711337D01*
X124959555Y-83670494D01*
X124959534Y-83665716D01*
X124959534Y-83608334D01*
X125037850Y-83608702D01*
X125103488Y-83611012D01*
X125153935Y-83617635D01*
X125190517Y-83629151D01*
X125214558Y-83646139D01*
X125227386Y-83669182D01*
X125230467Y-83693000D01*
X125356783Y-83693000D01*
X125349970Y-83639559D01*
X125328283Y-83590519D01*
X125293250Y-83551078D01*
X125245903Y-83522527D01*
X125207823Y-83510136D01*
X125178727Y-83505361D01*
X125138570Y-83501514D01*
X125093219Y-83499055D01*
X125058630Y-83498399D01*
X124958760Y-83498267D01*
X124961263Y-83441987D01*
X124965320Y-83404792D01*
X124975334Y-83378879D01*
X124993883Y-83362137D01*
X125023543Y-83352453D01*
X125066891Y-83347718D01*
X125076948Y-83347201D01*
X125127748Y-83347899D01*
X125168041Y-83356097D01*
X125203071Y-83373080D01*
X125214352Y-83380818D01*
X125224048Y-83384337D01*
X125237232Y-83380572D01*
X125257379Y-83368036D01*
X125275735Y-83354571D01*
X125299342Y-83335979D01*
X125316441Y-83321049D01*
X125323565Y-83312821D01*
X125323600Y-83312567D01*
X125316745Y-83300296D01*
X125298891Y-83283467D01*
X125274102Y-83265254D01*
X125246443Y-83248834D01*
X125234700Y-83243124D01*
X125200182Y-83231147D01*
X125158362Y-83223798D01*
X125115785Y-83220570D01*
X125036105Y-83222220D01*
%TD*%
M02*
