G04 #@! TF.GenerationSoftware,KiCad,Pcbnew,5.1.6-c6e7f7d~87~ubuntu18.04.1*
G04 #@! TF.CreationDate,2020-08-05T15:47:39+02:00*
G04 #@! TF.ProjectId,switchplate,73776974-6368-4706-9c61-74652e6b6963,rev?*
G04 #@! TF.SameCoordinates,Original*
G04 #@! TF.FileFunction,Profile,NP*
%FSLAX46Y46*%
G04 Gerber Fmt 4.6, Leading zero omitted, Abs format (unit mm)*
G04 Created by KiCad (PCBNEW 5.1.6-c6e7f7d~87~ubuntu18.04.1) date 2020-08-05 15:47:39*
%MOMM*%
%LPD*%
G01*
G04 APERTURE LIST*
G04 #@! TA.AperFunction,Profile*
%ADD10C,0.200000*%
G04 #@! TD*
G04 APERTURE END LIST*
D10*
X56451919Y-144118840D02*
X56451919Y-157118840D01*
X56451919Y-144118840D02*
G75*
G02*
X56951919Y-143618840I500000J0D01*
G01*
X56951919Y-157618840D02*
G75*
G02*
X56451919Y-157118840I0J500000D01*
G01*
X87077920Y-144118840D02*
X87077920Y-157118840D01*
X56951919Y-157618840D02*
X62702440Y-157618840D01*
X80327920Y-144118840D02*
G75*
G02*
X80827920Y-143618840I500000J0D01*
G01*
X80827920Y-157618840D02*
X86577920Y-157618840D01*
X80827920Y-143618840D02*
X86577920Y-143618840D01*
X86577920Y-143618840D02*
G75*
G02*
X87077920Y-144118840I0J-500000D01*
G01*
X62701920Y-143618840D02*
G75*
G02*
X63201920Y-144118840I0J-500000D01*
G01*
X80827920Y-157618840D02*
G75*
G02*
X80327920Y-157118840I0J500000D01*
G01*
X63201920Y-157118840D02*
G75*
G02*
X62701920Y-157618840I-500000J0D01*
G01*
X56951919Y-143618840D02*
X62701920Y-143618840D01*
X87077920Y-157118840D02*
G75*
G02*
X86577920Y-157618840I-500000J0D01*
G01*
X64762480Y-143115920D02*
G75*
G02*
X65262480Y-142615920I500000J0D01*
G01*
X64759840Y-144119600D02*
X64762480Y-143115920D01*
X63201920Y-144118840D02*
X64759840Y-144119600D01*
X78262480Y-142615920D02*
X65262480Y-142615920D01*
X80327920Y-144118840D02*
X78760320Y-144114520D01*
X78262480Y-156615920D02*
X65262480Y-156615920D01*
X80324960Y-156118560D02*
X80327920Y-157118840D01*
X78762480Y-156115920D02*
X80324960Y-156118560D01*
X78762480Y-156115920D02*
G75*
G02*
X78262480Y-156615920I-500000J0D01*
G01*
X78262480Y-142615920D02*
G75*
G02*
X78762480Y-143115920I0J-500000D01*
G01*
X78762480Y-143115920D02*
X78760320Y-144114520D01*
X63200280Y-156118560D02*
X63201920Y-157118840D01*
X64762480Y-156115920D02*
X63200280Y-156118560D01*
X65262480Y-156615920D02*
G75*
G02*
X64762480Y-156115920I0J500000D01*
G01*
X113893600Y-147096480D02*
X112889920Y-147093840D01*
X125892560Y-148656040D02*
X126889920Y-148656839D01*
X125889920Y-147093840D02*
X125892560Y-148656040D01*
X113889920Y-148656840D02*
X113893600Y-147096480D01*
X113889920Y-131530840D02*
X113888520Y-133096000D01*
X125889920Y-133093840D02*
X125892560Y-131531360D01*
X112889920Y-133093840D02*
X113888520Y-133096000D01*
X125892560Y-131531360D02*
X126889920Y-131530839D01*
X112389920Y-133593840D02*
X112389920Y-146593840D01*
X126389920Y-146593840D02*
G75*
G02*
X125889920Y-147093840I-500000J0D01*
G01*
X112889920Y-147093840D02*
G75*
G02*
X112389920Y-146593840I0J500000D01*
G01*
X112389920Y-133593840D02*
G75*
G02*
X112889920Y-133093840I500000J0D01*
G01*
X126389920Y-133593840D02*
X126389920Y-146593840D01*
X125889920Y-133093840D02*
G75*
G02*
X126389920Y-133593840I0J-500000D01*
G01*
X125892560Y-110556040D02*
X126889920Y-110556839D01*
X125889920Y-108993840D02*
X125892560Y-110556040D01*
X113893600Y-108996480D02*
X112889920Y-108993840D01*
X113889920Y-110556839D02*
X113893600Y-108996480D01*
X125892560Y-93431360D02*
X126889920Y-93430839D01*
X125889920Y-94993840D02*
X125892560Y-93431360D01*
X112889920Y-94993840D02*
X113888520Y-94996000D01*
X113889920Y-93430839D02*
X113888520Y-94996000D01*
X127389920Y-154906840D02*
G75*
G02*
X126889920Y-155406840I-500000J0D01*
G01*
X113889920Y-155406840D02*
G75*
G02*
X113389920Y-154906840I0J500000D01*
G01*
X113889920Y-155406840D02*
X126889920Y-155406840D01*
X113389920Y-149156840D02*
G75*
G02*
X113889920Y-148656840I500000J0D01*
G01*
X127389920Y-154906840D02*
X127389920Y-149156840D01*
X113389920Y-154906840D02*
X113389920Y-149156840D01*
X126889920Y-124780840D02*
G75*
G02*
X127389920Y-125280840I0J-500000D01*
G01*
X126889920Y-148656840D02*
G75*
G02*
X127389920Y-149156840I0J-500000D01*
G01*
X127389920Y-131030840D02*
G75*
G02*
X126889920Y-131530840I-500000J0D01*
G01*
X113389920Y-125280840D02*
G75*
G02*
X113889920Y-124780840I500000J0D01*
G01*
X113889920Y-131530840D02*
G75*
G02*
X113389920Y-131030840I0J500000D01*
G01*
X113889920Y-124780840D02*
X126889920Y-124780840D01*
X127389920Y-131030840D02*
X127389920Y-125280840D01*
X113389920Y-131030840D02*
X113389920Y-125280840D01*
X112389920Y-95493840D02*
G75*
G02*
X112889920Y-94993840I500000J0D01*
G01*
X126389920Y-95493840D02*
X126389920Y-108493840D01*
X112889920Y-108993840D02*
G75*
G02*
X112389920Y-108493840I0J500000D01*
G01*
X113889920Y-117306840D02*
X126889920Y-117306840D01*
X113889920Y-93430839D02*
G75*
G02*
X113389920Y-92930839I0J500000D01*
G01*
X127389920Y-116806840D02*
X127389920Y-111056839D01*
X113389920Y-87180839D02*
G75*
G02*
X113889920Y-86680839I500000J0D01*
G01*
X127389920Y-92930839D02*
X127389920Y-87180839D01*
X113889920Y-86680839D02*
X126889920Y-86680839D01*
X113389920Y-92930839D02*
X113389920Y-87180839D01*
X125889920Y-94993840D02*
G75*
G02*
X126389920Y-95493840I0J-500000D01*
G01*
X113389920Y-116806840D02*
X113389920Y-111056839D01*
X126389920Y-108493840D02*
G75*
G02*
X125889920Y-108993840I-500000J0D01*
G01*
X127389920Y-92930839D02*
G75*
G02*
X126889920Y-93430839I-500000J0D01*
G01*
X126889920Y-110556839D02*
G75*
G02*
X127389920Y-111056839I0J-500000D01*
G01*
X127389920Y-116806840D02*
G75*
G02*
X126889920Y-117306840I-500000J0D01*
G01*
X113389920Y-111056839D02*
G75*
G02*
X113889920Y-110556839I500000J0D01*
G01*
X112389920Y-95493840D02*
X112389920Y-108493840D01*
X113889920Y-117306840D02*
G75*
G02*
X113389920Y-116806840I0J500000D01*
G01*
X126889920Y-86680839D02*
G75*
G02*
X127389920Y-87180839I0J-500000D01*
G01*
X50921920Y-47995840D02*
X50921920Y-157723840D01*
X106824920Y-85445840D02*
G75*
G02*
X107324920Y-85945840I0J-500000D01*
G01*
X93824920Y-85445840D02*
X106824920Y-85445840D01*
X107324920Y-85945840D02*
X107324920Y-98945840D01*
X93824920Y-99445840D02*
G75*
G02*
X93324920Y-98945840I0J500000D01*
G01*
X87774920Y-85445840D02*
G75*
G02*
X88274920Y-85945840I0J-500000D01*
G01*
X74774920Y-99445840D02*
X87774920Y-99445840D01*
X93324920Y-85945840D02*
G75*
G02*
X93824920Y-85445840I500000J0D01*
G01*
X74274920Y-85945840D02*
G75*
G02*
X74774920Y-85445840I500000J0D01*
G01*
X93324920Y-85945840D02*
X93324920Y-98945840D01*
X93824920Y-99445840D02*
X106824920Y-99445840D01*
X88274920Y-98945840D02*
G75*
G02*
X87774920Y-99445840I-500000J0D01*
G01*
X88274920Y-85945840D02*
X88274920Y-98945840D01*
X55724920Y-99445840D02*
G75*
G02*
X55224920Y-98945840I0J500000D01*
G01*
X55224920Y-85945840D02*
X55224920Y-98945840D01*
X55724920Y-85445840D02*
X68724919Y-85445840D01*
X55724920Y-99445840D02*
X68724919Y-99445840D01*
X69224919Y-85945840D02*
X69224919Y-98945840D01*
X74774920Y-99445840D02*
G75*
G02*
X74274920Y-98945840I0J500000D01*
G01*
X69224919Y-98945840D02*
G75*
G02*
X68724919Y-99445840I-500000J0D01*
G01*
X74274920Y-85945840D02*
X74274920Y-98945840D01*
X74774920Y-85445840D02*
X87774920Y-85445840D01*
X55224920Y-85945840D02*
G75*
G02*
X55724920Y-85445840I500000J0D01*
G01*
X68724919Y-85445840D02*
G75*
G02*
X69224919Y-85945840I0J-500000D01*
G01*
X88274920Y-117995840D02*
G75*
G02*
X87774920Y-118495840I-500000J0D01*
G01*
X88274920Y-104995840D02*
X88274920Y-117995840D01*
X74774920Y-118495840D02*
X87774920Y-118495840D01*
X55224920Y-104995840D02*
G75*
G02*
X55724920Y-104495840I500000J0D01*
G01*
X69224919Y-117995840D02*
G75*
G02*
X68724919Y-118495840I-500000J0D01*
G01*
X55724920Y-104495840D02*
X68724919Y-104495840D01*
X87774920Y-104495840D02*
G75*
G02*
X88274920Y-104995840I0J-500000D01*
G01*
X55224920Y-104995840D02*
X55224920Y-117995840D01*
X93324920Y-104995840D02*
G75*
G02*
X93824920Y-104495840I500000J0D01*
G01*
X107324920Y-104995840D02*
X107324920Y-117995840D01*
X55724920Y-118495840D02*
X68724919Y-118495840D01*
X93324920Y-104995840D02*
X93324920Y-117995840D01*
X93824920Y-118495840D02*
X106824920Y-118495840D01*
X74274920Y-104995840D02*
G75*
G02*
X74774920Y-104495840I500000J0D01*
G01*
X55724920Y-118495840D02*
G75*
G02*
X55224920Y-117995840I0J500000D01*
G01*
X74774920Y-118495840D02*
G75*
G02*
X74274920Y-117995840I0J500000D01*
G01*
X69224919Y-104995840D02*
X69224919Y-117995840D01*
X74274920Y-104995840D02*
X74274920Y-117995840D01*
X74774920Y-104495840D02*
X87774920Y-104495840D01*
X68724919Y-104495840D02*
G75*
G02*
X69224919Y-104995840I0J-500000D01*
G01*
X93824920Y-104495840D02*
X106824920Y-104495840D01*
X107324920Y-137045840D02*
G75*
G02*
X106824920Y-137545840I-500000J0D01*
G01*
X106824920Y-123545840D02*
G75*
G02*
X107324920Y-124045840I0J-500000D01*
G01*
X93824920Y-137545840D02*
G75*
G02*
X93324920Y-137045840I0J500000D01*
G01*
X93324920Y-124045840D02*
G75*
G02*
X93824920Y-123545840I500000J0D01*
G01*
X88274920Y-124045840D02*
X88274920Y-137045840D01*
X74774920Y-137545840D02*
X87774920Y-137545840D01*
X55724920Y-137545840D02*
X68724919Y-137545840D01*
X106824920Y-104495840D02*
G75*
G02*
X107324920Y-104995840I0J-500000D01*
G01*
X93824920Y-123545840D02*
X106824920Y-123545840D01*
X69224919Y-137045840D02*
G75*
G02*
X68724919Y-137545840I-500000J0D01*
G01*
X74774920Y-137545840D02*
G75*
G02*
X74274920Y-137045840I0J500000D01*
G01*
X87774920Y-123545840D02*
G75*
G02*
X88274920Y-124045840I0J-500000D01*
G01*
X55224920Y-124045840D02*
G75*
G02*
X55724920Y-123545840I500000J0D01*
G01*
X68724919Y-123545840D02*
G75*
G02*
X69224919Y-124045840I0J-500000D01*
G01*
X55224920Y-124045840D02*
X55224920Y-137045840D01*
X55724920Y-123545840D02*
X68724919Y-123545840D01*
X93824920Y-118495840D02*
G75*
G02*
X93324920Y-117995840I0J500000D01*
G01*
X107324920Y-117995840D02*
G75*
G02*
X106824920Y-118495840I-500000J0D01*
G01*
X74774920Y-123545840D02*
X87774920Y-123545840D01*
X107324920Y-124045840D02*
X107324920Y-137045840D01*
X93824920Y-137545840D02*
X106824920Y-137545840D01*
X93324920Y-124045840D02*
X93324920Y-137045840D01*
X74274920Y-124045840D02*
X74274920Y-137045840D01*
X55724920Y-137545840D02*
G75*
G02*
X55224920Y-137045840I0J500000D01*
G01*
X88274920Y-137045840D02*
G75*
G02*
X87774920Y-137545840I-500000J0D01*
G01*
X69224919Y-124045840D02*
X69224919Y-137045840D01*
X74274920Y-124045840D02*
G75*
G02*
X74774920Y-123545840I500000J0D01*
G01*
X107324920Y-98945840D02*
G75*
G02*
X106824920Y-99445840I-500000J0D01*
G01*
X55224920Y-47845840D02*
X55224920Y-60845839D01*
X88274920Y-47845840D02*
X88274920Y-60845839D01*
X55724920Y-61345839D02*
X68724919Y-61345839D01*
X55224920Y-47845840D02*
G75*
G02*
X55724920Y-47345840I500000J0D01*
G01*
X93824920Y-61345839D02*
X106824920Y-61345839D01*
X88274920Y-60845839D02*
G75*
G02*
X87774920Y-61345839I-500000J0D01*
G01*
X74774920Y-61345839D02*
G75*
G02*
X74274920Y-60845839I0J500000D01*
G01*
X87774920Y-47345840D02*
G75*
G02*
X88274920Y-47845840I0J-500000D01*
G01*
X69224919Y-47845840D02*
X69224919Y-60845839D01*
X69224919Y-60845839D02*
G75*
G02*
X68724919Y-61345839I-500000J0D01*
G01*
X74274920Y-47845840D02*
G75*
G02*
X74774920Y-47345840I500000J0D01*
G01*
X74274920Y-47845840D02*
X74274920Y-60845839D01*
X55724920Y-47345840D02*
X68724919Y-47345840D01*
X68724919Y-47345840D02*
G75*
G02*
X69224919Y-47845840I0J-500000D01*
G01*
X74774920Y-61345839D02*
X87774920Y-61345839D01*
X93824920Y-47345840D02*
X106824920Y-47345840D01*
X74774920Y-47345840D02*
X87774920Y-47345840D01*
X55724920Y-61345839D02*
G75*
G02*
X55224920Y-60845839I0J500000D01*
G01*
X106824920Y-66395840D02*
G75*
G02*
X107324920Y-66895840I0J-500000D01*
G01*
X88274920Y-66895840D02*
X88274920Y-79895840D01*
X112874920Y-66395840D02*
X125874920Y-66395840D01*
X93824920Y-80395840D02*
G75*
G02*
X93324920Y-79895840I0J500000D01*
G01*
X93324920Y-66895840D02*
G75*
G02*
X93824920Y-66395840I500000J0D01*
G01*
X74274920Y-66895840D02*
G75*
G02*
X74774920Y-66395840I500000J0D01*
G01*
X107324920Y-66895840D02*
X107324920Y-79895840D01*
X74274920Y-66895840D02*
X74274920Y-79895840D01*
X107324920Y-79895840D02*
G75*
G02*
X106824920Y-80395840I-500000J0D01*
G01*
X93824920Y-80395840D02*
X106824920Y-80395840D01*
X112874920Y-80395840D02*
G75*
G02*
X112374920Y-79895840I0J500000D01*
G01*
X112374920Y-66895840D02*
G75*
G02*
X112874920Y-66395840I500000J0D01*
G01*
X93324920Y-66895840D02*
X93324920Y-79895840D01*
X74774920Y-80395840D02*
X87774920Y-80395840D01*
X93824920Y-66395840D02*
X106824920Y-66395840D01*
X87774920Y-66395840D02*
G75*
G02*
X88274920Y-66895840I0J-500000D01*
G01*
X88274920Y-79895840D02*
G75*
G02*
X87774920Y-80395840I-500000J0D01*
G01*
X126374920Y-79895840D02*
G75*
G02*
X125874920Y-80395840I-500000J0D01*
G01*
X74774920Y-80395840D02*
G75*
G02*
X74274920Y-79895840I0J500000D01*
G01*
X125874920Y-66395840D02*
G75*
G02*
X126374920Y-66895840I0J-500000D01*
G01*
X126374920Y-66895840D02*
X126374920Y-79895840D01*
X112374920Y-66895840D02*
X112374920Y-79895840D01*
X112874920Y-80395840D02*
X125874920Y-80395840D01*
X69224919Y-66895840D02*
X69224919Y-79895840D01*
X112874920Y-61345839D02*
G75*
G02*
X112374920Y-60845839I0J500000D01*
G01*
X93324920Y-47845840D02*
X93324920Y-60845839D01*
X112874920Y-61345839D02*
X125874920Y-61345839D01*
X55724920Y-80395840D02*
G75*
G02*
X55224920Y-79895840I0J500000D01*
G01*
X125874920Y-47345840D02*
G75*
G02*
X126374920Y-47845840I0J-500000D01*
G01*
X107324920Y-60845839D02*
G75*
G02*
X106824920Y-61345839I-500000J0D01*
G01*
X55224920Y-66895840D02*
X55224920Y-79895840D01*
X93824920Y-61345839D02*
G75*
G02*
X93324920Y-60845839I0J500000D01*
G01*
X55724920Y-80395840D02*
X68724919Y-80395840D01*
X126374920Y-47845840D02*
X126374920Y-60845839D01*
X106824920Y-47345840D02*
G75*
G02*
X107324920Y-47845840I0J-500000D01*
G01*
X55724920Y-66395840D02*
X68724919Y-66395840D01*
X126374920Y-60845839D02*
G75*
G02*
X125874920Y-61345839I-500000J0D01*
G01*
X112374920Y-47845840D02*
G75*
G02*
X112874920Y-47345840I500000J0D01*
G01*
X107324920Y-47845840D02*
X107324920Y-60845839D01*
X74774920Y-66395840D02*
X87774920Y-66395840D01*
X112374920Y-47845840D02*
X112374920Y-60845839D01*
X69224919Y-79895840D02*
G75*
G02*
X68724919Y-80395840I-500000J0D01*
G01*
X68724919Y-66395840D02*
G75*
G02*
X69224919Y-66895840I0J-500000D01*
G01*
X93324920Y-47845840D02*
G75*
G02*
X93824920Y-47345840I500000J0D01*
G01*
X112874920Y-47345840D02*
X125874920Y-47345840D01*
X55224920Y-66895840D02*
G75*
G02*
X55724920Y-66395840I500000J0D01*
G01*
X93824920Y-156595840D02*
G75*
G02*
X93324920Y-156095840I0J500000D01*
G01*
X107324920Y-143095840D02*
X107324920Y-156095840D01*
X107324920Y-156095840D02*
G75*
G02*
X106824920Y-156595840I-500000J0D01*
G01*
X93824920Y-156595840D02*
X106824920Y-156595840D01*
X93824920Y-142595840D02*
X106824920Y-142595840D01*
X93324920Y-143095840D02*
G75*
G02*
X93824920Y-142595840I500000J0D01*
G01*
X106824920Y-142595840D02*
G75*
G02*
X107324920Y-143095840I0J-500000D01*
G01*
X93324920Y-143095840D02*
X93324920Y-156095840D01*
X53969920Y-160771840D02*
G75*
G02*
X50921920Y-157723840I0J3048000D01*
G01*
X130423920Y-157723840D02*
G75*
G02*
X127375920Y-160771840I-3048000J0D01*
G01*
X127375920Y-44947840D02*
G75*
G02*
X130423920Y-47995840I0J-3048000D01*
G01*
X50921920Y-47995840D02*
G75*
G02*
X53969920Y-44947840I3048000J0D01*
G01*
X127375920Y-160771840D02*
X53969920Y-160771840D01*
X130423920Y-47995840D02*
X130423920Y-157723840D01*
X53969920Y-44947840D02*
X127375920Y-44947840D01*
M02*
